<mxfile host="app.diagrams.net" modified="2024-05-05T11:06:08.083Z" agent="Mozilla/5.0 (Windows NT 10.0; Win64; x64) AppleWebKit/537.36 (KHTML, like Gecko) Chrome/125.0.0.0 Safari/537.36 Edg/125.0.0.0" etag="VRdUeFaMmzI5Gy58HKJX" version="24.3.1" type="github">
  <diagram name="Page-1" id="McCX37M-9BVXXr7MZ8Cc">
    <mxGraphModel dx="1829" dy="535" grid="1" gridSize="10" guides="1" tooltips="1" connect="1" arrows="1" fold="1" page="1" pageScale="1" pageWidth="827" pageHeight="1169" math="1" shadow="0">
      <root>
        <mxCell id="0" />
        <mxCell id="1" parent="0" />
        <mxCell id="3JHxnx4TPeOH4EBhY94l-1" value="" style="rounded=0;whiteSpace=wrap;html=1;fillStyle=hatch;fillColor=#787878;strokeWidth=2;gradientColor=none;" parent="1" vertex="1">
          <mxGeometry x="-180" y="30" width="69" height="45" as="geometry" />
        </mxCell>
        <mxCell id="3JHxnx4TPeOH4EBhY94l-2" value="" style="edgeStyle=none;orthogonalLoop=1;jettySize=auto;html=1;rounded=0;fontSize=12;startSize=8;endSize=8;curved=1;strokeWidth=2;" parent="1" edge="1">
          <mxGeometry width="120" relative="1" as="geometry">
            <mxPoint x="-145" y="53" as="sourcePoint" />
            <mxPoint x="-145" y="112" as="targetPoint" />
            <Array as="points" />
          </mxGeometry>
        </mxCell>
        <mxCell id="3JHxnx4TPeOH4EBhY94l-4" value="&lt;i style=&quot;font-size: 20px;&quot;&gt;m&lt;/i&gt; = 1 kg" style="text;strokeColor=none;fillColor=none;html=1;align=center;verticalAlign=middle;whiteSpace=wrap;rounded=0;fontSize=20;fontFamily=Helvetica;" parent="1" vertex="1">
          <mxGeometry x="-110" y="34" width="88" height="30" as="geometry" />
        </mxCell>
        <mxCell id="3JHxnx4TPeOH4EBhY94l-5" value="&lt;i style=&quot;font-size: 20px;&quot;&gt;mg&lt;/i&gt;" style="text;strokeColor=none;fillColor=none;html=1;align=center;verticalAlign=middle;whiteSpace=wrap;rounded=0;fontSize=20;fontFamily=Helvetica;" parent="1" vertex="1">
          <mxGeometry x="-170.5" y="104" width="50" height="32" as="geometry" />
        </mxCell>
        <mxCell id="J20eFiYMzJtl_OIaUztq-1" value="KCET 2024" style="text;html=1;align=left;verticalAlign=middle;whiteSpace=wrap;rounded=0;fontSize=24;" vertex="1" parent="1">
          <mxGeometry x="-760" y="40" width="150" height="40" as="geometry" />
        </mxCell>
        <mxCell id="J20eFiYMzJtl_OIaUztq-3" value="PHYSICS, VERSION CODE - &lt;b&gt;C2&lt;/b&gt;" style="text;html=1;align=left;verticalAlign=middle;whiteSpace=wrap;rounded=0;fontSize=20;" vertex="1" parent="1">
          <mxGeometry x="-760" y="80" width="320" height="40" as="geometry" />
        </mxCell>
        <mxCell id="J20eFiYMzJtl_OIaUztq-4" value="Name: MAHARNAB DAS" style="text;html=1;align=left;verticalAlign=middle;whiteSpace=wrap;rounded=0;fontSize=14;" vertex="1" parent="1">
          <mxGeometry x="-760" y="124" width="160" height="30" as="geometry" />
        </mxCell>
        <mxCell id="J20eFiYMzJtl_OIaUztq-5" value="CET NO: 139100362" style="text;html=1;align=left;verticalAlign=middle;whiteSpace=wrap;rounded=0;fontSize=14;" vertex="1" parent="1">
          <mxGeometry x="-760" y="165" width="160" height="30" as="geometry" />
        </mxCell>
        <mxCell id="J20eFiYMzJtl_OIaUztq-6" value="" style="shape=image;imageAspect=0;aspect=fixed;verticalLabelPosition=bottom;verticalAlign=top;image=data:image/jpeg,/9j/4AAQSkZJRgABAQEAYABgAAD/2wBDAAMCAgMCAgMDAwMEAwMEBQgFBQQEBQoHBwYIDAoMDAsKCwsNDhIQDQ4RDgsLEBYQERMUFRUVDA8XGBYUGBIUFRT/2wBDAQMEBAUEBQkFBQkUDQsNFBQUFBQUFBQUFBQUFBQUFBQUFBQUFBQUFBQUFBQUFBQUFBQUFBQUFBQUFBQUFBQUFBT/wAARCAK0BkADASIAAhEBAxEB/8QAHwAAAQUBAQEBAQEAAAAAAAAAAAECAwQFBgcICQoL/8QAtRAAAgEDAwIEAwUFBAQAAAF9AQIDAAQRBRIhMUEGE1FhByJxFDKBkaEII0KxwRVS0fAkM2JyggkKFhcYGRolJicoKSo0NTY3ODk6Q0RFRkdISUpTVFVWV1hZWmNkZWZnaGlqc3R1dnd4eXqDhIWGh4iJipKTlJWWl5iZmqKjpKWmp6ipqrKztLW2t7i5usLDxMXGx8jJytLT1NXW19jZ2uHi4+Tl5ufo6erx8vP09fb3+Pn6/8QAHwEAAwEBAQEBAQEBAQAAAAAAAAECAwQFBgcICQoL/8QAtREAAgECBAQDBAcFBAQAAQJ3AAECAxEEBSExBhJBUQdhcRMiMoEIFEKRobHBCSMzUvAVYnLRChYkNOEl8RcYGRomJygpKjU2Nzg5OkNERUZHSElKU1RVVldYWVpjZGVmZ2hpanN0dXZ3eHl6goOEhYaHiImKkpOUlZaXmJmaoqOkpaanqKmqsrO0tba3uLm6wsPExcbHyMnK0tPU1dbX2Nna4uPk5ebn6Onq8vP09fb3+Pn6/9oADAMBAAIRAxEAPwD02T760i1HUsa16BkPRKPLqXmneVQBWRK0LWV6rSfu5K0ookpgQyD95H5j0ySxerckK1PHCbiR6dgMtbXzP9XTLlrex5nuUi+fy/8AWV4v8cPj5deDbu28JeCbdNf8cXTfc++lqn+1XlPiv4V/GqTwTNqf/CW3F7rF1Kvm6Nbj5EU1k522Q7H2L+7/AOWlzBF/20plxYzf6x1r5B0r9lPx5caLp015451Sy1iR/wB8mx3RErYi+B3xq8KrK3hz4h/2tb/3Lgff/wC+qXM+wWPpyH/WAYq1tFfOA+MXxe8AaeieI/DFtr6R/wDL3Zo9dl4F/ak8F+KttrqE03hvVf8An31H5F/KmprYLHrsUv71K0JJPJtayra48yJJ7W5hubf/AJ6RyU+4uvtXl/JiOtBBb/vq1bPYHQ/89Ky7ObykzVi1uf3sfpQBpSfveaoX0jyfSn/bqo3sjfaE8t/4KYhZN/8Ayz6VFHu/jpqT+ZtGykkkpDH0n/LOok+9U0uykBPYxHypJNmaSW686mQ3Xk+ZVVG3o1MC9a3MK+ZV2PtWLbSfMDWha3yWsUkclAGvH2qjdZlk/d+ZCaz5NUfzMxpitS3i/wBKQ/7FMRm+X5N5bCT/AJZvVy/hq5dWqTbM0zy3lk8vfQBchX93HU64pPLaPbmjdTAJZPvbarJTin7lhVG1mebvQBcemySYo8xvLqGTf+8oET28mY98n96nWJ2W+z/aqC1k/wBHqW0l83eaBk0LL5sv+1Uq9Kaq08n5qAJP4KbHTYt/mHFH+roA1Yf33l1Y8n3qpp/3o/rVubtSGQzf0qr53tUn2zzutVaYGtSpdQwyeU5xVaSF47ESf880qjGDdMgpAadjN511J6R1L5MVV9P/AHPmU+6Lw+XiPNAE3lmn/N7Vm/bDSfap/wB3QBpf886juNm/yo+tQahKf3fl1Dp/mTUAaMf+q/d0eW/l02aN5Y4fLfyfnqf+GkBTm+6Klso8b6rXf3RR50nlUwNBB5cm+pI5vM6VTh/1FOt/3Xzj/VdqQF5WqRWxWbcu8nl+XVmJmjHLZpATb9rUtx+7+WomZt27+Oo5nZ13t/rKAJd2xapRakl1HIYxJ+75qfzP3aVAlsJJChqgJrdhJChTo9LJHTLG3eHyx5nm/NU2+gBfljhX0oh272xTZI/MpvltHQBLzUUkdRzSTRyJ5fNSwyC5iEg6UAPhfdGKpTTfvam8wVS+eb/tlQA+7/cyfuutQTfxfjWjIvnRpWbqBzdPEKYFB6Sp/K/0SWT3FUoFOzLNk0CZKBu+lNkfauafVOeT5moEWFcMfl6U8DdWbbzNLcHZ0HWrS3BXfkdKALkezvWhP901XaKSGzjPbNUvMkkkU7iTQUbVjcPLcLGRwBWgrbZd1Y2l/ub5Qe4q9bXnnXRi9KQF52+bFTxL92qFxL5MkI9atStv8tvubKQFipodv2R/9hs1V85vMVt3y7asLMsdnKO9ICi0rJN935Klj71FvV+jU+13SSgUwJV60jUM21ttLSAZsoZvlK0yd9m2m7vloAdUe397RvNOVvmpgO8sJSMwp7SblqlHu8zy+1AF3aKQfLmn7h61EtAFe4ujDsz3q0udtRXEayNzVJmlbVkH/LJEoA1N3zcVNJIHZdvFQr2o/wCWnFIAp6tUe75trU1l30AWPvRtUUt4tvZu+z51XNVWuP3MyRvmWNKz7OLzof8AWU7AO0NxJNLv6531PZ3CiHfHyKrQ2ckEknlSfpS6b+7jnjPPlnZTAvVUurNJ5BLVuP8AeUkieWhcUAcu775GPfOaaygrVrV4BJZiNHMdy4Q+ZUEab80xFeHZmRkqOymlkkPmDFU4bpjNPbn+/wAVdtO9Ay/HM8LCRDg9qiWQ/wAQxUU37uwlIf8AeZ4qG2Hkjy6CSxn92zpST3KW0DSt0FSKo2n0qD/lnQBPZbVi3j+Ns1Za4MkeDVaHGwbaljK7sP0oGSQyLE2aPOX+7UH8NKflUGgB3mImP9qp/tTev6VD5a/6P8v+c1LFFuoAu2kw/ey1ZqnDNmGSj7X5FAx9xqS27YUZpv2yPycYqpDGk0uKmh8vzqAJIZv31WZqp3H+uqeH/UyUARzZhh83/nrRNSyN501uP+edTzQ0ARfbBUMmoZkQ+X0qWoYbSTzfMloA0Kq1IjC6kS3PTvUmpww2a5I5zSAq3V0Y4sCsWaNY7rf3ZcVO0jSEs5yao69cPa2cTxnEmf8AGmIW4uNlVIblpZo498maz5NQLeXjtUujxk3hftikBv7uwFLRSRtuamArbvvUSfKtScbWWqMm7Z9/EdAD/M/eYrL1e3a6njt0byuP9ZWnbneqpsxS+SKQiG13x2qCR/3uyp43zGDTmqv8/wC8/SmBJu81HRx9abHbhaW1/wCPOP6VH9ui3bPM5oAlklbHyDNQQ/8ALPy6f5n73zO2ym2P3jQMlkjzUMMNOvf9bF9aLePbITQBaT/V1VuJJVuIMDzB3qd/3dNjUSTH/YoEaHyxxp61BwzUqlppCo609f8ARZG3pz6UDIpI0O3vUkTLuXI4pgYNzTo/vCgRftP4Kdq03mJGlQxeXFDJ/wA9aIv33+sNBRXgj3SYq/5ZqvLshm45qxH1oAfFLVOb/WmrPz+9RzQyUAWLWLzpafMf+JhHH2qO18yGaP8Ad1Lb24nuBvfypfnkcUgLcdvH/c4qWONYulOeRRS0gF8ndt2pT1/1y0xW/KpE3ebupAWt5jkqpcMtTbmkZap3Uj7k2Jn5qALq7tqrtprLipNi0uwUAIq/JSquzbUsP7tajRPn+ekBNT6Yn7tEod186LYtIDV+9tap91VYN22pqRRYoplO/hoAWiRtq0m6pGXdG3y0gGW7GTNTwL1pIYxHGKnVRipYBVhPuiqrON1Wo26CpAsK1Ppm8bgKdnrSKFpy0xaetIk+QKlSP5Fo8mnR7q6iR3me/wCtTRVFHHViKKmA3y/OlFX1jqtDHzVleopgSmPy64n48fFBPhF8I9X1pNn9qTbbW0/66vXa3H7yOvlf9ofw/eftBfHCx+H0N79j8N+F4Fur6SM/8tZaibstBo4L9lf5fHl94h1PW/7TvIYWnvHHz77g/wC3X2Jb+bFd73f/AH64PS/g/wCGfDfg5/Duk2X2NWj2/bI/v13EKeTZ20G/zfLiWPzP7+2ognFWYMkTfHJK+9/MdqSP93spals40lk8t0rQRq6ZfyyW9Yni/wCFfhH4iWnk67odtcSfwT+WnyPXQ29t5cWyOmfaHikp2vuB4D4i+G/jD9n23u9X8Gu/iPw2NskulD53RP8AZr034c/EPQvi94Ph17Qrn95H8l5YSfftWrure8ePf8n7uRPnjr50+IXhS3+Afxw8L+MNCdLHw94rn/svV7XqiSn7jVnbk1Ww9z3D/ln8lVWaSPbitCTrVO5+8tWIVGe44Slj/jqBcrUsH+uf1dcUAJH/AKxKk8r/ADioJI5beRHfipfMNACbzTv9bUdX/wDljQBVkjxyKZar5cjPSzbt3NR7vloAfasYpGL04nzXd3qJVb61Pbx7pBnpQA6KL97WmZJjJ5kf+tqhHGft2K046pAWY/3sfKYp6R/vKdDUm75qZI/+Gmx520tFAyK5by481FaojxMgqZmrMubJ5blLiKgRounl1Ws5HMc3metNjkeWUpI/7qp5D5QoAjt/45KnTbFG3pWfJK9rbeZH+9+erto0k4ZzxSGWfu0qybNtQu/yLViCB1t970xDlj+ZhRcK0as+P3frSfNQ3md6Ci7CHWGCR/u5q3N/x51TSN47cp6nNXp7dJ7OKCSTyTSEZ1kzeXMMcIvmNSxv/pT0sMP2Uaig/eltqeZUstjJ5cktAye6u/3NN0y1eEyGTiiwi/0U+ZHV2KgCpa7POuJe1SzahPHv8jb9ZI96VJJ1qKGN/Kk82OgDP/0iThtm3/pn8kdaFrF+5qLyZPSrHlvFD70AVdQ+9F/10plrvh8zt89TeVPN1q1HCg34oAfH+9t80+P95HT9lM/1cdSBnyx/6V5fl8VblPk806Pf5lP8vzHpgVvOfyZJPL5p/mP5P/AKtrFhaYqfMqUAVjIasLNEvkoz+X5n3KpQxvFJ5cnIqWXSILi8trqbfJLB9zmgC6qVJN/q1pqrvp06u1ICJvmgiTZ5exarXFi0cKXUZk2CrLfw02SNpI9iPg0wM77dN52McVeqodOaYh5H8qKP/lnV13+5spgJJcJF1NP8xaqT2Jun5NTGAySAn+CgB08hzDs9abbyZ31TkjeKTMlaFAEMnSqtp5fmyYxVm6jfypHHWobG3aG3XfxJJQBdrE1pdsgf1ra/hasq+jkuowcUwKtx+70e33epqgr/ALstVmS1mnjJzms9rWaW3eCM8kYoAs28wuIlYdDWdDN/pVxHU9hby27SeY27NLHpsCcxjFIkjtYU82TFW4P4fpTILdl37hsy+eKmClaYD52ZduWzxRuqe4tzGoTvU+l2zGZpf+WcdBRHcKYbZR6mprSF4Y45h0qS8/fQ8U6xtneQxn/UUAaEkMUsiSSDJHSrCsr1UhszDHgGp0t2+X56kCRvlY1DJcNtdQmatRRrvXf0qitrsunZ3z83ye1AC2UYt7G3VB5e9d7PTo3dbuLY+Bj546n8ks1NhtBbsWHegCb7zUlFFIBu3ctJ91anj2pDLvGRIrJVS0tVjtRH5uXQ0AEkgabye+M0kJ8wUn2c+ch9Kllh3267eNtMBN38Peqayf8AE0Qe1RRw+ZfSS7/KrSt4Y4+n36AF/iZacF+YrQtsn2r7Tj97607b81IBvNQyJ/pERptrMJoYpP7+6rMa/Nu9qYC/LRbyATB6R496MlLDpx+QMz/WkA1l3Oz92amtOlujF3w1SttRVWOs+bS1ulZ5P9b60ARRK8PmH/npTo+1WIrYGLy+1PEKxjYBxVAZ+myC5t5HZud9Sfu5v+eZqkdJVryRv9SvarcGlwL2zQBLb8fu/Skvm8mEmraW4Ta1Vry3F0u00AYN5MJrolv7tFnN5Em+p77TJGmwPmk2ZNXLHQ4fKQtzQByGpWe3UIu2/wDeSfhUsd0lsvmOcRVu69ptvbz2xB/eBaytQs0vLVIzx3oAgvtVW2wMZNQ6W011JJLL07Va/sa23b/L5+tWf4KCTNiv83Uj/wDLH1q5TlsY9+WGTU+00AJD8sYHtUkFs9zNtQZakjj3cCp4WSI5PNMZW2kGn/w1Lcf6xfk2+1XP9TD7UAZtWhN9n6VLcf41JQMpeYlMkj27Peo9uyrlAEKyGFvMFItxI7eZnmrNrJH5eDUk3lzeX+7oAr+XLNdeZ5fybc/hWpDVaG7/AHNL5yXkdxHQA+Hy5ovNqvqV48ckSRnAUZq5aSf6LHUrW8d0OeaAKUlPtY5gbirM3+spIpc0ALp8JiXfJ1qhrTPJMseOKuLfLG/zpiL1qCaRNQuHHWIUgMiRV3Lj+7WN4wlW20Nif9Z1St63qnr1ukmhzUAcnDZytF5gGRW9YweSDJ61U0zc1skb9M8VpJA1uuxelAixGxZttJGsjSt3Han2/wB05+/VmOFY5A56UwMzWpJbGJCifNvXiry6eDaPcN0zj60XEYnhT++lXE2SWKeZ2NAGKbVnvraZZMRwReWkdWtp2mpNojWm0DIqGwtSN96iaL5VY96BFa4mWCAyHpVW106MKJ/L/e4zVyWNJoyjjIp9AFfyf84p0fSnyUImKBEu3p7VUt7N47x5XmzntVqNt3FSxqOlAFZ408zzMc1Jap5asRUi7VkG4cUsK/LQBYsyscchNSyQpNzVaOMmMmrvOUoKKM1r5XvSQx7iBUq+ZbRsGfMfmtspYf8AXUAO8k+1S2sfleZ+8xSfav8AOKg83975lAF77J++jq39lHm57URCOHiKmed7UgHwwU+O0jXtUdjN50klWsikBHLths87P3nmf1qWziji3PGmMrSXEnk2rGksW8yNjQAyDf5hzVyH7nyrUEJZ321wfjH9oDwB8N9Yk0PWPEMcGrwt+9023/eulJvuB6G3yNUifcrE8M+MNF8caTb6z4f1CHUdOm3DzI/7ytt21trt3LQBYSP7ro9MrD1L4ieF9J8X2/hObW7YeI5oPPTTU+Z8etdAY/LjpARc0mxt8T+b+7T7yUqrmpZ40t03vKkcdMCaTvTo41x603buZV/vMqVy0PxY8LSePZfBUd+LnxHHtd7O3+cwr/eaoA7FofnWlhh8tWZ6P46FagZaj70+oV6VYXFAyZfu0Vl+IPEFj4V0W51XUXkjtLYZcom5q5v4Z/Gjwn8XJtSi8N6gLqfTwouYduHj3VIHexr8oqWP7zU3+EUqfe/2mpAKy/LUoxtpm2nx/dNIAZA9TRr81MXpUvNIB6t81SrUSfeqRetBQ5W4opqnFO3e9SSfJlJH2p8g8qnxx11Ej6txx/u6r1di/wCPdKaAYlOj7UtvH+8enf8ALT8KYizDHEd7z/6qBGkf/gNfPf7NemvdeCNZ8YXRMuoeKNbub15Jfv8AlI+1P6V6R8avE03hX4ReM72P/Wf2cyQ/77/LVXwHoKeGfhn4J0hDs8jTI8Z/2vmaofxFdDTM1Xfl8uqt5HFZQ3Mt1c2tsYE3vHJcIlReGfEmk+Jre7/s+9huLm1RftMaPv2bqYjYht+aspb1Svr620q1+1aheQ2VmV+/cSbDsWuOsf2jvh/e6klkniG2jl3eX+8ouluB6en+rqKOPFWZ4E+yW11A6XNndJvS4j+5Uf8ABVgOh24ryb9ra1jvPgzNdOv7y11TT57b/Yb7RXrS529q8l/a0ult/gxY2/8Ay0vtesbaKP8A2vO3VE/hYLc9I1KqMm2aRPSresXB+0JGn91apW/7ymAvkj0q7psP+sqtJI/+r8uOuQ8SfFrw94P+JnhfwLqF2kWq62jb7jzE2WrfwJL/AL1K6W4HUyMZTUf8NS3Vs9lcSwP1jqNvu0AIn3hV3zSP/wBdcf8AEjxNrPhHwTd6toWjzatcw/vJjH/Aq1z/AMEfjlcfGT4czeITpaWUsN81j5eN/wB1N9LmV7AejXEysc9KgqpZ3DzROZBV1fu9KYFzT/K+RJEeLzF/1lWPK8mo7P8Awq1Jv3TeWn7zZ+5/36YB88NSWsvtXzlN8d/Ffgn43aJ4D8U6VEf7WfCukn8MjeWn8q+lWtxZ3bo6fvI3pRkpATSSeXyar/av84qC+usUeV53ly1QjUSnt8sdRrtqGa4RZUjz+8piHf3qaZPLpsn+rrzz42fFO1+Efwv1fxPdxfaZ/NW1sLT+/KaTdldjseh2kLLvymKg1VvLkgPvXzFrnjr4w+Cb74ea1e2SajaeIJVd7WzTf5Kt/BX0jrGyS8mdP9VJ+8SpjLmHYj+0v61o6ZPutRntWLFU8Mz+Z5fl1QGz5lXVkbcuOtZ1uHkEZKSD61eUbMUxFyGpciq+4+lP8+SLtQMsVa/5Y/hWfbySSNgGtD95DD7UAPhhP41PHCfSorFhKJPLplkWittj/wCsj30gJdpqWNTiosmnWqq9wUdvLMn/AC0oAsolQ185/FX9r62+F9pqiW3hbVtWvLKXY88if6PXo37P/wATJfjF8ItK8ZzpsN5czQ+RhPk2Z/wqFJXsB6NTbiTEcPyVFa/vqqa3pt/rNpeRaTd/YrzyPLt7iT/nrvqgNO3VpIHco/l+9Jb28VrG6R7vn5r5c/ZV+I3jLU/2iPiR4D8Taw+pWmgwTESf7YlSvqf+OpjLmAkpOarfaPLt3k/550vnf6H5lUBMlPSoIEl71NzSAlj+f+Fqq+ePWvL/AI/eJ/H3hnwrp1z8PdIXUtX+3Kk2OdkVel2f2i80nT7m6thZXs8Cvd2/9yVvv0dbAS/6z56sxpUKKtOe68mQIvWgCzTvlf79RRybqFZXbb/HQA2RV3fLTVXZGzVLJDJHLh1xRsZ1Yr8+2gCDzlbatSrHvqu3399TRS/LupgHFOVqbt3URttbfSArX24hEHc1JVdriW4keMR4AapIZMzEVQEyfvI6ZcQrBszJ5knanru+Zf491V7rdDMJG6dKQDpf+Pd/nrPvP+evmZqea6SG1jNVpJpJI3jktPNiqgIJv3MYkHWq9nu+0Hy0yafeN+5ggRMeX9z3zXOeKPDeo+KNLl0vSdck0S8DrIs8ab9j/wC2lIDoWiCeY3ZH8uo2IbpXzp+xD8RPEfxAtfila+JNT/tI6TewR2/tl5F/pX0VGpPCqxqYy5lcTWoBeBUwbYqBxxTZI5LfblXj3DjNMZj5O/55ZdyokcaVYF67z/ZfmSeZ88qpHVnRoW8+VCMYxXxf+0fceMPgz8Tvh1f23ie4uf8AhI9T8y5sZG2w/LLHX2zN/ouvMqH5FTms1K7aHYq3Vu7TPDjzZI28vmtOGExx7hE0cdUrebzrxd/pXyz8N7zW/A/7fFz4HbxPfalot1pU108Vw+9Tui8wUSly2GfW3y7Vp0bbd1NjVvLj3r96pGhkSbZt+emIN3y1FcQrJdQTd1qbyWqGmgDzH3NVqJv9HcVX/gp8EbSL8q5pAFJzUixt/B8+3+5Tf4qAIpmb93UsdJTvLkVN/lt81AB/FSq3y0qQt6U1Vb60AUri1RZkNXo/LX5f46iuEImb5fu1FBKJbfzkf939zzPu0wLnzSfJtqOSuc+JGk67r3w48Q2Phm5Sx1y6g8m2upP4N1VvhD4V8R+DfhhoejeKdV/t3Xo93nXSc/hU9bAdTCqxsgx8i1Y3L5Lzb02JURiMatvXZUt3b7dGura52QCdvLj5+/upgPtBFeZMMqSf9c3qRZFjR6+NfDOn3vw//wCCgVn4XGt3l5pE2mvepayv8vmulfYbBvMl/wCWmz73z1CfMMhb5Wpyrvpbi4isbW4vJ1/dW0W+X/Yrz79n/wCJd18Wfhf/AMJXeokUNzfXcVsI/wDnlv8Ak3VV9bCO782JGm/fw7Ifv/PSTPhglfE/7cHhk+DPHnw01bTLyeJ9d1thdiOT5Hw8dfbetwmDVHEKJktsOaUZXbQyu8i0sK76zY7i3jv0ieeP7TI2xLfem/fW3b27SbkQVYhjNuWom+9Tpru0jm8l7qHP+/TWxKF2/vI3WgChfx7pIvrS2159mvpBIcRycg028ureW4ggS4gk9f3ib6hurhLVgHXJpgQakwkuzu47VQZhuCirOqYaWN06EVg6nrNppHlJdX9vbSz/AHI7qVEoEai8ZpUG1eKrQatpt3Gn2XUrW5nkXKRxyV4p4k+M2nyftK+FfCGm6/bSafp2nXL6v5f3PtFJySHY90Ztq00VUj1TT7yNJE1KzEEn3JZJ9iGm3etaTp9gdQvNY0y2sEfZ58l2v3qdxFvUtRs9G02S+vbuGyt4fvySPUmk3Frqmj2eo2lx5kV1XnvxQ0/wd8WPh3daZeeJbOOwuXUh459jvteup+GPhvQvhx8P9G0bTbhpvD+nwZS/uX3I+75nbfSvqM6S83wyGOrEPmeT/Kuf1j4keFNKje5udZs/sqD57qJ96I9T+GfHvh3x8Zf7C1S1vDB9/wAtkei6A29z/wCzRtf/AGaraprmk+E9IbVNe1GLTbOP/lpcybK4X/ho/wCHlq1yLnXYQUVnzGCn/oVDkluB3k8X2epRHJPDKa434d/F7w98XTqE3hy4d001tk0cv8FdfdXTT+XFHTTvqgIAqW6/O/PoKuJ/qIq8u1T9oP4eaFr1xpNzr/m6hAyps8n77tWz4q+PngD4f3seneItZ/sm4C70MkdLmXcDsY4y0vld68z+JXx4tPhEq3OoaNJeWu1p5p45NiQpv2pV3xN+0B4I8J6HpGtancXVvZ6xG81pMI/+WX+3urm/2hNYsPEX7GvjPXdLPmWWoWKG2fy9j7d9TKWjsxnpvwv8bWvxM+Huk+LLS2a1tNQ3bYpD611fmKP+elfJnwI/ao8DeAvgB4I0e6XVNRvLW2YXKaXb7/Ir6G+E/wAVPCnxk8Pvq3hm/wDtCQN5csEsex4KUZJrcLGJ8QPj/wCGPhv440HwjqX2mXW9W2bUjj+4jfcdq76zvPM3/aFEfl14xcfH34c6n8XtA0/UNHk/4TTzfsWnT3tp/q/9169V+IXjHRPhf4UvvE/i/UfsekWrbOP9bM39xUpqW7EXx+/uj5kleCfH/wDad1D4F3yve+DftOiXU62ttfb9nmY5JpG/bM0TSf7GvdZ8KajoHh/V59lvq1wa4v8A4KXbJfgX4Euo5vNt311nST/ZaI1Mpe7eLGl3PqTTJHuLS3n2SRRzxK6Rf71VrpVkV0k6HivnjUP22tMh0PTrvTPBviTV9Lhs4vO1KODybavY/h/8QtE+LHgnT/FOhSOLS64e3k+/C/8Acq1JS0QmmGnqgm5/5Zvmtmb/AF8dV7qPyxXn3xY+LT/B7TX1qTwvqGv2ixb7m4t/kSGm2orUNz1CNGWp1G9Hbbmvm3wx+1V4w+MFk7/DP4efbRarvvLq83bFP91a7f8AZz/aEj+Mmraz4f1rTm0HxhpG77Tpsn8eH/hqVOLCzPXcmmzXBWAR9hzXinjL9o/Vbz4uat8Nvh5o39o+INPU/aLq8j+Xev30rE8PftD+L9D+NenfDz4j6PCmqagUFvJp2zZtaj2iHY+kWhi/slJP4s1R7/LXnf7Q3xW1L4cx+FvCXhq1trnxh4kudltJefJFCv8AfrzH4gfFb4u/Cy204a9ZafeyajeR2v2u3A2Wu9/k3LQ5pBY+ktw/iNQNcSSYw+Y3ryz9or4n6r8P9S8K+BfB/wBn/wCEv8TthL68+5bW615x428c/GX4V6t4efV5rDxH4f1C7jtbi+srT7m6hzSFY+lWlTHL01mkjX7jFP1rx79or46/8K01fRfBXhSGG98d+IXi8o3H3LaJ/lRnrz74la98UP2bI9M8Ya14qtvFmlvcpDqNh5Hlfzoc0gsfUyRYdT/s4px3on+rY14h8evjtd+Ffhv4YvfCtkI7zxoVjsdSuPu2StXFePtD+Jng74dx+INA+Iy+I5P444m++tJ1Eth2Pp21k3STfWrisyc5YVxvwh1K/wBe8Pvc6j5kt40ELiST8q7i2i+03EUar99q0Turkla4DzRnyuDV+x09o1RD/rI/vxx/P/6DXzf8UviLq3xa/aT/AOFL+EdWm0TTLY51TULdNz/InzotYHxfi179jXxd4P1PSdfuNc0DV7lrW9/tF981Ze0+4qx9aQ2byQ/IkgNT/J9h/wCuf+sr4n/a+j8ZfDSTQ/G3hHxJrFloGsfJffPlbavSPjDp7aT+yzp2s6R4nv8A7RDBD5M38WoXEtPn302Cx9ByM7TxwurRyf8APOSOl1NrfTzm7uoLWT0r5uvNU1P9k39m/UvEWp63c6940uki/wCPyTzkguJa434JfDXwz8UPhsniz4gePrr/AISjWnmut8mreUkK9vko5+lgsfYclvKph2RvJ5ib0pluq3mzy5klj3/P5Um/Zt/3a+Wf2T/iPf8AxZ03xZ4CudduZH0ufZY6jE/zzW/3a8X+H3g7xZ4o/ag8SfCzSfEepWOiJPMl3J5+94YE+/s3UvaaJpBY/RldTsb64aCxvoLmWD78f8dSNu2npXgv7Of7NOrfA3xl4jv7rxS+o6JdfJp1j5jvv/22r3k2ztDHFH/c8ytIttaiLWl2ss03ycxx8PJ61jt8QvCvnPD/AMJZoMc6DZtk1KLfurz/APaas/iFqXwd1Kz8DXH2G8f/AI/vL+Rxbn7+2vn/AMfaL8FvCf7Pl/pcE9re/EW10tZHks3eW58+s5SaY0j7a8sTRwuWSVH+5JHJvSn2b7oa8P8A2HdcvfE37MelajqErXN2l5PbeZ/sq9e2x+WJOKuL5lcRneNvHOj/AAw8Iat4h1bUodPFtBIbfzZPmeXZ/DXyD+xJF4N8d+BfiHrXiO9tY/FviS+eEyXMifaY4OwXdX058dPBOheLPhr4o1LWLEX19pOk3M1lz8qMENfOH/BPz4N+Cde+B83ibVtJj1XV7jUHtjJcP/qV4rKV+ZD6Hv8A8H9E8EfBHwHZ+EtI8WWuosk8k+28uESX53rq9N+MPgbUvER0K18U6bc6ikjI9vHPu2Y/ir4J/ag+GNvo/wC1/wCHPBXg+a50GHV7e1a48q4P/LQkf0/WvpjSf2BfAHh/4jWXiaO4vLe2tYvm0pH3ecf7zPSUnskM9A0nwt8J9S+My+ONM1C2vPGZgaPFpd72cbfvbPpXqF9rWnaHo9xqerX1vp1ha/PNdXEioif7z18aeGfBGjeEf+Cky6LpdkLaxTQ/NWHr1jo/aw16T4qftcfD34PX1xNb+Eo3inv7eOTZ9qZvmo5tAsfRXhP48fDzxzqS6fpHimzurxm2JHXj37aX7Q2heC9P0XwPp2sh/EV7qNs9+1ufltrffyTXQ/G/9lO18eav4RfwzfweEdM0W+8+SC3jx8v+ztryP/gob4I8MwN8KJrPSY4n1LWPIuplTDzIcf40ScrMEfXWn/FDwfqiyQ2HiKHUDp8HmTTRo77PesbwVovws1D4p614r8O3em6n41v7bFybe6DusXybvl/KuwT4f+HNFjn06z0axs7S4TZJDBHjK18k/B/w9YeGP+Cj/jDT9Js/sthFocpMfvleapvYR9feJvFuj+BPDs2ueItTh0fSo22m6vJNgLf3VrmPBPx48CfELUm0/wAPa8t7d7d6QtC8W/8A3dwr50+JF7J8bP2+fDHw/wBXIuPCfhe1N8+nkfJJIEzz+laX/BRq3/4QfwJ4J8Y6A39lavpOtKIZLRNnUVPMOx9Q69488OeFfs/9ta7Z6QZvuJcSAM9YHir9ob4a+C78WGseMdNtLwrvWMyZ/lXzv/wUO0y21L9mfQPERtUTU2urJzeY+cNJHmvT7f8AZp8A6D+zxcWS6Hb3143h2S5l1W7G+4ml+z7txNDk76Ae/wCjXVtqtvbXFrMl1Y3ShlkU7llU96+QP2G4Ybf9oj9o23giWK3h1WIIB/D+9m4rtf8AgnBrN5rf7NOjteS+a9rf3FsPoCP8a5b9imFYv2lv2koc/OdWgY/jLNU3vZjPqfxT4x8P+CdN+3eINYt9Lt/uq0zYZv8AdXv+FSeHfFejeKLc3Gjalb6nEoXcYZAWTP8Ae9K+FvBfxL0n4gftq/EjUPiHEL7TvC8b2OkaaVa4SHY+0nZ6nn8TXZeBviElx+21pieBtH1Kz8Ha1p0seqedY/Z4PMiSRg4/HH50XEfWuveNdA8M38Vnqus2NhdSLvW3mnAkI9QtbOn3UOpRLLazR3CN/FGciviOH4t+C/hf8ePiBF8YNBuhfaldNJp2q3ULT2wtMfIi+leqfCU6ba/Br4o6x4A1CS+tryS5utNkj+8hMAIx+NAHv8fiTR2vns01aze7T70AnG8fhmtZl21+f/wv+Ifwc8SfB0eGH1Cbw98RFtTb3J1pnS6kuiO5719u/D5ZYfAXhiORt8g0y3Dt97LeWM0DOkXrUq9aiValXrQMSpAM0zadwqRakR8nxy/vKnmj/e0yxj/1lWfNrrIIPLNW7eT92kdM/ip/l/vMUwJVkfNTRxrVdutWk/vv+68umB4B+2n4gSD4e+GfDaDN3qOsJdP5fa3if+KvWLoeXOkf/PNFryH4z+F3+JXi/VE05PMl0jQVe3/67tcbnSvS/DHiqz8deHtO1q2+5MuyaP8AjhlX5XVqxT95j6Hkf7SnwTXxJ4K8SeKodfvLKe1tGke3j+58lee/8Ez7rzl+JUc37zbZW8n6/wD1q+i/jTG3/CkvHKf89NJuP/Qa+Yv+Ca/+s+Jif3tPtf8A0YahpKorD6E//BRTxXqOk3Pg/wAPwTPHZ3FjJczf7fz103iL4W+GYf8Agn7Y6sunW41D+yYdR+17Pn815fnrsP2tfhjoXxM+H+latq8qaTf6ZugttS8zZ8jfwsleP3Xwt+I0P7OeqaTqHiy3i8D6dYy3tulvH890u/dsZ2qZfE9AO1/4J3fFDUfE3hjxL4P1C482PS4o7q08z720vX1fJ3r4b/4JoaTOvirxjq3k+ZZ/Y0tf+BM3/wBevuC21CLWvtL2NzDcxwN++8v+D/erWn8IpbklvI2+vHPjj5Piv9oD4V+C0uBLHpaz63fRx/wN/DXtEMfmTJvevnr4Iyf8J/8AHD4o/EbPl2YlXSLGP6ffqp9ECPaLyR47jfv5qO3P7wPU03lfY5pJ+sdQx9aYi3FLFG7zz/6uBWnm/wB1a+Bfiz8P9d8feGdd+PtlvjT+3cwwf9OqfKktfUX7THiq+8OfDb+w9JtpJdc8WSro9pJ9z71eZ6l8M/jfJ8NJfhrDaaV/ZE1gtpiO7rGproUj374e+K7P4k/C/wAN+MNPm8z+0IsXn+xcD761rXt7FY6LfySf8s03ivlX9hDWtR8K33jn4caun2a9tZUvvIl/gZPllr6lvrOK5W58xOZF8t6uL5lcT3M651BL7wb4iKcC60y5T/yFXyR+yf8AFTWfD/wlu/DmheFW8UX/APbEkzxojEpFsjr61NmY/C+ryf8ALNbCf/0U9eJ/8E58w/BvxVNaon2z+3ER3/j2+VUu7kg6He/BX4taX8VP7R094n07xJa3DJLpsnyOlVNc+Oly3ijUvDHgXRJvGF3p6/6dPGH8mGvL760/sP8A4KBap/Yi+WJ7Bp5vL/2oP/1Vb/4J3+fn4ob/APj98+PzP7/33pKTbUR2PbvgL8XrL4ralq3hnVITpPjHRP8Aj4gk+49ct8UP2jtRtviZ/wAIf8O9Dm1670tf+JjJ5mxErhbyzlj/AOCjehSaXvi+3ad5955X+1ZSVD+xdIf+Ev8AjL9odP7Ye/Xf5n+ueHzno5m/duBxnxM8baj4u/bB+F8GrWSWd/p8tpDMnT70uK+gv2gvjr4l+B+qarqL6PJqWjfbPLSfCbI91eZftI3mnf8ADWnwWuspFf7YPts/+7LX0r8ZPAMfxQ8DeMPCTskd5fRsbaST5/3qUJPWzA8x1L4ueJrf4RW/jc6SsV5sa6mg8v5JLXZuRq7T4G+N9d+JngpfEeu6THokV1s+wRx/xrXy54L+K+q+OvgTo3wLkfyvFEmrroU399LNW5r7mXT7HQdM07RbBfL0/T4FtYY/92qg3J3uJhD92vHPjF8bZ/CPxC0LwB4V06TUfHF7/rk/gtkb7m6vY7WRPOi/55bq+UfDQuIf+ClXioag+PtVtP8AZnk9Gtxs21U21ZIEdmv7QGu/D/x9aeFPijFb21nqMTfZtV8vYUevFf2+LzxTHp+k6deW/l+HE1FZLOT++xSuu/4KPWbXnhr4d6XaxeZqN1ezbKvf8FHo2/4VX4CT/Vyf2gv7uT/r3rKV7Ndho9h+HOreKJPCNuniXTraMWsUH9myF/nSLZXQRP5n+sNOaTzNL0fjP/Ettvn/AOAUW8e7NbrYk+fvjt8fvEvwH1TfHpltqWiTXnkJJcfI4+Tc+2uf+IPxe+N3g23sPihDo8Vl4I2wzf2ZcOX+V/71L/wUGdZfhf4Ghfbv/tqX/vnyq9l/atSzt/2V/FVqki+XHpGn/Zk/2dyVi73euxRwafFP41/F3w3aeN/B+l2egaH5TXSW/wB57nyq9b/Zt+MS/Hr4fS6xPb/YdV068+xajH/tNWX+yfqUNr+zN4Ij83979gm3p/vs9cJ/wTpibT/DXxWs7l1ikh8QR5pq6a13EaWt/Gzxx8TPjrr/AIF8D266TZ6DEySySfxypVj4P/G/xjY/tAS/B3xvDDqDXMTSWl9G/wA6fJurjfAuuS/tLfFrxrqHhMW3gvR7LalxqGf9ImrM0KPSvD//AAUc8LWceqfbbfSbT7O93K/35Pskn+NTd7+Yz2v41fFvU/DPjbw18OdD2WOravuuZtSuPuIq1i+MPG3xi+E/iDwpBqy2OteH9WvorWa6t9j7Nz1B8fPAvg/4zfGOx8E6nczaB4wgtvtWnatFcbN6/wB2vNPiR8P/AIi/swtpOr3/AIqh8aeGrW8jhFjePvmh3P8AfWnJu7YH0T8ZPiNqmg/E7Q/h14bdNN1PU7KXUZr64kRERc1xbeOPir4A+Ivg3QtWGm6t4f1vUVhbVbf5/laqvx88K+F/j98cNO8GzajJ4b8V2mjx3VtqscmyZ0l+bymrzLxZ4R+J/wCzB4q8I3mr68njPwvJqUdrbR3H36HJ7gfeNxb+RI0SfwNVaNf3nm1d1lmhuHkhTKOq1nWNq8G/Mlb9CTyv9qC1g/4Z3+KNz5MP2hdMV/MH+/XLfsERtL+yPoAH/QTvf611n7WDR2n7PXxJhllTzJtKXZHXNf8ABPhln/ZQ0OJJV3Jqd4HX8ay+2h9D3AQvZ1dsmNvLC0iSSlG60y6t2aPA61ZHleVG80vlxoynzK2EfFP7OV+3/DaXx5bH2Z7q2vH/AHn8H72ur+G/xi+MnxM1K9ttJ0uxk0fT5WjfWrlAiOyNtfbXi/h34f6n8Vv20vi7oGla9NoFvdNdR3N3bff217H+yb44/wCFM6xrPwF8ayQ2Oo2ty11peqeZ/wAfXmfNXLF9Cz0D9qT4+XvwS8O6Fp+laWl7r/ihfIteyQu1cP8AHbxV8V/2c/h/Y+Jri60vVrPz4La7j2f6lmT6Vj/8FDI4biT4YaTp16o8ZJf+ZZf7h4z9M1p/GnTfF/7SHhXSPCGsahpXhzS/t0F7qOpfwYWLPrVSbu7CO/8A2Z9U8feKP7U8UeKbn7T4e1GKGbSp87PvfeXZXua/M1c/4V8J6b4J8G6HoGmXDXOkWVmqW0kkm8vt/iWugWOtY6Ik+Z/2pvjr8Rfgez6tZ6TYXPhSa7jgh8yOvUfjr8XH+HHwDm8eiySW8kgtXt4D9zzZ1H+NeM/8FLZI1+ANhGJ18x9WSvTfjd4j8MWP7NfhrTfFKLcaLrVvp2nM/wDcZkHz/pWd2m9SjkrPVvjLpPhO48Xw6jpGvxvZrdvptuWbYrJu+WvYfhL4nuPHHwv8M+Jb2LyrzUIPMlj+7sbfXyvrv7KPxD+FOh3mvfDf4nPqGj/YmmOn3khZZLdf0xX0J+zH40n+IP7Pfh3W5bdLe6aaaFoLf7vyuaIt3sxM9QhjI+SvGviH8RvENx8aNP8AAHgx7ez1BtPW+v77UJ9sSRN8q7Riva4o23R18qfFz4R+H/2hvjbrWnaN4rm8K+OfDkEEHmRSfPNFVSv0BHWaT8TPiV4T+NHg/wACeKNEhutI1dpEGsxvu+6m6sLxl+0r4z8BfHvwr4D1nSLAaV4guF+z3cZ+f7O8rx1w2n6Z8U/gH+0J8N9D8X6zbeMLDV52tbS+8g74d3yuPyrQ/bLtV0f9rT4DahdOYrBPLtnuv9pbr/8AVWfM7DPRv2o/il4x+Bmk3fiDTNLtNU0K38qBvtJf/Ws1dlpHxeXTP2XbL4rarYJkaN/acljav8jt7Vwf7fWtWY/Zu8XWz3MMklzdwNCBJ/tio9I8WeHtC/YL8IS+JLZL3QD4ds4LuD1ywWrbd2riF0HxJ8YPF/w2tvHWiappklvdQfak0YP86f7HStnwf8SPHWufs/Q+LrCxt49ZjW7kmtb5NiokbferxVv2S/iB4R8Kx6v8JfifPL4fuU8+3068fFew/BLxtd+OP2S/FdxqWnw6Vd6bZ6lpzxxnhpFBqU31Geb/AAO+PXxm/aO8Kau/hbT9C024024WO41K55P+6qV6F+zz8avEN58V9f8Ahh8S7GO38V2qLd2clv0khrjv+CYupWd18A9e05Aqalb62Wl/29yjH8qxPEx/tr/gp5pA0W4+0fY7CFL6SB9yoVi+cfypJuydwPQvFHx88R+Nvj3cfCv4e21u0+ltI+qaxcfdjwn3Fpvhf45+Ifh78ZNO+G/xOjtL3+3IfP0vVbP+CX7uxq+f/wBnvwTqn/DVPxU8N3PiCTQdZmlmnhupPledftBavZviB+ztptt8RPBfijxh44udW1u2uoo9Osz8rz7X3U05PUNDnfjJ+098R/gf8WNO8IaxoWn6uNU2vZmMhGeJ32KlSfFj4hfHT4M6TbeOtaj0b/hGUuVtbjTfme4hVqp/teRxSftufBR3kinDwQhwf+vp69D/AOCgLrH+zDrtu8vmTvqMT/zpa2buB23jb4w6B4V+EafE2b95oc2nQ3VtHH9+d5U+SKvEfh3qPx28deH5fHX2uzstOuopNQsdPtkT54lXdsrI+OWg3viz/gnP8OpdJHmjTbKxubiOP+4qba9/+AvifQ5Pgj4K1yO+thpen6LsuR5n3GRKq7k7MD51/wCCask+pWfxn89PLuZLu0d4/wDb3T10Nn8UvE/7R3xO1Xwt4C1lPB2geH023GoyHc97LnFYP/BOnULHUo/jXHHdpFJqsoNv+8+fDeb/AI1wH7H/AMM93xA+IXhXWdZl0HU4WQJHK+zztr1EW+VIZ9CfDP4s654X+Nc3wY8Zv/aN3JarJYal5m/5tm7ZXPeMPiZ4z+N3xuuPh78NdWPhvR/DieZrGrR92XvXRW/wk8C+DPjx4W8RXmv3GteNJJ/PST7Rv/dIm1q4X9l+zg+Gf7Wnxe8PeJbxNPv9ZdpLHzPk8/dcedxVa7MR5b+1Dovjzw78UPhXp/i7Wf7fsI7xXsb7q8m6VN9foxrX7nVJZfUtXwp+3J4r02++L3wm8M2t4l9Jpd19puZI5N/l+bMnyV9yazMt5qRa2lSRGP346qHxMT2G6PvN2x3545r4h+LmoeJrH/gozaQ+Eyo1q902C1WST7iI9v8AM9fckP7q5r4x8feLbPwX/wAFNtF1LUZUtrE2traSzyHYib7c06nQEavxgk+KH7LkOiePLnxOfFeiRal9mv7TPyV3f7UnjT4gaf8ACvT/AIqeAPEJs9Kazgnm07Zv/dPzvqp/wUW8Qae3wTtvCNtOtxrmv6tA9na243ZVe9e6+D/h7HD8FNE+H+sKpj/4R+PTLnj1jw9R1aQzyhdd8Q6j+xunjoeJJBrJ05tYlvf9pfupW9+zzpXjm6+Gdj4k8a619t1DXoVvLe0+59ljb+9+FfK3wdXxhqWuL+zJq9pMdLtdXe5vbjzOfsCPucZr9E7lo/LCQRJHCm1Ik/uKPlVacW3qJkCrlfwrwH9qr4i+N/DereBfCHgSPyrzxBOyXN9j7uzHH86+hI4TIqL/AH6+SP2pvitqd7+0B4I+GMV0fDmhzGG6vNYT5JZlb+67VUnoCMH44X3if9lnUvCviXTfH9zr1nPqAS+0242MnI619sXSq0kcif6uZEdPxXNfnt+3loXgvwb8P9EsPDmoPqurSaj50uJfO2RKPavvXw7rFj4i8M6LcWV7DcbbG3WXy5N+xjGlTH4mgNG2k8uZX7V8cfFLxD8Rvhr+0t4U8M6p41mTwv4jlWaK6c/c+f51r7HSvB/24vhrL40+Bo1axg+0eIPDV2l9ZT87/L/j/p+VOe10CPJf2wPid4x+DnxQ8NWFl4mNvZa2/n3Hybvs0G9Errf2lIfHXhSz8DWHgjxde3ureI75bWBZFRt6n5t9cR8O/h9rf7VnwN+IPxB8VJHLrN9arpWiIfuQJb/MzqPc5/Kuj/Yp8Q+I/i94om8QeIk8u38D6adHt1z/AMvbfKePpms7t/Mo6z9sD43X/wCzt8N/D/hvRpvtvirXF+yi+uP4EUfPLXM/GTw34g+B/wAK7Px5aeO7jXvEOkeS11bXJV7d9331Va5n/gpP4BvtUg+H/jOG2ludM0t2tb5h83kjfu/xr1rXfB/wQ1zwa3iWTxBbz6E0Hnyp9sBBFPVtoRU+IHjnxD8Qf2Rbf4k+EdXk8KXUNs1+6L82/adrJWz+z38StZX9kOy8f6651rVLa0vL79532E/4VjfGjVPDuj/sN+IToFt/YOj3mmAadaS/I7bpaxP2U/iVo+kfsNq17D9vbTrK+jm04ffkUE/409eYOhQ/Zf0zxb+1N4Y1zxzr3imSxWW+ltrbTrXdiDFeZ/CHRviF8cfjJ4w8M3nxA1Czs/Bt55kbZym1ZjXMfsn/ABRT4f8Aw51G2h+Itr4YtNTuJS1pdJve1/hTbX1b+yY3wv8AD8euaP4S8RweJPE2ov8Aa9U1eSbMt181TH3rDPD/AI+QeIZP+CjHhyDwvLCutTabbpFJcfcjBik3NVj9pHwr8QP2X7eHx7pnj251VRqCxX1rL912ar3iL4laDF/wUl0PVk1C3n0+DSRYT3HmfIj7Hrc/4KbeLdJT4K6TpFveQ3F3qGoRXIjEnz7F70dGwPRP2jvCt78SP2abrxDNrM2lWkfht9WktLd9gmc2+9VavI/2H/hBf618DfD/AIiuPEl/Y2n9oSSGxjf5HiV6918UXll40/Yz1q10W4j1KZfBsdpstjvbzRbfdrxX9nP9oLQfhr+yjY6Nbzwv43tJJbW30YpulkuDL/8AXp9bsXQl/wCCiX/H98DP9rX5/wD0KGvTv23Pjpe/Af4fRXGihI/EfiG7NjaXEif6lf42rxb/AIKGeKbRvEfwW0prhJdX03UGvb+OP/ln5jQf/Xrp/wDgo14Sl+KXwr8O+KNBcanZ6HeNLLFb/PvVsCk7+9YOxzfifwDH8Nfgv/wkdr8TLm58eWNt/a8vmT5Mkuzfsrota/ae8VeIf2J7j4h6bHDY+Jpb5dLuJrNN2xd3zS1r6Iv7O+reHdP1zXJrKOZbRXu7Gad924J93yqxviT8TLbwD+zd4f1TSfC9tpPh7X/EGz+zJLX52t/9z8P0p7bMDn9Ss/h94q+Fs8/hL4pXUfi97be7yXXzXMv3tuyu7/aO8ca78Pv2Vfh89vdzR3GoTWdtrWpD76RbNz1w/wATP2fPgDrPwx1jxZ4cuk8O6mkDXNvHb321w393yWqfxN441jwb8CfgRD410Z72w1KaaPVFkTd+4OzZu+oNLYZhfEePwH4x8E2lz8NPG0tn4kZlC263X+u3D5926vq3SNPay8O6NbN1jsokd/8AaVPnr48/aU+DfwWtPAlx4g8D6itv4m3qLe1sJDudm/g2V9b/AA1sLmz+F3hK01XzotZj0yH7Qlz99G2fcatIbslmk0UcjR7+m78q+NtU8eeDY/2iPH+n/Fi4uo40dYNF+0b/ALNBHX2lawLNNHl8fNXyB4P+JHg34jePvF9p8U9GtzEmoyG3uri132wX7qLTqdARt/ATQNF1D45eJZvDOuG+8LyaF5aWn2vfsZ/v7fSvONH+BPha3/4KAXHgyOGYaRbWTXDJv+d3+z7q6P4F/DXRLP8AbAuNW+G2+XwHp9sz3d5832fe6Z2LVj4p+Jh8E/2+m+IOtW0kegahp+5LgJv/AOWXl1j0Tfcrqe4+LPgb4T8RfDW+0qCOa20+ygudRhkt7v50l8mvkT9kH4K337QXg3xtca5q94bDT1W108Syb0+0SV9F+Gvi7eJ8P/H/AIy1q2nj0/XIrv8A4R/THT55IvK2r8n5Vxn/AATz1k+GfAeq+FtRsLy21TVNXe5Eckez5FhH+FU+WUkLoR/Fr9mWx+En7KfiW6n1671rVNPjBRlTYkbl/wDGvZ/2cfD2neJv2Zfhzp2oJ9otp7PzJo/7+3Nc7+2trl7Y/APVPDNhp9zqWo61JCifZ037EDisb9mr4tWvw3+COgWGoaNqst5pNrJvSOD+N3qtIzsHQ8d/YR+B3h34sah421fxMjarZ6XeLaW+m+Y3k7n/AI67iHw/p3wl/wCChfhfw54Wh/s7R9Tsdl3aR/Kj5hk5qn+wNrmq/De68T6FrnhbVLaTXdSjnSSSBkRFNUvHfijWdc/bO0L4oWXg/WpfDek/6LJIkHz/ACpJHWasoofU3P2ypZE/ak+GNh4ic/8ACCSGH9x/A8u87t1ZP/BQjRvC1/oHgvTPCNpay61PqJjWOyHzvxxWH+3h4suZvjR4KvdQ06TV9AOmeZZ6aH2TJL/G9V/D3x6ufhxGviOT4PX0t7a7nh1i4+fyEob1aYH2r8Mfhjo/ws0ez0fTtNhsr6S0ifU/K+556pWzniN4kk871rH+GPj5Pi18PtI8ZQRyxWmrRb8SffHz7XSuiC+SIzHXVG1tCD4+/bY+G1h4D8VeAvixa2kccUOowQ6lb/wPtfcj1zf7bl1H8aNYsj4SW1ubPwvpP9t6u8Y/ilevrv4w+CLX4rfCjxD4dlVJLma2b7P5nWNq8u/ZB+AUPw7+B+sWHiUK+s+LJJUu/wCPZAP3SLWEou7S6lHJ+Jte0b9qTRfg54PtFR476ddQ1aO34+zWUKf6qvV/2thbQ/ss/EC2sLdLezg06NLeGNPlRFZK86/Yz/Z5vvgvN471PVsu8k7aXYv/ANMFeux/aj0bxh42+GOoeDfC2jPqX9rosdzd/wDPHD01flbYdST9hnwD4d0f9m7wnfjSLaW+1hZJ7q4kgDuT/kV5N+xBaCx/aZ+OGkwbYLC2eQJGPu8XFerfs+2/xH+FnwV0/wAPXvhO2ubvQo8W++R087L15l8Efhf8WvhZ8U/Gfi6+8Kx3X/CWSsk8dvP88Ks+6p/lAd+0xBbr+278C0t4Ejg8xOn+/WX/AMFDNQk1D44/CXw1d75NEku4pJYv4H33G1v0rS+KHwq+L3j/AOPnhr4gWWhWOnWfhtYYLGzuJ/nbH32avU/j38AdV/aH8D6Lf3Vxb6R440lftNq8XyhG3/8A1qGm7gdR8dvgP4X+Nn9jWuskxWehyfLb252Ls2ba8J/4KSWFr/wpn4b2MC+VZ/22LZP9wREVqaXov7RHj/SF8M6zqVnoPhzclpfaqEia7dV++sbVN+0t+z38QfjpaaD4d0KWwsfCfh9keza5k/fTts272py1TsgPcvFWk2Ol/BfUdJhs4Y9ItfDT+TH5fyJtt6+b/wDgnVHLf/s+agnePXW/9ASvWfEOh/FfXPg2/hyNtHi8SXUDafLJJjbHa7Nvy7a479mH4F+PfgBDe+HL++sLnw/dSrdM0f345fzqteZaC6Hss37y8b5O3WuJ/aIi/wCMb/iSG+5/Zn9a9Emt/Lb5ea8+/aU2r+zH8SjvX5tOxWkvhYkcf+wIttY/s56LJpDZkeeR7vP/AD1315/4QiNv/wAFNda/sxPLtIrV2u/L/wCvesL9mfwD8QY/2d9MvPB/ildM+2Szv5YJyK99+B/7P9p8FrO713V76TX/ABxrUu+71WT55kirFXkkrFbHm+g+Lm8dftEeLE+Dml20WqWqyprXiTVP4/n2/ImK848U+GNU8Lft6/D+01vXn1rVJjA9xPJ/AxBr1LTf2SfFfgXxlqniDwB4/j0XT9Zud9xHcQfP1P8A9emeLP2H4vE+tJ4hHjW4j8To6zzat87zO9Llk+gXRrftWeF/D3xk+KHhnwjB4jh0nxZp9nJJZXUcmxxubpXg/wASvCnxx+ANrbeINa1j/hI/Dml3ET4vNle965+yJD4s8Q6Frl7401GLVNMtFgiuowiu7L825q1JP2cdc8ZXemxePPiHeeI/CdncrONGK7Un2+tNxb6Bc439p7wzoPxy8feF9Kg1RvDHiz+zILq2vsn50k/hryHx/wDDT4wfsv2fh7X9R8TJ4o8J2t5Gi2kj/wCrb/cavqX4mfs06b8SviEnjD+13sru1s1tdOs0j+Sz2/5NV9J/ZlW81jTLnx34z1Txfpelss9npUkmyF5V+48lDg29gufLn7Vel3l5+1R4F8QX14+iW+sWNnIl6Pn8lsV7T45/ZN0B9Au9S8bfEfVtR8Pwr9rf7RNhK9s+Mnwh8NfHPQ4tI8RwJ/or+ZbXdv8AK0NeU6P+yBov2yxPifxRrXiTS7KRZItJknc220HO1qfI7vS4XOR+KV38Nbz4d/DLwFrMOoWPh+5ie1sdWlf541B+Rmrz/wCK37LOpfB/wTP4j8P/ABCuTp9lEt09pPJ5qP8A7CMtfU3xO+Avhb4y6low1yIw22mo0dnBbfIkOaxh+y54St9a06TV9Vuta0fTvnttGkH7rcv95FpODfQLnWfCHVLrUfhT4Sur+ExXuoacs8w/Gu7s3+x3EU6JkLLhKoLG1xP52yO2jjTy0jj+VERatXDOscYroW1iT4++Hs0Xwo/b88WT+Jrj7N/wkEc0lpdyfc3SfNWn+3ZMfijq3wy+G/h0rqmuTX32p/sz7/JVvlr6G8efDHw/8RrdZdd077RqMC+XbX+Pnhqv8K/gv4U+GN695pNi8uuTf67Vb6Tdc7f7lY8j26DuaPxK+HVt46+HOoeBbl/9HewW1huP+mqp96vkH9meTxD8UfGGg/C/xHbPHoHw+nm1G/k8x2+1To+2HdX3j5ksMkkh6Vg6do+l+HbjVp9I0+2srjVJVnvJLePY7vVOF2mFzx39s34bz/Ev4H6ja6Yryahpc/8AaPkffeZK8l/ZZm+CGsfDixj8U29hb+ItLg2XkOsP5KV9i3wEfkvG+eK4LxB8Dfh34uuoLnVvClnJJG293iTyt9EoXfMgv0Mj4M6x4BfXte13whpFtovhfT/3H9rSHal0/wDG6189fs9/Ejw5D+2R8TvEU+oeVpmpw3cNpPs+/lx/hX21JpunSaMdEOl2dvpe3YlpboiJtqha/D3wpDPE9v4U0uB0XZ5kcCUuR6Bc1GHyJ/uJVm1sVjead382SRNn/AKsybJpPeprdMCtRHy/+3l4m8X6X8MdO0/w41/HpN1deXq1xZx/O6Vl+MfHfwwt/wBndvC3ws0mPXvFuoactrCun2geaEtjzXmdvxr6x/sqzurNrK9t0vbd/vwSfcpmlaPo/hqZn0rR7DTpZ/kf7HAkW+snFt3Hc+Yf2BPH1hY/C1fh3JbXkes2VzPc3fmQfIm56+qYYdox3qS3tbWx3vbWkNvI6/P5e756d9xmpxVlYR538fvGWn+CvhP4nW/t7y9k1LTZ7KGOyj3uXlQ7a8E/YE8aL4V+GC+DdX0jUrW5F3LqHmGPbX17LZ2168TXNslzs+4kib6mXyo33w2tvE+35vLhWly+9cZ8HfETx1Frf7dmh+N49I1I+GNJtYbf7X9kbY+xSf6191WPiy21TTV1uCCbypovMR5IH+5SosGPLeCIR7dmz7v/AKDU+fm/4DtojHlC58OL8RNSb9um7+JFl4R1q98Mx2q6abhoNn8G3fXTftX/AA18SR/GDwv8bfBenNq0mneR9rsRHul+X/61fYFrbxaXH5cMSx1Il0Y/7sf4VPIFz54f9prWPixNbeGvh54V1CLWppFa7u9VjZEsIh98t/nvXO/tw/DnxZ4i8KfDzVtIsX1o+GdRFxeWufnPTmvq2FjDbSLFsRG+9SRyLsff9x6fLdWYHgfw9+Kvin4zfESLxZJ4b1jwx4P8M6ZK09vefK9/eMPuKnsK8d+FmqeKtP8A2z/GPxLvfBOtx+GNSt5LSNpLfa6K/l44/CvuOzCWqbIv3cf8EdTtcyt8obfS5QufJXxu+GuueA/2l/Dnxl0FGudOlt/J1CJE+fHp+NQfHS41f9s3UPCPgLwrompad4SguzqGs6/qMDQgAdI0HrX13uNTLMfL8tSyLRyjPkz/AIKBW+t+LPh1pfw38J+FdW1U2k8F1cX8UH+jrHGpwM969TvPijex/s93Mg8NanJrf9kf2VHpvl4kNwYNn5Zr2eNnj+633qsrJ8ytto5QPkf9hjxRqHwb+Dh8L+LPCuvaZqNvd3F2c2JIwSPT6Vjfsgar4i8P/H34o674g8Ha3o8PjO9ilspJ7X5E2ySj5j+NfbCzN97j/vkGn+a3onT7ygVNgPj2Pwbc/sw/tReLPHU+hNqvg3xZGHNzD8xtJN25+K9k8DfGi5+Knjq2tPCvhy5t/DVqHbU9av7YxAnHyRQ+teuN+8x5qLJt/vU4527cBf8Ad4oA+Zvhv8RdO1qTxZYfFLwsZ4F1O5jttXurISRT2+/5E6cVzngnQ5vhR4B+NPiXwRptxa+FrmWJ9E09t2JNu8TPF7HPH0r7AaCEx+W1vG6L/Cy0/wAlWhVSieWvSPaNtAHx545/4Ut8Xvg3cXfiPQV8MeLZrX92hixfR3Cj5Np7819H/AbS9T0j4L+C7PWoZbbVLfTY1njn5cMB0NdY+i6fNdpdPptkbtPu3BgXev49a0dxfJJ3NSGPXtT170xMbqevWgY4ZpFozSjtUiPlq3/1lN2mrVRSxyV2ECxVZk/1dVoqs0ARSdas3a/bbXy6j8sVLTAwPDmhxeG5NSvvn+23Vwv/AHxXkPjfS7r4LeNrvxHawvJ4E1q4WS+jj+5ZXH96vb73fJJxVfWNJtfEeg3ekXqebZ3q+Rcx/wCzWbj2A8a+NniTxNc+E7zSPCujya9JrVhNau/3FSJ4a+ff2XtJ+IPwD17XEm8L/aLfWrWOB8yb9m1938Jr3/4fXWs/AfxlD8OPFVxNLo91u/4RzXpH+R1/giZ/7y17JeSXHzpPWfLzO9ytjwv9qb4S6z8avhrpEemy+VqGl7rtLH7iO715LYeHfirqnwS0b4OWmhSWkMk7vd6tI+6LY0u7YrV9nWdr993FS6PbrY744P3X/XOqcLu4rnAeDvgHD8NfgbqPg3wtc+X4hurWR3vvM2O85TpXjP7H/wAB/iP4B+K+o6vr1y8ekWqtDeeZI/8ApNfWUn+xVu38q1s/Oun8uytU3zSSf3KfIrp9guec/Hj4jL8Nvh1qgRPK1jVE/s7Trc/fnuJarfC/wYvw3+HOjeHrX93cRxb7uT+/cN8z7q4HwZbp8dvi1q/xEukmk8J+HpfsuhJIfkmuP45a9mk3buaFq+YPIdqUifYHqzp+wNC8icVUGZPkqeSP93ViPnb4n/DH4ueOvipZ+I0t/wDiV+G7nfp0cefnr3pbjW/+Ebhmuobb/hJPs3/AfNq/bO3mfu6sSRebUKNrsD5N0T9nX4t6b8Wrj4hQ63pFvrE7+ZNHHJ9/9favp2xkuvsdul66XNxtXfJH9zf/AB7a0200x1Uhj8uc+1EY8uwXKmrWs8vhXWktk4e1lz/3xXz38K/gZ8SPgz4dH/CEa1C0mrrHPfQXkfybhX1BcSxxadNHH/y0NQ29m52fPj5KbimwuecfAr4LS+BNZ1nxn4xvk1/xpq/yBz9yCL+5XO3fwJ8W+B/iR4g8TfC+4Wzj1dsXdrebEh3N81e42+2W4MdT8xeZRyK1h3PPvhD8K7rwR4r1/wAdeJL7+2/HGrv5HmeX8lrF/cWuP+IX7OurW/xTn+IHw51z+xr/AFTcl/af5Ne5x2v7z95zT8P9yjkVrCufKviz9knxf448baT4t1PxR5mv2u395lNkPlfMle3x/FLS/Cfi6z8OeIPEltJ4s2xT3P8ABv3fNXdxxp8kkdee/FD4E+Dvil4o0jxJqdvNY6xanY9xZf8ALdaXLy6xHe5598D/AATovij42fEz4vWSJLp32xrLR5P4JJdn72Wvot3/AHa1n6V4f0zwh4W07w/otglnp8L/AOr/AL7/AN96vXX8FVFcqFuTL8leefFD4Gp8TNW0DxJpl9/YPjDSJ98Wqx/I+3+7Xoke2Sn/AGdDVNJ6MVzx3wz+zrqNx8QLfxn8R/Fb+L9Q0tW/suzkPyQy/wB7ZWT8f/2d5fjj4kiudT1wR2kO2RLTOyvec1XuIRIGBqORWsO5514L8K3ng3w/b6Zd6u2rSQ/Ik0n92umsd8MwxUepWv2G4UA8HkU+H7wppW0A8s+KH7Lui/GDWpb3WdduIoxtMNp/Cnybaj8S/swR+KPCtn4fvvG2qS6PCqo8Mj70dV+5Xr9pJ8tXJOKXJF9B3Z4ro/7PsPgfwmNC0jxbqNtbhsJJbPsdFrc+Dv7NehfDDxA+u6frOsSST/66C4n+SZ2/javSGtvMureugWFY40TvQoREeHJ+yHoGn+LtR1nwzrN34dt9Qbfd2iO5SpPEn7GXgPXvsN1YzS2WsWu6R9SIffO1e5COn+X7fpR7OPYd2eYeMP2ZfCvjjVdF1NrmW3v9LtltLS6LvvTbRov7PVr/AGzbXPifxJqPiy0tQrw2N2/y7lr0rJqaFhg80+RCueeeOf2bvDHxH+IF14wv7y4g1OSCOGGSzk2+SqCrXhX4A2ll4mtNS8Qa1eeJ49Im36RY3H+pgb+8yV6VDDWhbrtSlyoLlbUIZblUcNvkD5ot1kjmPmVZ/gpvmL5O/tVAeLeKP2W9K8da1qVzq+s6t9j1BdlxaW90dr03wf8AsnaF8NktovDmt6pDp8N19q+yySb0r2yOQSRh06GntUcqvcCKUecwdKztZ0ddb0W5sprl7LzPuTx/fStRKjm+5VAeA6H+x74e8J+K/wDhJtI8RX0WuyP5lzd+e++53Pu+arnjX9j/AMIfE7xrc+J9W1m8bWHZZLaeN9nk969t59qWR38xKXLHYdz4U/a0+HOm3XxE+F3gDUL65El1K2/xJeybykW+tPxH+xP8MdD8HXl/H8VJJdZjtpZ7do9SR/MZfxr628aeDdE+IGmw22u6fDeyQ/8AHtP/ABwPXPaf+zj4A0tIH/sqa9Cf8s7g1m6eo7nMfsR/8JPJ+znp7+K5buW5+3z/AGP7b18jt/WvdY/utVa1iSGNIY0SO3jXZDHH9xEq0vy/LWiVlYk8i+M37MPhv46ar9q8R6lfJb/fW0szsTf60X/7Neia58IrT4ealqklzo+n3kdzaPcbncIn8FevBaGX5aXKgPFP+GcbmzhXTbDxleReH3OxrFA/yRf3F5r2HR9B0rwX4dsND0O0Sy0uyTZDBH0FTeaqNTmb5aaikBY8tVg314t4y/Zn0bxt421XxlHqd5puv3jYjuoxsaHam2vbZP8AVpvpnmfu8UWvuB5T4K+BEOj+LdM8UeKNauPE+r6ZG32FZfuWzN/FWr8Z/gn4f+Nuhx2WsLJa39rJ51tqVv8A66A13u6j+81LlWwHzvafsYaHqnhy5sfF/ifXvE7yN8q3Fw22uil/Zf8ADEfwzv8AwSlzdSaJqexBa/8APHZ9zbXskb7qkt9snGz56OVIdzxLSf2Z38H2cOmeH/GGq2ukBf8Aj08woif7tdlceF9H+E/wZ8QaLakx6a1jdvm8fl5XSu4+7muc8Z+EdD+IFhDba4k1zaR/vAkcn36OVdAPij9iX4U2fjr4K6vc6dr1z4d1v+2Wjnns3bfNFs+QV9RfBP4D+HvgLLqTaUZNT1zVJN9zq158z1qeCfhB4R+HeuJqPhvTf7Nj2fJZxP8AJXfyfxUoxtuFzyf40fs86L8Xtc0vxELubRPE+nfc1Kz++9L4T/Z40jw/4o07xBrWt6p4s1yxT/R59Rfd5Gf7teny/cRXfy/3lTzqzstVyq9xHz741/ZH0Hx940fxLrPiO8utThj2W8kr7fJ+fcm3bXSePP2dtF+J+hadoera9ftYWqLHNH5nyXLr/G1erutQ7fJkSnyoDzz4YfCvR/h54UvNDhubjVtLm/cfZ7yT5EiX+Fa85039jHwNa+IUSPVNVstLupJZP7I374a94lkih8yIU6jlj2A8T8B/sk+D/hn4jh1nRry8t7uOcTP5eURxntW38UP2d/CPxe8TjxFdRyaJrY/dtdWB2vN/vV6VNLmWOlh8uXI6UckbWsFzg/hh8C/C3wsnm1Gzge+1h12C+vZPOfb/AHEqf4n/AAd8N/E++h13Uka28QWsfkW2o2/LKtdhJNFHc5AytVYbpb+1SQK+X9afKrWA8xk/ZR+HGtQWn2+C9vL21Zp/tTuN7y16V4X8G23hXSYLKykklsYTkyPJvetSWRJpEithWjbxpE88Ef8AyzehRS2AZ5w8zza5HxZ8GPDPir+3JtS09ZbzWnjE115fzoorrftkXm477602XfLu3UOz3A8z8G/s5eDvBvjRPEqLNrOpQweXbSanh3g5rjviT+1W/wAKPjp/wiuuaM15pVzAJo9Qj+le/f7StVfW9C0bXrpbzU9KtdRnRdiPcxh9i1Fv5R+p5X+z74Nn1DWPEnxc1zTpNN8Q+KX2WVpMfntbFPlRP0H5V7Jg028uZpGL4/h+VKSOQtTSsguWIz9yuK+JfwT8H/Fg2E+v6asmoafuS2vo0/fRqa7OTipR+7j+eiyA81h/Zz+HUPhe80O60CHUre82vc3Vx880m33rpPBfgXw98N9G/svw1p/2Gz3b35+Z66ONftB+RuaYm16LIBFT5VpboJdWs1rOnmW0ysjx/wCy1SSZ+5TZo/L20xFfwvoum+CfD9hoOjWi2emWoYLHH/Fmsbwf4K0LwDY3+naBYpZWt5dtdTf7bt/ercb93KtVnuP+Jk8XtmlYBNQ0mx1rTLvT9TtEvbK6TZNayfcevNbX9mf4bxzW9x/wjiPHDcrPHaSfcTbXqbsv8NEdFk9wOa+IPw38O/EkaVDr2kW99YaezeVZEfuq5Px18O9I+HXwt8c3Pw/8LQxavJp0kaWNv9ybd/sV6ksxj6UkdxIrfI1KwHwJ+zH4L+B9h8OUm+Iuhx3vie6dpLv+1IH+Rt/3FWu9+CPwZ0TxF+1EfF3gvw9Do3w50vTmjmm2bYrqV027F/nX1ZN4W0TUbrddaNa3Mm37/l1uWNhBp1qltZWkNtb7t/kW/wAlRyWKucVJ8Avh0ZFkTwrYRy7v9ZGhR62dY+FngvXtVOp3/h2zvLxIVtfMkj/gHat6C6ikkljR/wB5D9+p/PWQoif8Dq7AYnhbwfofgjSZrTQ9NhsLSR2neEfOrvWF4b+DngPw74mfxFp3haxh1ffvW7EC70Zq6uTdSwvtNOxJzusfDDwlqmsXeq3mh2d7eXP+tkkStDS9G03R9HfSbPT4xpj7t9rs+Taaut8+7bTI3aOiwHAQ/s+/DqPWm1H/AIRWxEry+Y6bPk/74rsPFHh3SPGkVlBrOnQ31pZzrPBbSfcidfu7Vq9S7tu2iyA4a4+Anw+utSGoTeEtLlljl8xP3C7t1dVr2naf4iubG51Wxh1F7V2MSSplU3Jt+VK0GkXdtqrNL5b07AcLa/CbwPovieHxBZeGbCPVU/eJIN710Esj3rTXEw8yR+mKfN5vnSY6VX/5Y/jVWS2Abb74UMq9OlZmpeB/C2qabDb3nhzTZ7dJd/lvb4rX/wCXH8ajmkQ9KAK2h6PY+H7JNP0i0h06z37/ACLKPYtP1LTdP1YxpqOnWepeX/q/tECTbN1SRti4D78cdaYy/vgif3sCgRNPHbX32fzrK1uja/6nzbdPkqQxwfbEuks7W2uP+ekduiSUv2qL+7+tRy3C3FxGMYXOKBmtaSRqn2vYnmInas63uvs+/wAtYf3j+ZJ+7PFIdQ8y08o9aZeL5dvCKANWS8EmzKpHJ/z0j+Sqzu8mN6wyeZ/y0lgXfVO03zTR9605VE1AHzR8avgx40/4aK0P4naHF/wk9na26RJpfXy9qGtf4hy/FX43eD7zwXD4NXwxZ6gmy5urmZfkSvcb6RrGZZFfyvM61K9xcyTR7+PkzUcnmO5meAPBun/C/wAB6D4S0qTzrHSYNhk/vt/G9auRUGBPTPM/1cXmVaVtBFu0lEPmCkupoJYY/kjOarX0a2uzfz5nJqtdt5hQ788UwNL7Z3/8g1p2sj2duAsroK5iOcq2/qa2471JY4ZDxSAt7mkj3vI1RmaSPq1LJH+7qt8lAFiSZtmzHNRyS1Qurvyjjy/zpI9Sf95+7zQBZ82T1qxY3A8mNO+Ko80kM2aAL95NJHJGkfesmaVPtUhPIq3NN5xrNZPs5lXd5nbNMCSO4kllgy/I4rzn42fC1vjNoVn4fbVrnTdLdv8AS7e3/wCW1egQMQc0kP7v94HxIOlJq6swOB+E/wAD4fg9os2jQ+IL/U9Mg2/Z7S4HyQ13UmpRzXroW/eJt3x/hUsn3qoNbpHcS3KJ+9ehK2iAuZO1V3cVetUSOPcetU5oXiVd4xmmSTO23PNMRJM4LfJ0pkfWmt0pV+UUDLMU2KTUJHjtVBqurUtw33V9KAIPtX7lS5wKlX5lqDyQ0rErzU8bUCGrndT6a1J/s0DH/wANPuJvMghT+7UO+pY4xIcZoAmuPuUtjcCCXO5fxFF9nyrZF/u1SagDVmm/5a1TkmVl396gpG+6KAJ5LjzLVF9KrU5Vo+/QBakk3Rj5MVNZTCGTZG3myGoYpiK1YSkFrQBBD5laduqxR4FU7UnzqkkjLLJHSAtecKS6ZYoC8jcVStY8Q/uqWaXFFgNBZvMhiKdNvFKjt/eqLzIti/vf1pYVZ6kCZZqfUCQ/P96lt93zUAQ338KVdXajrsqLbv8AnpzP5n3qYFl/vU2ofN3U5KQEkk3yMvbbRbp5cNR/N/d+erK/6tPrSAs/6uioI5Kl8z3/AFpAO8xfWpoXqh80nyIlLDNJ8qUAbf3ttWFX7tVoV+VasrmkUTLTttMjUqpY0/dUgKvSn7aRaeq1ID1+6KdupApWnc0gHbqlj+7UC9KctAyZWpy01actJgP5o5pOKd2oA+YZBT+dvtTo46bk11kDIxT9po8v93Rk0APjkzTPN/zmn/6uOq9AD6dHspsfWq81AHPfFPwVpnxY8I3Hhu9le2kjdXsL+P79rcV578OviteWeuv8O/iA6WXiyxXy7PVpfkh1CJa9ijt0MnmVzHxU+Enhv4seG307U7b7FqEP7+01K3+/C1Q4vdDOojtLqODfPRbyJHvr50sNW+MPwVgfTpdC/wCE50P/AFiXcc/z1op+1Vqv3P8AhUmqmT/ppOP8annXULH0H5zy/wCo8uWNP3jyfwJXz94+8baj+0J4gf4d+D7l/wDhFrWff4g12P5E2r/y7xUy48MfFb41Wds+u/Z/B+gXX/LjZXGyURV694R8E6L8O/Ddv4f8P2kdlp8P/fbv/fajWXoGw7S9CsfCvhnS9F0yJLfS7L5IYI60gaLlfMtxH1oh/fcVYivzQv3lo5pBJ++U96ALdjH9+T0qb/lrTJJPJjkp/wDy1pgXPM86Ks/u9T06b/V+bTArSdaswzY+lVhsjjeSTzP3aeZXOWPxi8F6jq1tpMOrGTWJ22JaEJ5lK66gdlZwpFLNJ/s024ucVyviT4qeFvAd89rrOs2+nSbcf6Z8ldFptxb6toum6hbTJc2d1Es8NxH86PuoutkBfP8Aq46en36SPbTf+WlUSSxR/IiVVll/eCk83yZaZxNLSGaUn7yq0n+uqeLd5YzUdwfLuAe1MROj7KnqlJ+7hcyVQ8deM9E+G/hxNU8QX0djbySrGn992akBu9xTPL+avP8AwT8ePB3jrxUPDVndfZdYeLfDBcbv31ehf8tKE09h2sVtWsXurE+X/rIf3lctuNdtuG/2rjNQga3vpAnrSYyaxJ3GtGbv+NZMBeNsjij7Q+/OaANqOXMiV0en9q5WGaP93+8ya6DzP3aCmBqT96qy1V88017x5E+U0xEkcmKfRYL5kiMO1X/s7+lAy5Yt5kINWuayBcQ20bzh/Lit03ySS1xF5+0r4A0e5livNYml2Pszb2jtUNpbgen1FAqrahPas3wf4o074geHRrOlSrcWZ/2/n/4ElXrmYwwyGPrGKAJU/d1J9+vEIv2rPD7fELS/CEmkzW+qX1zHBD5nyb0avb5flZlpJp7AFV7yTFuakkk8uOqeqfvLE/nTAki/c21O+b2qG+jc2SCKnQ/6imAw/wCuiq+7Lt21HGuy13hPv803/ln+FAEcbPLG/wAmKnhaffyBT5PuVWj3ySUAX42P8VRX0f2ixuIM+UZF+Wb+5RaKwXmpW+akBnWy/wCj2ySfvZI/+WlWd7SfJup4h8uHFeV/Fr9obQvgjJM+s6TqMqwRK7z28fyfN/BvobS1YHrbNUUlx5cZc9KZpWrWfiPwtpfiC23iw1K0juoPMT59jJn5qred/q+aFqBoN/eqKa48uEg1JJMqxly2xKrIouwz9qYC+c3pQkwkqT5dvtUVrGF37Ex81AFXVPM1BbmyTfHH5XzyR1Lb2/kRJGjvIKsxfxVFHNH/AGgsG7955W+mAx4GS4QirU+12/4DR5yfaPKzzjOKoxSeXfTj6UgH3Vu0zIvYOpq2zbmpK4TxV8cfDHgz4keHvBN+LiTVNa/1Ukf3EpNgdjdzLaw+Yaz7uSQxeZVrXG8u4aOqk2oecuKoCgrFlLk81bguFjm/eK8n/TOLpUE1wkkQjjGBmq9MBZVaS5d9vl5+7HU1xDKscRkkznpzVWfUrfS76wjvZUtzfTeRZ+Y+zzn/ANmue+M3xA1D4a+HP7R0/QH1/wAlZZ7iCOTY6KKTaQHRurfNkN0qDTovJtEWuM+AfxRX45/D688WpbNZQ/bGtkt67Wz+W3jBbJxQndXQmTR/erTtT9juh/zxlrOXqr+laH2j/OaYyxNYjy5JO/Wn2sct1BkySfvKkt5hJIkdVfE3iLTPBHhXUPEus3H2LTNPgaaakwNHT7f7HapHnmrO37tfK+q/tlanoHhHQ/HeoeDruy8Gape/Zopt+X2f369Q/Z7/AGkLH9oGTXIrDRLjSo9M2tvuNy71as+ZN2HY9am+RqWFaikz/FVqJ/lWqEJtFR3WXXatWcDy/wAahfbQA6wjazUF6dMFSNX/AI3b5abu+7U99JGdgDfcagCuvSnzfcj+lR4+RX3fepGk+agCtePiZE9TRPGPMjf+MLUM8iSX0o74qSmA/wDvUluzbfnbJpLWeNjLI6/u4YZJn/Bd1fLfw6/aw8ffFxtRbwf8OI9StLORklu7h9kP86lyS0A+qpvuRr/epPLfdu3V8u/C/wDbK8YfFzxBq+k+HvAQu59Gi/0iNPy9a6P4b/tQeLfi14q8R+GtO8Ex6VrmhRg3NvqUlTzodj6Hh/1jfSrVtJXgv7Lvx01f443fja21fTIdOn8PXC2v7o/x8q/8q93ippqS0Aba2sdnHceSv+s+d6WMeZH1p/mVAjiO4aEB8uqutMBky75qjapKRlpgMtlZVbdzSVHIz7vlqRd1AhJM7W29ajZ1kihP8dSSZWmkfMtMBsbfut1Zd1dPKuBFWlO37nai531QvkFrJEwFMCL7HJ5GM81lzbo2CGteG6/edPIhqhqEkct2TH0piKzSM45OakvFWJocfxoDUdMu96SWvpJ/9egBnNTTL9imUSN5Zqn4ovdQ0XwnrWo6RpyalqsFpK9tZ/35Vrg/g14s8V+MPhrpN945s0stXkll6x7PMhqb62Geks4mZnXoTmnRqI42f8qaqmNWwuBSBty+1UIkaNfsAnzzv8v9KTD3DRBz7CrFzF5Gi3BPb95UckbRtbbF815kUqhoGT6aPs8crF8Crsx8mGqcNrcRN++Xyh61PMZ54v3Uf7qSgBSq6hfQ/JxH1qLUpHjvhHEnPXpWZrmky6tot1paXE1jcXKeR9ojk2OmXr5e/Z2vPEE37Xvjrwzea9eato/huG4ji+2Pu6Vm5WaQH1JAH+famal1FlWW2+Ty/wBwKjjV5JGSNHPtV97OZo8zwZPsea0Ar3DJeRw/PiOPg1AY8/6vmntbyxxxyInmA025t7hbV8pJEJKAJZLf/Q45E2S+Z9zyqu2uyWxjBrldSt57trCytYvLjjrf010e3ECf623fZ5f8dIDWk/1VN5qC3t5mkkt2PBTzKcrJFN5LskUg/wCmlAEvNYlxc2uiWEt9fTQ21unSSWXyzWrCtz5kiFB5vrWF4m8E6J42mk0bxB/pNu6sscG/Zseh+QGlpOraVrSN9ivrW5lji8944nR/kptrdYlwa+Rf2MdKt/D/AMbvjfaWm/7Jp6R2tum/dsXz6+rpN1TGXMrgWLWGS9kcqfKRF3vJXL2/xS8GXGpS6ZD4htLi8jbyUTz0QO3rXkH7cXxM1P4b/BeHS9Ku3ttU166+zHy/vpFXPav+xn4V1jSfCC6N4ifRby2tY7q7n+1hnaXZG3pUyk72SH6n1BUM0ohwTVCzuotN02Vvt9udPsVSN5LiRF8v5Ksw3EGuafY6hpdzDeWc/wDq7q2+dHrQksyUka+ZIFHWsa48feFotSisrjxNpqXcn3E8/Nat15FnYTXv2tDEjeWkhkREkai6GTyO/wAqntUeTXO3Hj7w7p9nJqF/4k0e1s4+Xke8U1Povjrwxr2g3etWOv2FzpVr9+6jmougNtutKrfLXE6F8ZvBPjC+lsdC8T2d7eRfwV3jRPbkeYmPrRdPYCHdtqPfuardraPqFwsKcGvK9a/aU+G3h7XrnTJ9ZN9PahkmkskZ0RhSbS3DU9NRfl3UlYngfxtoXxE0Eav4fvkvLNvzret4WlkAUZNMDxLxd+0/4b0Hxppnhq50O+tdUvWiSwiljLl977Ur2iKD+zpEgnf/AE10y8efuNXyx+3AYNE+NnwSv8IkovEmlf8A2ftFega9+2R8L4vEMyTX2pPJuWN7u3g32yVkpWbUmOx7VG3zdKswyqJenFVvDMlp4u0ux1TQ7mPUtO1CLfDcR15h4m/ac8JaP4kutA0WC48T6pZN/pBsEeVErRyS3Eeu32YpI035kdOa8r8RfHjQdJ+M1j4BFneXuqOY4/M/gTdWt4O+OnhPx/BfXWmpc21xY/8AH/BIfnheuT8P/Gr4eeMPi5FpWl6a8vjR+UvpLHa+xUqXLazGevSRletN2/JXEfG34taF8G/CNlqer3PmajetvtNNj+eaavLov2tJ/DGljVvG3gjWNA0eR/LS+8zG/d/Bs2U3OK0YrHsXxJ8Ta74R8N/2joWjJq1wj/OkvKItcV+zR8dr/wDaA8L67rWoaTBo39nXKQJHbPv31U+EP7TE/wAetL8bWtt4Um03RrLSZ3gvpI2/eV85fsefHaD4Z/DXWtF0zw5qPizxJd6m10um2cf/ACyUbdzPWfP7yd9CraH3/pv+sZPWn+I9Zs/Dug3Wr39wltp1lH58zy/wKteO/BT9paw+J3jPUPB+s+HbnwX4ntU3ra3cn+uX0rzL/goR8XvEWieBz4T0jw3c2fhu6nWO81yXpM33vKSqc1a6FY+stAul1rSdL1SBP9HvIlnh9katR4/LkCf8tK8j+CPxN8W65pOh2N74KvNK0+Gxj8q/lTYmxUr2GPc119z53qk7q4ir5Lw+ZVW0XzfMlrgPjp8etM+Cq6PpFvps3iPxlrUnl2ej23df77VwesftHeJfhVqmkj4leExouj6pKsCX9u6S7N397bS50gsev65q1h4P0PV/FviZ5otI0WDz5dn8dfMWqftGfF/xf8NdT+KXh/T7fRfCMd95FjYfNLczxL3rsf24PG/iJPgb4i0/QdP+26Be28Ly6t/B9nbrS/sQ6p4wvPhL4VsL3w3DZeD7Wwm23Vxt33Lb929UrOT5pWH0PcvhN4s1Hxp8MvDHiPVrZbbU9TtFnmgj+6m6uf8Ail+0h4O+Dd4LHWItQ1C9kg+1Ja2Vu716Y7+Z/wAAqGbQ9Ov47+6ubG3llWymHmSR/Pt29K0d7CPHv2Zf2mE/aRfxPPbaPNpOn6SYwHl/2q9pX95ufdXyB/wTN2/2b8WB2/tkJ+hr6w1jV9P0OHVNU1G/h0/SLVPOmnkk+SFVqYO8bsbLvmHzkjT7715B8UPj7qln4uT4e/DDRE8V+NW+e/mMmLbTI/8Abf1rstM+KvhnVvAOu+OND1QarpGk207/AGqNNqFo0r43/Yt+PGh+A/CviW6bT9U8V+N/E19LeTWelx75kiT/APXSlLZIEj2Twn+0Z4lsvjRD8KvHFtYx6vJFvS40r5Eh9K+pFRYEVN3mV8wfCX44fCn4zfG3zNU8KXGgePbWBkt5NZ2b3SvqWaP983+9RF6bgyCOOlrwz9qb41eM/gFoh8VaRp2m32h7orPdcEs/mtXCyfGD4/fEb4c2fjrwdpeiaLoP2JrtxeQ+bNc4/H60OWtgsfWsMfl1U8sySV8u/Dz4+fGb9obwBbX3w70HSNLubZvs2pajq0R8t5R1WIV1/wCyv+0NrvxL8QeKfAnjG3t4vGfhiRhcyWw2JcDft+WhSQWPo6KvPf2iPjRH8Afg7rXi0Wy3d+m23sbd/utO/QE+n+FegljXw7/wU4bxnF4V8OSzXFh/wia6knk2saP5kk+Djf8ArSk7IZ6T9v8Ajf4XPw21ZtYTxFPrrwnVtMe3ZIbNZBuO36f0r6pVgsm014fY6/8AG3QvAEOq3eneFZ3t9P8AtUkUZlDKipu2V4X4V/ba+JfxY+HGtXfg/wAI2txrmkTl9SuWJWC2g6qoz996m9gPucdVqZW+avnrxN+1Fd+BPgP4P8Va3oDjxt4j2Wtl4fztL3Jbblj2XofxFW/GXxj8a/A/S9H1n4j2ukyaRfX0dpcS6P5n+il+nXrQB75kUua+f/2kv2m9S/Z7sNI14eFjrnhrUJ1tvtkFyQVz+FYHjb9qD4h/DzQbPxtr/gKHS/AUjQCeVpd93GsnfAP9KQz6fqT+KvmrxJ+1F4303wzaeObH4eCP4asqzPqd/epHdGE/x+T1Ar6I0DXrLxV4f0rXNPZmsNStY7uBu+10DA/kaANGpFpi1Iq4oAVTS80c02kB83RyVX/ioj7UtdhAt1v8uq/2ryanqjcx+TSETTdqhkko5o5oGTed7Ut1HUEkr/8ALOiT+GkAc0eYfX9aOabQBLptxN9o8szU+DU5xHMkk3+rZkqKOTyqgjby45h/z0fFAFj7VJ61EZj60lQzSc4oAnm+8aS12ebRDElT2uygDOf/AFjUsX3hTHX5v+BU6F+aQF1riC12efqVlbSSf8s5LhEeov7Y0r7d9jn1zSY5/wC5Jdogr5V/b40RvC0PhLxXpmo3llqGsXH2Wby5PuKgrt/iD+yX4Uk+Fl3dI9/L4qh0f+0WvjPs3yrFuqOZ3aS2HY+gL/bpGz7VIlrG7eWkkv3JKdcx/wCjpPvSG22eZ5nmfJXy18MtY/4aQ/Y91mXUrm8/t7wekoeaOTZvxFuirrv2NdKTxx+yiYdWu5pJLrUbm28+T53RaFO7sFj2jQdc0y/f/Q9Qtr6RF/fR27732N8tfKfx18N2nw1/bE+FF7o1vFZR33k/6v5d/wC921vfsozT6Z+0N8XvDRvJrnSNOtT9m8z+DEqbKr/tXfvP2mPgUfp/6UVDfNG4+p2P7cXh3TtU+BHiLV7m3UajpmoRC3nH+09eofBeP/iwfw22J9zQLaR64H9tD/k2nxn/ANhCCq3izxZJ4B/YO8P6zCXFxJ4Zs7SGSPs71XwybF0PQr74s+EdB1JtO1TX7SyvP7lw6Jmuk1bWtL0fTIdQvNRtrezn2bJ5HylfHfwFvPhhY/B3TH8ZWN1favq5nkmu5CzJ9/bXpH7KNvcfFj4Q+MPAvjCymk0/TLz/AIlv26N0k8l6I1G9Ase1WvjLQL+/+y2es2dxc7d+yOffsSpdD+IHhbVLpra11uKS8Mvl+SR8718tfsc+HtK+Hfxs+IPgzX7g2uqWoV7L7T0eND/hiu9/Zc8B6Pe6x49+Iz6VD5d5rUkGkT/3Io/ld1pxk3YLH0bJJ5WxK5zx9480DwJcabNrmoJZmZX2R/x10VjC9xPs79K+T/2f5YPjx+0x8RPEHiC0W8sfD2nG1s7W4+dFbftqpStZISPpHwv8SvDXjbTLm90bVIbiO1/10fmfOlfLP7S/xQ8NeNP2i/hTpj30n/CNaey3N4P9tn4qz8X9JT4PftaeAtQ8Kn+ytP8AFaLDeWdumyHZv2utVPjv4E0GP9u/4a6ImnxR6VeWlt9oij6Nl56ylJtWKR7zpHgXwF40+KGnfFLQriaW8sT5CuknyO9d74m8b6J4HsbbU9dvobK2nl2JJJ/HT9L0Wz8O6bBZWUXl28Z37KoePvDul+KvAev2urWMN8lrpl5JD5v30+Td8tbbLTck5zXP2lvhjotml1N4qtpQ77PLt33PWRqnxy+H974YbxDa+ITLZpLseOT5XSvJ/wDgnn8KfDevfCHU9b8QaHZ69Jd6x9mh+2R7/JRYq5v9mb4e+H779qz4sabNp0Uml6O1w9nY5+RP9I21lzSdvMqyPefA/wAW/CvxGfUU8Oayuo3tknntB9x6TxR8RLLwPZ2V5ql9DHK782ksmHf/AHUWvFPFmh2Hhb/goB4CttFtksrXUrS3e4gj+4+5H3/yrb/a58I6ZJq/g/xHqepR2tvp9z5aWscfzzPvo5nZ+QWO70P9pnwlqXinS7C6uItJ+1SeQk08exN1e0eL/EOl+B9B1LWtXuUjsLFN/wDv18E/tUeKJNa8G+G9Sg8PDw+U1eHypxBsZ/kk+evpz9pvQbzxn8GdGtrC7h/ti6isXhguX2/amXZI60Rm7MVixH+1Z4I8nzLyHVtNjJ+WS9tNiV6BrfxB0Lwr4Bg8Y6nceXo88SvC/wDf3/cr5G8SftRNJ4Tu/CvxJ+F0tjaTRfZY76OP/V4r0D4xeEf+E+/Z3+GT+A9cS9k0Xybq2s5I32XPlJQpvWw7Holt+1Z4K0e2MmsDUtJ9ZLyxli3/AOwu5K9qtbpL7T7S6gOEuolnT/cZN1fDvjH9qZPF/gXUPCXxJ8GzaNPOvyXnkb0Rl+5tr7f8L3Fnqng/w9c2Ev2mzfToPIf/AIBVRlzMTR5/+0ndazpvwB8YXOgnF/HbfP5ce99lZn7Jtv4b8efBPw/fX/hDTrOSPdayveW6O8zfxy769l0+FvnRELxOmx0l/jrwr46fFLU4ZbX4TfC+1+0eL7qDyXNkmyHSUf8A5as60S0d2Hked/si3cHh39sL4weE9LaT/hGcXTpB1Tekg/8Ar19cQ+Z08yvM/gX8KPDP7ONvY+D47xb3xt4jRri7vpfvXTJ99Vr1GONIbhIx5lEFZAz49/atsoLP9tv4IXqr5aXMVqz/APAbh6998aftMeBfBPiq/wDD+rXVzHq8MzI8fkfJXz1+3ZqR0H4+fA7UEV5ZLVd+yP777ZxWh8OfEWm/FL9rPW/+Fo6Kmk61Z26R6Bo90CtZ3s2kM+pNF8aaP4m8KvrqXRttMRm3zXHybNtecal+0n4POj3dxp7T31nDI266t/nT5ad+1h4em8Vfs0+NNJ0hIbO7hgW5a3+4yLFLvevOv2dvit4Psv2PIdMmeIanbaXdxzWsce995/yK0cmnYR1+j/tZeCPEXiHT/D+kPqF1eXTLGjx7Hhr2qGR/J8z/AJ5/8sq+Yf2A/hBqHgv4R6nrmv6f9mvNW1DzNOEifvIIlTbmvqC1jmh2ApxVQbauwZwnjr4yeH/h3rVhp+qXE2o65dxtNDp1mnmsirT/AIb/ALQHgn4keJZvDVreSaXr/lb4rTVI/KM1eP8Aj6HQ/Bv7XEfi6OV9f8UPYNv0Oz+comzalea/E/xRfeI/20Pg5qUuh/2DJJcRjy/4y3mc/wBKzcmOx9j/ABC8c6P8OdDTVtcvDZWjz/ZYYh9+eX+4tcNJ+1R4H0bYl/b6nZPNKqIbyPb96sT9tfwLr/ia98D33hH7Le61oN/NqH9j3DhTc8Dn/PrXjXj39p2Dx9ptvoXxS+H154Zjju45DqsUHm4ZXolJoVj7q8vyX/4CtZfizxjofw/8P3eua/fJY6fCuFkkk2b3/hRf9qtG4u0nNrNC3mW81vHNFJ/ssteMftc+D9R8cfCGytNFlh/t+21WC9s7W4fZ9peJ92xa0e1wJ9Q/ap8F6bbyPqf2zScN8n2iFtj7q5X9urbrX7Lusatar5tq6Wk8Umz+Bn/+vXj/AI2/aiu/EXhNvCPxc+FN1oFi7eW+rR2u0WzeteufthPZXX7Dbf2TcLcaetvpy28n9+LIrLmumOwngn9qrwN4f+DPgaK/vZ725sdCtobr+yovtHkOsYD7vyr2nwP418OfEzwdZ+KPC9/Hd6fdfIxjT54Zf7lcx+y78LfCejfAHwLAmh2sl1rOkI93cyRDfJ5iZf8AnXj/APwTjXydQ+MmjRfu7TTta/0eD+BAJJP8Kak1ZAewfEL4teHfAOpWei6lczTavOrTjT7ZA0qIP7yVpeAfil4d8fWN/Fo155eoaZF5l3pVxJsuERq+f/2D9UPxM+LHxm8dawi3GtebDa28cibvLiZpOn5Cq3xe8nwT/wAFCvhfc6PbrbSa9YwR38Mf3Hy8kf8ASjndrhboez6b+1F4A1bxJD4ftry5fV3bY1r5daF9+1B8NPDeuXGjalrn2LV45fI+ySJ++3V4P+0DoWnfs9ftZeAPiTp1kll4d1pvsmorFGERZf8AOK8//aqv7jXPjFL8WNB06Gbwx4B1bT7Z5Ixu+1TK8cj0nNhY+ufGnx88LeAr62ttZlurd7y3SeH9x/C1QeIvj34F8G28M2ua49vuEWf9vf8AOlcl4m1DQv2l/j98PY7C3t7/AMP+G9P/ALevpGTK+a/EMXvWH/wUk0fT7r9nuLV/s8SX51q3QSp15yP6VXM7NisdH4s/a6+GXh++trubWLnUrfdGjXdlBvRK9b0G+07xPpNjrOi3cN7o9z+8hnjk31zK/Dvw7b/s1w6F/Y1mbJPDP2nyvIX5p/s+7fXkn/BOK4e4/Zrvg7/8e/iC4SL/AGV2x01J3swPpyRzFHI+x5Ni/cjrySX4nfCfxV8TtL+1WltJ46iZbKx+22vKbnr19vuV8i/tJRW+m/tvfA7YiRo4i/WUiiTsgR7l8YPjR4R+FGpWw8VXj2cE3/L1sZk3f3K8/wDFX7Wnw/8ADttFewtqetWckXmPeafab4Uz/eqn/wAFILG3X9nfWLhIEMq6vZJXpnwr+HfhnR/2d/D2iJotqYrrwvFd3DNH880j24Y7qXM72QF/wzrGj+OfCOmeJfDt4bzTL+PemRyK0reNBJiT+41fOH/BOqTzP2d/EX+zrJ/pX0xp0XmEymOtIvmVxHxT4o/aUbxn+1d4Chm0DUrPR9CMhhs9nz3TH7k9fRuu+OD8TPgp481OysZrKSbT721FrcfI/EL14n42061h/wCCl3gi2jt1FsNOixH/ANs5K+mPGF1b/wBhePNOjkQ3EGj3c7wY/wBWrxVlG+tymfHX7H/x7034f/AFtDGmXmrao2oSz+TZwebXvfwR+N2g/G3T9Wh0MTWOsaW/+k6benZNt3/erjf+Catnp+j/AAH1DVvKWS7u9ZMEj7PuL0FQfBuzi03/AIKSfE2zVfs9rJpMz+WnypuzbtSi3FIGeo/FX40aN8HbrQ9Ge1m1vxTqn/Hto1n88tVfBf7QGm6547tfB/iXS7jwnrl7Butre8jr5w0PWPEN5/wUG8UXNrYrqWsWkE6WlvcPwm1f/wBdd58bvhT8Yfi1qXg/WtUtNO0efQ7jf5nmoPlZxT55PVBZH1tdQrYyOG5c/wCsjr5U/wCCiHjmex+D154Xt9Jvo915bSXGq/chevq++WGebe7/AMK7/K/vqlfOv/BQ6Rrj9lfU/VNasv8AP61dT4RLcvfDDx8usfAvwnpeq+A7q+0yz0m2kSCSBXS4df7tdv8AAv45eGvi9r3iHSPDmnPpMmiyr58PkIldn8E5PM+Cvw9g2fuZdEtNyf8AARXyx+w6i/8ADQH7QGxMR/a49n/gVJUXasB7n4v/AGiNJsfiQ/gPw5YS+J/FcaeZJa2fzJB/ss1efeLP20ZvB15qHhfVfB95Z+M0TMFl5ZfOa8y+H/jPT/gt+3R8TPOtLnVNIuoUhN1Zx+b5bGKNq7zQfAOtfGb9r3w/8TpLE6Z4U8PW6gS3Y+e7dIpMH8z+lLmb2HodJr37Yx8G+A/DWr+KfB1/ot5qjKieamxN1ew/Ev4iR/DTR49W/se81WzFmby4ktk/1KBd1eAf8FPlVvhD4GlWP5h4njB/79yV9LfEv5PgR4nb5efDkp/K3NO71QHC/DP45WPxY+Ed1490nS7mS1huntEs4uXdlI/xrzrSf22vCd6uuW/9j3lxq+m7ol06KB95nXtWh/wTTI/4Zf009C+uXm5fxry79j/wjZ6h+2V8c9bnHmNpV7fx26/7UtwQf0qeZ2QWPcfgr+1N4Z+LvgbxJrt5aXHh238NRb7/AM4/IOK57Sf2ldV8TaJJ4s8P+BtQvPCEbN/p0gffNt/jRVrmv27vD9v4F/Zd15PDdh9hj1DV7b7f9nT+H/OKj+A8fxVm/Zv8K23hpdKj0ibS9kPmfNJub/6+ad3ewHvPw9+IegfFbwjB4l0CZ5LOR2jZP44Zd23a1dRLbsu35a8P/ZE+CHiD4LaR4s0jXtTsL241C8juorW35Kf7bV7zMiRyKiyLJt/uVrFu2ojOurWaS2v4rbi5ktpIU/33XbXLfsy/CL/hT/wj0Xw9Osf9obpb+9/66Sf5Fd7Gixwb/wDlo1aGi/NM23+4aT7gfDX/AATJj/4uR8dpf41ngG/6zXBr6b8P/C66079qPWvHcUajS9V8PRWcv+1chv8AAV8zf8Eyv+SifHn/AK+YP/R1zX3DorM2qRN/dasoK8RnwN+yL8Vj4C8afGbQ9N0K68Q6/qHiGdrexi/uJPIP8/SvefhL+0pqfiX4xD4c+OvDjeFfEd1atPZJs+Sb5d3r6A/lXm//AATxsUh+Jnx6uSv+lLq8kcbn7+DPKf8ACrn7Q0aJ/wAFA/gWQvzvCm//AL6NJNpXGe5fHr416R8DdBs57uN9R13UpPI07R7fh7k1xusfH7xN8MJPD998QPC39laHrMi2iT2r73tnf7m+vAf23jq1/wDtwfDqzRv9GigtDZ+Z9zf5xz/SvaPj98E/iR8ZvBlxoniDW9HttIaeO68yMEMm38Kq7d7CPoqSNWG9P3iOu9ZP9muG+MfxIuvhX4ZbV7bQZtato0aa7eN9nkxLXQ+CbCTRfAPhvTWv01T7LYQQ/agnEihNua5n9oS48v8AZ5+Jkb9I9EuHX/vk1o9hHkvh39qvXfih4X/tb4deBbvUUgfZcTXDlU3/ANxaf8P/ANsKX4k6R9m8IeC9Q8QeL4HaO803zPks1B272mrov+Ce+npY/st+GPs683NzcSz/AFJ//VXl3/BOVfL1z45Oq8rqsP8A6FPWXM9NdxnqHwP/AGiZ/iL488R+APF3h1vDPjHTV85LXzN4kRfSrfx2/aFT4N6t4Y8NadpK6t4m1+Vfs8cg+QKxxXmtmY4/+CpV8kf3ZNAAP429av7R/jbT0+OPgbwp4Z0Cz8RfFAP58ct58sNhn5kdqfM7bhYueMvj542+DviDw4nxF0Kzi0/XLr7JbzaW/wBx/wDar0z9oD4lWfwY+H9x4iay/ta6e6hstOs87fOuJfubq+Rv25dD8W6Hp3gL/hLvEtvq93NrCulrGDxX0d+1j4e0Px78O/Cnh/VdQFkmr6hDbWMn3Ns5iOx6d3qBw/jj4i/GX4X+F77xTrPh/Sb3TEtlmm+ySBRH+Vdf8QvjlF4L8A/DzUv7I83xR4va0gsrETfu455cfOz/AI187+Ovhz8dvgv4P1O4utdh8WeD7KLfd2uoF9nlf8CrsPiVPoP7QHwv+DmmPef8Ip4kvoGvdLEcnEOzj+lLmewaG54+8dfFr4N6X/aGp6RpepWd7dLH59vHHhHavouG2T/RoHCeZImfNFfC3xU8FfGn4A+HH1vxHr0firww88QuUnOG2h+K+3/Cusf8JF4f8Oa28Ito9Qs47lLf+5vTdVwerQmcl8afE/iTwJ4fl1PwxpKajHbWMt7fTyf7P8HzVkfs/wDxUT4tfCOT4jeIIvsUNrLPvgi+9thrrfj1qKaT8CfiBdPyi6VPmvnz9krxBpXh79hnU9U1qN7nT7O6vXubX+N4t6bqTdpB0N3wF45+KXxm8KyeMtF1HSdO0ue4ke30n5Hk+z/d+au4/Zz8eeIviF4B1nU/E0Vvb39nrMunotvAkPyqtfPXhH9k/W9Y8OHxx8JvHj6TZ3P+lQ6bHO+z/davVf2L/EGt6t4T8c6F4ggjN5oerqj3Nt92aV0w1TFu6uM97ure8uNHvE06OP7XJE/2fzPueb/Bur5A1r9pD4p+HvjsPhm+lWN74ihEUFtJb42bmTdvavtG0j2svEfTtXyR4ct9NvP+CnHiy8ln3/ZbANEJP+ev2aNaupfSwkdN8G/iH8RvBGv+P7r4qwQjwr4es2unv47f7/8A1zes34e6h8Rf2o9K1bxtY+J5PBegNctBo+nWfyPtXua9Y/aE0G+8XfAb4i6FAjG8fTHeIR9Pk/gr5j/ZK+Eth8SPg7Yx/wDCaX2i39rO6XFrZ3Wx0FQ7p8u4/M9q/ZY+O118RNU1vwV4ilX/AISrwzP8lxv3vcxK+2uB/Zxk8z9vj44f7STf0rsfg/8ADrwd8OvjtrOn+EdQfVdTtbPzNdvpH37Hd/us1cB+zDrFnJ+3Z8Y5RMhS7Scw/P8Af+elrpcDrfjX8VvEHiD9obTvgp4M1NfD/mFbvVtZ+8/3N21a5/4j+OvE37KnjjwubnxZN4s0DWJNlyl7J8/XrXnPiDwna6D+35r8/i/UJtF07V5JJ7a7ifar+YgxXsXxS+D/AMFvBtlaajr9/Pr+p3Eq2unQR3QuJZnL/wAKLRq7sDc/ax8feNNF8P8Ahnw/4Htdq+JhvuL6OPf9miryL9pKLUv2ffD/AIc8R6L8T7jVrx7yNH01ZvNh2Dmut/az+Kl2fid8O/hZZlPDul3UNtPcaoX2Sxof4P0ryj9tjwd8OvAvwv0TT/DWsHXtbmvN7T+YH2Kv33bbSk92CPp79oL4uan4J/Z3t/GuhrDZazqdtZj7Xs+S2W4+/LXlNh4R0a+8C6nrPg/4uTat4lsrPfc/6d992Wum+I37QPg2x/Z68C281vb+INEvvsOmajH99IUVE315/wDEb9ln4OS+G9a8YeFfFqaTLDbNqNtBbXyj+Dci03qB6j8WPjNqv7Ov7K/hjVZG83xpqFvHZWzyfvf3uzc8tef2Xw1sP+FVrrOrfFq7k8bz6b/a5gkvshHb5tqrWL8d/CniH4v/ALDvw91u4+0XWpaKGurnzPvyK3y133wxtPgVrnwv8P8AiDXp7T7b/Z8CXjXN1tfci7fu0bvUBvg39sy/H7I+veNtSjWTxLpc66Rbz+X9+4KfI9Q/Af8AZhHxO+Hek+N/FfijW7rxl4iR763kkun8qHd7VV+JfhjSfir+yz4yHw98LfYdKj1H7RaJHDte98r78tdV+zj+1R4D0X4E+HTrmpppWqeGrD7K+nybvOm2D+Gjr7weh5b/AME89Nn0zx58adMuX824hMKNJ/f2zyc19q6h++iz718PfsI/E7w7/wALe+Kt3e3P2EeIJo3sYbj5HkzLI1fbo3+XL5kf76tKXwie58Tf8FEPhTpWmaN4d8S2l3cy3eqan5Exmnd9lfQGi/si+Fbbw8+nHVNYuftVkrTebdsfn8rNeE/8FFPiFo8mneFPCUPnXGsWl8uoXkccfyQpX0xZ/H7wfZeF5vEnnTSWllpUZ/d27/O3lY2VFo8zHrY+Gv2XfgrrX7QFx430HV/FGoW+iaTNjO9n3yh9q16L8ULfXf2P/wBm+38LWGpx3GseIdantYb636JBWn+wH460zSdJ8Y6VdJNFq+saz5ltH5bb9rV237a/ww1H4n/CnTp9J/eah4evmvfsmG3zRMlTGPuXW4dS14m/ZU8FaR+zjeWn2P7Zq9hob6u+rfan877Rs82ud/ZJ1KH9oT9nvVNL8YZ1H+x55ESTzH+75VaPjL9qjRte+B9xpOnWV/e+N9W0pdIbRvsjo6Ssm2r/AMGPB1t+x3+zPev4otpJfE2refO9jZjfMrtFtSL/AD61Wl9Ng1PFP2F/gb4e+LVr4o1DxlDc6tpmlXDWtjZ3MjvDHVPwX8BvDmq/tneKvAdwbmLwpZh7x9PspNiTbcN5Vdb+wj8QB8NvDfiLR/ENlfaNPe3oukNxaP8APFXL+CfiRqFv+17r3xFk8N63Y6Bqay20MhtH7gVn7tkM3P2kPA/h34MfHf4Pah4O05vDsGr3Oy5tbZ/kdVmjWvtvXFMmoyybP9ZIwH/Aflr4c/a78XX/AI8+K/w7k0PwzrD2/hV97v5Hyvuljb5fyr7K0nxEnirSIdU+xzabLNufyJP9+toW5nYl7D/E3h+XXvCWsWFtcCCW6tWgecvs8ldlfJvwF1nwn8MPC+teD4bNviNqrTzSSyaXaebDC5+VN0zV9A/tCeH/ABF4s+BHijSfCZf+35lXaI32P5S/M6ivBfgN8ZNf8E/Bu08C+F/hjrV14s+ZMyWuy281v452on8QIrf8E4XljvPjJBN+78ueH93/AHfnkr7BikNvH8n+sfivir9mPwv8S/gV8RPEOma14SuJY/El1GH1KMb7ZMPuf7tfa9xH5N6kZ/gK/wBKdP4bA9z48/4KBacniL4sfBbSpT8l1JHazf8AAp0Br3D9o3wL4Y8O/stfETStO0GwsrfTNL/0IRx/c2CP5q8R/ac0P4jfFD4yeGda8N+Cbq90vwjeK63Y2r522bdXq3xw8Q+OPHHwb1Pw9pfgyS913xJaNa3EcT7Es4vWo/mH2Oc+A/iS+0P/AIJ46pq1tP5d5ZaVqHkyGvM/2GfHms/D/wCGWp3th4NufEcmoajNuurf5ZflRK9g/Z88I+KNB+Cz/Cjxp4b+x2kkE6fa/O3b9z1wfgfwT8X/ANle71bQvDei/wDCYeFL2X/RP76UrPRgWfg78LPiJYftGeJvGeu6B/wjnhfXop3ktJXT/gCbKm8YW1tov/BSfwnBa26W8b2H+rj+T70L16t4G8N+P9a8Q3Hi74gNZ2ctrZsmj+D7OT5E/wBuR68d1z4V/GrxN+0Jp/xTGg6eEhXybeL7X6UWslbuBjftyaLcaH8ZPhr42mdP7LW4jtPsv8e9H3PXUftTfEyz/aI+HuneD/h7balrWp6pqKO3+iv5Nsq/3nrjP22LXxDefGr4ZppJh1rxZ9m2Q6HH++RG3feany2H7UvgPT7vUG8O6RZWdtH59x5XkfdWk92hn1p4H8Iy/D/4ExeFp9huLHQJ0u/L/jn2V83f8E17S2s/hj4m1CG0Q6g+q+Q13sy4TZXcfCn4ifEP46fszz6ro1vpqeIJ5J9Ld5d21Ivu7qi/Zj+A/jX4FaHe6Tqd1ptzo93P9qPm/JN5tXu01sSc98WP3n/BRT4cf7VhD/Wrv/BStVHwQ8O7E/1mu/41H4n/AGcfi14i+POn/FCfVtFtry12Jb2kf3IYlr1j9oT4Iy/HT4W2Ph7VNRhstZ09vtMV3H9z7RSs2mM7mPxRaeE/CXhCbU7v7PaXVnZ2VvHj78rJXRSJItx12Cvm34P/ALP3jhvFHh7Xfib4ht9R0PwxGyaNpsZb52X5Umevoe8dri4UgfvZH8x61jd7knxxqE015/wU+08atN5kFsv+hxv/AAL9nrv/APgpNtf9mtQz77h9cg+z/rXT/H79nOD4j65onjjw5cSaJ430+XKXUX8f+9WMv7PnjX4qeJvD2qfFvxNBrGmaFP59po9lHsSZ/wC+9Zcr1Vtyin8bY7i1/wCCd4jvf3dwmj2KH9K9L/Zdl3/s0/DD/pppX+NZn7R/wX8R/H/R18MjxHZ6D4XXbIUt05d1+4tS/Af4N6z8GtPg0i/8Zf21odlB5FhaeQm9KpJ8wuh63bQ+Y7B/4F306WdIfD+tzB/9XZzL/wCOUxFrzH4nfCfxf8RLq4TTPHU3hnS57byHtYk+/VsR4R/wS/bztF+Ktz036nb/AMia+rvE3g+w8X+H9U0O/RJLO+TyZvM+5Xhfw7/Yv1D4Ntdt4T+Il7ZR3RV7iHZjfX0PpdudO0uys3uHuTDEqNPJ996iCaVmNnB23wO0Xwb+zz4j+Hng5ZsXVhc4eSTe8s7ivDP+CXen2Hh7wT4ysmgMXiyO/wBl+sifPEq/KEr67jl8uZK8T1/9mFpvGWo+KfBPiS58F6pqn/H99mocdU0O54d+2JE99+2Z8KYvD8Pl+IJTD9oWPrhpe/4V953SqtwFVq8a+Dv7NPh34T+JL/xXe6leeLvGt8dj6zqh3mIH+CJe1etybvv76IruI+af+CjlwIP2Wrxf7+oWv9a9X+Hc0Fr+yxotwFW3A8HKPL9P9G3Vh/Hb9nOy/aA+zWeueIb+20S2+ddNs/kiL/32qon7M1x/wrxfBqeP9Zi0cRfZdkb/ADeR/d61Nne4zlP+CaErXX7OMxH3/wC3rpv1Fcz+zXbo37dXx6+7h4l/9CFeh/Db9kO0+FWm3Vj4Y8ca9pVnJ/yzB6frSeBv2OdG+H3j++8W2fivXp76+ffctJIu6b8aVnoB9Et0r5T/AOCmkfmfALQDu+dNet/619Vtj5a8i+MX7L+k/H3UIpPE2v6k2n28yzW+nW7bETAqpaoD1LxkW/4VnrrK3H9gTAf73kGvmf8A4Jh6Pa2H7Nuo30aYur/XbkXD+oQKBXr9x8Cbi88B33hebxtrZgul2favN+dIv7gqt8Cv2crD4D2sllofiTVLzR/mf+z7kgp5jH79TbW4Hj/7XYbT/wBqH9nvUb19ukLfeS5k+5u3D/61dN/wU1If9l+8Gd7NrdmIvruP/wBevbfif8LdC+LfhgaNrUePKkWa2uB9+Fx3FcXZ/s2/29rmjah478UXni2z0Ofz9N0yQ4jD/wALyf3jUtDPJP23LKez/ZF+GdtfxlLiHVNGjnjf7wYJgj65r0H/AIKCfvv2SPEyquQrWo/8iLW18fv2Y7T9ojVdJn17xLqFjp2ly+fb6fagBRJ/eJqP4o/s36p8X/AsXhHW/H15/ZAZWlCWcamTbt25/I/nRbcCp8fY1t/2F9bjK5WLwrbr+SIK7n9mmQXX7OPwzkT7h0C0/wDRa1zHjz9nbWPHXwt/4QO48b3C6PMqxXc3kgySRjtnP0rufgv8Nbr4S+BdN8LS60dZsNNhW2si0AjKRAYAOCc07Ad1F3qbmmLTh3pDFFG2lopXEfNPlUfJTo5KgrtMwqpfdPwq3VekxkclJRcedJs/55Rt5lJzQBDLLt+tTRfvY6qXjbJKsW8n7tKQEssXlRx1FeMlv5OKlklSWMcYqnJH+7oAmkk7mnf62Oq8f7vrTPm3y/M9AD/nhNRs2eaGbPNNX5qQFi1uNsbx+tW9Hjt7m6m84fw/IKztprS0nZFEZJF/jxmmBizTeXMyP1qaOmassUcpfZw71Hayfu6QHzz/AMFFJM/DL4dP/c1OT+Vdd40/ae8PW/wqu0ntrn/hJbzRU05NNjTe6O8W2vPf22LzVvGVv4d8M6RodzenR7w3M08aV9EeDz4X8baBY63B4QtbLUI9sbveQ/vfNRI/mrHVyaRXQ4X9ln4H6x8N/wBnDxDoOtbLLVfF0ckgj++0KtFtTdXmf7KPx60n4H+C9V+H3ia2vP7VtdaaZLTyH3ujfL8tfXcmoTyXvnec/mf89P8AnnVSTTNO/t1Nbksbb+0PK2b9iVfJa3KK/c+P/wBnfxxd6B+0t8RNd1fw/qNtZ69BMiII/usW+Sof2ivHo8TfHr4d61a6Pe/2X4bZRc+Vb/MmJRX2jY2flxv5iJ5kn/LTy6zrrT7TzHk+x2svmff8y3R9/wD31S9m7WuFzwH9sHx9B4g+C95oul6ddXt74guoJ08v5/LVfm+arfhuxj/aC/ZDtvh8ok07WdH0yJGjvY3TfPF9yvco7P7NcwyQQpF5n/PKPZWgFtorh5kXypZPWny3d2Fz5M+CPxX0r4W/D238C+MPBjHxDosrJ5lzabt6M+75a99+Eeqa34gsdX1p9CfRdHup1/suzkj2M6r/ABbK7ua1iud5ksLaWST/AJaeWlcB+0JofjLxF8MGtfBOoTW+t/aIv9X/ABrQouOobnjP7bXw51CTxf4F8ceGLt7LXdYl/sG5SP77vX0hovhvTvAfhfRvCGmJmz0e1WHzP77fxvXmPwo8A+MtZ1bQ9d+JJXyvDVmkGnab9/fdfxztXqEO+7uvv4lkeiK15u4PsbNo32dkevmNdN1j9l/9pDXfE2n6Dd6t4D8VJi4ks/neBm+avpjHzvRLGssflyQJLVyjzCufPOmeFdU/aO/aC0TxxNpdxovgfwdAv2Zbz5ZrmX72K4741XnjTxT+094a8a2vg2X/AIpvZAdkg2zKssjJ/Ovra386O8k2furf+CP+Crsk37tynJqPZ3W47mV4T1uXxN4btNWm059NuLpn3wSfwVzfxg8Sah4R8C3r6fpjaiNRinsn2fwbovkau6hXy7ZRSn95BLD/AMs5Fwa0a0sI+Sv2SfEPjX4NfDe48Man4LvvLmmkvba8t9j/ADVj/BO18b/DX43+MfGer+Frj7P4l87lv4My7q+zLd5Le3SDe5jjpZNSnj+5LIPxrP2e2uw7nxj420/xxr37TWg/ELTPC3+h6FHFbeWH+Z1XzPnq7+0n4F8UXXxG+H/xDsNOTX9Ps0g83SbeT5oJR81fWd1eSybsOPn+/wC1c20becjo/l/NSdPzC582fHDwn8Rf2mPB9vcW3h59B0/RZfOhtbiP5rlq6DxjY/FL4jfC3wZHa2Umia/a6hGPs8k/ybYk+9X0dp97cRxkmZz9ZKteY/nR/PT9n1bC54Z4k8XeKvG3h/UPDuoeAo77XLrzLUXUsey3/u7qpeLPgT488G+E/hH4b8DS/aNV8L+dd3F35mxHZ/vpX0ZG8kaf62rFlOVkyGw9Pk7sLnhPxAk8f/F7wxeeFLj4b2NvqNzF9lfWbgKEh/hdkr3bwH4QT4b+BfDvhFL46iNMs1tXuDWr9qufK/14qaGHmqUbO4jK+I954n0/4faw/gy3hl8T+Rss/tH3N1fGXw0+FH7TnwvutWvNM0vR7y81ef7VfXd7Oju9fe0Um35qZHezSP8A616lx5ncdz5m+Cvw/wDjDqX7Q1l47+JkFhb2Wj6Vc29ultPv+Z6+kNQjm+R4h5ny/OKszNNJ95qjjZvpTjHlEfIXx28BfFD4n/Gbwh4og8N2EWmeFp99onnPvuU37qu/tRfDzxt8aE8Jax4d8LzaP4o0+fe93/Gif3d619Zb/LqZLl/J2o7bP+mdS4LUdz5N+K2u+Pbj9lrxlYeOzDo2rpYqiaj9xrrD/wCqavHvhe/xcTwVo02i/Cy1kt47X/R57jeWnSvtL9oL4RwfHv4ZXPhia4a3uFbz7eff/GK5XQdH+NXhXw7p2h2t7pMlrZwrbJIAn3VqHF3Hc5b9lb9pTX/id4s1D4d+L/D76N4h0m2kuXz/ALJH+NfS8KeY3+8K8t+DHwUt/htrOveKtWmTVfHWutm81EfKiR/3Vr1Fcq1aRvbUTPkPSfhr8SPgX+0z4p8b6Z4ft/FWj687bZI95eFX+b0rm/i/8I/jR498V+H/AIuNZJLqeg30D2GixD5/KWXdvavulrxo4WRW+9UOPSp5B3Pm34kaD8WPEnjD4b+MtJtPs+t6QJxqNn/yxdGo+Jy+Nvjpo9x4Jk8D/wBmzX4gkm1K5CxRW219zvX0nvZPn3Uecz/xU+UVylb232HT7Syj6WsCwp/wGvGv2lvBPjPxkfBF14FuGtNV0W+kunn+XZ9z+KvbttVpLgx3CQRf6w1TV9BHhHxK174i/FbwXd+CLnwJbRXGpQeRLfH7kbf89aofHn4QeN9S+Bul/CHwvpn9rW8Wm2kb6tKdib4j0/Svp28uJGWBWbBVarfaZEb5ZGSp5Rnivwj1b4g/D34SaV4fk8H/AGrVvD1nFp9qslxs8/aK89/ZN+HHxQ+BvjLxO+u+HY2tfFF79ouPs8nyWxZs5/U19VwyN9oZ3kqxJu2f61zRy7AfKUPwp8afswfGjxJ4v8BaVH4p8HeJUZ77TXPMTl93H+e9bHw3+D/ib4hftA3Hxp+IOmW+hR2dssGjaJv80j+7K/vX0fbzSCT71SbVkfDp+8pcqC55f+0p8Mv+F5fBjXvDgCS6tj7TY+Ydmydelc78KPgLZ6T+y7H8Mtbi23mrafN/aL53Ol1L3/z6V7N83nMmxqdDukHm1XKr3EeH/sffAW/+BPwzu7XWgj+INQvGMzxyb/3SfKi1hftmeA/iF8aPDdv4F8K6Rbmwt7mK/e+lk2b2Ga+kvlemCRo3+WSlyq1h3PGptW+JLfBa10EeF7ZPF7aW2kn9/wDudqpt31xP7GXw7+I3wV8O6l4Y8TaNHaaRc3pvIbt5PmjbZ/8AWr6baaT++1RXG75fnp8uqYXJ7UrcfP8APs2tu/vV8Y/GzwJ8W/iR8dvC3jix8OW4s/Dcq/Zvn2/KH5r7F2nbtp0PARHLOiU5R5hHzt+1T4O+Jvx3+GsPg2w8M2sUk0kF5cXEl58iMueK3/DOpfFTRfhTaeH38NWcmt6bp8emLIJPk2pFtr3KSWqTPJ6UuXW47nyz+xf8JPiH8ILHUdA8QaXDHoerz/aprrf88cuyvpOOS5uNNLtsilt5WT/gK1d+0t5uMVUuTHi4j71UY8qsI+cP2jvgf4y1b4zeFfix4Dns7nU7OKK2exuQy7HTNbFp8LPiNpfgXxnqL3trL8QfGy5vkk/49raLZtSKKvcbff5H/Hx5NSKfMm8vzJP3vNLkVx3Pnb9kv4YfET4F6XP4d1GO3/sS5drqUx7HfzK5bwn8IfjFZ/H/AFL4smfSIp7jfDLb3O7/AI98V9T2kxgMkmzNII0mljGfrS9mrJBc8I+OnwP124+JGkfFX4c3aad4tKql3HH9y5rXt/C3xX+LWvWVt42urbwx4W06Zb2a30v/AF14y/dSva7S3SO6MiHPl9a045fM30ci3C5Xt7UwmfKR+VIrV4x+058FPGPxu8L6f4R0jU7DTdA8xbm4eWPe7sua9yf+J9tOXcr1TXMrMR478NfBnxJ8C/D9/D8mrabJeafYrZaXfeXn/vquD/Z//Zq8dfBv4l6r4gfxDZSxa7Lv1OPZ95Ffd8tfTXl1EyZkTevmxyVPItB3Pzv8F+BfG3xY/aA+KT/CrWUsNDn1Frm5v7yDd9592yup+KifHP8AZhPh3VNY8aQ6/pF7eLB9ls02fpX0FYfsrjw94u1HXfBHiKbwlPfMz3P2fdW7o/7PwfxNpGt+NNfk8ZT6TN59nDco2yN/7/WsuVjudl8fvgnpvx8+Fdx4c1K5bTLomO5s7qP5vInHQ15VY/AP4v8Aiz4f3XgvxV46tTo0dv8AZFkhT55kC19K2czXMJlZvmbdTI3bZV8oHz58D/2dfG/wD8M3Ph/QPFUNxZFmktxcxKdkjfhWD8Kf2V/GHwh+IeteJLTxTGf+Ei3Pq3mxq7jc+/5cV9Rb28zG6q+oMsyhqOVCOe8YeGNM8eeEdd8K6sudJ1a2a1k/2f8Aar5z8C/Cj4xfCSxTwl4X16zm0LzW+wzXD5a2ir6Zb5pNtJBuRt1U4rcLnJeBfhNP4L8E6vpsniC71TxRq0Uj3eqyPwsjL0jrE/Z2+EviH4UeFdRsPFPiGfxDd3Vz56PN95K9SkZt0S/7O+pvM/zmiwEcqtJHk1w3xB0Xxlrtqlt4T1lNJkZWSbzK9AmkX7P/ANNKLWOn0A+Uvgv+xv46+BOtajqnh34i2aPqQX+0IZbb3zX074gt9dutAuINBv4bPWtiol7cx5T/AGmrUNOj5qVHl2A+dP2e/wBlfxJ8C/El5fR+MYbuy1Kf7TqEbwfPMwqDxd+yv4g8cfFrS/iVc+OWs9a0yTfYweUHhj2/WvpTf5cb1Vt4lkjSlyq1gPLPjD+zzafG7wro8Os6mtt400v57fXrIbCj/wCFc1H8Efib4oSy03xd8QNmhQ/JcR2b/PdKPXivoFe9Mkkf7lPlTGU7azgsbO3tbOHy7S1iWGJN+7Yi1wfxw+GWufF3whJ4Y0rxFDoWl38TQ6j+6y7pXofze1R/P5ftT3VhHhXwr/Z38efCHwUnhfRvH9rJYRqyp5lu3ybvSqXwX/ZP1j4F3WtT6F41muJNWdZLuOWPajuvf9a+hWbyqS73NsTdmkooD5kj/Y61qy+K3/CxR47vpPFNxN89zOqYxj/PFdR8WP2YIfGXxK03x9oevPpHiO1jVHuc7mfbXtMa1MJPajlQXPnv4ifsfwfE7Rrd/Fvi3U9Z8RW3z2V9lQkNaviv9mEeOvhn4S8La54u1GS+0e+/tA34Tl/l2qle0YaRqnaNxgvT5UFz5+8RfAPxd4i0n/hGtc8dfafCfypNBHnzniX+Gl+In7Mfhf4kXnhOKO5m0HS/DFm0FjHbxcV7Vq7PC8M8aZOfLpq2/lReXn/fkp8qFc8Gk/Zx1HxDZppXjPxxf614UjlV30on7+x69u8uC1+zWlrFHb2cKrBDHF/Aq0mPs8NWrX7sX0qlFR2A474xfDOH4weGItAvNXudJ0tnb7YlvHnzkrgvCn7Kfh/wn4K1TwtbeINSvfD+oQSQvYSfJsL17VcN+8kotY/3AipcqvcDwez/AGSbPQbWx0zwz4y1jQLNI9jxxjfvavVPh78PNE+E/g19F0dZjG8/2q7u7gfvrqX++1dHbNm6ly/EfFGoReeI6FFJ6BcjktY9c0aW0mea23p5fmR149D+yL4G0fxA3iK1udWj1h2+e68ze717dJi3g+lV/tE0kMhA5ocU9wKkLJHMmEMsZXy/LmrxvxJ+x/4E17WL7VrW51bQJLp/MuYNLfyVr2wwyeT15p9oMeZFTcVLcDjfCnwg8KeAfBl14e0CK6i+3NvvL6Tm5mZv7z1znhv9k/4c+FdWi1fTbO6jv0dpHn8z53+fdXq+BDUu0UuVAch8Q/hL4V+Kln5HibT/ALbJC2+3nx88P+7XP/D/APZ68CfDPxAfEemaNJc64m5IXvJxN5P+0leoVBf/ALu1LvT5Ve4HG/Ef4O+EfjBdWN94l0aHUbiyRwkmNr1n6b8A/h1pavpieE7S4tL5dkz3G9pq7u01Pbb75E6ccUsPzSpLHRyrsBwsPwO+HulaXFpFv4bso9Lgn+1eRJH5vzVlw/s6/D/VLp7m68M29yI5N8KSyPs/OvT5mjgqpD/r5aOVdgLVxF9stXsZooZdOki8jyJY/k2/3K4XUP2b/hdJqY1V/BGnS3ackc816Rbx4jxTNS/48WpNJ7gQ27CJhYwosVvGmxI4o0RESuHb4P8Age41p9Yn8JaQ92G375LVI/nru47kR9RWZBOlnH6k1VkBkaT8O/COn6kdQtvDtjFqCN5hniRK045isRFTWS+dJJH0/d4plraq14YyciOgCpd6N4evJpZ7nQLC9lnVUnkkTf8Ad+Wn33hzSIYIYP7HtjbJ+82Rx7MVoS6ePtUcWeMU2/vBJdOkfTpmiwFSOy0+O8juo7CGG4j/AOWkUab6WY1JPziiGDz4aYFXTdPsNPvluobCE3KfckEdWdRh88QTz480/PT4FVrG6nT+95dVpd/mHPWkBM98X+/Bbye/l1BPIrRtH5EMaeyUXLMyIiDyv79NbYsPvTAd5ifZFHkQeW7f886aZN+3NQ/whakXbQBb0+4it5d6jzPSkkm877iRx/8AXKOorS1ist+xPJw/mCltfvUAXGvri2ij2N5VZ6JuNSXX3qTafagC1JfXEv7uR8R96qLdTQ8JIRToZT5uag3fN92gCdr6aTqat2s0nm2/pVK34+f0p3ze1AEdyw+1TPGzbN+anj3+VxJioI48zAVb8qSgDxr4u/s7XviT4paH8TPBOqJZeJrOPY8d5J8n3NtV9a+G3xn+IGmvo3irxnp2k6bcr5F3/Y3DurV7ldXSeUkdv+6/v02K4xHis+RDuZngzwnonw38Haf4W8PxGy03T1+Xyvvu/wDG71qTeZT/ACfOp/kn2q9hD7OF7WRpz0NWZpHUcCkm/wBWaRulICGfOBUcOfOFTVT/AHnnVQGj5n+c0SyEVnS/638aum1Sby/M5pAWaS3j2rS0+kBMlLuqJTT6QD5W9KF+6tD0qJQAiuN1PVvlpq/PLT7jdHQA+3/1gqxJRZ/u4V307f8APUgNjqSNPLSneXT9lIASlRPMpqJUy/foGSt8y1NG3yhahXpViGgYtTxrtXbTFWlpAS7fmqaPvUSfw09WZpfapAlx70u2jFLUgKvWpYqhB5qRW6UDJ6eO9Mp69aBjqZTun0opCPmqOSo5P9ZRbfdpZI/3ldZmN5qvN2qxzUfnR+tMZH/yyqH5/N8ypqJu1SBSmRZI6PMWOOn+Z9+oZaAGwPg1LUcO7YcU/wCb2pAMj39qYv3jSp96jmgBGbPNRJUlItAElXLWRJf3ZFR1YtSlrHIYzk1QGVqz28m3yxgVHCvlx1F5f33/ANqrFr+8wlSB0Gl3z29v8mwVHdXHmCoI+lPqgIv+mf61JJvmljp/k/6yib7woAsfw1Tkj86rEPT8adSAjj+9HVny/wDV+bVKOPzpI4qtSyp5tMRZqOWo0p9xHmgCrLL5Mnm1Bo8X7zzKnjPnU+OPyaBj/L/dSVDLK/k1ekrOv/3NAi7Ys81u0n/fFJHv8qorffa2aQY+alz5NMC55nlpT0qLzP3aU6FmMdAxU/eVBcA02G1UXhlD8+lR3l7HIskfmR/jSAgm+8az5IT+NW/3MPV0m+TH7qqkhNIC3aw5jjrXSOs+UmGKz8qtCCS4lkwYcCmIdtarsNv5GJN9JDujk+7Vja/+s2SUxk//ACx/GtIR/u0xWdYxeZ5nzxxf9dauxxvIuyCTzPrSAn3/ALvZ3pkMBkkMjjyk9Kd83mOnas6688/63/v1SA12Y1FtNCr5drC8mzOKS4V49mKQEki+ZUmNny0ir92iX99LQA6m+S1SU3/WUANh+9UlC802G6ijujbzMkez/polADqm/genSR+X/dk3/d8umx0ASIm+F0f+Nap2NuLeNIY14q2v7ymr96gBnzVGu7zWZf8AgVSTyC3tbhx/zyYrVe1nMypIi/uzQBZcMnao2+8Ke1R+csLLuoAiWGVL5zv/AHWzpVvbIIvmX7/3ahtS07SNVl2OzZQBFFujKuKs+W2ze9V9m1dtSHynWTdPFBsX7m/5qQEVu37ld3+1Tdu1aakDWoRN6yI38dTUwFjjby0/26jZRViCTbG9Vl+81ABzTGXdTmaoPORkfY3mSR/eT+KgCakm8xQdn36asm1fu/epHemBL/Duaq1TyfdqncSYFNAN+eq8UJ+1+bJVqHb9mj9Kjtz5l9LTAq+V/p8f/PKqUlw324SHko9EniDS7rZHBreny3EnyfZIrhN++oljYSMjLzSAk48upbXfsjx0zVfip4ZMUwLcH3RWrCFjjAC4FZUH3RWlHJSAlb5mWloVc0u0bqQEdP271p3l43n/AFccas7u/wDAoqG3uY7jTre9hdZLecZR6ALUaLJdRg/xVP8A2bMzVWt90l3FWnapJHJLvbzKTAsQqIIdi/wUtQyT4ojk+5UAQ3H7u4Q0skfmU6STzZPuVFcSf3NlUMgtbfzJsf7Lbqi27akR2D0xmVaYh/mfOrf7NP8ALrNfWtO/tOPSzqMMeqSDzEtN/wA7qKw/E3xW8IeCZPJ1nXoba73Kn2ccv81IDtv9dLT44/JjpI7c2ucN5m5VZf8AdNS/J9mT03UDI6WKpKik3xzJs/eR0gGU/wD5Z1FJI9SRyCS1flN+77lADY5Hok6VheKvG2geBY7d9f1FNO+0t+5q5oPiTSfF2l2+paNdpe2DyND58f8AeFMCzViOOq9L5bSJ8jUxE9zVf/lolWJH8y3hqNbdbq4g+b60gIPNEbOu7il/1nyVXmVWmk2dN1WLOFmkFMCzHaeW+/fUdxu8yp7RPMnJpuoYhdPmpDM26fzJXL1UupPJs5D7Vbm+/UL/AMSf7NUIyID50OCaLW5P9plOo6UQ/uf3NTWqg3Rl9aoCxJGnSprfpUUn+rSmWkkbXMgx+9j4pALE2Zp46mhjTeSKpwyDzZJR/wAtaswXEbSYz+9oAlm/1e2of9VWB8QviBZfD7TrO/vLSa9jupNiJZpveuf+EPxm0X46adq19oCOLPTp/JbzPkdHpXV7Ad35f7mMS806L/WU1onmCRnp1rzHxh+0Z4Y8G+JZ/DdlbXnivXLP/j7tNGg3bKG0twPU8rSf89K82+Evx88JfGRtS0zSTPp2vWPz3Gj6j8lxt+tehH/lpQmnsBMs2+8hjD5+TNMv4/Oi8vvVbaYdT8yOPEVW7lhKuJD5UVMCKalhdvs6SSJzI/7ukEompyuPkj/550wAw+cJKr6dEhhyetWGm8mGQ0RRf8taALNvTLqT93splrUF5wPN9KQCzf6g1RmhPk58rHvTEvDKwWVAwqU6gZh5ZiBz70wH2U3+t/xosv3OarxzbYiK0IYI7egB8MMgmuJPMrO02H7VcNnpjNaTTeTDIapw/wCg9e9AFK5/1zfWrEU0kNj+745qC7/1jUtuyM2DxQBYtZHtdPVB3PFR0omMPFQMxjNABH2ouP8AVijmmtu70AQs1WYYR8jnpmoPL3NVr95+7ioAde3AYx+X2qK1/wBcKLuPbItNiZfMQnpQAl9PuzsHG6oUY1ZvrlGtI/kx81UftP8A0zNAi1sk2L6dqbTIfMjjXef3ntT+aBk0cfzR1FvO/d/DUi3Ri6VDxQBNb/8AHwv1qzFeYqg25aWDc0gAoAnuAfNNPwYKj84+v60Xj7ZF+lAFuGb86lqvajEaSVa0/wD5aSUgGNN++qw3Snm1SZvMqC8/1lABNJ/q6Jl/fW8tR/aI/T9aZJTAP9dN71atZKo+d7Vah/pQBoVJtNQeb+6zR/rfLP41IFjd8u2pEqPzN6rSrQBMm2lf7r0c016QCw/u2XZUjp83zVXkkWORN7/O9TJ/vb6ALnmJTxn2qnu2qakjk7UrAW0en1AlTp/HUjHc0+OoqVH+egCyrVKvy1DuqTd70DLCsakWoY8fLVhU+WpYEnNO3BWpvNOWkBMtLSLT+akBrKRzT0PlnJpOaQCgZYTO35qdTI2FSKu5aAFBNKO9A70lID5tpj0PUmxK6zMgqvVmSTbVagZYpkmyGPzPM5qKnTQ4+lAFWSPFQ/N7VZlqKkwK9Mqaf/Viq6UgJo6f8lQr1p8dADGVg+DT/s8n92rcFU5n/fv9aYEsgeGMA1DNcOLGYdqWY+YoqFl+WkAkJ8wVas9vm81X206OgB/jLxBD4E8Caz4qvbZpLTS0WSaOP3ei4iv/ABFoUL6FNDFc3Vr9qsftHyI7t81fOf7efinx54d8C29tZxRW3gvUWjS4nEnzzv8Ae216j8D/ABT8Q/EUfhl/EGh2Fj4f/smBzdx79/yp8lRze9yjscd8Afiv4z8QfHrxT8PPGj2cf9k208zyWUf8aV7pbyeZGRXx3feNtY8E/t6fEN9C0lta1jUA9rb2v+00SV6VH8fPGPw5+IWj2XxP8O2mi6FrX+ixSad/yzl/KpjO242j6EqCK8imn8gjEv1rifjv8YrP4D+EHub1PtOqXU/k2Fp/favKtc+Ivxb+GWl2njvxbpdidDSWL7Ra2339r1pKaTsKx9IG68mmSbOaztH8QaZ408N6d4l0WXzNL1GLekklYfxL+Iel/Cv4f6j4q1OH7TFa7UtrT+/cNTvpcR6DpVq8kbvs/dp0qpfSGWTGfKi9a+b9C8RfGzWvgrcfEeDU9HjgkgbUINJ8v5/s61xvwd+Jvxp+M18/i7Sbe3/saCf7LNB5mxXfZUe0XYdj69j8yGXyx0/6Y/PTJbp/3nmx18geG/2l/il408bat8PIPDelS+KEDQrcR/Js2ffZv0rs/hj8bPEfhn4Z/EPxH8Q9G8pNJuvstmD8jvL/AHaPaJhY+i7O9eQ4kV2HtTrjUju/1f8Aq6+bfD8fxv8AFXw5/wCFiWur2dtJcwNe2mjyH5HtVrVs/jL4m+LXwQtvFPgdLa38S6fuj1j7R/sLuo5wse/pc+d5dV1uDNx0ryD9mv4heJPjR8BNX1ZvJj1y1vJLKF4vk+fbuSuZ/Z9+IHjnVP2gtd+HHiKWGKOzgd/L2f6ttlPnWnmFj6R+3eV1q7aGSaLzERxH718Z/Fr4y/Er4T/ES30y1u0vbLVNR/4l0Ecv8O/btre+Ky/Hn4L2c/xJm8Sw/ZLN1S70qV96Jv8A9ml7TyCx9W28ieYQOtcj428B/wDCZwjSRcXGkSb/APX2/IrA8VfHOw8J/A7S/irc23N7Zq8UEfyb7h/4a8n+Gfgj4u+OvC9p8Rk8bJZ3Wqb7620aLckO2nKSelrgWv2KfF2s+NLP4kwazqk2pXWkXUfkyP8A3N+2voqC1r5Q/wCCcdxcRN8W5Lr/AFu6Hf8A7++SvrKObzocUqfwoHuWN3lTR70kNfIH7Y2geNfh2i+N9N8Q3EmnPeKj2uMpDur7JePMcX/PSuD+OHw9/wCFhfCXxTpMZTzBp0kkPmR78OnzVU43iJbnP+A/h7/wk3wl0ZI/F13jWo476a638K2yvAv2VL7xD49+NniDwzrfi+4kGked5HzDa+x6vfsofGK30H9mTx3pmoy+ZqHhtJ57a0/j2uteZeEdIuf2XPiF8IvHt1eSTx+Ibf7VqOT/AASn5h/n0rnbWjRZ9IftY+GdbstU8IXXhXxNeW+seItTi0v+zvk2fc+9XtHiT4V+IdB+DOs+HPDHiOaTxHJGqLqN58nzfx7a4K4tY/ix+1toEIfzNE8F2Lap+6Pyee5+RWrof2opvFGj/DnWPFuga59ji0W1a5uLfZuSatdNZE9ju/hHo+u6F8M/Den+IL2S91/yG+0XdYHw5+LA8efFT4jeFoWWSz8MeQkM/mb97NVD4P2urfGT9lvwdcTeJLnRtb1O3eWW+t/48Sla+Vv2JfhjrHiHxf8AE6G18WXOlXFnOtrLcD78/wC9+81LmeiQ7HsP7fnh2+8NfDmTx5pOrXFlepcwWTwRivdvgPNLq3wJ+Hl7PcfabibSInlkk78V5f8AtsaRHo/7HfiO08ya6eC5tP8ASrl97v8A6RHXH/Cr4CfED4kfBDwdqkvj9vDsf9j7NO06zj4Zf4GejaegdD642sj1XurxbWQRxpmWSvAv2J/idrHj74e+KNE8SXL6jr3hnUTay38nztIrf/qr3aGRZL0mb/Vyfu3rWL5lcktRuzWfn7OaS0nlkBQp5Un8EdfHXjB/E/w7/aY8LeCdW8YXT+E9a3TWl1cfxs33VrB/ak8VeKvhh8fdC0Ox8Y3jWmoywSXA37fsaM+2s+fTYdj7u/eKi/u/nr5f/by0D+yfhVf+PNJ1K+07W7eW0gdEfam1qs/tD+HfE1jqnw30PwZ4qvI9W128+yFfM3J9n2bt9V/23tPfQf2P9Q0d7x9Snsr60jmuv7/NEndNAj3b4HtJffAj4cXMsrS3Fx4fs5pZJP42aMGuwkVo/v18s/Bn4E+Mfix+z74O1Z/HWq+GHOkRR6Za6XJsG1BtRpK2/wBhf4veIfin4T8XaT4svW1bV/DuorF9uk6yRtn/AAojLZDsfR0cbSbdm2nvG3mfcxXyhr1x45+Jv7U2p+Gdcvrrwr4F0u0lkt59PkFv5mNmws9U/APi6/8AhH+2RZ+AYPFNx4h8NeItMDIlxJ5uyUb1QfpRzCsex/tNfFD/AIU/8H9U8RDb9o3R2tum/wC+zPXqzWjW0cL7fvRKzV8H/wDBTjwC2l6H4c8RPrF1Kl1qDW32Hf8AuUwlfXPgP4Y3fgzXH1abxJqGpW9xaKEsZn3ImVoUnzNAdgzbmVaSaxe4t9zrsjoktVvIzAZXjDrsd46+N7HT/G3wr/bB0XwBrHjPUJPBmqD7Xppkk2I59PrnNU5ctgPsuziVLyVElTNWDayyP8sVfL/7Rfhvxfqnxx8D+HPCni+906TXi0+p2kb/ACW1qn33qn+1d8Vtf8J+KPAnwe8E6nNpN54gMYuNZkk3zRwF9tJyCx9SeYJJGjR0l8v7/lvu2V8y/t3eEmsfgtr3jfT9SvLPWLX7JB/o8+z5DMP8a4341aW37Lmj2PjzwN8QbnUdatrlLXVNNvJ1uLe8Vvl6dq779rLxVa/Ez9hPUvE1mnlRahbWN3sP/XQcVMpXTQz1H4IXVxP+z38Nb26uXuJ5dEt5pp5Pvv8AKDXoX2eWRvuV494H8cWfwz/Yt8HeLrm3W5j0nwrbyLA/8bbRXnvwB+GPiP4/eBf+Fi+KfFepaXqfiKSaTTrWzx5VrD91P5U+bSwj6fG1F+ah4TG676+Zv2YP2iLq68M/ETw1433Xmo+Ao7mea+z/AK6OLP68VzXwJ03xb+1F4N8WfEvxB4ivrCBp5bfSNG0uTbDG0af5FHP2Cx9XLbz3llKlq7W0kySpbz+X9xv4HrzH9nX4Y+LvhvpHiSLxXrn9vXmqX3npdb685+AHh34qeOPg34g0DxZrF/4YvdPvHezvANtzNFs3VS/YB8ZeIviV8NPiAniPX77UfLvFsreeR/nhXYelHNdoD1nVPicLP9pbw98O7eW2cTaLNe3Y38xsv3Fr0X7crRK8C+bJ/wA86+AfC/wYOm/t56t4MtNbvLZ4tPlnj1LfvcEQCUV9VeNPhTqGs/DXU/D+heJtRt9VsY2nsdS8/fM0q/ciaiMm7gz2BlabbtqncWn71JIwmfevlr9hbULr4h+BPG1r4q128ufE9nK1pP8AbJ/9Sv8AfSpf2R/COteJ9W1vxxq3ibVLzw7Y6rJZaPpskm9LnZ/HTU72sFj6eukktof3PWqsHlC3knndLa3kVv3kkmyrlw8fmI8riO23N5z18TfDu31T9s34oeMdd1fXLnRPBnh5/sttY2dVKVrJCK3xH8J6N4P/AG7PhVYaHmO0vIoLq4jMm/5meSvsvVI9usXYTbGm5jXwn4r8E3fwl/bv+GdpNqE2q2ci2sljJcffWIvIuyvav2r/AIgarrHxS8CfCHwpqM2kX3iK+SbVLuP5W8hn6fzrKMuW7KPcrPXtP1K68jTrm1vv+WfmRXFPbfz8vNfMn7Tnwrh/Zk8L6X4+8A6zfrLpOool3b3km9LndWJ+1h+0xeXXwx+H+maG/wDZD+NbOK7vbtHx5Ks4q/aWvcVj6+s9a02SSJI9VsvtP3Ps5dPv1ueckdiLmcrFHHy3mfwV8R/Hbwp8Ovhx8JYdc8G+JpD430t7Z18q7eXzpWePfuSuk+Nnxq1PxD+zr8JvE2yW18Pazdxv4kSzTJ2R4V6PadwsfWVhrmm6ldOlpqdtele0Um9a0fNQzPCrZkRfmr4h+JEfwx+I+k6NH8KfFT2fiP7ZFvsY53V5kr7mvo1/tDeqc7V5/vU4yuBzXxC8PW3i7wneaFeapPpKahbTQfaov4N1c98Efh7ZfBv4YR+HJte/tm3tbl7p9Rlk/wA+lU/j/wCA7bxl8Ptb1Oe9vLeXQ9Nubm3jtn2bnxn+lcH+wppv/Cxf2SLay1q4mvVv9VvbeWSR/ndc0m/eDoanwl+PVt42/ak+I2htqsMnhzS7GC2sWz8hfPz4/WvoG0ulkgSeF0ljmr4B/ZD+E3h68/aR+NuiObuOw0aa4jh+zz4+VbgrX3lpemW3h3Q9P06wh8qzhhwkcj73SlBtrUDQH/HqzdDD89Y9n4s0XUrp7WPV7WaWPtHIj1wn7UGsaroP7Nvje80r7R9sa2EQa3++I2cBm/ImvmXwz44+BnjL4Mvo1tqUnhjxPHZ/JJcSeTM8/wDvUOVnYLH2b4x8daF4B8M3HiLWdVh07S0hZ1k37t9eTfst/E3/AIWJ8FrDxFreqRvq2oajdbl+6+0S/KP8+tYfxH+F9lq/7DaXWsz/ANq3ukeG2niljk3RMVOaxf2EvhN4cv8A9nvwZ4pv7f7bqImvCik8bhcED+VLmfMO2h9MpqlgJ2s/tltHInyKHnWq2q69pNtdJp5v4RcffceZ8+2vin/goJ4EX4b694M1/wAKXd9ba5rOpOHjEnGcV6JffsM+d4w8L61d+IL77VFDG+rXEl3tmnnPzOtPmd7JCsekzfDDwf4g+NWmfECPxQ/9uW8DQxaV9rTY7V4f/wAFFvDGn2vg3wVqUdvDDq9xrOya7irN1Pwba+A/2/vBHh3Sry8j0wQJdywSyb13HP8A9b8q7T/gpgVt/h14LnfmOPXhn8qiTvFjPrTUNW0vTmsrWe+treSO1jVBcTqm/C07Tb+w1yF3029t9QjRtmbeQPsY18Y/ELVPBf7Ynx58MeEbe6utP0zS7cS3d8f3b34+75UNfTviDTfDv7NvwV8Yat4ZsRZRaVYy3Uas29i4TbF+uKrmA2/E3jTw34Xvraw1PW7HTrt41kaC4k2ZrTsZoby2hu7OSO5tJOUnjr4i/ZY1jwH4q+FtzrnxHuLvxL4o125lnknvgdtuu/btR66X9hPx5rU/i/x34FvPtEnh/T5JLrR3uEZti+djYrelCkFj65iXzpnLyqnytvd/uotfPdv+0Bo/i79rjQPCWgeJ7e58N2GjXTX6xn93LdZ9a+gJI45PNtpl82Ob5HT++rV8R+H/AIH+DR/wUM1Hwra6RHZ6JbaIbtbSM8bwsdOTegkfU/xktPDvjH4UeLb9oYtVSw0m6kgndM7GCE8flXj37C/jbQPDf7IvhybX9ZtNKX+0L0b7yQdftBr2bx9oWm+Hfgz400bTIPs1umi3r+WH3N0NfLv/AAT5/Z/8M+OvgbN4g8XW82tJNqL29naPIdlsq46c+tS78wz7I0vxBpHiSxW50fUrfVIP4preTeqUniLxFo/hHTFvNbvodOjc4SS4da+Vf2U9LHw//bG+LXw609pE8NQobi2s+w6c/rXDt8TNC+KX7bPjh/HW698LeEIJodM0t4/NhWSJ0jL7PXNPnCx9t+G/GHh7xtbs+h6tDqPk/fFv82z/AHlqwzM9wqrXxR418ff2F+0p4J1z4TaTexaLJEtrrIhtX8mRGl6MlfcV1brDNcbP71VGVxMytT1DT/DtjLf6rqFvp1ju/wBddybE3VkWPxd8F3G7ydfs/lXfKJJFSvmX9tpZ7748fBTRNVmmi8DXNzbteI33Glab5s/hWb/wUi0Xw02keCrDwtHYjxPPqLWyWumMPMeDHfHvUue47H1T4U+PHw/8ZWrXOmeKLDCSNAVkkCNkVL4i+LHgrR9Ps9Qv/F2kW1nMzIk/n/fxXmN/+zf4M8J/AfX5YPD1rY+IoPDzy3F3zlJ/LJf9RXzX+x/+zjY/HL4FarqXi6aWWN7ttN0U+Z8sHRnb86OZ7BofeE/iLSf+EbXX/wC0bT+x5l3rd+Z+621xGkfHbwNrOtGyh8T2klxM/l2+QQjV83ftFeFV8C3nwY/Z90y9uD4fvZVub64L/POpm/8A113v7a3wl8N+GP2b9Y17QtHh0LUNCmtltpLP5GT99GtPmeorHtXinxd4d8K3Kx67rlhpPnK0ifaJ9lM1HxZo+m+FF13+1LZNLutscN9vJTY1fNnxUhsviJ+wEnj3V9Pil8Qx6TbQpdD73y3CRivXf2cNFsvGP7NPwxstXtIb62urDe8clNSbdgsdr4W8feGPGlnMPDmr22rW+nS7JnMlZkfxu8AW2oXNvL4ssbe8gH76MD5PrXzv/wAE+YEPiL4wqU/drqK/zNYHj74ReH/FP/BRjw74Un06OPQ7iwivLix7PthkkxS53ypjtqfR3hj9pT4Z+MvEA0bSfEJkvPN8iGPZ/rK9R82DSbrUJL1ktrO1g3zXkn92vkr/AIKDfD3w54R+HvhTX/DukW+hahb6xHbJPZx7Pl5ro/2+PGF74b/Zm8OafY3DxnxBdWtrcXH+x5W5v5Uc7V7isegeGP2mPhp441q4tbJ5tQ+yxzO1xJaDyU2Jvf568h/4Jo3K33g74oSo3yPrEJ/Q1734C+Enh/TvhPpfhvTdLs4rSTw+0dxdxxou+WWD52r5+/4Ji2X2LwT8TYj1j1WFP0NTrzK4+jPrzTnK3kDPH5MUZXFeL/AH9m+8+F/xe8b+LbnX0vrPWmZre12fOnz7t7PXs9yqmdI1/wBVImK86/aGvdZtfhHrdnoDeXqmqeTpkMn/ADzWWX5z+VayS3EfPnwbjT4gft7eNvF+gwtJ4Y09ZY5LyNP3O8Jt/nX15ZxRTSSSTY8v/nnHWB4B8C6R8JfBlh4R8OQfZ7OHi6nH+uuZ/wCNmretYfJ82LzM0QjyrUGTg8fc8kyUkaiTeP8AljGmKktRthEdOtG8uNqsRF50fmxio5mjgk54qTyRDJUF+G+1WkcdMCxH1pt8JpIf3T1P5SelR3Mflw/fxSAhsZNumpIexqhfMJrrzA+Yz3rQt5hY6Eh/5au3yVkXEhkZl96AFWMlHIXy46bGvmOBU0m2O1H/AD1K1FYqqzhZOm3FMCZottq596lsZ23fvLgge9LfJ5cDSepqDTYfOnAP1oAsXLJJdQRv/qYxvpfPE3my9Kg8uP7Z5eOOlSbRQBSuugqeBd1usnl5waiZPM6U+MPuSgBs0e2QiluGWRsinai6tdMU6VAzfw9qAHx9qWWUzGrFyy+Wnlw/6tPLkkqC4/j+tAEKp+73/wB5sVN2SlEJPleXyU60zmgB+oQ4lV+zVWdttXNS/wBcv0rPm+6FVaBDpk/c0iqEVaf97av8NMfH4UANgSZ283/lnUu7dRC37unXEYjhif1oAYylZP8AZp1NNxFNbRvGvbOfWrVrYtMgftmgCBlkk296s6epjYA9JOKqt8vWnK2ArUDFkkSLUlhj9aL5WFwUH3BSW8edzZw/ai4ZlJ39aAFWZ/kTNbnz/apNn9ysK2jWSZFJ4JrofM6cjmkAu3931qltq0uXXIKI4GSzDKqvoKqvcRyQ+ZGVljLZVkJIH4GgCOku/wDUR/Wqa3kizozsSo7VbmcSxhgetMCCEJ51asOyG1rIZSpBXmrkcjuMAZJ6n1pAWLRhNGXzzVuNhtXntVWDCqR0PenxENnHrQBZxUkZx1pijinIfmxUgWN1DrvprGlzjHpQBFMiyLipoY/LhVRTWYMvAwaejbuM5oAk27VoXrSyy/ucd6Z91aALKzLVjf5aVTjp/m1IFmOTzI6JKhsLnz/N/wBipJJl+0omygZc/jqSmt96nUgZYjqeP7pquvyrU0bfLSYyWnw1FHUy1IEq09ajB6U+pGOVaWmvu8s7PvYoX7ooAmjbip1+7UMce2pl7UALzTaKfQB81Uv+qj9KSovMHr+tdRmJN/qzVenCL91JT/JzHHQMZ5x9KJps/SiWL99VaP8A1k8n+3QA266/hUfkv5eas/P/ALNVZaQEbfdkqNannkzGPSoFpAXLWXmqv8VK/wB6kXrQBZhuBDbuNn73+A1T2VLTpI/3j46CgCKiinIm6gBtOj+SdE96OYz71qf661jpgeAft4lrj9mhieqa1CHr0/S/HWkeGfhz8LoJpvNuNQsbLTkj8z77FK1/iF4F0n4oeAtZ8Layv7i8VJEki/gmWvFvhv8Asuy+CdVt9T1nxhc6zeaRE39jwD7kL7NqO9ZvmUrofQwfAxX/AIeVeOnT+CGTZ/4Dx1Q/4KFXT3WhfDed38yRtRmrtdO/ZLOk+N7jx0/jub/hKJpfP/dmrvxf/ZjsvipqqXmteK5vsaH/AEeC3k2JCzVHLLlasPqea/8ABSy3vLzWfBeoJE50pB5fmfwb2rt/EfwI8UePtOvv7U8Vp/wjeoW6zuscvyJF96vTb34W6ZrPwrm8E+Jrj+3reSDZ9rk+d4H/AIGWvLdO/ZSurW0tdOuvifrFxokC7E02OR9mz+5Q4u97Bc9D+C9pDpPwl0rSbC4+2aZZXEkFp69KxP2mo9Hk/Z28VR67/wAe6eW9t/sXH8Fd54f8PQeHfDOnaTbfu7e1VkRP9ivIf2zNag0b4AajZPbvcG9vI0FW9IC6nG/DXxR47uvgOngmSCwimutMaxs9Qk+7HE38LV7x+z78NbL4H/DPTdC07XP7bE11519JFImxJW/gWvAvAX7Hfh3VPh1pGq6l8Rrnypo1d3t7/ZDBUv7JvgHVl8QfEzR9P1qfVvDdr5UEOreZ8nm1nG6auhsk/ZPj064/ar+MWr718+0iuTayf70v/wBau0/bWhnuv2adR2I8hXVIHuPLj/hrY8I/sn+F/A+vnVtP1G4ivJA32n9+7yTV6pqVjBq1jc2V6qXNndReRLDId6PVxi+VpivqcR8J/GWlSfs2+GNYMvlWNj4a+zv/AL8VvtevJv2FfD97F8C/iPqFzFi31qWdLOT+/wD6O9dRH+xt4XltZtPTWtVstCnl3vpMdxvi/nXvdrY6b4X0ax0bSbNLLR7KLyLa3joUW2r9APmX9gHXtO0/4F63p93qNta3lrru9o5ZETZ8tYHwn+IGj3X7e/jPWra7QaddWc6pPL/GyxJXq1x+yP4G1DVLjW47q/0m4nl3zQabJsSSr/8AwzD4EtdVi1O0heK88pUe4i2fPtqeWVkuw9DxH9p17KX47fCREuEwmoK9xj+A/aN1ey/tweIdPj/Z98a2v2+GSe9ltpLeON/vp5tSax+y74G8Q6hPq94tyNUZv3M+Pnhrd1T9n3wb4n0230+/nub3T7VVRbe4dnSnyy18xHivxE8Nz+Ov+CdfhcaNsvLjRhBc3MMHzuK9Q/Z++KHhs/AnwZfnU7bOj6T9lv8A94my12/3q774f/Dfw18KtNu9P0G08uzvv3csco+R/wDgFcJJ+yj8O5NVudQisXto7iXzPsP37amoyWqC6PEP+Cfetwf2x8UI/OT/AE6eOSH959/53r6T8G/FLwvrnxJuvAdreyP4iRXfb/u1Q8Gfs4+BvAnixNd0nThbXcb70jiGxN1bPhf4VeFdL+K9/wCP7a1nPiOaJt8/mfu97U4xlFJA7HZbJPtyQ/6uLFWVzZz/ACN5kb/I/mUNIWkNN2lpFrYk/PX4jfBvV9D/AGvv+ELsi9jofjG6hmf7GnD2rtuf+v519QftwfCvTPFXwF1a5sEAl8Nbbq0/2Il++leyXnhnSdS8Xad4jurG2udT0qB4LO6kT99Crf3Xq/q2lQeItG1LTNQMcllqMTQXMZ/jRvv1iqejXcq589/sH2uq33ws1bxfq0gkvfEE62qP0+S3Su1/ay1zTtG/Zz8c6fc3aR3mpadm2t69M8H+F9P8I+FLHQtFt0sbC23JDB/Btpnib4eeG/GMls/iDTV1byImt0jk77qfK1HlC+tzgf2Idb0/Vf2d/hxax3kMl5axTx3Fr/Gn+kGvC/2QfGWh+A/ip8e5NfvU0mKO+knPm/J8q3ElfWXg34Y+Evh35snhzSf7O3/u/wB3J/q1rnNR+APw68eeLLvxFrPhWxvNTLpM8kn8b1PK7LyC54n+1F8ULXxt+xTf3l5cJb3+vXcMljYjrsW4B/lXtv7Pfi7Q1/Z58C3U2rWwtNP0qKG5fzP9S+K6DxV8JfBvjK4t5NX0hLyO1RYFt5EXydi1Xt/gx4Os9KvNPh0ox2d9PHNcJHJ9/ZT5Xe4HzX/wT/1zTYfHnxtge6SOW/v45LX/AG0WW4/xr68+zvHNkJkVx2n/AAS+HWg61DqFj4aS3vbX95DJI+/Y2+vQZZPPbzf77U4JxVmDPn/9t34fy+KPgePFGlKo8ReD7uLUba4/j8tf514/4O+FN3+0P+z/AOMfiF4tl8zxXrNvI+n5j+4lunyV9vCKK6tbiCeFLi3mXZLDJ9x1rL0Lw7Z+E9ItNM0uHytPsk/c29Jwu7hc+av2FZta+ME3/CwPE0Ajg8K6cvh7SEx/Fj95L/StX9urxPp+k/s9+I9OmvIZdY1CeDbB/H9+vo/wr4f0/wAKaS+naRYw6daSTtcvHb/Lvlf77Vm678JvCPim8+1axo6apcov+suJDS5Xy2A579mDxroUv7OPw9kfUoh/ZmiQpcZf/V4AHP5V84f8E4/E2jr4s+L1tJeJ5l1qC3Fukn8aebJX1vpfw18K6Xo93pkGh20Vndf66OOPbvrJ8P8AwX8A+GdYstQ0jwhpWm3lrxDPbwbMUcuqC582eBvHcPxq/aQ8f6N8QdZ/sfS9FHl6fo6HyUlVXrivHWteC/BX7cXw+1fQ0Sx8P2m2O51H5/s7tz0r7L8VfAnwD4s1q41y50CFNemdWl1K3+SR6v6x8I/A+vaPBpOoeFrC40+2+5HJHU8rGfL/APwU0jPib4GeFdc0xWutMXVmmM4/usnFezN+0Jp3jP4i+BfDPgm8g1KzuIjLqd0PmSKFIs4r1LU/Dei6t4Tk8NX+lW95oc0SwGzk+dFQVgfDn4Y+EfhbDfw+GNAtdMjuTl2iT5qrld7oR1dzF++2I1eAft1eALjxN8I7Hxhpgca94NvE1KF4/veX3/pXv8h+7vqG4WO6tZ7OdFuLS4jaGWGT7rq1VJcysB89fsk6trXxgk1j4w+I7R7LU9QiXRdPt/4Et0+ZpV/3n/lXnn7a3hVfCPx2+GPxR1C3aXw5HLHp+o+X/BjP9K+wdM02x0TSrLTNOtEsrCzi8m3gj+4i1HrGk2XiLTjYatbR6jYP9+C4TelTy6WC54F4s039n3S/C2panq91p2tW23z0sZbjfK/9xERayf2pNW8PaF+xjfaHHDHoMd1p9m+naUPlcfOGr13Tf2d/hvoPiCLVrDwlYC5TlPMjV0RvWun8TfD7w34y1GO91zR7fVbiOPYhn3bUWjldgPArPTYvjD/wTwtfDuhXCX2sQeGoF+yW53PviYf4Vq/sXfGjw1pv7POiWGvahHot/wCFEms76G5OMbXPNe2+DfB3h/wHc3TaDpdtpUc6/PHZptrltY+AHgPWtYu9Uk0RYtQvZfMuZATtkzS5Xe4XPmr9mP4Oaz8RPDPx/wDGqxTRW/jaC+stHjk+T7SG8xt/5kVc/YT+L3hz4X/CvxB8OPGt9D4f8QaZq0k5tb0bcgkH+lfaNn5em29ta2CJaWlvGsMEMf3EWuL8bfB/wN8Qrn7drvhy0urvdvaQp99qOVq1h3Od8GfHjQ/Gmj+MdWUPZeE9LLWyazcf6q6bZ8/l181/8Ex/FmmRaD478PzXKR6hdajHPb25++4xX2Vc+C9AvPCq+HH0az/sSLhLEJshqlpnw98I6Hq0Op6X4a06y1OFfLhu7eDY6LTs20xHylr/AIm0f4V/8FINU8Q+JrxNN0u40QlbqX7nNvt/pXvvwR+JT/FUeINcsES38PQ6g0el+f8A8tlT+Oul+IHw08I/E+3tl8TeG7HW5LX/AFL3CfOi15z+0T4u8U/BnwH4ZfwF4WhuNItLnZeR28efs0X+zRZxu+gbnz38fND8WfA39pa4i+Hr7LX4m2vl/Zz/AASudr19peB/Bdp8NfBXh/wpbNH9n0yzjjk8v+Of+N/zrynwDo2ofG/4oWHxM8UaNc6Lo+hRLbaBY3sey5eX+OVlr2rUl+2Kwc/fpwjq2DGxzI41JP8AllNC0P8A31mviz9lnxFpf7OvxE+JvgbxtK2iR6hcfa7SeT7jqK+yILHzLN5PN5jrA8Q/C3wn400u3TxBo0OrbG8xHkHzmqlG9mgPi34yfF7w74x/bV+H+vWtzGfDeiw29s+o/fidv3jf1/SvQP2oo28K/tFfC34y2IOq+FrNbaC5urf5kT55K+oNT+G/g/WLG0gvNDsLm3totltDcJvRK0Y/DmjyWcWjppNtFo0cex7Hy/keo5HrcLnyx+2d8RtJ+NXgfR/h74Au4fE+ua5qEc+yz+by0XvXGftafs33vhX4a/CrUNOtJNTi8I2iWWsRx/M+NwZ3X8c19meGvAPh3wbqNze6Vo1nb3snyefHAm/ZWtpEcFu0jgvL82Ho9ne9wufMWnfGb9nW18KyazHp9tqOqY8xNN+yn7T9ob+HZSfFz4n3HgA/BW01bwzHF4Y1iCabVNHjg+4Wx/jX0NpPw18KWWt/2knh7Tf7QVvOSeS1TeK3da0a11y5+0XlvHLcbNgkkG7FPlYXPhH9or4cfBrWNDFx8JrZ7Tx2LyOO0tdG3hXr7w0n7dHoOiw6nzqdvp8CXf8A132fPWdpXgfQND1hNR0/RbO2uoY/kmjT591bW1UVm+/RGNncDz74/eNtI8DfCXxQdSmmie/025tofLg3/MyGvKP+Cc/jSyj+DOj+ErhXj1K31G4uPL2dq+krqzttSjWG6t4Zo/4o5E3pSLY2VqyvZ2NvZlF2f6PGiU+W7uFz4k+HvxE0/wDZm/bA+Mc/ieC5gsddkuJbFmh+R8y+atfV3wHuvE+r/DWHWvGCtb6vrF5NexQOm3y4Gb5B+X867a8s7bWFia/s4b141yguI9+yrEkzSNl6UY2C55J+1h4v8R+Bfgo2oeGg0t5/alvBLbRp5vnQNneleSfESb4HeNfBOpC/8I/ZvE81o2y1s7GVbgXB9NtfW21ZFVJl8yP79Vx4f0i41D7d/ZltHqG7f9qjj+ehxA8S+Hfwv8U2X7C954M1NLp/Edzot2EtLj78ZZmaKL+VeIfs+/HO98K/s+6N8JtN0jVbLx/FeSWoD2v3FluDJv8A1r73iuHWTzC3z1Bb6VY2E9xd22nW8V3N/rLmOMeaanl7DPhP9tbxcnij4hfDPTrXTLvVovD9+t1qklvG8vyq8fFfZWj+NLHx5psesaYs32R5PL2XCbHrZNvaNveawt5P7/mQqz1BeWPkTRRW0SRx7t+zy6tLVsXQ+Bfij8TYl/bq0Pxra6dqEmh6bHBZXM/2V/vL1/pXbft2eJE+L/h3wt4a8OabqOovDqS3l3JHA/lIhFfYQsYLOV4kt4QJPnceWvz1esvKSQv5UQeT/YqOTR6jufGP7THh3Rda+GXhDxX8OtOubPxl4fuILSzNnAySMqfwNtr2DwH8Uof2ofhBq3gjxNol5oPiLUtLltrxLuLYm4cK6/jg173bhY23RIqP/f2VLJMJmDDaXWjl1uB8Wfs2+ONO/Zo8G3Pw6+I3ha6hvtNvp/s+oxWgmhukdt2a9++Efjq/+IXiDXNatvD7aH4SSIQ6fcXECwzXL/5zXqN9HDead5VxBFdx/wAInTeKheQsyq7fIv3U/gSmk0BHawecqn/ar47+JF9ffBn9u4+P9U0y6ufDmo6Q0EVxZx+btzFj+Yr7Ix5Ueyokumj++i/d2U5LmEfNTePtfvfg/wDE3xPq2lahJN4rEtvoek/ZG86K3WEj+v6VU/YJ12fwH8CYvDOvaLfWOqW15eX5jkj2/J96vqdZW3bgqv8ALsXemKjCpbvhFjj+XZ+7hVaXLrcD4b+DPjTWLX9s7x14/fwtrTaBrSNb21wLf0xitXxL4J1f9mH9qjxB8QLbwzc+LPBfitJHujZ/M9qXbc/FfZ0kgkMe6KP9188X7pfkp1zcu0bAH53/AOBUuQdzwrw58cLz4sa9ZaT4A8IXun2Sukmpa5qNusCQxeif33r22b95Pjc8nzVPGyW8O2FERP8AnnGmyljj+58lWvMR8Pf8FB9Wm0/4r/DK01Ozk1rwzbQvKul23+tkuuQP5CsPwv8AtK6T8N9QOsTfBHVre5hXf/aV5BumhH49K9k+PHwR8X3v7SHhn4qeHYP+Egt9LijX+x/7mFK103xB1L4rfGLwXqfg+x8G2/hj+1IDazaley70hib7/FY2d2xh4y+N0Xjb4B3mteHdGv8AWpfFelSw21nZR+a6MQUff+dcV+w7Hq/gT4Z2PgHWdBurLUYbu5vVupE+T5q+hfht8PdM+FfgLQvCmnFbiPTYFgE0icu38T10czNJ8/SQVpbVMR81/tlfBnWvG2qeDvHnhaL7br/hWRS2m8fvIt+a5L45+LvGP7RXw7h+HOk+Cr/RtR1y7hbU7rUE229qEcP8rfhX1vNs7darzldqoiLGlHKFzxfxZ8D11D9mK/8AhPo1ykxh0qO1trq5fZ506P5leN/A/wCMnxG+H3wysvh1/wAK1vr3xRpEU1lp90Pkh9q+w1RWXbTvtc0bSujffp8ut0Fz46/Ye8A/Ef4P+KvE1j4k8PPb2+tTea95v3cj/P61Sng+JGuftm6d8VbbwHeJpVpD9lKfd+XZJF/FX2tFNIfvSMasrfTR/wAbUuTRILnyF+2tp/xC+M3gvQ9B8O+Bb77Hb3q39xddexxXa/ET4bax8f8A9l+Lw7qulR6T4k01Ivs4kO797GlfQluZIZW2syUsy/aIyk26T2p8urC58seE/iB8bdF+GK+Bx8Mry98QW1pJp9vrSPstdpTbvrD/AGEPA/xD+Dq+ING8TeF5rax1i68xrs/3kGK+x1uZvM2+YyJ/dqWSaQMm6Vnpcuqdx3MRZEju0HcivGP2jtW+Kdj4S08/DmxPmSX2ZnECu+3t96vdLrbGSu2q7zVo/eRJUs47n+x9N+2/8hD7NF9rk/vy/wAdP+y/5xUiVNt+Wq2Arxxr9nH/AD0xTYW86zEntUn+rjpsMnk2cZk7DmgA+b2pZP8AWI9Nk/56VHDM8wpgTf6ySqOsb/3ezpV+obmkBUaRvsMCyDHlmqQt5JpHGOavTQS/89aSXy7ESeVJz6UwM+6Em5EWHBH33p+kxnzmdugFNz5rfvDV20jgjyScmgDOmun/AHibyY81Lp6+ZMWPYZp9laIztJJ/q/4I/WoZJEjkKxdKALHl/Z5PMpJD+5ohgfzhxUkNv++ioAihI5qeS6gjMe0ZxVGORxvw+KY336AE/wCWhqxDs86P071FGu6RRUszJHIUA4oAu3uBZpBAM/N5j1R/1VXPOBh45qq8yoDGBkUASW/eo+Z5qW2kVWYEdabOo25HXvQAyY+dNGmfaotu1qXd09aVlG4Y60AE0JiUZqFYnZlqxLKWhAA5Heq0bt170CM7TGv47idL1tnzfIlakigjJqhJdCW6dPm8xRVhmk8kbh9aQDo2BypOa1YbmSSBdpzt9KxbZT16ir9vOVh2J19RTAjkJ3nI5pYwduaGjZpOetJ6igYkZfzBs61NcI+zLDmoowySZHFWLp38teQc+9AFe1jZpl55zW4UcYY4IWs6xhZWDbc+/pVq4cltok59M0ATW+GZjt3huKWOFYVdBH5aHk5punOyRnIXHrRfzOysEVTx60gMqSSHzWAyxFXfMzChOAvpWfHatLJgbQxq+Fa3jAdVOO9MCu026TA4FXEjbjaMH6VUhj8+Rs8VqLvjCkcj60ANijZc78c1LAo5xxSrGzsMninIvlyYGeaAJuV6mnx8kEUxiTxTox0FSBPSntTelKe1IAf7vTmkjOwZI5NOY7VHSmrktyDQBOuWXmlUdjQvSm85HFAFkRg96f5f7vFQxvtqaST93UgSQ1NsXzt9VYJKsvQBKvztU69qqr89W0pDJUqSPbtqIfdp7UDJ46nWq8f3VqZKgCRaePummr8opyrUgOAqVU2rmo16U9WoGTL1pwzTaevWkAvNLTcbqdTKPm6Oq0v+tqb/AFWymSf6yuoxGeYPX9arVfuKrecPegY3y/v1X+f/AGatVnzS/wCletAE3z/7NVrr+D6VZ+f/AGarXUe08UgIP4qNpo2mhmzzSAi3/vmqaL7wqr/FToX+ZaAJf4qs1WapY6AGN1peaOalioAWKL97V6KWo/JHpSfP/s0wL0UX7qsy62m6kkqe+vc2/lVT/uUwJbHEk3zy+VUN4UkZ0X/V0sMxhpnlVIEqn926f7FQRfeFCfepY2xIlAE8MRzU1xoeneLNFv8ARtWsIb3S7pfnt5KqX1wyauYf+WXlLJ/31V6WaSGfEVMDzdf2VfhzY3weC1v7a383zPsP2t/Jr0jQtNsPCfh+20LSbRNM0tP3hSOPZ5j/AO3UM00lVtUjvJLVvJfyrnZ+7pWUdkBq2t0TVT/lt+FVbVmt7eFJ38yTb88lTQk8fhTA0Pk/5a0+7hM1rUH/ACx/GrHnHyaYFOW5MNr5WKdprrJakGrP2VPKqjazLDdbO1AFu8z5JqTTWSON4/So7z/XVJDmGgCT56sDNU5pk8nrUc13JDTEaqbdlTbl+XauysPR5XaQg9K2qQiNlNSKR5y1GzGhZBuXdTHqXqlsf3kvlP8A6uSqE0jLG3epoZPL2n3oA2qn2t7VT84/8sqjmnk60hlzyf3UlRaXJmOeQ+tNs5fJ8zzZKqT2dxcQ2xhufs371d8n+xQBrx/vY806q0Vy5lkBpZpaVgE+fyrirCyfu4U/2KghlopgWt/yU7ZUfmVPB97dUgWIo8nFT1WZ2SP5akhYufv0gF8ygIZOaLhtu19tJD96gBKl+SmP/qxSP/qRQAs0ZjPzdaQqI7lh/BQ0jvCm6kjbD5oAdJ0SnRwrJLudvLjpmpvs8jZ/epJpvMkzTAiZvmpWbbTYaRfMkWZ2oAdu3basPs8v79QbB9nV6buoAOGapUHyM61WMoT+Klgl8xqALPNRSN92kaT+Go2++tAFmbZldlVHqbdUUn3aADmkYJMPKmjSRH/5ZyVWupHhhzGMmp7WZZlEg70wLbtu2/7NU7g/vkSpfMNVvMx5r9qAHx7ai8vyqjtbrd/yzxRJGzf6ymBB9oHneVir0eY2SMdESqjL513H7UXV1tkxHyaANCkUbGpltJ50WaX+KkBItLuO5aI/vVW80/aHj/5adaAH30m2CQ+1OtUaPT4Q/XFV9WPl2Z/v7uKntv3lpGfUUAWEpfKR0k/v1GrbVpWzt3LSAsR9VpHptqSknzLmpESgBts3mXEif7NT28n7yo0Pyvt2/NSb/noAv21SrN5f/XOsve0b07f8lKww30szeZItM30zdvZaYhJVbz91W7RfLlSq38dTbmkmWKGgDT2VFcSL+NPjk8x6rSR1IyaOTzd9V5JP3mzZTJN8cdEf7yPFMB+T7UyPrRHJRQBYj/1NMuPv1FcY2fJ0pkclAE0cix7/APcpkfWj/lp+NFAE/wDyyqYf8e6f71Mj/wBWKkSgYxdxdXqcMWj+98tNRhupFkC5pCI/LpP+WlSM+agbG7OOO9CGVLiBlVWbktTXjLR7c1cmYMM1WkU9exqhGdcwOsLbHDNncMiljLbVHercwGAKi2jOBTEMGQOafG24nigDvnil3DnFICVVYNnqakhuDDJ0pqn5RzScFqAHMS1x520ggjv6VHPhpmcdyTUy55zUfrQBFNmbDEndzjnpVaWJtvy8Ed6vAjaMVC/BIxxQBTSPEQXH3elOWUquCKkZfmqKRl59BTAr3H7w4/rTPMdo9uacSZD8vH1prwupA6/jVARwu0itC3AzjNWGUxbV3ZqHqxPTFNmYvcRp2xmgC3ExjXGOPWorqNGVTj7tOk/dqOaTzH4AAI70AQyOskDEDOKpSTyXEZXsKsafI001xFj5Wyc1VulFuSivuIoAiX5WAPWm3DfNjdlfQU6CNhG8m4A1AvzyDJ70AaGFmt1XGNnSoPswZSRxUjMY5iAcjFMSZ/LYLzQBaXDLnFRh1hUpjPvUDXB2pnr7VIzlTuGPxoAqB9rEU5WwvtTGYvIxNC8sAuSaAF3ENkUyYnfnpVmZmCqvGPpVVs7sdTQBZgjk2kqwx6E0kkZ44CmlMjcccYprZT7x+lAD1UbR8uW9c0zzFVWQrzS7m8vK8CopFO75+SaAEPzYx0p7kNgAY4peEjGKaCWb5RzQA3cfLK4pqbugFSDODmiLPzUAUVg23TyE8mp5GZsL1zTmUs2fenqp3DNAiKNDGCMVZsysXzHiosF5MVKbd1UFgQBQMfJumlJHApigwsSRmpolMjBFz60XUPl4yST6UARqDLjOAKjdCXx1Gav28IC5Y9qhaJmkIXOAaAJoY2WMgNxj0pI0EkikKB2q3HGI4/vZOKbDDuOScAGgCWOLyEI4amyfvpB8oANWW2qp5pFjG5fakBUEPkyfKq4AoNsZjycCrrfM1P2YFAGekOwsQACOKm8o7VJ5p5jPzHPerSxnaKAI4zu6LineWd2aUKdwHvU4jpAQ8HtTljPWnKnJp/pzSAKXbwKRqcO1AEbINvPNSQ/KGJokUY6U+Me1ADlU7SaTNSbht96aq5XJOKADNSplugH1qNh75p8XOMdKAFhOyQir/NVB8r5A5q3E+5eeDUgSxsPlVlqZKbt206kUP3NTv7tRrUsf3koAnjqdG+aq65qaOpYE0fzHmp9tVlb5qkU8gVAyRmpMijmhelAiyvWnVHHUlJlDv4aWk6/SloEfMcm+GSnyy/lTJJKZJJ+ddhA+6lqr/rpvYVJLUcP3RSAklqjJ/rJKtXUvFQSjyZY6QEcVMkqSRTFGKipANbrSMm5KfUvlfuqAM3yTToallzsqKGgCxSqnytTVpaAHiT51NX7WL99JVG3h3SAVq2EWJKaALqJ/3dVZ6u3Wz93Hs/e1SnpiC6j/AHUFV/LT0qSq9IZLUbyP5OO1JRCmWpAMX7tN/i2VJzH9ahXc8ooAd5NTY/d0zJp2TQAU6SQmNBTZh5aJTPvbaAJI9venx1HRQBpzSnyYqrzKfOjpn2lPSjc3rTA05qzJP+PhK0PO9/1ql8/+zTYF2WXzpZKIe34VUqf9570ASTd/xqOGGo5pu5pLP/XSUAPs8w81qfaB5earQ96fa7IZCBQIt7TTNx9Kfk0yMmmBKqnFOl2Rqz9qiydlSL++i2vQBp2+YrdDSbTSab++8yPsRUnkx+lAyDH778Kt+YfX9ag/1P8AyzqvCaAL/NVBIYanXPSvM/jt8fPC3wJ0BLrUH+265c82OlRyfvmFJtLVgemxSvNvk/5ZR1yvxA+NHgb4TyQp4l1yGzmfb+43o81fMsGrfHv9pTT7R9JS+8EeH3ZXefzNjTqz1614a/YV+Hun6lFqfiC6vPF+p7VFxNqJeXzJKy5nL4UO3cytY/by8BtNs8M6frGvn+NrS0dtlZbft2eKGa4ht/hdqQKsv2aO8t5U35r6U0nwL4T8J2/laV4asLKML/zzrpIbj7LHEn2aIPt/uUrSfUND5Jf9u7xRZlRdfDDUspLsmSO0l+Ra3vDn/BQTwHLqlzZa/pup+HyPuR3kHNfS9x5GoNuubK3uP+uiZrl/FXwq8D+NoZk1jw1ay+c295Ixtc0Wl3DQm8P/ABH8LeNbWG40nxDZ3HmfcjkkVHrpLfdHvRk+evm7xh+wV4F8Qa4mueGdTv8AwZqkL71ktf3qfrXF33xR+NX7LXii8XxnYXPxB8Ef9BKDr+dHM1ugt2PsqWov+WaVxnwd+N3g746aL9q8Mah/pQG+fT5P9dB/stXayQvb/K9UhDpI284/3EX5aix5cm16WkP7xmeqAL6fzVVarK235qlkXdUW37y0wLPkn0prVK+3yVTY/mVBSAX70NQuzbGqX7qhailbCUAVrxvK2H3p9i/yxpu8v5OlJdQSyXQT/ll3q5Fa/ZY9+7zN9MCNqFqJm3tUsdAArfNtpkz4Shfvf7dMmRo04V/n/wCWlAENSRuI4xRHH+7qxHbfN81MCFz5e0b/AJ6iyfanTRo2rZPWMfJTI/45KAEtx5cmKWWn0yWmBB/y2i83rVeGLybqSW5q1TjDHNQBYt2WWAY6U/fUcapax4HAqtdX0MMZ+fMtSBfj+9WXD/yGZfp/hWm38O2qJg/05JaEBZuGSGFyeKkg8oWwEf3U4pskYkZ0PSmadeRX9vcFMGMSGGgCV6lqtDD9mskjRug61P8AdmK/7K0ATpUi/wCpNRfw1Lv+SkBEvy063XMgplWI87PkoAkeFZI9+/8AeJVdEqeq819FZ3VvC7p5l1LsSgZYj/49Z9i/vPmqnD92rG7y9yP/AKxarR/eWgRYVfMaV2/vfLTrVhHch3WiOrkVIAip9xGvkEU23/1hqebbsOaQytbUypvk8v8Ad0ySN6AGR9KfHHSxVDJ/rNlMCO6+6KhT+GoJW8yapVkDbs0xFmOkWSq7N82RTgxYUAXoZFWPaDzTTMATioV+7zTV+8Rmgotq2RnrTNzM3A4zTdh25HSmLna2DQBM2dwo6e9Qhm9aC2V60APkc7fu1A0mcZNSqx29eKh48wcZoJFk+ZcD86r7fmI6mrMqllz90VXT75NACrGW6037pOaGODjNNZcdKAJfM6Yp+7BzmoEz3qU4HegB/mbm9qTJ6gVHnmpdxK80AMIYrUMgOcZqUqc8VA33iTQAbTuz2qBxw2TVjadtRFfegCDywqjHWmeXiYENVkH5umabIfm6YqgKs1uNxIPPpSJbMzqxOCPapX3bhty1AZ1blSaYCTRtjgA+5pkkYXkZ3dKlmY7Rk4P0p212XP8ASgDMtdyeeAcfhVeSNmIdlq5axuZ5wWwPpTJt0EfyNuyfSgDPZQCQDn2pkf8ArFGO9W2jeNS/TI64qvaoXmXHrQBoXMhwQIh061ShYrlRyTWncb+cD9KrRo0fO3H1FAEYYR43IPxqO4bcxwNoqwGaWVcHcfYVYuI/ky2F/CgDLUeXGSPmY+1N2naD0NXViebcicL2OKjSN4WPOT9KAI0hY4bJcVHy0pIGKuyzSLGBgj8Kqwo+44BJz6UASfPtOV/Som3bhmrZuJFBBXHHpUDRu5DgE/hQAxlZ48KMCoWXDAE4NaMe+KL/AOtVVlaSXO08+goAWPHlEY3H6UyEnJHSre144eCR7YqO3U7yQCT9KAGNblcn+lJbqdr9/wAKuypKykt8q1Bbq53BCT68UAUdp3HNSMrLzirDQtHLlv5U2RnmbBJA+lAENtnzVIG6rU0MjDLcL6VFZqVYEDoat3s0mzDDA+lADLK1ZnyOBipprfd8uAWpbFXKgj07ip2Ro5N3Un2pAQpY7fmJ/ClijzIRgYq0UZ1xn9KSNNrHv+FADTbjjHFLbrwcnvT36ZJptvhlJ96YEpQUGPa3WkbPSlVNwBpALs+YEUrxsOTjFKf3fWncyD/61ICNY92eKshWwBQvy9ak7UgI/LIIqYI3pSKtSqp9aAIjG2CcVH6VZeM7etQqu4igBrZ29KZk7sYqaTIyP6VHGCX9T9KAHxjOOKljVzk0q4284FCrnPNACqo289aesJxikVduKmXLdDSAieMpgU+MHoBgZpzx7ckmliOAB/SgB+3axOOKer+gpcHH/wBalUFT6ipGPyZCuODVvaPm+aqwzwamVQ1AEi09abH3q1HCPLBpDGLTrb7zUU/7tICbjdTt3pUGRU8PzR1ID1zViP7tRfdWp1WkMdSdDS0UFD1OKKavakpWJPmaX9zVWb7pqe6l/fVBN9011kE8Uf7mo5Y/IiqWP/V1HJInlUAV/J86amSxeTVioJvvGkBXkqSOUiIimf8ALWmP96kANJtjxVpb57a3xVfyqivN3lpsoAkjZRUTIqO1PX/dWOjaaAGJR/dqUx7EqKOPzJkTvQBat/8AVtVu1vYorkmR8ikitRUn2FJv3naqAuyxfuqyJvvGtCSSql1/q5KGIh8w0fJ71DJJngUeedmKQxnNMR6bRSAtRyeVG9VYpMOGomuEjtUT/lo71D5goAss1C9qqQ3RkaljuZo939KALd1Ipjt0HaovOX0qvJclR8/FO272oAsxTbty0tV93kXEWKsTDypihXpQBJJMuaWOqrfep8W5FoA1Zpu5qL5/9mq1LHJ+8zJTAktbgrNmrs12n41mafu+2cVcoArzf6v8ahR2VsinTSbmpfLeGRexoAs2l1JDIkfarf2z/VVnWkiQ3KNJ0qX9550fm0Ab8m3y+elKn3VrLmvJBWjY/wCpFMVicLtDUNNtZRSyNtFRfLJTEaFrcLCpz1pZJf3biqi/d/CnpQMtabMsMu2Q/uj1qwIUOqTIX8zP/PKs9eW45rw79rD4vaj8NPDFvpPh+5x4016fybeCL78MTfx1Mnyq7GjM+OH7S0+neMbn4b+AtPfWfFd1/on+jnekLNWn8Of2QLTRdUi8WfETUZPGHjKRF4kk/wBGtv8AZWul/Zu/Z2sfgn4fTUNQ/wBN8b6om/Ub6Q73T/ZWvW7pZLibis4xctZD9DQh1INDBDI/lbV2p+72Jtq1Cvyybq8y+LfxBtfhL4FvPEN6nyQSxQW/fdO1cbdfDP4l+ONEl1/SvGVtFqd1B5lja+Y4T5v4Gqm7aIR75OfLki3pmOrlxJ/q23fw7N1fNf7K/wC0LqnxEsdb8CeNbV/+E28Kl1muiPkdVfbz7173/wAfkfl/8saIvmVwNLT7y11CR4YbmGS4j/5Z7/vVK/3mr4+8Z6KPhn+3B8NrPS7+/wDsmuu1zd2st27puavsX7PNdTStEvyeYy0k73ARbgrHs3/JSqsV5p7W8ieZA7b3SSqzRHdt21at4XkX5FqgPmX46/si3EOsp8RPg/cf2D4v0/530uP5Y7rH9a7H9mb9pyy+OVjJ4a19H0L4g6T8l1Yy/L523+NK9xWQ/af3Z+fbv8tH+bivnL9qH9m+bxdInxJ+Hn/Eq8f6SfPLW4+e629vrWTTjqhn0I26ORlb760sX3xXk/7Nf7Qun/H7wn5d+U07xxpq+Xqdg42OWX+PHpXq/wDq5mb3rRO4hGGyqd1cCE5q1PJnDVUuB5i1SAueb93/AHaZ5nzVUjXyY0jTpRdSLJERG+JJE4osBFPeIt/GpepWkSTbsP3KzbyEeTHJU+jW2wknrTA1lpl7dGG1kKjpzUsuE+WqhjaTeh/1e3FSBlR3ghmraT7lZ8WmRRc0k0rwVQGhpMcbXBhb/Vt8lfN3wB+KWoeLfj98T/BV1f3NxbaXcyfYf3nyfe+7savpDSrjbdQA/wCsyvFfmXqHhPx1qv7V/wAXta+Ht29vqmg30175cY/1nzfcrGbaaY0fpmsbRqiA1JeSSRxIQmd7Yryv9nH496T+0F4Jdyn2Lxbp42appp4cNXqtx/q7b/gVaJ31QjIuovtF2I5OlW/M/dulVr6z8y4hu94xHiku7yMcdTVAT31z5VnNsOJKpWc7iI+byKT7Z53ao8fvvxpgXZp4u5qt58YMXldafqMEN9HIX6xcVR0Zo5HmPXyxQBf+2jzqzd0EN2IxJlx3qSzxNcSvK+OM0n2N7VhNLHxQBtyS0jTJ5kY/26qfa/Ohj9arw75ruKgDckmEaZNJFsFsPL/dx5qpDI8wou2T7D5H/LSRsD86QFqZSm3ZSW8bee7+tN06TzbOM7mLr1zU69KQEv8ADT7Vt/mNVVlffuqez/d+b/t0gHNSxHy5N1T29v51U2kLbttAFqS4B+5xWP4q019W09Bbf8fCSrJzV6HO6nyfdNAFW+utkc0y8nrUyyKtv5p4FI1uslu5fp0NJcKptxtbCUwHrIfl+atNLhTPDWJ9ri81Ys/vduWrUhj8za3+zSAu28infinzfcWnwwqvSkuo9s9uqtjcrVIxvl/cpI5gWkaVP3e1qIwyPzUdxzHvHWgCrDsSD5/9Y7VBJdIWZidpPpUkjBwxxgbsiqzMN2O1UIjlYCTdkMz8miPjGKikO6QkDFOTrTAnLbj0xT4z07VDu5qSNumaQFpTuz3pF+9jFIsmCcDmk3fNk0DJpG2r/wDXqNVwpOc5pWYYGeahaTA4oAl+lKp65qushXrUueDjigRMzLsJwahVhxTTJtjxnNJGwHJH6UAOlb5cdfxqvnggZqWVs+wqJFPJAoAZn2qTndnFRHJkAqxtbnigBqru55qTheOT+NRqxXtS+ZuYGgBwUc0m73pzH3BqGST5gMY/CgCRjubH9aikXaSc0qt60yRs54oARGByCTSMobgVGpPPanLnFMCJysTY7n3pwVZFyQfzqG43eYmACc1OhKgjgmmBWkyky4BC/WpZJPlyqkfWns3XODUDy7iB2pgLhmxuUkUSyEYHzAVK0qqnWq11MOMBQPU0ARyR4hkZVYbvfrVOBd331bZ061aikMkbIGXPoKpsrQ7gxyfSgCWaNJGEa7vbmqKqY2xgg59a00jbYJPkUgelZvJmyfWgDajjVkDNn/vqm3EIkQkZH41FC5YEb1P4U+5ZY4+TQBHZwiNhuDZ+tTyQrLkFWx9arQYmw4bb+NWFYtkBwT7GgCDyTDuA3Bfao/L6fK2frU8gZVYlqrR/vGOXAwPWgB8sLFf4vzqsr7G5VvzqS4k+6AwNQTZVhyKAJ8b2zhuPenlwkZG1hn0NRQzFdw4pJmyoNAFmNNyqSHx9ae6pGOEbj3qGElo1wdo9zVraWXnmgCHCSdmz9adGBHnCMPfNNjUrMcEAUSSCNTlgaAEklEny/N+dP2JDkrkZ96rR/M2QQBSzzAd91ACSYkkU5YjPc1KIlLHJ/Wqi7vlycDOetPVWZmw4xQATIsGWU5H1p0am6VST9eajuFKrywJptq+MAnAoAvmb7FjgkD0NTQzefIG+bbjPWs27kVlwhzUtjcCJRvYY9KANKS5RWwN2frUglX/JrNkuhJJhQF96vRrgZ4cmkANNvQgKc06N/JjwVOetVwpebqFGelXWjZkwMAY9KAIWmbzF7A1ZhJ8sZBzVdoC2w43H6VcztUAjFAEUrHByMCnwv0HNIzbwelFu43YpdALB6dKejDPIprEFabFjcc9KQFjjIqWPvn+dRDHFO6ZxQAsjDaeDUK8KDSyE+tJG3y80ANm6H/GkhUluP50lww5wKdC3IPFAE6rtHIzU0O3DZFQ53cYFSRptY0ASNzjCnFOjYLnNRSSFcDNEbDk0gJZG3eopsLfMM/zpsr+/NJC3AJoGXdxwQAadGp61B5nBAxUsf3hzSAn/AAqVfpUYNPXPrSAmhqwrVVU89asRtkUmMc2F2tT2kCrUc3yrTG/fqtIBYZNzGtC3XapqnDiHc22rVpJ5kZfG3dSYEy/NU8Y21F5m2pdwbGKkY+jmijmgY5TxS02P7opev1qRHzJc/vZarVa5ptdhA7ms2rtx/qzVKmBN8/8As1VlqSoPMqQCOkkXElFIn3qQFmopZGmkzt59KlplNgQ8yH3pYvvil8qpP+WsdICKb71Ps03TIKSSP94+OgoWQx0Aa8d15PmZqG1h8mH95Wa0zyd6uXzebcQxRv8Auo0qgLMv77/lpVS8/wCPM/Wk3mi4ZPsL465oAzFbfS01E8tcU6pAdVX7ZL9oceX+69asbtrVV7vQA2eZriSMDpSRVYjjqnNag/SkBNbyIZDipIY1uLr3qt5Qh/eVesVbzoX380AQXkfl3YJ6xoasQny4dlO1aPzb6fL+bUTUwFbzNy7aNzSO2/79P2/dalbdu3UAN21IvzrVe5k8pc1Jbf6lHoAlXdsakiZvJaphsjjf1ojj3fInWgCG3kKyB6tyyk1Tjj2r81TKPMWmA1fvNWg3+uhqnU0NCAhv28u5YUmmhpFDv/rd9W2sWuuQahhbyTmgDXh8urFrv85s9Kr+T/q6uxxLG5YdTVCJJPuVHU+OMUm3cpVaBEe5tu1OtS2Mkkd1+/8A+Pfa3TrRFH5cKDPz07Y1AyhrfiWy8H+E9V17U/8Aj30+Lz5v90V83fsi+EdY+L3xK8TfG3xlC/lu3l6R9s6VY/bn1aW90nwP8OdPujHqnia+/fR4+5Fu219OeDfBtt8PPA+i+FdOfzINIto7XzP9tUrF+9L0K2RdWbzb77RJJxTpXX7aiW8f73+OpYbCGUZkqCyhfyZQD5PmSt/3wtaiOQ+M3whsvjb4Cbwrf30ump563Svb/wB5aoeIPFXh/wDZI+E9pPql29zbaZB5el2kk++a5k/gSui8c+PND+EPhG+8T+JWf7BAfLhjj++7V8S+DPid8N/i58TofG3xP8VTR/Yrlvsmh6j/AKlEFYyaT03Gj1b9ib4Xa7a2viv4peJre4ttQ8Tzs8MUh270d92+vre1ijhjSMfwV4N4f/aO0r4x/tAaH4S8ISw3XhW30+5urmS37ule5mPbJBGkkgqoWtZAz5b+PNysf7dXwauJnSOOKNqrajqPjv4xftBalonw18ZN/wAIvpMrTandSL/o1u+77iVxv7UV3oHxI/a8+H+ijX3s4I1ayv57OT57WSr/AIsurX9hr4naN4g8Naguo+B/E/yX1j/UVj37FHsP7Qvj7Vf2bf2fzcWd3/a2oTbtP+3S/K4d/m3LUHgX4e+JNQ/Z5h8fXXi+6uPFEmhtqaSeZthT5N9Yn7ZHjTwr4/8A2aZtT0pE1q0ufLuUMf37bd3rxLw5488P2/wlsfBN/wDGVrbSpreNZfsX305/1VNvUR6x+xjqnjT4yappvxB1PXZvL08S2l8kn/L1/cVVr7BsZTHeeZF8gryr9lOb4dW/wnt9N+G12L7T7L/j8k/jafHOa9ajj/eZq46ITPjz4/afB+zF8etD+Neh2V42g6tM1pr9nF9xSw6+1fWWn6pp3ibR9P1vSLgXOmahAtzbyDujVR8ceC7P4leCvEPhLUoVurfVLaSNUk/gk2/Jt/Gvmn/gnp8Qr+88Ga78PNYRo9Q8L3TY+mcUl7srdw6H09qhcWivH1RqSa4RduTVp4tu5aqtblfv1sIZJJVW7/c2kn5VbSHD5p4tQkeG5pgZ/wBl86Gz9q0bS3jhXCjAp235lqTy/mpARTf6wVEZDHN8/EdTSfepjDfQBEJlxVaSR5JBII6y/DcevzeKtfTVPJ/sn5PsEcddIyLRcBmmR+Xcq9fJH7J+oW1r+258eEuJ4o5ZLify0c/f/ff4V9c6c/8Apcf+9X5jeK/hj4y8aftffFTUPAdzJba7oOotdQ+V992rGpuikfRXxp/Zl8U+B/ixL8UPhBqX2S91CTdPpccfyf8A6q+rE8+S0tHvkSO8aNXm8v7m/Z89eQfss/tMR/HXR7jR9aRdG8eaSPKvLT7m/wBxXtEy1UbboTM/UEH9nyM/96s+47/jWzIvm26xHpu31UaxWaTJrURShg/c1HZ/8ftW/sknrVPS4gZXkfoBTA0RNHP71gIs0fmJFmM45xWrV0RCOQkUAY7Rra3CIhyfWpbnUEk08RbP3ver/wDZsMe99n+spP7Mhkj+fr60AUbSTydPXzBnzH+SnWtxJLcLGY/9XTLiPyrhfs5kmi/jxJV9I0jvp9nXFIBvm/vqVLU/b8vH+68vFW5oQrRP6U9JPOb7tAEcLJa2spCYA5qZfuiiS3jlTBGRUkUZRF3UgEjb5aS3T5pKlanK7bdi0gHx5jPSq0qfZmwi/JVvyG2ZfimwQm4kxQBEq7ulKymlizv4p+z5t1AFa4k8uIiq63SSQxDP3qvyRhap3cO66TbF+720wKWlruurnC4j31uxutVY4/LULVu1WNbjYeRSYGvCuEWlkVWZGPanxr+5SkbpmoKKzRruyBioZI2bI5q033s1FKDt64FMRQaMKvzEk1VbbuPFXpmG3AXdVFuGOaoRW2/MxxxUgYY5p8mGHQUxcLxQAHHanxsM80z+Kl5zxQBPuBzwaRGG7nimRsc0rZoAkdgBxmo3wqj1qUY2jgGo5CGboKAEzyKcz9RilZR/CBn60KrdeKAIuq+9PXO2mt+tOw6qOwoAY47npTwMAYNH3uuKN2cAUAIkZZyaeUIyScmnp8vOKbuBJ4oAbgqvIpit1GKnfJHAFQrjJ4zQAx5CoPymoRIWYetWJG+U8VDGQoz0OaYC7tpyc01snPUU1pNz4yPzqTaWHagCtGrfNyTTi23A5oRirOOPzpNp5yc0wGvGSynceKaj/vDkGn8ryQKrrKWmBHNMCzJIu0jbVYMAwG3NXM/KcqtVtgaYNgfSkA5gjLyuKpXijaSG4HatXA28gVm3y7iVQ4OelAEdrCqfOS4yKjuowW3bnxU8YlXaTyMdzSzTiNPnUEUwKMUg3bSzbfahlUZ+9+VJA48wsVGBUv2hGkPyDH1oAnjeMRfIDu9aZIrNjewIqQbGj+VFX8ag8stgZzz60AWhCrQ4QbaihhaOTaTx61aSJ/KAGMfWq6RssxJwaAG3CqqsQSxqna58xiV4rRdcqcooqhbkrJIDHnj0oASQlpBhAKgmYeZwMVeZljKkxj8jVCZt0mQoFAE1vlS2UyKkuJ124WP8aLSQgNuUEUlxKu0qFAH1oAdbyqY1Vly1WpBJt+UcVTtW2hSFDDNannBY84XNAFJXIJGOe9RNE7qcAfnUrSM054HIqwWCxY2KT9aAKMkbR7cAU2SNc88Gm/MzE/LwfWp5jtG5lXpxQBXljCsuMmnwqGU8EUyNzIcE4qyqmNSCOKAK9wsfOC273qGFC7AdqtyyKwKhQabargjgUANm8tV2qPm9aRbYsy46Y9amuip6rzTwpZFCjHHpQA+G2Blw+dvtWh5AWPCFhTLNCrcirbL0zUgQw2m0ZOSc5qdsbcDNSRr8vrStGOOKAI44z5YwaGyKlwdvApuzuRSAZGuevFMaIbiQTUm49BwKaATmmBKu3aBkmjbznnrSK4XjAzUq464zSAkjCkc7qJG7AUoahs8Y4oAiA68GhtqjjNTLG23OajZc9qAIvvdc4qWMIvX+VPEfyg4GfrQqhmJIGPrQA5X+bIHFKpdmLdqkRVb+EUuflKqABQMgb5iMZPNS+WAvOfzpixlSPrU5UMeAKAK5UmQCrMSqo6HP0pqx7ZBkVYVBg8YpAMVSWzzj6VMuAPehVzin7cdqQC5bHSrCr0qEZwKnUE96Qxw69KlQ1GuaniA9KTAd5YmUA8U+ONImpo+VhnipANzCpAkChqljXatMXrTgakBxTNOjytLUir92gokXpRQCWoqRDuv0paT+GloEfMfl+36UySmSy1LXaSQ1DN+46cVNS/62kBnyXBaPFMp0kaiXYKT/AJafu81ICU6OPPJptLHQA+Kl83zutR+VUlAFqH99aSVHaxVPp/77NEPeqAjmhqjIFSr13NmoNqL/AKyOkBBHT4/9YKZSxS+TJmkA+SN5I8780fPNJTLi4dutVLGa+/4SxIyn/Eq+y+Zv/wCmqvQBLL8u2mVY1H/j5b61XVtlADW3bqi8v95UrNv3VDHH5VAD/mplPSkoAYkX+htH7Yq1bo21KZHU9v8AeNADG+81QXH8NWfWq0q/doAm84F41X59lSbKhhPzVPk0APu7R7nTkRCYvnxkUJB5cCIlWrH/AI97j6U6GH9z5tMChtrSsSkNunrLVCRVEhAq7DN+596AKMlL5bbM9q0PsqeWkm9P3j/u4+1SzQ5oAz4Tn91TvJq7pEf72Si68yG7j/d/ud9MQ7mq1nDu/e/9NKt6j++hjqfyv9FjFAD7hNkkZq7VOb+Cp5G35QPh6YFplVYk29e9Iqg0yGPy41G7L1JQAiqc1asbXzpv3nSq0LHcK2LFDJcEmkM+PfBFonxo/wCCgGv6pcr59h4Pt/Li5/ij6H+dfX9reCSOcSH95uY18d/8E+7VL74lfGXVpmaS8W5K+ZJ6GYmvrmCMxZJ4rKntcbNS1j8wE0sn7qSnxbMfu6gvpPMkxWwij4g8O6X4305dJ1y1+22CS7/Jkj3pXOf8M8fC2KQSf8IPpgI+f/UrXbwx4hAqwtS0twOd8K/Dvwn4DvprrQNBsdKuXTZ5lumX2V0Cr860/Py15v8AHf4++FP2evDiXuvu1zf3O37Npsf33qdIoDauPgt4BvdUuNUm8MWJ1SeVpnutnz7mq9f/AAu8H6lp1vZX+g2uoW0CeXDHcJXkPwU/bc8B/GTxBZaFBHeaTqt19yO8KV9D3Vq3m7PMX5f9ukrPYNT5m/a7+Dd8/wAJ2/4VpoUNvJ56vqNrZjmSCn+B/wDhS2geHrE3Hw8SHU/K+fz9O3v8q19MWlu8k3ybZEQfN89J9lgjuole3tLc7vl/drS5dbjPBf2afgvF4P8AHXiDx7b6M/hDTNWgMFpoe/7wJDebtr6Fjk/eb6jmHmPueTf/AA/fWrP2Ntqs8kcf4UJWArK8kMzSq3z/AMNfKLQxfCr/AIKJBfMS20nxvp+8w9PMmx/jX1qtpu+7JG/+49fIH7aWof8ACJ/tDfArxVH5RurXUFgZT7n/APXUy7jR9fah+5kJ/uyVn3DtIdx61a1q6jEgl8xXjZsb096SOFd7Jui3/wASb60RJWWHy4F/2qSpJpI412/aLcf9M/OotljkX/Xxf99rTAh53bc96p6ompyalafZiken7t9zNWhGsUnz+bH/AL+9aEurT96j3dt83/TRaAImTc26kX5JF+apLaS0SP576GT5v79U/Mt3+d763+dv76UAWI9vn7u9H8TVF59r5fyXtt/38pTeW8abzd2gT/bnSmBJalI9RgTv5i18gfs8+KdK8Oft7fGKy1C8Szu9SuTHZxyf8tCMdK+urPV9Oe+gaO/s7hFO9vLnR6/NPXvg7qvx4/a0+LE3hTU/J1LS7gahaTR/x4WsanQpH1t+0H+zBP4m8faV4+8C6j/wi3iqGbdfSIdnnRf417loLamPD+mf2u/m6j5G2Z/7/wDtV4V+y3+0w/xEt38CeMojpXj/AEZfJkjuPk+1KvevoHnd833qqNt0Jjc7Eqpdf6k1ZlT5qZWohsbrHBIewWsrTY8wy1rJt+asmzmk8nigB1W/+WtUYxJZSGUxcVdEwmlwKYFrf8lQyd6T5/3n6VUmmxNQBXsvM86tWzbzmqDT1SKHg1eWb5qQBcDftqZfuioZqajtQBPuNIxO35ahkkwN9Ot289UIpAWl+fq1WPJ8u3crzUcKbVJf+CrNvJ/rqkZDHI9LH+730lrH88v+xS/8tPxoAcqtH5770/1lV6s/8s/LpJI6BEVRzfdqe4/dp5dRvJJHcEnrTAYIWjVSwq5Gqx3AKjJNQtN5jYxwKsQ7W+ZetIZoRsdpzQ33RTYjiMk9aVnG3ipGJVe4DbeM1Nu56VHM+1cmmIrZZFAqjNEd5OatOxbJ5xVWQ7m+lUAbAoxuxUG0ZBzUqsSrcZpiN8uMd6BC+WTg0oVuRj9akzjAHNN58w0ARqrbulTrH8o4pmCvJFSKW20AIsZ3YzUv2fcODTI2/eHIqbIUZzQMg8gjuaesXHJqWNQ0ZPenbTtNAWKskWelIYmK8k0/kt1p3Q0CKzALxkk0Rk7s5p8z5JGKjXGPSgCXzPl+/j8KiWQgnmmFgvvQrDcaAJSxP8WKi3YzzTi1RMx3cUALJlv4jUW0nIBI4qVuQeKiXPmYI4xTArR7lmwSf0q2BkfeOarsgNx0qZd2Dj5R60wINu2UgHHPPFTsnyjBIqBV8yU8gn1zUkvyKSfm9qAKeWWQbpWbmp1jxIWLN+VVEfzZ1CJnnnmr8jKmQwxx60wBmZujcfSlhxj8fSqy3A3R7FyD71dVQRmkA2bO04Yj8KoeW32gNuJGOuKvXDbYzgfrVeMksp25GPWgBs0I27i7fTFZcjbw2XJAPHFa00m0Zxz6ZrJaQtv47+tMCaGNMY3so/3aJLWNj8rnP0p0IBjy6/rTY5A0h2rgUAWLeMLHguQaGtwrZEjD8Krybo2BBzzVlZHkBxQBNDll4difpUija2WY/lVSGaRZtpGKstJsGSc0AJJIuDhifwqOOAKS3mN83tViNQ2GHemz7lHoKAK02GYDc3/fNZt1GFk+8Tz6VsrGze9Ur6EnGDg5oAiT92rfMwz7VDN+8wQxb8KesjNuBbJpNoRTuNAD4JRBD98qfTFPWZp2BLtj6VRkbc3B4q9bs3kgbM+9ADrpmC5DcD2qtD5k2RljTLtWVjn+dPtd0ZHBO4dAaADy/LPzMwP0qGRmfqxOKddM27kFfxzSxQs67ivH1oAfbrtYsxKj6U6YrIwxISPpUW9twX7vbrVwRl8AL+tAEccCbQWYgfSneTGrfIzfXFTIrfc24/GpIgyttxmgCAW8UnG9ie/FTiM7QEZuPanSBkycYqe3Vup70gJLdT3Zvxqz6c1HuIAp8ed3NSBKoPrTj25pu4rQCWFADshR1P5UyQkk8mntwORUUjfNQAiqWprZXgMad/DzULMOcDJ+tAD0B3VaTPH+FVYyW7VYVjxQBKG+bH9KlVQ2cnFQAnj61Yjwc8ZNACtswOc/hTdvORx+FO/jAA5p53sKQDVj+YAk/lUi243d/wAqi5Vxx+tT88f40gB49qD5v0pI0U55/SkJO3kfrUkeOeP1oGMkX7uM4+lOiG1TnNOkbCiiLJX8aABkywNPVeKXNCUhDk+X1p/zN7Cm9jxToxwKBjx71KpHHrUVTJQMVfvVYjzVfuKnXFJgSbQSMkmplUdBUGcEcVMlSA+nLSZpyjipGOVjup+7dSbacvagCSKn/dqNG+an7qBkiUU1TTqVhHy7LT/+WVSc1H5ldZBX+f8A2al83yagnp8X/Hn+FAEM3+veoGjMRq1PUfned1pAR+bSxb/NpPLT0psimI0AMf71J/FQzZ5oXd260gNfS9kefWpv+XwVWtf9TVm3d1k3xjINUgKuodRFHVCrcsrzfvZajgpAM8l/SofmqzPTIfvCkBXdKWCTy6n8k+lQc0AQXEnmTKaVvu05sblpsjUAQvTqiuJMbKkd1j27aAEemU96NlAD46fF8itTP4qcvagCeFflqtcI275Hq5VWRdjUAEXz7fep+arRv81WH/eUASx3H+hyK/4VftbZo5Li3nP7zYo8v+5urM+7tqfzJ5pHk3ySSSN88lMBxtX8vMj4q15x+xxxxR5qX+Gq0M1AFzyUh6VPaxHyf3tQQ/vos1NHL5IpiILW08m6kl8z+OrE01SeS/tVOSgBbv8Afw4qzCRDbeZTYfLomkjm/dUAEX77y/SnFw1wX7R1WE3k9ami8ybvQBoRncNwqQEowaoof3ir7in0wHKpzWppuZPOj/6ZNWUob61r+H5j9ujHtSGfHX/BNPd/aHxajf8A1v2gfzNfXsmfL8vzP3u//VV8a/8ABPXVEs/jJ8WtEKfv55pJP+Ah3r7GtY4/NmnRI/N38A1lS+Eb3Na1+7S+T/nFU4byrvze1bCHR/u48U6Oo7zZHGuanT/V0gJF6V+eX/BTT4c67qXjTw74l0/T7m50ua2+y/u037JfSv0I3NHSXlna6lBFHe20NzGjb/LljV03VnKPMrDR+MXwD+BHjT4pfFDTtE0W2vNLvVZZJLxo2T7KnrX6DXH7D/iSa4lWf40eJW+bPN1X0vo9hY6Abp9N06zsp7k5mmto1TfUqR7XqI00tx3Pl1/2HNa/6LR4n/P/AOvUy/sK6psk2/GjxY+1dzbD/wDXr6j43VY8zzKrkiK58kr/AME+9TkmLN8YfEXl7vufxfzq4v8AwT+uIXUw/F/xbAf74uf/AK9fVUn+s+/S0uRBc+WJv2Db75U/4XV4q/z+NfOX7WX7Kl18MvEnw7guPH2reJv7bvls4pb75ngXd95a/TB5GPNfIv7VE9v4y/a++CHhX7QV+w3iyyRR/NsG7du/QVEopIaZduP+CfMsLIqfFzxPDt/hkk/+vSyfsBtJI+34veKfMf8Aj87/AOvX1jqVwLm5kb04qj91qvkiK58pW37AySXTwt8VfFnyfx7z/jVv/h37AfufFzxZ/wB9/wD16+ool2M27+JqlWnyRC58nP8A8E+WT5ovip4oL/8AXZf8aev/AAT+bfJ9o+L3iTZ/D5b/AP16+rWJptL2cQufJkn/AATxsZPv/FrxOfr/APrqp/w7vsvNbd8U/EOz/PvX18vzfdqHarM1Hs4hdnyq3/BPzStn7r4j+Kv/AAJWj/h35psnyf8AC0vFX5f/AF6+qpnIj+TrTar2cewXZ8up/wAE8dGVhCnxK8WPJt+/G67Vrzv9jvQ7P4O/tdfELwdqWvG9u7dRawXd6+17r/ORX3VbqwuYlX+Jlr81/GHwh1P4yftjfFa00nVH0nWNInkurPy/vzNWUo8rVhrU+s/2pP2Y/wDhZF9D4s8JM+heOtMbzBdW/wAv2mvZvDNvf2XhvSLbVrj7VqiW6/aJv9uvDP2af2jF+KVvL4I8UtFpXj/Rf3bwXHy/advyvtavoCZWhk8pv9ZWsbPVCZJJIsY3NwKred+8qG6uFWMpIaowTVoIsQ3Ukslx8mfLfioI7pft5STpnGafBxN/qqo7l+37+3mf1pgal2Obcj/lnJTI/wB1qBHtTPOjvLyLy+1Wrr5YTJQA7+Kqc8H5Vc/ipKAKnnfvo4oa1otqViRSCG8jEXStOT93SAc/32+ao5P9ZRJ3psdMAmZ5raRB1q3ZnbGPlxVfmrMK/uUakwNDdiCIJ/HWhH/q6x7P94zJWxHt8uoYypJ0pPm9qkkj8uSoZf4aAHfN7UvmfcqL/VVXaQs249aAJJmYMpoaQyMMgYqMyFjS+YQ1MRJuVSeRU9tIFj9TVKRtzDFXIJljQgigC4sy+XyaV2+UHOBVVZN2D0U1Y3ApUlD8jAOarXG5vlX+VSeZ823HamOzbs9BQIhdiqgdaqHO4nvVieTsOtV1YqxxzmqECuVUimceop8jZ7VCtAEjH5uDQrfNk8UnmbaarZOaAHs2c80qsR3qMsWJ7U6NvWgCVW+bk4qRpBwAMmoc4wcGnx/vJB2/GgC5G21fu9qZK/HSlbavXPSqjSHdQMXcR2/WhpTtPGKYzHJ4qGaYqCKBBJISaZ5m0c0nmfLzzVeab5hTAlL/ADe1ODDJqMsCBxSx4LHgn8aYEm70poYrnikzzzkVIzhl4FABu3DkUxlDN6UobC470jSbVORzSAbHGBKTup5hVs5c02LBxwakbbHk8/nQBXiiSORsHJ78Ul4jyR4R9p+lTRfNuJFRTuEHQ0wKdrGLeRmMnP0pbhRNMuZM8elSx7ZYyNvzD3qPzvJuAGTOaYAqkbFzn6CrwUBeapyS5lXoOauCQbPWkBFP046Um9EjHrUc10VYgIeajuZGjXcFOaYBJhlJwTWO42s2Tjmtbz/3akqx+lZV1gSH5SO/NAEjruUfvM8dKjh/i6inxXCquCpJpFkA3MR196AEZeRjJ+pqdAqkHd+RquJt0g6gZrRjZJF+431OKAGxqkknXH41J5Q5Ctuqo8iRyHAardrJtjDlWJNAFiHEagNwabcRhsNnPtmq91MGwSrKM1Gl1ukCqGxigDRRkxjIFUrkxbuufxqRplVslWNU5JRJyAcUANWNdzMG/Who4nz83P1p8W0g5DGmSKVYbVwPpQBDJEFIxnFTO8KxYUtn61YjG5PmTdVedY/MwFwfrQBGsaMpLNk+lSRyJGuAyq3TOM1chaKCEZGG9c1n3UkbvlQfzoAiZfM3Etk1bhXy4+ZMZGelRQsqzAhfzNT3V2NgCgdKAKTfNMPmzz6Vpwkr/FgeuKy42/eAn1rTmvAseAecelADGkAuB826rUMa4LFsGsuGQtOpP6CtLzgq8L+maAFk2lgOTVpcBRzgVTi3TSEjkY9MVcXATDA0gHr83Q5FSo/zGqsLKjHg4+tTOwXBA/WkBPksKFb5eKrJdfMRjiplcDOKQErVEVJYY6Ux5TuAp0b5UGgBzfL3zUBjdmb5uD7VNI/ymlj+8KAFUFQKlH1prYxT1+lAAuMirSse2KrjqOKsRtwcg0ACr19aNp55pfM9BQWODkYoKGtkgc/pS7ihHzfpTS2AOGqCRizUiSdnZm+9kVYjYY+8Pyqmr45wc05JCc0AWWYN71Ou0LVZc4FTLIW7UMZIPmPBp+7bTEYgcjFOZuvFSA5fm71KvA61DGxz0qXP1oAdUyYqBanXGKBjuMipo2zniq+eanWkwHnqKnjbAqqD8wqyvSkIl609W2rUampkwwqCgVsrT17U2lWgBy/eqRaji+9U69KAFUU5fvU0d6coNID5k5pPL9v0p/8Ay1pkv7mSuwgghi/e/vaKkij/AHlR0gIbuP8A1dUrp2MhJrQuof3Uf+sqjdR7WIpANi+8KdJSQxsx4pf9VSAWO3LVN/y2/GiGXyefLp1t+8vPM/5ZR0wLEMNWmpozSGbyYaYFOo/J/e+1O+f/AGadUgMupP3eKgEhj6U243SXWxE/1a4p0ceeBQA+b7xqtV243fZhs6VUtmaRcCgCOXbVfY1XJvu1BHQBXuKJP7lOmkwwqvQBY5qVaip+75qAFb5Wp1ui7qZTlbY1AFyOTHIqC+/hpvmVLqH+rj+lAFZetTr2qmdkbq5bFWI5opfljcSfQ0ASVd0m6+zmR+2KpVO/7u3A9aYFqGb9z+9kqMQ/88pc1X06ZmheR+kb9K0YP9SKAHw/w/hVuH99/rY6o+dH6/pU2nTSTUxF35vao6rzah5N15XanzTSf8sqYFD7Z++kqe1mzdx/Sqc37+fFXdNm/c0hkuvZ+yjb681naLeeSxGPMzWnNNHcQ1gaOsnltcCPoMn2oEdDY3xury6i7QnFaKuKyNM2GTzI+sn+srUb5aAJ91aXhxz/AGtEtZUfyt83NaWlxvHPbSdvN/pTBH5n/sy+OrbwH+2vfyahdJZ6be6hfWU7yH5Pmc1+lTN9lu5vZ6/KCz+FepeN9Z+Ll/YxyXOs6Defa0S3T5x/pD72r9FP2dfitF8Zvg1o+p+dv1ixtkstR/2GHy1y0pdC2ejeeKv/AG9B9yTH4VRmjSPZ5b5qHcI5VKrXUSXLjUhKMOtXdNukuZsIMYSsebLqu1MDdVvS5BZrPI/pigDWivRteSTjFV0vniHPIqgZEljjB61bjpAWNLvnuJpEKY71pqu5qoWEPkzNV9aTAWm7n2hVam7qFpAP8z7vzVNvNVfv0vmbKANKxj+0XEce7hq+KP2f9WH7QH7ani74kvZrb6LoNr9ktMjq33EP1617V+1Z8Wm+D/wg1DVLC9it9fvVay06H/lt5r/LuWqn7JvwTT4J/B7Tor5vM8Rayq6lff7G9fkSs3rJIfQ9oubtPOc5qIXAkbis3WJHjjDDjnFW7TZHZx44DitRFuNqfUasu2pFxtpAVZ9Qtod++T5/7lRw6nHPJ5ce8r64pwSJ55Z/K+bpmpeN1MCSFvmpFU7qYv3l21LIp2+lICvMWjYYqL7SKfxcCqu7F3HFVAadj/x+W3/XRa+JPhN4u0nwv/wUb+Jkep38OnrqDzW1u8r7A8nHH86+1rd9up2o2/ckX+Rr82/FPwRk+On7aHxW0e2v5rDVLKeS6sZIz/GtYVNLDR9TftOfsvf8LK1CPxh4UmXw94709lIuLeTZ9pr2DTby/wBL8NaZZavc/wBq6xDYr9pu4v45a+b/ANmX9p6+1SS4+GHxP36d4z0+Ty4Zr35PtO3sa+i7i1ktWxMrB6uFnqgYzcxUzODImfnOab5o2YXio5WHyxn+KrWnpGJ1WT7takhDqEkaOM5zUTDy2WkhKBz5i5FOkl825Em3v0oGSQXRhkzVua9zDVB4Z47rbK8Mp2+Z+7qcTPD5nl/8taALL6gsdtHJ1mqLzqSSDbZ+Zs83Yn/LI0jTLHbiccNnFAF61VIBxTbq4Mdu84j6yYotbgy2qDuOKsmNPs0khoAztNkLXQiH+qLZqIXQtbgpG8m0PTrObyZvMp2+Ce6Q4P7x+aANGa2E8WDUPiLW4PDOitdyD93Av3Kv7Kh1LSLfWrB7K6Gbd+vNICx4W1S28QaTDqFrvMU6VsWn+uX6Vn6TDBo1nDZWsKRW8a4q9H0qBj/l8ys5pnk1KJd/7tK0Tnz4cf6usq1YN5meGzQgJ51KxoFPLDLVEQVAxyaXcGBoXhcnimIRcgnNLg/Sm8Mx70re1ACK23rUrSZHSq+eak4oAs2+HA3HpU083kghR1qvHjy89DTpcbR3NAE8ch8vcevrUbNuXcWP0p2weWuT1pkgXp0FIZBIxxkDimRnk5OKmkK4AFVcj5uKYh7HPQnFQKxHXAqQt8tVd3JyaYE7tu+lM8wICByaeqfKOajb7xAHb0oAIZt7HIwasrjrUFsmfmIxVjgUAJuzxxUsa45yBUEeSWJGOasKvy85pAEkrcZx+VRqu7miQ7sUooAazFc9Khb5iM1LIw34wabxuoAjxtX0H0qpMytMBn9KvbgaqNtabg800A6RRtHzAVFbzLuYBl4qxIq+XyaoQxBpjtOBmmBfbDLyVpYduz7wNNePjrTYUOw80AOlkCjgrmo2jLqCWB49KZcrtTPJpyttgH07mgB0LFcDK/lRcIzoSWH5VFCXWUZHFTPIdrYBoAS15XkjPtUF83zxhmXGfSk0+RpGcYYUlyuM8MTQA2zCsrsHVRnsKcxV5B86Mar2J225GCSxp+PLu0BjIyOwpgMutyMpDqfbFPhlk8vOO/pU11GpjJwRgZpkbn7LnrQBUut24PvGfSo7u4kdQrMuP9mlvCdvT9KrSuWxQBet9wgQ7kA/2hVG8bfJwV/4CKm3sYVGWx7VVbljQImtztDfd/EUkjDgZU/QVchUxw5HXHpVGRiz5IoGLAm6ReMjNav2dFG4kD2zUNjthUlscmrE11Ft6bjQBU8tZpsbePWrUdpsTAkAqOzmDyggDHpVuaRdpJAFAGbcRu7Eb8gU62snZj8+Dj0qRSJXIH6Vb3raou7NAFKa2ZAB5u40R2vykFsVPt86QnDDHSiZQgyMn60AQR2uxiS/f1pZlDY/eDH1p0UxkU5UU2RNvzBR+IoAcv8Aq8CQAVCsf74EtkeuKcJD5Y2oCfpVn70YBGD7CgBkzJHD13fhWbHGskjbsge1abLtXG2ooY9rMxGfwoAr3OyFFEY59e9Vd2e9X7qZWjwFP5Vnq3XigBqAh/xqzPI7cMePpiq8bHeKmkZm6rj8KAC13LIpUZPuKvs0j5DkZ9hVK3ldWAUD8qstLIzYIx+FAFiHMeMMo49KmZWZN24H8Koi4Ksdwap/MkaMD5sfSgCWMGSQjK/lUt0zJEMMo/CoIZGjk6Nk+1S3YbYM7qQEdmrMpwV68nFXWmVRjKk1FZRnY3GKllj5HrQBA0gaQZI/Op4WXyxSR24dSWpkgEbgKeKAJJGBzgGpY+1QNll+9yadHIEYKdxqQLJ6dKkWofMJ6CpVJoAfyTUydDmokPXrU3Red1IBq8sKn2qq87fxqKDBweakmC4z3pARMQzYyMVG6qvcUdGGBmnFWP8ADTAhB+bjFPj5J6U1gec1LCuMmmBKrcCpoOh6VCW6cVPDnYetJjHyeuRmiP7ueKRiFXoc/SiHmMUgH88kYqWNuAOKj52nqKSL7x60hlhQanU9uKhj6d6kFAD1XcfSpR8vemIOeakXB7UgBOWB/pVlelQRrtx61YWkA9fvVNH901CtSqxqBjqdSKvy0tACxVMuWIwOKhX71Sr96gCWhWopFpMbPmSaVIfMpKb8kwq1D3rrMijSzdqfJH5P/LSmf66GgZBNN+5qpJSySfvM0zmpAdHSSSeY+aRE3UhXY1AE9Oj+8KhjqaP/AFgoAvQg0/5JofKqCEyQzVPNMaoCpHH5NJ+7/wBmmTTSVX+dt/8A0zWkBHZwNY+MNTu3m837Vbr5cfrUkf7yrdr0/Gooo/8AScUgLUVZ1XPOHrVCH7jUwGyfdao1p119xagpANa1i+0tcY/e4pvlU6OP95mpaAGUU24k8oUW9AFik20M+1abQAsn3TVnmZUqBu9Sw7/4OtAGW/mfaXx0xVuxtY7SOQKOM5pjP++lHpUy0ATbvenr91ahVqkWgAVsVZs/+Wn0oLP5aRH915frU1u0clw8KTx+Yn34/wDnnupgSzeX3os5fJhzUdx2qTzv+WPlUwH0zzvm8ntRxbrT6QDPJ+0f6qn2VSWkMfk/62oLOmBHNDVeGbyShqeoJrMw7NnOaANPR/8Ajy+5/HWpmqljEggjxV9Y9y0CI8NWrpbyvdQw7PmzvrN2VreGm8vVVB7qyUAfGn7EN3Ba/GH40yTr5saXDf8Aob0+LVn/AGQv2jtTutQ05bL4aeMW2JJH9y1kqt+w5H5nxk+Mn/X2R/5M19T/ABA+HehfGLwbfeGfFECyWbLvhu/47Zv7y1zxjeN1uV1OheaObT7bULGdLzT5j5kNxHWdNIzTINmc9TXyL8MPih4j/Y18c/8ACufiI/2zwZet/wAS/Vv4EX/CvtBrK1ltINQ0+Zb7TrpN8M8daxlzCaM/zKdNMs0flKMPtxVyG1QzYzxV5owY55I0/g8oVoBn2ti6wo4454qzHdJN+6j4qzZ/6m3/ANyo4rVJbEvHwZKAFtbr995VaUf3aoWtqFm82r8b/M1JgLUUN0G2J3qXZRtXO7FICB5GjuhHuqW5vLXTbO4v7yVLaws4mmuJpPuJGtDtBBM91eTxWdpbQM7zzuiJtFfGnxW+L2tftfeOv+FU/DES23hTzN+qa72mVP6VEpWGiTwlor/tn/tC3PjTUVmHwu8JzxpYQH7l7KlfYWsB7vUDcxr5ZUfJXP8Aw38HWHwv+H+jeEdKUJa6emHP9+T+N66miK5dWDK8f+kxfvEx7U+SPzEwVp8a/MrbqkbpViK+1tq0+8uRa2pkPapvLFPm+daAMa21CSe68tBxUmmxny5pJkYGR+hq9DbxxDAFOZKAI/ustSSfdNJsooArfNHIgROKWSPzGq3QzIvytRcCqv7yZfl/ir4Y8K/ELQPhz/wUY+IjeIb3+zo9TVrKO4/gSV4o6+5luBbzoN/Javzm+IHwHHx4/be+I2hvdvZfKtzbzf7Xkx//AF6yqX0sNH0/+1F+zRpXxo0VtQtAll43tcPaajH8n2qvRvCNlrGl+D9I07Wb6PUtQtYFR54/9la+cv2ffjF4g+GPjtPgv8Uk/fw/JperSV9Xz2cmnrIgOQaqNnqgZmyRkRrIejU2OZo/nTrUlaH7uGz/ANV/ra1JMuzVruVYycZp+3Nxsj9eKu6fCljcSu0g+aPg1UtT5V2v1oAkhVrrWHgMnOOT+dS3dn5PmHtWqluDKkneoRF5MkjSGgZitcX20bD5dsnpSNMz2YgVeM5rbkqsYfI/1MVAi1b2/wBnt4UP+tjOaratL5i1JrWIDbuOrNmmmaOGaLzetIZk1ctYzDeR5jq/N+5h/dRVaiXzo45KAH1Om3buqCpIY1jKihgWFqeORB1qs1KOFxUgTNN2zVfaNxxTu/SkXBY5oAQYX60jjNKuA3SmyP6daAEXO40M2CBSBueaZI/THFACrk9+9TBegqOPIyOtSbvmFAE4X5SM0CPcw54p0Y3LxxUsnyxgAAn1oGO8gso54FQyxhT2NSrIPLwRUDMWYjGBSERlTk9BioJU46irL45Pr7VXbHQ0wK5lGdqgH1qtIr+YT8uKsLEPMJp5VV6CqAjgYyRjPerCxbeahRT5mas9VpMAVNtPVfeiMDIJGfalOS33cCkAm3HvT92MYpmQB05p0bbc5AoAPLKg5/nUTsRT5ZN3bH4VWkYbgBzQA4tyMkVGzck54pzAL2qldSDYwJ5+lMCXzD7Y+tQyQs0m5So9eaprINg5BFTSNmNQjkH0qgLTLtVehPuaWO3y5PFUI2fOGJJ3ccVrQrxnJpABh285zUcUZGeRipJiMjn9KRWXaT3+lADLiFtpwVFVjbyNtyVIq28gePPI/CnQ7do6n8KAI4rclRk4pGtSu7DZzU5bB6cU1SOeKAKdnAUZ8v8AhmodQUjbtPOeuasho0kfsfpVNZFffnJwc8rTAS1h+biTGOetWZWfzRgqfrVcSRRr90Et/s1FDsS6G7nPtQBdmjleM5ZfzqFYjHFtaTB+tXGUOpwT+VVG2EEY3Ee1AFa5i3KAHzVO6h8tsZBrQVY9oJ459Kq6hGqkEdaAGRqzIANv51BtO81JbEFsGkk2q3GaALTtKYwFVQMdQapKpZqla4ZlwGbFRxNhs5IoAs/Z3jUn5T+NCKZDgbV/GkuLgMuAzn6mks0Eki8kHNAFi1s2E2d2KkulWNSGk3H0q0tqq5JZvrkVXaCNpsAgn3oALWNWjDbtnFQX2zcNshc1qw2MYQEqM/Sqd/FEGVV2qc9lpALbzbQRj5sU24SaSMnPHtVi1gjUk7ef93FFzIkSZ27vzpgZ9vHIvsM+tWpLed14IA+tQ28+7JKDr0yas3F0EjJVcn/aJoAqx20wIw2B9auhJFTtn1zWct0+5S36Gp5p28vIJA+tADxDIzElwfxpokMYZRjP1qoLkvlSW+tNRQJDzkH6UALPGyxlnfk9s1T6d6kkx2pix5oECcNnNSySsx5Y4qJlCtgUuOaBklvnzl5xVvyZBlvMA/GqUI/fDn9KtOYvmyX/ACoAhmZ2blt341ehLKsf3Tx61nEgdM/iK0oZE2x8dv7tAD2di6kYA+tTySM5XO0jPrUE08aMuRn/AIDSwOskhxkc+lAGmqkrx8tIycjJBNPyNvU/lUa8sDyRmpAkEBZetRSWpwSpGcVa6L1NMOD3b8qAKEKuW2ttwPepJmManAUn61YWMeZnt9KJtgU/4UAR2smc7sfnVncTiqdtGGdicH8KtkKqjFAEsS+/P1qfyz3P61ViXPerAWpAlihG3OcfjSyRjbwRSQkKuCP0qRioHQ/lSAq/dYc/lUgUsM5pJOW6Y/ClV8EA8fhTAhkUjPOfxqxDGcDnFQSsP4f5VPCy9z+lADpI9uPmzzUyHav/ANeq0zKuMGhJFK9f0pATvu9vzqWHiMc/rVN5F7HP4VJbyLtGf5UDLe3dnn9aIVG49KRWXaf8KfEoOew+lICdcBetOpq4p3HrQMlTGalXioYyM9akXFAEv8QqZahTnBqZagB61KvWo1HNSItSMkophYqwp9BQqfeqZahXtU8dAh33qVVpPzpyrUiPl+1h/wBZ5lPuv3MJl7VVlukhkqeUedXYQQSzR+TJUMX3hSUUAQ3DeY1Rr94U6pPKqQJP+Wf41WVzHUsn+uqTyzQBDHUtrJiR/nxSecfWiKLdQBaoohm/c0VQEP7+aX3oyf3kn/PRKmooAi+f/ZqKH7wqeabFRyfvvLqQIKbDU0sW2oIT5ZzQBBJ+8pirU823zNydKjoAbtHpR9xadQ3egCvcR+aKLenc02SN/M+SgB8klJB92l2U5fkoAnf+KljkMB96arK+5qbcbpPL2PQBX4E3zfx1P/BUDf678Kn30AOjqVS23Y1Rx/dFWJP9VQAtv96p7PTLe31G8ulg8qS62+d/wGq8fWr01353ly0wLE3+p/CoNH/1po4uIat2sXMkuaYiC6heea38v/tpU/7vzqIZv9XVK1l8m+nj/wCelAy7H/qaqWfmfvetS/xU/wA7yYaAIJun41FD5n4Va1ZvLWKMdKbDDGKANCyj25q+rYqrA3yqtTr0piFetfSY0/tKz2f6zZk1lr1NanhmPzNUQ+1IZ8Z/sK/u/jf8cD/zzmb/ANKHr67XMnyBPMNfIH7CyNJ8dPjTCf3eySV3/wBr/SK+xLHd50mEzxWVL4Rvcw/i18J/Dfx68Gjw74kt08yFl+yXv8cJr5f8P618Sv2I/ElzpOq6Ze+M/hp8rpdx75fsqV9iXDGG1GJMmp4ZIYtPe1nhS4tJk/fQyfOj1UoX1W4XOO+Gnxq8FfGq13+FtXSS8275rGT5JkSu8ij8vcrJ5UntXzn8TP2I/DnibW18QfD3U7jwJ4g/ie3crDXCWvjL9pD4Cyana6tokHxB0eFf+Pten1qeZr4kFj7HkBxUFiPJHlelfLPhv9vvS7VtPtvGng3XdFnuRve4jg3J+Vdrb/ty/CFlR49Vlj/e+X5d5G0T0/aR7hZnv0nehP3eyvnaT9v74TtcRQw6hN/t/wCiS1j6p+3zpV1En/CE+B9b8VXkkvlpDJaPEn8qOePcLM+q4bGSZ/kRq88+J3x08F/Bzw2+seItWhlwwS3srORJbidv9xa+b7HVv2pfjbc6vEmmw/D/AES8Plv5qbHtk9vWvRvhb+wn4C8Btb33iS4ufG2vQtvWS6k2W6fhU8zeyCx55BY/Ez9t7UZXnt5PA3w08zZiQbbm5j9P8/1r6g+FPwj8J/A/w+2j+ELL7MJNxuLyT55ZvxrqFkSGJIIYEs7eP5Eht/k2VJGvzU1G2rC5H5e+nbKd8u47aOa0EO5Wl4pMr/FS/dpALSN900ZFLQBFGdwqTaOKYq/NUn3m96AGMfmpuQrUMm1mpVZWxQA5arX6xS8Scv2p7TfN8tQv+8pgUuIZv+m1ZKaHY2/iK71pLW2+33W3ffbE875U27N9askP/Ewc+1LeQ5hxTA8v/aI+Aui/tAeHoVlijs/Edsv+g6inyOorr/CWj3vhfwtpOlahqkmrXlrbRpNdyf31TotanlxZ74+tSTQx+T5opcqTuBBDC88tWJN/2QSxyHFUnG1EyuO+anhuGjsZYAOXbFUBCjmQ1ZtY3/tKNz1zmo9Pj3eZ9MVNZzf6ZQBrx3CTcg5qOTfJImOlPRKk2LI9ICCT93JUHyVakjqn5f8Aoc8/mZ3UAQ6jc/aLJUfgo+E96WGdLyLypY+npUcP+kcmrMdMCSrFr/x7D58+9UbuP971/cxbKWKHybXyiefMpAN1Geawj+0FpJRv/wBXFWvF84U1V8r/AFdWVoAnpN2WoJpEwzcmpAM/NSHocdad/wAtMAUmPmYntQBEG2tg0rLml+81KwO2gCMelNkXaBmk59ac8e5hnmmAkMm/lTnHBqfB3Coo1CBhjFSDtQBcTIzxSNIWb0qONt0mM8VPKAsJxSAb5x2jIz+NQM7bzinyALCCaYMcY5NACNnbyefrUHLN9PepJmC4ye9NTG40ANkjYdeKVc44p743DJ5pq/NyaYCbCrA1Mqk9qb160o9qQDlHzYFK2QOTTeO3WkagAXlsZpjkqevFPVqjkbA5oAXqM1E0e45ApVG5aDxxTAjkhHOaoNalpCCFOavsoZveqrkpOBmmBWbT3VSVK0yHzgcMAAvfNaG7K9ahk+WVQeh9qYCSxzNhgFx9auxlto47etAYbQM1IKQFd8tIO3406HcqtkD86VlAcU5QvzUAQSbgpJHHX71Oil3Ko24H1pZGVUxkdKdbspQHOaAJwvH/ANemrGNx4z+NKSPpUasjM20896QEU0Mcj8gA+xqhNapbo7ALz/tVejVDIx4z61Q1JU8vIIzn0pgUY9zsoXsfWrDSMtwuVwf96q9uPmzxx6iklmLTA8ce1MDU8x9p3D/x6qsdwfO2hev+1T0uflJJ5+lVftRa4DH9BQBc3Hb90fnVG/ZmfkKPoautdAR8cfhVC5k8xs5z+FAEUYOOAKjkyPzqxC+1ccD8KhmPPX9KBCryKVflyTT4QuDkgfhRJt4/woAYcuRWpY20kceQqk+5qtZojsuQOvpWxvRFxQMz5o5Wc7tuPTNSW9jIWVwqqMetSrKry9MY9qtxyAoMH9KAI5EcIMgHn1xWVJC8lwQF2n1zWjdXB2kLiq6yZkBJGcelAF5IhGoJGTjnmqLyJMxCpt2nHLU+8uvLxytQWsayBmI75oAtFYYIyQoz1+9VGa8Ex2+Xx/vU66uFjyNvJFQRbWTewA59KAJImCQ7tgOO26q9xcvKcH5R6VZ+0RpGQqgfUVSkYMxOMUAPhLNwo5+tNl3I2G6/WrEE6xwgDGfpVWZtzE0CGqCzEAZpzxtGoJx+dPRgFwOv0qKTDY5oAZGpkkAA5zU8lu0P3iv4Go0Hz+lPkTB5OTQA61gaSRccA+9XZLMRqScf99VVscfaFzV64x5bA4P4UDMxl+bjn8avwwqI0Lqv51XhUeYgIGCPSr102EG0Lj3FAjPuMeZ8ox9DWjY27RsWIBB96zV5k9ea2N6+WOQOPSgZNIzbQAB+dSWqt5fPr61TSTbjHTNX1ZQvFIB7sf8AJpVyR0qIyfMMnj6VNGx2jHIpAJ5Y7jmoJrdmzjAqwx9acmKAIorcRr2FJJHkjAqxijb0pAEKn0z+NSDdvFA9BT48bhnFICzGpC+v40yV2ZgoGPxpXfGduKhRh5i9KkCZjt25H45qGSb5jtH61JLJGvUg1SkkG4ngCmgHDJY/41YbAT7v61FGy8cD8qSRt3/6qYDWYsRUhzGOnX3pqgYNNYUwDJcjH86nRti44z9agXCj1qRWGc4xSAtRLuGScVajIVfX8aqW8g/yKsh8rxUjLCjjPapV/wA81BGdw5qYYoAcvWrCLjrUCVMgpMZLH2x0+tWFqBFxip1qQHVItR0+pGO5paZuWnc0DF31PHJntVZfvVZjxtoEPX5m6U5Wpq9KdtpAfK11H++5o+fy/an/APLb8KZN+5rqIFkVI9Jjk/5ab6qrcGOPFMf71OjpAFqBIvz0+WLyabGxjNOlkegBsdWfn/2agtVBuo45OmadJv70AR1Z+f8A2arx/wCsFWYf+PqPzaAE+f8A2adUc/8ArpaPO/zmgB3z/wCzSw/dFMh/fdeakhmzTAg+fzfep6PJ8mo/O/zmkAT/AOr/ABqpv8urEsu6or6Xzmh/6ZoBQBWbvSq2KTd70UAKv3hTOH96eq5qPy6AK10yR3Hl7M5SrEfSobuMSbH9KdH96OgCzvRPmob7tM2/vV3LT2bNADI/uihmxTqjX7poArTzC52Y/wCWZzV370a1Rq7t/cLQA9JhDVmTrVHctXnhMln5iP8Au80ARb221LbyP/qw+Aarq1T2a+ZHI/oKAL1pFH5WT1qeG8/c+VF1rO8ypIZzDTEWvO8jmq3k/vvanXU0k0PP/LJ6dDNn60DFUJCfNl5p8M1Mmm5/1XFVvMSgDWu/330qHmktbvzoeajhmz9aYG1D90VKtVrOLyVb61a5piHKK0PDSGHWLfY38Xz1mb6vaDN5erW3+9SGfIf7EEi2/wC0l8d/QPL/AOO3VfXunyP9ok+vmGvjn9iD9z+0F8c09HnT/wAmHr67t7rbux34rKnsN7l8QdPOqu03nGP93yP1plxdmTZ8mMU63m3zgt9yNa2EaN5Njyqlhvmt7ko1UPtSeZs/h9aSWbM1se9ADNY0TRtT3NqGhWF9hfL/AHiVzdh8D/ho8eR4C0SQP997iDe9dPdTfbMYq/aSfuY6nlQHM2fwb+HmmzRS2vgzSLZ0+f8A0e32V02n6XpWk2vkWWlWdlHHL56RxR/xN/HU3FFzdCGHzKLIDQ86R1b5vvVWt/8AXGnJJlareY9AE8smGohZFXenSo/MT56kSgCZfmo3UkfeopkbdxQBYbvRkrUaDYq/NRJSAlVf3e6mqd1S7f3a1WpgS0qsWao43URTO9SJ0pAOrP3t5dWprgQrk8VRtT5i+X3FUgLCJ92o3qCOURzS1NlqYFRl8zVHfsBU9/GnkmQjpTqqalL+5j96AI/+PeH60f6R5NMkuzFEAKrR306/xUANmuGm60xJjGflNVbyQm1aJef71VdOvD5eJeDQI3NOXzbxVqSzmk+2R1UsLoWzGRhkYrQs7pftEceMCgDVjk82mxUebU/y/LSGV6zNR8jzfetXy/3mU4rF1CXzbt6AFs4cnNXY6qXcnk3ymPtS+cPtkUvamBN/y2/z60+6kSKPEj5qr/aam68qTmD0xUupf8ep+tAFw3vmWpljGI6tW27bzWLDDus4f941uWo32qfSkBJzmnim7cY7U5PvcnipAQHa3vSMOvc05sB+AcUzdjNADY/vdMH60522jk01W3HJFMuMMvHXNACN8rcDJqTnIOKYgy2c0926YpgDKakUHbTV+7yacrccUgJUQ9RxSyZ6E5qPcdtOLDyxxzQAeWX5qJ8r2p+flqJ8srZoAGG7A70h/dt60BA3I60YGDnrQA0t82cU/jb1qFCrMcnIp7Mq5B4pgOZhmnqcDpVJZTvJJ4FWEmDdMUATbvamt3pN3PUUjMN1IByn5elV7hxtA96n3KF61SmlU85GAaYE6yDoKiZj5nTNMN0uwsgqIXHybiDmmBNIzxqSoyagj81pAxUljUf2tJJdpOB9anjhYzAiQY9KYDv32MMuB68U+Nt7cqSR9KcwXaQ3NJbwgMT2pATJncflNTdB0NRuyxr1xTlI29f1pAQsGZh1FS7SoPUmoZeJBj+dOk+YHa2OOeaYFe4jaRgVBwB60luHVRwR+NNjURx5ds8YzmpowvlimBL8xqviSNmODj61Y2js361WZl3P86n8aQDrdW2lsHn3qpqayCL7pxn1q9CyrGPmWs/VGLAZkXbnpQBVtd8ak+UzfjUE7OZssu0+lXrHAgY7lqrKoNyMspFMB0l1IAQE2fhUEe7zAwG40+6bdJwwI9qdbIpUksqnPc80AOuGm8vDJtH0qHyJDHu2nFS3Kn/nqGHpuqeK33Qg+ZkegNAFWOCXaCEOKr3CMGwRg1pi1GRiXaPTNUrqIJIcOGoESWsZ2kshPpzUEhJbgEfWrNpGjK25v1qCUIr4U5FAy9p4ZVJIOM1bac8/I1VbHZ5Jye/rSvIjPsXOfrQBJasWl3cgelWmuAAQBn8apR7beInv9abZ3CSTEOcD3NAE5kPzfK1Nmkbau2Ln1JqO8mjj/wBUymoWuVk2AsM9+tADJNzTgOPwqeWOZoztRVXFQmRWnUllx9KS7u93CNgd6AKrZ3Y6mrkdrMYsLCMep61TjbDDvzVxriZY/vbFoAie3kTgjP0pkdrJJJtCMani3yY2lm9zmlihlW4C9M96ACTdbxlShX8RVRcMxz0rQuoEhjJLMzfSs5Vy3tQImkmQIqouD6moo1Lt0LY9KWbZkBBj8afCq+WxyA31oAb/AMtvlB9s1I1vIz5Iquud4+tWWwG5Yg0DJLKNo5gxU4FWLpnZGwjD8apWrbZQS+B71PeNxw6n2oAjjWTzkypbAqe8aRo/ubR9aZHtyhLAHHrT5Yw2Ar55oAhtI2aQkDNX5N+wfIKpqSsxznHsathVdR82DQA6NXCj5f1q2oZR0/WqkbBF+Y5GatfJgc4oASRm8xeD+dWI87RniqjNtkGCMfSpo5UK8sCakCYt71LHnbmqkkqgHawzUsUoZQMikBYZjtxipE+U5xUDMMdaeJMelAEqk7ulSxN14zUCyU5ZMKcYpASyM5U4GBVaPO4Hk0pkyDn+dNj6gZxQAtwx54NQnrk5NSTAf3s1DuG/GeaYE0bFm6U9yeOKZHjNKzCgAQtzT2R/SmRuvNSMwx1pARtnPSp4E3Lk5qFWHAqeMLt64oAk3bMgKatw/wCrHBqizLzzmrMJOwYYUgLBY9hirC9BVItjqc1aRjxSGSqSGqeNTVdetTK3vQMsL94VOtVUbkVYUioAlp1Rq3NO3UgHU7mm0UhirU8XzVAv3qtJGE6UAORSuaft9qb/AA06pA+WZf3NVLm486RSgqe/71S9K6iBX+9R8u33pG60lADuaWk3mnR0AX7PtUE9EMvY0T0wKyJWrVOCp/8AlnQgGVANnnfvanqPyvOmpAR1oWv3qrfZR71JD+5pgSTfueKzpP8AWGrv+uqrN940MCOm3cjNKc1N5X7vNQvH9ykBD5dNbvUvzbWqL71ACq3y7ahd/nxUvkNHRLF83NAEXmL5dQWseJzVxLTzO1DQrDQA1m2tRuXbUc8qxDJplxIojXNAE3mUKvzUyn0AVrhvLkBqykytDSybdq0xf3nNAA/7zy6s7vvL/BTI1pfLNADYmbzVq20flyPGnPao4oV8tXY/P6VIzTS6xNJInkx7U8ugBeabvp0kmah+amBNHv7VLqULWt4U7dRUEf7vmrvFwtAFbzKkaJvsL7P9ZnmnXUL2fl/u/wAaUSJHagSDmgCG3j3okdJ83tSpayx84q3Z2n+sl/KmBeiunMecc1oKx8vc3FUrW28iFI+tRi5a6kMYfFMReq9oskUep27Sv5fzfLVGltYvM1Wyb/nnLQB8jfsWxy/8NJfGzzP9b5k+/wD8CHr613NDNhRxXyf+xlu/4aa+OX+9c/8ApRX1m0ZaT73FZU9hvcnWkYFJFz/FSrt3U8sfMgEnSNq1AkWMxyO38aR1VkvGZXLrl6sT4+0DYyke1RXdg8QZZBh6BD7dP9BWdvXGKm066JuIxniqaMwt1h7CtSOOC0jjY8k0DLH/AC1qy0KTKkcvNVYf383p5NXqAD/WVFUn+qjeoJm8m2kk3x0gKsMPkXvHpWlWWLgw3SII+JMVqqyyOUoAdbtszSySfu99IUS3mZd/Wqt8zeXH5afvZPuUAOkuHhNrb9ZT1qW434/d9aie3eO5B/1g2Yeoc/8ATb9KANGG4M1ukm3rTqoxXCxWMh2fP52Me+at27ebAH9RSAYm7Y1I148cecZqC8vEtLdtn+tfpWbTAnupXmvABxUH2c/5FNtVkmlHzoPL6Zqa56fhTAglxDGPKPB6mpJvtfmydaLJf+WtWqAIPNmhjT7RJxLVO8nknuyFyecDFWZLqU6hJIPuRx/pWZGTkuzZdm3UAXLqF1ZARnagqpIzeWxXr2qWSZpV5NQN83AagRizTXEMEcpPPmVWhzcTeSZeKt6tCTdR+X12VUtuv40gN6zk+0Wyt2NdHawweTBL5fNc5pqstqgbrWpayv51v6A8UwLfkyed14oW6MNr+9HPmVo3VnEx8xR81ZU0H7mkMZP5s1/dDzz5ez5I6pfN/wB8VduLtre7Ur/D2qgo3M0m7Z8v3KYiz3jpfkhkjkHI60k0hjEK/wCxn86ZLQMp6pvm1Jvx/nVyCR5IRATweazX/wBIvo585wDVzcyyKyigRpaVHuiY+9a9kvlwgViWZ8k81vRgpGoNJjJ2YYHc04fdpi84B4o43HmpAR5CrDI4prEtnAxUjLuPtVfdmVgOiimA2JmDEEZNOkBZc9KVctyMA0smQtADY2+brUjYBAzVdVCylc1ZZV6mgAZguKcv3aYwDJUqqBSAGPy+lRq3IFOmOxT601fljU0AOZsLnHFQefudlAP5VJ5gZfeqs02xzx+tMC0h+XvUUkh3cA9eaVJg0Y9cVCshZzxQBLs25IBqIz7X+YH8qfzyc1WVhJHkcnPrTAkjIkkbg4+lPWQbioU8d8UkSbW5WhdvnEY5oAtx8qDUUrfPgZ/KpVIwB0qPgycUgFGdvSsy4ZfmAD53elajZwTWXDmaSUHHyse9MBseVjZcMMeoFI0ixEcswPsKkuITIpHQY9ao2CKzAHJJ96YE8SrJL5gRhj2FTz3CxxsQrq3Y1LHarCxwTk+9VbkZmKkKcjuaAIbeR5pCSxLHtWg3nxRjC/lRapGsQOzn2FOvJjHGMDv3pAMVpGk+ZWP4VfXPGQarxsSwzjOKs5xjj9aQFaab94AAffipVPyk4/SovLR5GJ6/WnzAeWQuRx60wKd1MJJFRNwBHpVhcrGODVaFFCqD1z1zVmTEcRJP60wIZLrqu1hVeHPmNw2D9KkUpIrE43Y9aktVRVDEgn60AJHJtGAG/Ksu6kadidrAKa0b6ZFjO0jP1rPtQCzFiMH1agCa1UrCcCQVTmU+byG/HrWo0m5dqsoX61QMas+d4z9aAK8g2tjBH1qSFCynCsfpSMpaTDHcfXNWY7UbCQ5U/WgCrKNpwc596njkcxqF3VDNGVbk5/HNS2zbSM9PrQBJukUjIb8KqzZMh6/jVySZlXI2/nVEncxJoAljZ1jOFOPXFQfxVM8h2gDpj1qJRk80AXo5GjiICHPriorcs1wGIz+FDkrkK360lt/rAScc+tAFyZXkRvkJHsKq2autxwpz6Yq6zMIm2Hn61UsWJucknd9aAJbmE7CzK4Ofas+AnzeATWhfM+w88Z9aoW43TAUAWfLcyAqrD6gVXupCz4OfyFXZpOgC/lWc33qAJ7TqSELn6VNdSO0fzJtFP09QqMc96LyRNm3OTQBXt5mXCKcCrSxy7t2D9abYrH5YZhhs9almn3TKu5ttAFK5kkZiH3YqGJSxOM1dvoV27gxz9agijb5cDGfegCs2VbpTufTiiUFWINSpkRkjB/GgRCjYcfWpriQM3Q/jUC/e/GnyLjr1+tACq3y4FJu96FwF560KoZh2FAyxtZlUqM/QU9Q7NtJANODCJNqOCaihYm4yx/WgCdI3VicqanVHUdM1G8O4gqxz9aft8xcFjke9ADVZ9wBXjPar38PTFUIYWXk5Iz/eq3Idy9MjHrQBEZt04HzH8KkMpXOFIH0qKKOPIYDDfWluGbpjA+tADXuAsbZDZ+lJY3JabufbFQbsxldmPxp9uBDJkcH/AHqQGz5ny/dIp8Mu7NQKA0Y3HP406AKucDvUgWfM6cVIrYHSo+MUm4Y5oAV5CxwKRc9MU2NlNP3c+lACmPcaiaE7896m5U8U+NC0gIoAakJXlsimScYxViSN+rHI+tQMm6kAINoJI5pzN26UrIAo61FtGRzTAeo6d6lwe4xTF29iacyk5+b9aQDQp3YHNXI1dYx/hVSPKsM5q9ztAHA+tAEQkO89T+FaMbHaDg1T2EZ9z61bjxwKkZIrfN0qYGoFXmpV+uaBkqsdwqypPrVVOMVZjYMwpMCZeDUgFNVqdWYDqKTinbfmFAwWrUY21XqxGcrQA/APNOpKcrVLA+VLqKqfNXJqqyV1kETVRvBcSbPKfFXsGovlpATblp8L4NMpyPtoAvf6+m/P/s02CiegB8P3RUlR2n+sq55Pt+lUgKn/AC28qn1HD90VYh/cc0IBaKk+b2pPlpgR+VJN/qzR5Mn7ypJvMhqOH99xSArfP/s03955XmZq3eQ+T/yzqoJfJjkFICrzTNuyrcsaQ8eXVbikAJQ8NOSh3oAmtmSI81TupE+0em8/IKc7tUN9b+cls5T/AFb5oArahM0MJIFNljSrMwWQVm37TxSAryKQGjHH+7qRdu1ajj/dpT0dZOlMAZaRF8tWqXy9tDLtjoAdHUkdQ2cbMoD/AMbU+gC3ay7T7U/7P71WhfclWf8Alt/n1pgReVTjFJD7Vbh/h/CmTdPxoAqVLTJodtSeT/q6AJP3l7LEJZKJv380UVNjk82MyeXk1btP30Rk8umIXyf3NF55kENTswlukjNXJIhIpQ9KYFXTVljjw3X+OpIbWKO6MoHzGkt90bSApgJ0qxt3UAFT6av/ABM7T/rqv86hWrWlR+ZqVqnrKv8AOkB8kfsc25/4ai+OsffM3/pRX1gkZV2avlL9iuTzP2qvjifU3H/pRX1xbbPtI8zpurKnsUytIrdaVstgVPcKkkzmJP3VRbK2JJ4ooxLC+fufvDTLovcTkufMLVNa/uZZKt/8s6AIDYE2sZ71CyvJbxIBmtGH/VR0/wAn/OKBlPSY54d8jDEWK1KSONPLot6QD0PmCoJrYTN5Z6VaX5aXApAZVtppF4ZJE46itC1hS1VgKm20lMCrMwa8Z+4p80UpjxBN5clOl/dfvKq2sjtJHJjrQBZk80f6t/MrOjjf7fHHKlaUZ8y4NTr/AA0AVNRheOzAi6iqc00/lyRxjitDUpPKspD7VDawiHgUIDHNtLbRiRk496k/s+58jp8uema07r/j0k+lNtT5wzTAhtovLtUjkp1rD/pcsvaj55of3VWo46AKN3ayQ+X5NR+TcTCOI8Vr1FHH+8oAzJNJI6GqMtq0J+YV0M3aqslAGJz71XvIZXXEZw1WWbNW77/VxfSgRhf2cfWorHTpfJcO2M1sLC7/AHVLfhTrdd9tcLs/iFAEFvCYIEj3mQgdTW1YWJjj84nms23i86TFb1i/l28YPFADpf30NVLzvVoSCaSQVVvJsfWgZkTNukY0qWpWBG7dBU/2NqbNQIgeMxtg0SSNiNT0FNuoXeAujeVngHrSP/D83NAEnkt6Vp2LOlkUH/PSqXmfc9qkh/cnnzBQM0EkiF1awyNGZWHNarQ7nQdwaw18P2eoalp+qzCWK5tF2Q+XJXQmpAWRPIfBwahX7xOKV2LHk5poUt3pAOz8vWo5FAQ7RyaczAcd6RW3KRQBEvAGaJpegGfypWbbgVHP80ZwOfrVANtZhcTTYHKnFWoYyysWx1qnp9qLV5SX5c5xV0MQuM0gALuXpUnaowx9aft/iLUgEbDNz6UxkG055o3bnGOlPkYhTQBVBUOR/So7jYV5X8cVI0QecNnnFK6sy7QcH1qgKUVyPPaJV6e1TRyAbscmopbQRyGQSNluoqS1jMcjfNuz60AJHIfmLDr2NOghUgkDHPpUkyk4OOKW3kLKeaAJHBCnFVoFzLuIJPfirhzzUab9x4xSAezDaT3+lQKxlIx/KpH3GNsnH0NRW6tGowWP1NMCYjapz0+lU7W32vIVHBPpV05OOTSRKyswycUAVLiORoXAXPHpWdY2rblZhtweBt61vsrAHnNVLfc3XOQfWgCOZW3E4wP93NUZFH2hcf8AoNbTD/OapzRlrhePxzQBLa4WEDHP0pbp12DI79xUsS7Exkk1Fef6vqR+NAEkW3ggZOPSnyMOOP0pkOVjH0qO6mIwA2DmgAZguWK/pVa8vEjXAGWYelWWZhGee3qKw5p3kk+YkleBzQBbsZB5ZMg5Df3aXUroNGVVc/7WDRDG8cOSxbnP3qq3VwZGI7Y/vUwFsZlDYbv2C5qykyKTgYH+7VK1X98men1rUVQqEg0AZNxKHYgADn0p1uqFSW59sVFId0jHOeatxxFIchyCRQBWZi0mFwBUnl7Y2Ljb6YxUcS7pByc0Ts5fDNmgBIonkbKDP41N80eQ64J9qsafCWhJzjmormNlnGeR9aAIZ0PB2nH0pkcmGHAxWnJbmSMAYGf9qmLZxxkcZf60AVZnXZnZ+lVqsXhbdgtkemaihVmY7eDj1oARslfu4pnSp5vO2jeePqKiXPFAEnzPzt/Smq3lsMrmr6rIBk9Pc0NEzcluKACGZWjOU/Sobdg1z93aP92rtrEqx8MTSCD99nLAfWgBl0YlhPG4/wC7WdbsiyFm6DmtaaMNERlvzqpaRgM+M7vcigCOSaRmGxdo7VTkVtxyOa1XX51BfH41Sul/eYDZ/GgBlvFLICFHH1omhaIfNjPtUsckkalFJHrUErlmwzE0AWLS1M0YZjhc1Ld+XGABx+FRRGWG3yHZV9KgZ3mk5Yk9qALrPG0IG3PHUqarQyDeSxVQPappGkjgUO7fQEVViYeZznH1oAjlbfIT2+lA+mBj0pGYFjUm4+WM5PHrQIgDDzBjp9KnYr9fwquoy/41OzH3xQCGGnLjjNIfuihWPAFAEsjKenH4VJaqry4Y8Y9KY3CHIBP1otZNswJOB9aBmooAX5Vz+FRxruzhcc+lXIs+WCoJ/GovMZuG+XmkBJtGzhc/hSORtAC4z7VZXIWo5gWxzg0AQwwhlyy8/wC7Ud55exsY3Y9KtEssYAOarTfKrEsQcelAFayhDKGYAj6UXSBdxVcfhTrV22jLseeOKkkVmU/P+YpgTWLM6YI6e1XFQKOf5VTtJgSQGJx1q4Mtj5qkB6uG4H8qXaByR+lRxghj8xp8m7byTSAYvXjkfSp8hR05qtbD5eCce9WGbHG6gBeWqzGx4Haqqt83J4xVmMr/AHuKAEk+ZvvfhTBEWY84oZtrEg5p24yE44NICKRTtxmmhTwAM0+RSqjJyabFnmmBJGpXqKmyAD8tRr94ZPFW4gGX2pARw/eDHpVwYYDjFQKi+Zwe1WlGEFIYxlHaplXHYVFxzUiMGPWkA/nNSR0wfWnoRQBLViCMBgScmoF+8lWF/wBd81JjJ1+8afjFMTpUu7pWYDfSpW+WmKhpzdKBiripv4lqBPvVMv36AJh3pKVTSrSA+U5OtV6tyy1Vk3966iBIW8tqg+bdUlJ5dIBadF94UzbTl60AWPN/1ftU/lJNVOON5elOjkxyKALsP7mtCbtVCKp/O9/1qgF+b2pPO9/1qnDNJ51XJu/40AP8mm/N7U+GGm0wIZpqIakm7/jRDDQAaj3qjNDJ/wAs4/3NXryoLri18ukBXu6qPVueq29d9SA1KHpHpu7zGVaAHPVa6k/4902fx1Ozq7stM2sjfeoAjc+Wy7/9XUOoTi0YJLxVht26oLtRI6b+maAHwnzN1TW0I89Hf/V023/dtVh6AHXEpmneT1NRN83WjmjigBq1KWl2sjO+PSkSpXXfGlACwQIlvsjHPoKf5lR/wU6PtTA0of8AU/hWf5lWvOHvVb/lrQAySPFWLXf5ZxUFX/tUMMMYFwT+FADYZs/WtXyxWT53kf8ALKtDzXx5lMRJbhCXk8vEverCtUMX+rFTUxArdaRWV2Kq2TS063/5afWgBGXbVzRP+Qxa/wDXSqi/NVjT4fM1G2/2ZVoGfIX7Fn/J0nxu/wB+4/8ASmvr2H/Xivkn9kVvsf7YHxutNv33uv8A0ca+sz96sqexTJ/+WlT30SWty6DpjNV6lnumWVPMHStRE833oqT/AJc6bedq0vkhijoAq+Sn2V/Mk52VNb/6mKobvy+9TW/+pioAsRU+OoP9b/rKntfvGkA7/nnSySbJkHrVXS7m4vLffOnl+lWLj71AEy/eamJ/rKht7lJhViPpSAJv9WaSFdseKbP92pImylHQBdvzZpajuP4PrTfM8uREoAJ/u1BUl2+I1qOON6aAZJ0qOz/1C1JJHT7aOmAlrCkG/FS+VSSHyqfHJmkAvNR+Ynme9PkkxVaTpTAfN2qhefdq3/y1quYxuQjmICV8fSgDNjjLb/L5okVzH5p6UkcmI8Uq7/sz/wB3NADYbl4ehqSxTfMc+lSW9vGbcs48z2Ham6fN5MwoEPh8vz/3X61cs+1ULSHd5n0q/aL9nlPpQMWSq03/AB+R0lx/Sm0AXrqT9zJJ5lYnlt6U5A8u7HPrTd9ABSNQ0m1gtRSMvmDNAi0s6yQlnTMnrVu3aRY0uI+ccGs447VuaTb/ALpW96ANSJWaIb+tWGqSKFvJJbpSSKd26oGQFBupPusfSpWXoaZj5qAIsHcTijbjkClJ+bApw+7QBUbmY9hjmnKflGOlJMCshxy2KUKZE5O2mA5GBkx1qXOT7VUh+WR/rU6/L75oYDsj6VIzHHFMXBp275sUgE3dMimTZ247U7jdkc0sn3aAI1BIGPzpr5QMep+lTLkKKinVm6dKYDdpEXuaasfcjmpWTcoFHO2gCNlB5J6Uy2y0ZOAOal27lIxTNnkxkKaYDpGywwKVWDdDUVvuZfm/lUv3M0ARSsSWXINOt+IwCMUkalpC27j6VMOmKAK0056KM4PrVmFgVz7VBuG5h7+lWVxj04oARpgO9NjUKCRijjjGaftGPSkAyRQy81VeANMgDfpVvbjjrQOvSgBsce3Kg5xUE0JfdwrH3qxyuT3qEFlbcckntimAxm8lFy+D0xioGh86XovrkirV0xCrhc8+lQnzA3BP5UAQXmVG1igGPSslRj0Iz6VqXwkXa6kt7Yqvboxtzx1PpTAZIG2YBBH+7VVjyf8ACtOSSUR4UfiBVB8tNtwSx9qAJrHcZAQuQO9XHnZI33HHpViwjeKAArVe9uH+YGPj1oAy0+aTpnmr0+zYAWVePSiw8xWZiuVxxUV9IzAZUrz3FAFWNtsg6Yokxu4OaYv3hxU0y7cZDA0CLlvdJHBgHLVWlcyTBjilseWwc4zV64jVV3BcmgYrSBoFBO0/7tU5FMTE+YG/CrcEhm2jn8qkuoxsOUJ/CgDH2hjwQDSjEXuaAPmPOD9KttEdqntj0oApsQwzmnw7Y1LEjPYVG2Axq3agFDnn60AItzvYFmx7Yq2zRsvY1SuFjyCrc+lWbVmaMbjnmgB9opUEYG2nrHukY9/pT5FKr8px+FJaM+75ufwoAZNC7RkA8fSqdvCWkKkY98VqXLP5Z25H4VRtGkaRt5b8qAFkt1jIbK/TbVCRw0ucD8K2GQsQctj6Vkyx7ZmHzH8KAJYZFYtuGBUN1tVhsFWLW3Dq+WK8+lRXUIiYANke9ACJNuhCkZpn+rapIY1WMPu79Kikk3SE0ALJJv7U1GVckjNLu+UcfpVaQ4YnJoEOB3MeKk3BV6DpTPvYIpaBEUbDzDgDrVpmVv4R+dUlX991xz6Va6CgY3IpQPamE56dak+baPSgRJ5iqvyqCfWrNlbr5gaQAqR0wapKpdsL1rXgjkjjQ8/lQUSefGnC7foBUtuqNuLbcg+lVpMbh1zmrNvHtd85pAPkm2qcEVAspdVJGTmppf8AVk9KprLtVcetCAtySGNMAVn3UjtNtGSMVfkJZe9UpGHnkbTnFAEsK7Y48jn604AtIwwcfWn26ho04pHURs5GaAH2se0scGruDjpVaFPlyO9WNxpANXKtwO9SMpbOab/CPrT88UgIVR1weAKcr+a20A/lRuPH+FLGx84jvTAePlYdzUquD1quSRuzToAd3TIpAT/eyBUsbBfyqJf9ZwKlCj1oAY7iQg4wM06FflJxkU3YW6etT/6pcdKAGM/zAYwKsQDcnHSoAodg2ealjZunQUgJPMZVI2/jUkeWUZqPYSpO/wDCnxsRxjpSGSbtuM09fvU1l3LzTkQ5C9SehpASA7cVLHTVWhVC520DLMbfdarO35qqL2WrStUgT7aVelMVqeM1ID1al3UxadSGSR/K1SR1Cn3qmjoAlXpT6atOqQPlGX99zTaZ88MnvU0nWusggkpv8NOkpUXy0pAM5p3lUkv3zRQBZtZvJJqqp/eM/wDtU+OmvQA7zKPthqKom70AWY59slaEM3nVlw1ctKYGlDRNSwzeTwao69rtvpNvC7wzy+ZKqeXF/tUwLfze1JDD59STQ1H9ok9aYEGoTf8ALKkmi8m1qOX/AI+B9KW5zNCI/SpAjnqGSPHBp1LJs8vikBBzTZFXzGanpTXoAr/db5acrM0lNZfmpsLMjfdxQA5m+ao5tu4ZqaVdlV5JMUASR9Kuf3aoq3lx81Zab5du3+GgBrUiUz+L71P/AIKAHq21s0/dvWo4etWo/wDV0ANjjqXH73y896P+WtWba7tooZ8ofNkpgUvMP2jPepYdnne1U91S2i+dKI/WkATN/pTn3p6wu0RnSP8Adx/fqAI1vNh+CKv2spWGWmA4f8safazXF3+7jlxinecPek0+aO0zmmBp/wCppxk/eIKq+d50XmxSVHH++uo/XrTEaW9d2O9Pt7owXAIXkVD/AMs/wqRaBDlYKxq5pMm7VLJf+mq/zqg3yAso5q7pf/IUtf8Arov86Qz5I/ZT3R/tifGT13XH9a+tYf8AXH6f0r5H/ZLm879sT4yf9NPtH/odfXkEqW8d27/6wpsWs6exTGfK7+lOmG4RfSo1bbDipk/1dakli82edH6VJN901Tlqxb/4UDCabHFaVUYYY5qPtn7mgC9HJ+88ynxj955lZX2j/Oa0bXpSAs1FTPMFHmCmA/8A5Z1Ygj8uOqlWLeSkA96dHUFt5nljzOvtU8dHQAZW3VBcf6wU6adJLhYFbEn36ioAWWpY+1Q1N/q46YEP/LSpI6ZLT46AI5P9clS1Xp8klAEtxH+7qvUctxNJ0FSf6mkBFdHyKg/eXHlGrMsu21uJAMS76pfvP9G8qSgChJ/rH+tWIZ0jhMZ5zRctvZy580ydDUNMCwPMn/dRUy12TwM57dKSO4NqsbwnEnepjdGaOSQiPPpjmgQ2Dt+FL83tUCybUQehp3nUDJftEf8Ad/Wo5pvtF1iPuuBVZmLMWPfmhVLZxQIkiby9p2Z5pSu6ZzI/frUaruOKdN1oAr3Tbm37c1Rl8zzeKvXDbl3VS7yUEmpbQj7Kr546V01oySR7EPzjrXO2reVbitjQYz507v1zikUbttv+WpqX/V7I6iSYvI9QMWaqv8XtVvUBsSIe1UxkjNMA7nijbtGaP4utKThTQBUdS03J4p+Nq4FJICynHDduKZ84YhumOMUwGxyBpGAOSvB4qfBaqFjC0dzMWJ5Pc1obiKGAfd4pxIFM9DSlSeaQEmOOBio2+9zUi9KbIuPm7CgBy421GzDJ5p0bb19qa4CtwKAF4pGwO1O/Dmmev+FADPu9+tRyn5h0/Op+DjIqGT/WDk/lVAORPlBzj8ahlYCRsnt61ZXCr1zVeVd0wCjnHpQA+2X5Qc8/WlnZVjOf0NKqNHjP6VH/AKyZlIOKAEhjyWJ5H1qdmVAMnFN2FPumkYHYN3zEUgFj+Zf/AK9S01B3wRTnxg0AN3Lxij7q5zTEYYHrTmwFJP8AKgBjSAtycj605VG3/wCvUQkBI/wqX72DnimBSuG3zKm7AB/vVM+1SMtj0+amuyxyZxuOcfdpJY/MdSxAHbIoArXsjND8q4HruqtbvtsyN/f1p95uj3HcCvstMt33Wp/d/Q7eKYEjlkgB3g8etZ8e6SYY6k9TVmSN5F+8AMelQ28bNMqh9vNAGvb5jQKzhm+tULx/ncFlY56ZNaSbo12jH1xVGO3868kBbn120AFidqkhlPHTJqndtuY5YH6EmrkkgtW2BuMf3aoMTIrH09qAI0xn/wCvUs2MjH881EtPkfdgf0oES2iq0gDHAz64rTuJIliIBU8etZUCkuMA4zyQKs3E3mMEVmI+lAx2nsvmY6H61cvWSOEnOT7NUdrb+Thh8x+lVr64MjGPByPagCvAPMlPB9etS3UirgYYH61Yt28mFW25JH92qFzM0snIA/CgBh+bmp7fBzlsD602FWkUgZ/75pH3xYUN1HYUALNsdsID+dW7WGSGPJVuvSq1vbvKw2nBz6VqgyQR44z67aAKUk0hfGGA9Kt2hOwE8fU1BGrvdKxYE+hFaKlguH259hQBUuLpdpBP61HDIqsSThcf3qWXDM2duPTFLjbg8Hj0oAWe4UY6Y/3qy5m3THB7+tW7jGVyy4/3apt/rOCOvpQBLHM0LN/jUMj72zz+dPZ/vYKj8KiUnk54+lADwoEeSce2aj4ZvanSSFl7flUag7RQA9sL7/jVN3+Z+M+1WWqjDlriUE/pQIuRn5RgAGoppGWQAYpw475qCaQsqsOBnHSgQ6Bt0jbecHnIqyxbviqdruR37gn0p1xcN50aKOWPPFAyaH5sEfzqZm2+5qn9oP2tYlxjHPFW+xzQBJbsFdWbp6Zq5NdFoRtIUZ4wxzWepqzI22JQpDd+lACtLuZF689c1oKxhkPzg7u2ay45jHMG4/KrEk5aYHgfhQMszSBmwT+tVoZOApOMGopZDuBz+lS2q+dGecYPpQBdmkULyefrUAxJKp7EetFwoVSd2fwp1iNyq55HTpQBbXYiDv8AjSDLb8LxTZjxkAKPXFJFMdxAYdKQE8MnGMdKnDVWX7uQVzUTXm3ALd8cUgLscm7PGOakZ1xUUYA5Hfmo5JfnCd/pSAsZ+TJOB9aS3Zd3HT1pisJI85z+FN8zy5FQDAxQBOzbiQOlSQ8dOaiX5s54qSMBDyaAJdx9RmnBg34Uxfmb0HrSmQwgjaPrQA9WEec96e7KwBpixq67i+KYsm7AByAaALEe2Pg8mpFU7utNLZGApI9elJHkMO5FICwMr2yKkjY5PGBUcbLn5mwfSrEyhQrCpGOYeX70/cqbaj87fTX/AHj0DLO6mq3zUi/dWqGq6rJpgg8m1+1zTPsCA0xGxDVhZh5m32quvy0+OpGWY2+ZanqnHINy1aRqlgSr2opmcU5mqRjlqyn+rqFakjoGTrS01adUiPlb5vakmp8NSeVHXWQZ/wDy1qX/AFNN8vy/uHNMEby0ANC+ZJUvl+V1ot0eM5p9ADv9TFHUNx9403+Klm/1YpAUJZv3mzbUm32qv5X7ze9W1+7QAiPsqzZ3axzCSqmafEtAHQWsyTRySmo5oY/tfNZG9Y6s+ai/6uncDT/5bfhVeaajzqgpgJ+7/wBmlqOen+SPSkBDN940lSeT+696JYe4pARW3MoSmyUR5iuBj/WUSUAQXFQq1WPv/LVeGHZ8zcmgB9V6ssNtNWJRDQA622/ZR8mJKr+Y1JdXXlW8io/NRRTRz9KALHmCpVztqt5j+1TwybxmgByVMrVHEjSNin7KAHJMytkGk/1dOs4FmukjX+M1DI3zNQAzd81WLW48mcN6VXVqXfQBYbb5nz06ot9PoAm+b2p1Q/6qpqoC1+7t4at2sOZI5faq80MnlRy/pVy1/wBXQIsyJmMinr2pf4ajt5fOt0k9RTEPq1o48zVrf/eqCNd7LUFtdLLMY9pjI9aBnyd+yW0kn7Ynxf3r5WWuM+3zmvrqTt9a+V/2ddsf7bHxoT/VfI/8q+pWkC5rKnsU9yak3e9NlzaeSJGHmyJv2R07lk6VqQWIpdtKtyZIypqLzF8jZjnOadaxn5o4/wDlpxQMmtPvH6VN8/8As0393D+6o/d/5zQMSxh/fZrTjkSOq1Oto/NkJpAP8nzqZFvqexj8m3d6dHHQBDLT7b9z5lPuI0rP+0yfb3j7GmBoSSVPJn7O+Pv4rOi8zzvNrUpMDOmt0j1D7Xj955TJT7P/AI9Y/wDco1ZfOkgi9TU0Tr5aRhJP3dAFf/lpWgn3d1Z/np/k1btpM28ZoAbl/Ld9lMijeWIeb1p1xs8tKWKQeWiUAQx9Kjh/4+7n6UySY+bc+1LNv8mSmAtH/LT8aSxkeS2STPeo4pk+1eVjigCWb/Umqou4IegP5VPNNH/qoutY7DaxFAA9SL/qpKhaQ+uaftLR7/fFAhN25VFSrIqn5AQajxtj2r0q5p6mVJQ3IxQBTmXZM6+hpkjNJJktnintGSxfH3zmomfbigB67dw3dKMbGJVvlYUL8zAU6RR94dDQAQqXkAp906NJII/uk8UsimLy/wA6ZJu8w560ARMuaj2fNU7rtPvUa/6w0AW7OPzJkh7E1s2O21t3dzgSSfJWCshVldOCK2xL50UcskVAzbMx8tV3L92mRnYOKrWcawwkDpU27awX2FQA9ulNHWjdupF/hoAULxmkbpRzuZadgmgCnJu8wf3ac2OvU1FNcoszIBll61IuWUk8fjTAhDGScKnG3rVlh61Vt12XTkng+9WWYUwFDZWlbO0Um3jihT8ppASp0pJFyjAntSRNTpGAUk0gI4V2qAaVxuWo0lEh4GafIcLTARfvHmnbeaZzxtH1p2fWgBqj5iSaVUDKTim7hyKevC8UAG35aiVN0m7NTL93mmx47UAKyhlwOtRxofMbJqdsLz2qONcyN6UAL5eaYwIGKkLbe1N2/LmgBVU460yRtgz/AFqRT1qC4I+Ue9ABCoCDPX602aUBWUHnHrUnHOeazr9gGYKQvy8imBIXVZF5JP1q02GiHOPxqnDt8pDjPvipmnVVAIBFADXG7aBxz1zS3S7dvJJ+tMaQK3QEZ44qSUpJtxwfegCpfRq0YXnP1qNWeGywOlRPKfOkyc44qxMix2YG49O9MBltj7OWbnPrUVqF85cjHzVNEytHGgJ6c1X27bwZY4FAGk3zMeSF9M1Tt4iLqQ7iq/71XoQrIWAz9RUWxTKw2A5oAy7jDTEKc++c04wiKEtuBJHTNOWMrcsPLGPSkmOYTuVQQce9AFReppzDnJ/nQnLDPSpLhl3YULj2oEEMgRSPX3po4eki25BPIpZGXeSOlAF+S6CW4x972NZ+4s2ep+tDSFhjAqSFkUbmAPsaAJJrgiNFU4IHODVXlmzSs25ugFOjxzkA0ASQzeUpGMk+9RsxY5pzuNoAVR7ikhUNIoOMZ70AX9NkKqxZcnPUmrc14B8q43Ecc1HPMsUZXag49aq25RpFOFzQMt2q73WRjg/71TXFwFQ4PP1pisqg7goqtI/7w4EZU+9ACRxlmZixO4etNuHEca/Mc/Wp4WMce4CMn0zWbdXDSMQyqCD2oARpN3UsR9aY2N5Iz+NOh4bJCkY/iqCaTc3GB9KBD93zdaVsKDio4x15HWlY9elABnpS5+XjpUW7cBzUmcLigCG8kZYSV60yFfl3nOSKLpsqyngYp1s24Y7Y4oAjDbY2Jz+dZyXQmV03Y2t/E1XrmMlXG5F44zXP2qyCcrgHnqRxSA6G12xt8r7twzyambaZgxHzDpUCWQ+V/MBYDiq9x5v2iJd/JODj0pgXYIS1wZT9KtN1qK2XyodpO5vWkuJCsZA4bHWgCXPzDjtTnfdgdKht2LQoScnHNDSZYqOooES09pOmPSoVbk07NA7j9xbA96tJGY1cFscZwGqoh/Gntnrx0oAlkkEjYXd+Jq3YqY4QS2PbNZsbHzVPFXlmMcbZTc3tQMluJy+5Scj9KdBgMMjt6VVDs/JyAanWRsgA8CgB8knzBVOPwps/lqwHU5p3lliGzg1Aqgz4J3c96ANC3lLsR2HvSzYWRGz9eaQwiNshuDwaSSNWi+Q0gJsrDANoPtShSzKzHigt/oIOaRXG0MwJGKQE64Y8HIqwkZbAVfxqtayCXOV2LUV/qUtmyQ24EzE5C0AbcdgnlEyNsPqxrLjk+2XbQQy72jPOKe+mz6hb5u7jy4mAwq9RU2nwabpKlYdzTEfM3U5pAS3qRwqqlTvxzVYdgoxSs0skhLnI7UwSY6UAXISWXBOKnRVUVUh3LtUVJO2aQEsMy79lWnrL2tJt2VpO/wAmykBJDN5lO+XfvptsnyVIq7mVaQx/NEfKq22k/vUy3j3fPQMsqwqSP5mqPlVqSOgCRVqzD/q81WjqSOT95t3VLAtY4qNZlkmMAb50AZqcmearQxP/AGxPLs/dNGoVqkDTqVVaoFapYW6qaQyUZpy9KbT1+U1IHy5DFJU8fanxRflRLF+VdhmZ01MqaamTQ+TQMX5vao/MjqT5vaoJI/3iCkA7zGqG+kfEKHsKsxQyVUnleS9hSQ/uo+KQEHlN6Uy2ulbdiprl/LhqjHHgvJQBa3LTv4arW8eFSrO2gBKtf6tKrx1MjrsoAuQ/dFQzfeNNuLjdsqFHoAn+1R/3ankvLeK2jcPz3rJZW82leHzFi2/wUAWzdCTZntVuW6Sspty/dqZKAJY9ok31PLH501QInl+1aunw4pgYfzUxLhasSSeXcPVNlpAK0u6n+avk1EyLu/2Kdt+Xd/BQBXjj4TzOtRWtr9jjkHXzHqzUHm0gGf8ALWp7Tft5qlB90VfhjkiGECAUkBoW8eVpPLos2aRhinPCY44Sf+WjVQDI5PLbP+zWaupRzb/LOSKnlDR3Uvz5FUv9dNSAuI+761IrUyFP3dSLHTAU3cUPMgGKkZ1Pzo2Q6/JVe5h3bM/3s0zUN9y37uTyU30AXN1an+o8qsq1YXOPL5zWxTALyb9zV6O5jiMcRP730rAuH8yMR+lakX+ttvpTEaj58s02GPyowB0/hpzMWqJpFtbdjI/A70xFhWpml4j1GER8eW4o+6KdpdugvI3xyX/rQM+VPgfM9v8At5fFl0TKYk3/AJV9PR3kN0srx+Z874r5e+Ac3nftwfGGb/Zm/lX06vasqexTNGSZppvur92n7vlFRecdq/LSrIzhflrURLUscrxHKHBpqruNWFt2j5NADLubzpt9MfdTed3vV2FI7jTkcJ5Ug+/QIWGaSrlr/rqjhh8ipIaBly3kqfy6q2374eZV2pYEVc78v266eTpvP866LZVSW1j8z/VimBDa1e+2J8nPWq/yRfSqFz0/CgBdQ1SK4mCRP+8jPWla8e13xEZ3p5dQWelxXV+t0/8Ay7mtOaGOf/W0AVdNRvOuXxiN9uypJrzj911qtbqwkuox/E3l/qab50cP7ryqYFyaV6sxf6vzKg+1D7LGaf8AN7UAZ9zLuS4HuKb/AMfHlDzeaZe/eNJDDuoAfZ+ZDnikhP2fzaZSd5KAJOYIfrUc0BaMNRNTI9/agCJlwxFSLt8k565pkkbKxBHNN3bV9qBEuZUtZdn3e9RK3cVLC2zL+lRPH++yPu7aAHMxbrVa8iDwu5/hUmrCjdUF9ZpNw3Ow5oAkklSK8S1GSTAs3/fVS3GFmbH3M8VEq/vg/fbtNPA3N6UAWLy6S6n8yEYTbiqskreXw1OWMDCJTW5FABu8xgtTXESxyAIcimaaojnLumdi0zUryabULMkfuseXJ+VAEsURkYIOprQvJc2cVVbC4ijaVZRkEU+RiJIxJ/yzoA27nfGtuiD91jElWXbEJk+X7uag8zH3+KdeAyWrBOuKkZJayebGDS7v33ytUMP/AB6p9KdZQ+S27fmgCTnzFWhW2yU2N/377ezU2aTyxmgCG4t40umJHMlPkGAcCmG6TzI4n6yVYeFZAwNAFG3BlMgdR8jYqy/YDr7U20tzC0ny4yam8sLTARSdvNKrFW2+tNkYVLHhmpARq23IzSyMfJbnqKRhiT8cVLKoCg44xQBTtfkAUE5HNTM2eap6p5kGxk4iH3qsQt+5RcfMOtMCdSQOaN3PFSRqDwe1MJyxFICP72SOaIydvzGpF4WowPmB20ADDcwIPFEed5pWI3YHApsK4Y96AJWGfpQp+bFJIwCnjBpExuJoAk7dKb93tS+/FRkjv60AP3HB4qtc5ZATwc9jVjiqkzfvFGwYzQA5fNQE9uprJu/318Bk4Na82WjOFBHpmsm4i3EGONR+NMCzGpjhGTlc+tJIGYnZTJIgluuVXcPeplCYRyoGeuKYCR7lky3TFQC4/fFiN46Yx0qxcY5wgIHvUEKrHlgufxoArXmFydgUt0xT2meS3GSD24FF3GGh39KjgC+V95QaAJIG8sjcuSBU8MqSSNui59aigKMcjaCB6VLFtaVjj9KALMMvXHAX3qPezSFgSKWGMc4ApFh/eHigBk0hLLz83rmqt38y4UZ7k1NLH+8+6arzKFbJU7e9AFTbt5xxSHk81L8memRn1oRV6kkUARoOeKMHdj+tPULuJ5IppAz0oARfSnHKrjP602kIG2gBp9KUE9KNtO8vvQAmfmpV60hXDYNPVAf4gDQA6SRpOtOtWKyKc4wajZR601fSgDUlu1WM8ljVFpGLAjuPSoW7inwkbvmUEfWgCeOcLH0yaqOdzHin7hz8v61DxuNAiYY71VbPmkBeD3zU/FU5l/0hcY6880AWsde1QyMVkAPepdw5zxxVN8tcrwCPrQInjUlQeoqSTP0qLcFXC4HNNb5mIYjZj1oGMly823GRt7VaUCNRx+tUocrcbSo8vHHNTXp/ckDg0CMzUHWSORhI4kB+6SAKp6SWadt5wvfJq/cNaAAkLJIOoxWXNG8b71zgnPTFSUbnnosyLGjOT37Corje15FjkZ5xUGnmedizncFGBk9KuusSrtCje3fNMRdV1ReucVE7ecx2g4xUNvGYYecY7k1PJjy8KBz6UwJI/ljUY9qjmyW7gU63+6Ae3vQy7mzj9aAJY+lIxx35ozt4x+tNaM56CgRIowOtOZvemc+lGc44oAen3hnpU0lwfmVWJFQhflJo3Z7UDJ4ZB1J7U+GUeaxPFMtctkA4qNjtZhnNAzV4O0ZBpkcMeXJ6g5ot2BVCTnikkkKzDbyrdeKALEczOwyePpVkqFKjHFVY1XzB/FVqSQKOVx6UgIpPLuEMSggA9RSXEbxwiKF90mOMnrTHhb7LlcAN1qbascCsAN4HDUAPtme3gX7ScnvSsqrMJYUAY8biajiRt+ZHDD0p8Kq+oINvQUgLQeRt2WxVWW1Plk2/7uUt941d2/M1NbKrSAiubiVYURv4+KmaIVAUEjxn+5UjXFAEsbeTdfMzbKnmVftOzdl6qNU9mogk3t/H96gC5HD5cO+pPlk+RHqjNMz/ACKzbKWN/LKvSA1alj+VvwqJ3+RXpy/7q1JRKq/K3+1T1XYqqtNp6/eWgBfvCpFj201flqRaTAWP7yrU22OHdJn7tQr8rVOyiRWVvusKkCTcKetVJKsQyblzSAnRvmqRcbqhSpaQywvan0yP7oqTipYHzLFs70y6lxLRaVDJ/rK7DMTyfeiaGo/tdWJYvzpDKkstL83tUcv+sNHlmgCc9KpMix3CTSI+Kux9KqXZ8xvM35oAqTfvqjCeX8lW4f8AV1JLbqvekBUVc0zc2+Srfl+XR/q99AFaNqlpbKFY7cu8n7wVLHblulAENRq3zVK6UxYtj0AK3yVG0rbqkdKTb8tABt+Wjc25acn36RNu+gCeMeZVqHzIf+WlQQ/eFPnoArXxZndzVBZk8zy9/wC9rTu5H2AGqL28RuFn2fvQOtADELfaXSrCrUe397u71rW80MNqY/LzNQBiXwWK3Eh7Vl6kLg/ZooIf3e/55K3tUtnECds1m20jnfmkBH5MtXNzVXqxzTAu6X/rmpsj5kZ6ijylP3dKAI5f6VRuLV5hJ5ZxmtSOOOT75pIVQyMkn+rbrQBlabJctJJvrUjZvlptvaCzjYRjAp67VoASTdULL2q1Lt8hMdd1MVflagBLGHyyG9K0Ps/vUFm3lNmr1MCo0fmxyMO1a1n/AKmOq8MMc02YqvxRY8ymIsjpVeZGaT58eVU6t0q+mkzyW/nIySJ/0zkVmpgZJP8Aon4Vf0XdHeW+/rUM0UsbL8nln/pp8tWbCznjuIR5ykear7/MSkB8i/s3n7T+2v8AF2Pp5jy/yr6ht7yZdQeOe0Ty46+YvgDcafb/ALenxRMV3bCOQzeT8/3+K+todF82R0Z4Rv6+9ZU9imZou3mu1j8vy48danvd9v8AZX7M+P51oPpEgkWGGSE+1VZJo/MKRzwy7P8AlnFJv2VqSSRsueeakuJmkbJqNeop1MBE3eW2PxrRtYj5flnvSTBPJ/1f+qqaG3/0eS4zyXzQMN7/AGSOXy+anyKLSTNqKgIeaYxdqANG1P7sU7fUbRtvahF8tqQCCRpJKrSb/Mqz9nEUdRtbebHIN/731oAp+cPSp/K/ex1JYwCaOO4PXFOk/eyUAQx2qWnmeXU3/LOOllp8dMCjJD/rZP8AnrVG0VJpZMjtWpYzJdxehqKK1S18zyzmgCYRf6LGKit45/tSSbP3NWv+XdKmj3eXSAwoLeW4uLyOf91J9oaSM/7FXcH+5UiyCSR7gdMYpf8AlolMDInkkjtZgfWnf8s6u3cKT+1Rzf6PBxQBXmsyOlVY5nhPFWLeZgh38rTJqAFs41bfI/3VFVdu5sVftWjhjJPJqt/qqBESnawNTf8ALFvrSeVTvPa3bC0DJbGER28tyzf6viqjSC4mY9yaUzFrdoVPBPzVFCo8ssOKBDxlWGKs2C7rxRVaMDIDdKntXVbkEjigBJjumkk96iWNnkIAyam3CWQIXwp71FzHJ9DQA6dmt3gK9cA5/Oq/lywzO8k3mB9uwenFSyZ3Hd1oZc7KABQfrV77HN5lr8z8/pUc0PkzeV1q5DdPNaE/88qBl145EuYD5nAT9571LcbtvFZyXbzalB18rtWq1ICO3RljANSMu2haXmkBUh0uOOFA7tJJ5vmeZVyOwEzec8vln60u6pI1+U0AVTHucPu+41WF+aq6sz3RTZxjrVmP7zUARoG+2TTeZ/yzVNlLJndUyff3P9z+Kmx/N8zUgIXtwdv94NmpVgbzSmOadt2MrfxU3zNjZ70AQQqzyM+f3fapWb7tNLc4pG+7xwBTAl8mORcP0rNkkbOGOKstN8uAeapapb+ZGGDbTTA0Uwy8HinbdtVLNkht1XJLd6sZ3HvSAXoxxQo9aavU04MBketADW5bpxilhzySMc0MPlp0ZAUCgAk6EDk01c7jnpT2x2pg7mgB9Ryfd4HNOVhjNMk+ZeDQAvPFNdSzZx0oyduaXOaAE/hPFU0UrISw4+lWt3B4NRN1HBxTAiuAshA2kUyNcZXt9Kmk5IwDUakvnGc980wEhYFWBJx9KZMoEJ/wqZV3R4yMfWmzRny8DJ+lAFG4jP2cfyxTbaNvJP3QPpVto/3IHI/Cn2+wQ5/pQBUs0OW47f3amhyHfjH4VLCEVj3z0pyou5yR+lAEqKEXNMkcJGWPBx6U5sGPngdqhmbERLNjjpmkBUkuAehAbvVaS5dzyRx7VNHgsSxBz701cb2PFMCszll5POfSmN271LIwweO9RMaADNSJ8xHp9KYoO3INToCsDGgCObG75Tx9Kjal/hpozQA9cbhnpTi6+mKjBINDdRQAE96FNKycgdvrSbfmxQABtxJpRim/hS9sUALuBBNNHrSn7tNxQA4naM5pow2aG6UDigQm7C8mq8Z892OeVPpU/ViO1N27W44oEDN8rc849Kr28nmShs+3SrBj2uT6ioYUGeeoNAyfZ15qK7+6ABg59Klf5FJFQ4LSbip6cUANZW8yMqfmx6VHfZMf7wMQOy1YMWWDsCPxqvfbtoVV4/vZoAx7OQm4c7S3tnFXb+6TyVULuPTrVVbI+a6nK9MHNXmhhiUMQDxzk1IFYOlrHHgctyQKuQP9olDD7o9qzbpfPKyIRtHGBV/TFEcLZQ89zTAs3RKxt6U6xLTQq3bHpUEyGRvl5HpmrFuvk26jGPxpgTbvL+XGaft+XjrUK/NJ0zx61OOB0oEH160tN79KfxQAlJxkUtCjPagBV+6c0lDHDYxR15oGOjbDCpNgaQY5qJeGp/mFWBHFAyxC487G3Aq5IvyoQCPpVBZD5m7vViNi08aMST9aAL9vJiTOCalut0wCquD71EItsnHFLfbh5cgpAWZl8u3VDyKjjVA+OpFNuphPImP+WZyaSOSQTImP3WKQD7i1SZuauqqoi7ahValX+GkBJu+6tLcLuWkpz0gI0WhYt1SL92lj3fjTARLdfvtT32tRRQA1Vy1W/L8zZTI4/wB5U9SBJ/rKmiqFKsK2aQx+6nq2Khapo/8AVigZJUq9qgVvlqaOkwJJKkjqOnw53VIh4QNUiKFwBSLT0+9SKFb5alXtTNop69qQFhflxT6jWnr0qWB8zyy/vY6q6hF61IYhNUeobP3cVdhA26sUh2SeZxSQzfuvLplzJ+78qT/lnUdAE3+vpk3mc1P8lE3akBD83tUckZkizVqHvU1AGUtq8ceSKXaKs0UgI/3f+c1UkT56vTfdNMgpgUnStG1lToaZJsjjeQd6S0oAhkjP+sqOSNvlrR8nzqrXkeI46AKtOaT9ywo5qO6+6tIBI/vCpEpit8sdO2UASx1Z+f8A2arxx54FWqAKE1R1YpjxsZDsSgBmz560LXp+NU6uQ/6sU0BBq2/HmEfuu1Y9tCIYcRvxWxf75tPuov8AYrAtY3miEh6mkwLVO5ptPSgCSKnrupsefwqz8vluhifzaAI41p+zy6dbx7jijZQA2aNh1pTD+4iPrUskYmlQRCpKAKLVY/5ZpUEu6raRTG3hMcZ60AV1+/WvN9nxXMeJre+0/wDs99LkU3QuF87zPuba6CT/AI/paYFr54TVz5vaq/8Ao9SQ0xFvTtkd1G8ieb5dfnL4qkvvE3x2+KNtdeP7zwho+l3006Rx3Dj+L7qrX6PaPGsl+iT/AOqevgHwz+zfafH79rT4kw6rqH2PQdI1Wae88v78y76xq62SKic5+z38Jviv8ftR1KTTPGGq6d4Ytt//ABOL2Z9j16n8Rv2XfE3wr8HS6tr/AMa7uJDHjCyOiV9P+MPHPgz9nj4dWwmhj0Hw5bLs07TY/vzNXz94A8B+IP2yvGX/AAnPjaSbSvhxpc//ABLtN/5+WrPlS06lXPn34A/so/EH4qeJLnWtM1e50HT/ADG2a5NvR569u8f/ALI+ofD/AMI6n4j1D4u63bW9rG3z3Fxs3tX1X4g8beDfgb4UuNW1K5hstMs4mSG0/jdv4Ur5a8E/D3xz+174yg8R/EOabSvh7av59lpX3BMn+f8APq+RR03YrnjX7PPwM+LXx63X/wDwlOq6L4YjbY+pXF3L8/8AsRV7L+xrpuueE/2kviB4J1bxBea1BpGmSA+bI+S6ulfUPxI+LHhT9nP4dJqF6iadplrF5Ol6NH9+avkX9hHxxP8AEb9qD4k+I7m3+xS6ppM10YP7mZY6XKotLqPc+4B+7Uv221xXjT4+eA/hfGYPE3iOzt9UH3LGP55vzrsPmPFfNH7eXwx8Jp8CdT8YWmhW1r4gS/gj+1x/f+auibaV0Qj6T8G+JLPx54L0TxVp+/7Hq8HnJHL3rYvJJfLjjj/668V5n+yq8lx+yz8PnY/8w/8Axr1AeYacXdJgfPPxM/aK8f8Awa+JGi6Nq3g3TZ9A1y8W2tLr7X8/zPX0NrFnMt8DADsr5v8A28mWGb4KXD9E8Sf4V2v7QP7TumfBHxnb6HrHhe+1NL0RvbTWcnzzKf8A69ZKXK3djsez24dYghfMlPhrhPAvxVt9W8Dar4x8UaVd+B9Cs3b59Y+V/KWvOPC/7SXifx1oeoeIvBvw2mvfDiSyxw3lxdPvdU/i2VfOhWPoWZW2LiiP/UtXzV4J/bUt/iVr2h6ToXg++kkkvFg1S6P3LXdX0rcrsmlRH5SnGSlsBBb76pxS3X9qXMchT7Ps+Srv+rkolqwE/wCWlP8AM/eU24ZI0hG7zfMOBSUgEsYja2sUeP3n8dOvUzpu72zUseySpeNuykBDcIY0g2elSW+7bzTpPummxttbZR0AZ5fl1X+TzanEv+kPHWT/AGlH/wA86YE8kw87yv8AnlVanQnzrmeTH7mSm0wGVDNU1PvIo/Ji8qSgClRSy1biAk00iP8A1oPNAFWO5K0s7JIHI65qJd0cinuGp32pZIZY06ebmgRBCxKHP96hFfzAq4VKf96jmgBF60lStC64yOtPaNCf3ZJoGRL95frUtxG0N1sPUHinzWrWv2d25Eke+oppDNOW96BBJ91vrTI/9ZF/vrTpGMhqSzhLzemzmgC3qKp9rupO4YfyptnD5/NRzTRznpUsN55PHlUDNO1jxFirVQfJUyr8u6pAcvWj1pKdzQAyNvmqwrVBT42pAS2qsswx608r5kzN/tVH92SnwlVaTc38NAAn7zdSSMoC/Limo22mtz1NACO2VzTQfm5FI4DLjOBSP94YoAQqS30o3bYznrSSsU5I4psmJI+mc0wCHG3O2kuF3KCRmlVdqikmb92aAILPd5sxZRjPFWV+8eKSHiFeBnFLHnmgBXzxj8adu3EYpF785NInyrxQA+TKkU1m2sKSRty5prDIBoAeZPlx0pnGcUpXkHFIfvUAHCn2oZgozSmkkxjvQAjOAuacuNuajZRtHWn8AAdqAEK8VFLGMj+dS7qZuyD60wK743dM4pNypxgHNTKN3J/lUckILAkfpTAXzAm0Fae2GYArx9KiktxwQDmnFNsYPINADJmXOMcfSomcLhVOAaVmJ2ncQO+RTUk8xsgjA9aAJWB+XB/SnGMlgeo70wSZI5X3xSrMpYjcvHvQBK24MBzjFVryQiNgM9OODVgsGm6YxVW4kO6Q87dvtQBXmkPkpgc9+KikY7gNhAxzSeZ+6ye9Qq5zn29aAGt97A6UbTuA5py5kbJPT1NCruYnjj3oAerMFKgE1I0mYwm3j1qFFLFiB+VSMnIGMe2KAG7v4cHbSL97BGfxpJF+YDvU0cZ2n5e3rQBEuNxOBTfvHpmrghUQ5yAarbdrdcZ96AGbixPHSk5duATTo/lY8frTox8xOCKAIWU7vSk5qQ9+ePrSbfl9vrQA3PtSU5VPXFG3a1ADKdQy/N1ooEJtycimxr1p240n3Wx60ARXEgEe4naB1qGzkEmWU7lJ+9Ul1HmFx61HDD5duqrhfpQBLcSDO09aSFw8nUEYqvMCLgHIPFS2a7bcHGTQBLI24FeDUNzAZAmO1S+ZluFp+7djPSgRnagvkqGUZbp0qjcSMkCq45bgVcu9QjiZuS56YrOW4F5cESF2A6BaQyf7P5Nmx3A96I9U/wBD2jbu6VUuGR22hmQAdGOeaphyrj2NIZs2F2A4VsBvpV+a4X7O2fvfSsWTJRZNrKf73FXIGS6fYGc8UwNCxYsqngcVZ+6SScis+0kZXaMqdq9KuI5kjYBdppiJ070tRIxFSdOaBC5pajVw24AVLbqZrgR5oAYWG6nDleBiopJljZy/ATrUi4wrUALuGce1T2sfnXCIe5qLmp7NHa6Hltg4oGEVTw9vwqou77gq3Z/66KgZfh8yiaGmSedFHPs5k2fJJUNnJPHbpHfPHLcR/fqQL8ce2QmrEa/NUEflzRN5b5jqeKgBZFK05m2KKazfu9tMb7tAFv0+lDfeVaey/wCj+bUK/N81ICRT2pytjmqyyApvRvk/hqeP7tAElPpYqjpAW0qSFKh8z3/WrENSBJHUvNQf6t6nXNBQn3qmX/V0xaVVoAfT17U1Vp6/eFAE8f3afFUSrmpFXZUgSq1SAVGq1KucVIDlqRVNRqwqRe1IZOtSrUUfQVKtJgfJmuR6iI4Y9Kz9p8795itOSPyZPLqCb/X1PJJ+ddRBRuik0skmaWG5QbI+1Ryfveanih9aAJoYakko8yn+X7fpTAo/8tKnh70yH995vlUkMUnlUgG/N7U0zf5zT6z9xkfYlIC79oSoI5McioHRqjoAvyRrJ5cYqbzv3NZM1xJ5exFzU1jdtcRiQIhB5oA1PMTyvNqjeXj3En/TPsKid6ZtX+JqYCO/+q2bvu0jHdWV5377Gams1ubqMyxzpg/cjlFTcC8varJnWTZ7VURG87Z/y0pv3G2NTAuxz7ZKtw/dFZdW7eTac0AJJU8MvY1HeSfvEqLzqAFkZY5Klil21Rl+aWmybty0AX1vo7S42B8is6aNd7uic0tRSRtJQASSYp0K+WMUc1V1RnisZHj2e9AF9W+Vqmjaua8ISX66fJ/abq8+9vrW6vzNtaktQLvmH++a0NJWD7Rc7k82SP7lZTNtjqzo8jrM2PSqAszQ5+tRUtx2qCO8ZaACTvT5LotTJZPtU3yComXDUANmujLKhJ+4MVbqs1v5drNcO/lxx0633bkx1zQBpQ+X+FXocfZ3k/56vmue0+4eK+lSTpI+DWvDNjp0piNPR5Gj1Lzz/AmK+JPBfx70X4C/tGfHW91Y/vZriSO2t4/+Wzo/3a+2tFbzNSto5Ou+viv4R/Bvwz8Wv2xPizc+Jol1Kz0jUp7pLX+CZvNrKpfSxSOp+Efwh1/9qjxAnxU+LbvH4ZR86RoEfypN/wDWr6B+NHxw8MfAfw/bXOrbI7nytml+H7f5Hrnfj1+0t4b+AOgm1H2a98SNDs0/R7YfJHXnP7O/7NeoeO/EC/FX4nyprOuXjrdWOj+ZuRF/26n4dI7jI/hj8F/Ev7R/i63+JPxbRrHw7C2/TPD5+Xete9/GT4weG/gL4IbUtZCW0jfu9O0e3k+abb9z5P7tU/jt+0FovwHsFe8vVvvEd1F5enaHb/f3N9yvHvgz+zhrvxQ8VQ/FL4vXP9s3G7fBo8j/ALmCj4dI7h6mJ8Kfgv4r/ac8d2XxL+L8z22iby+k6HnrzwP0qX4BLZ6T+3V8UrS2RYrePT3hSOP5E+V469W/ab/aX8O/ATQbfYkOpeJ5l/4lel2/3If9tq+ZP2F9V1vxN+0n4w1bxMjjVdQ0yR5uP4ndGqdFJJbgfe8eW/0f1NeG/t62s9r+yjrQeB9r6jbH/wCvXtIjkkkdIzlz9yvEfjd8Efip8bdFk0bUNf0qPQJLrzPssb7NirW1TayJR6P+y7atH+y38M/kyY9NH9a9AM487ysV4j8F/hN8QfhXpei+HNT1nTb3whawNG8fyPLXtFjzawxe9OGwM+YP+CiM1xHp/wAIzCiyTp4gYon5VzeoXWu/CH9qTSPEPxYt/wDhJNJ1qJY9MuZjvt7J69S+On7NPif40eLtPuf+EstrLw1ou270izjg+dLj+LfurS+NX7PWqfHXwJpejax4hjTWbW8WT7X5f3E+69YuLu2ijqP2qrXR/G/7PPjSG81KG2082Uc1vfSfc3fJIhrwP9k39oi98K/ADR9E/wCEUvrmXT/OjtpoyuybNanxO+Gf/Cl/2d/E2meNvEN54n8M5+y6ba53TJ/ceuS+AP7MHi3xJ8K9A1HR/i3c6LZ3UH2p7S3+dYaTvzaB0PTv2VfgbqPwX0HxJ4k1eZv+Ek8STvJ9lxvS2i37v++q+j4Snl5j/wBVXyZ8Gb34l/Dv9py++HuqeKH8eeHrq0a6u769G7yVFfWlu2RWsLWshMd8nmUyT/npU0fakuNsduc9K0EcxLcSfbGmzg5rWt7kyRmc8Edap3a/bpy8C5HemLHdRwmPDBe4piNuORPMpJrx4pHCR7qp6Ku63lb3q1JHSGSyXmI/+mnpUGm3EzCR7jp2plW/LSONXoArSXIWR5OwqniOe8lqTynhvxJ5n+tqmskdxM86cDfnFMC7CvkCq814jdBmk+0H/JqpJGY3KmgRpQ+XcZqvc/681Db3JjQrTZW86WgY+ardrqCW9lj/AJbIeBWcrbvMPrUdADl+Vgaq253XVy390gVbqHbibPtQSPVgwyKf/F81VmhxDOn/AD0zn8qat7t8mGQ5k+5v7ZoGXLq8jtpJJs+aqc896alx8qOy5x61JNGiylIz5gXvUN3P86Ls68UARXk6QiOaSRoxH3FT/aPm83Pvms7VbSS8jhA4APz1oA5x6UAT2uZn3de9K1wyHAptnjz03fczzSXCrHMQvIoAT7Q6zCb+LOanhnF1CB5eIushFYU2rRG4eLfjHet7R7jyfk34DUAbKv8AarO2PrUsyvcWMVtGfKdGw+P7lSL865p8P3mqRiMpXbS80SfexTN1ADfNi8xod6+Yv8FJ/FUNjbmGS7con76Xf/tVLJJjZQBa3FsUM2KhtphLGDSO3oaAHZzwKduywApik7qGY+tACFuuKUcrTFU44PelaQlwO1ABLjae+KYshbb2Bp7fNkAYFMC7VGO1MCXJxUO4NIykcU5pflxmq0+XkGC3PXFAFuM/L2xTd2GIAqODO0A5qQfeNACnrQPu0jN1o3fu+tIBzZ2ikY9BS/wik5yOKAD7xxSYy3TihR8xp1ACYO6hss2DnFDNtxSNJ82M0AMMn7zbT93ze1ROQzn5qQvyADTAlkYhunFQmQiQ8cU6Z+RUE2ApOOTQBOsm4kDikkl+cAGoVHlxbs578inQxnaXJ3fQUwBpt0gA/GpGy0fBGPeq3k/KzkfhilYqLfrtH0oAQl9gwy+/FRW/mb2z0z6VMy/uRh/0qBpjGAAck/hQAKGVSxpiscs+SD9aJJiIwgDZJpJGZYFHzKTQBJGNzO7Hav0qq65WU7uPpVpmZYPvHn0U1WlVlterHNAFZj8gFIw28DB/Cn7TsQ4NSxRAtnd830oAiYiNcK2Sf9mkiYx5x1PtVmRVcj52LDrUTqFkJ+ZvrQBJbq21ucGpJiV2/Nz6U2FdoOQQTzmpJVDsCN3HtQBVkyZFPU1YjBXLEjngcikWHdlvwp+0LCDnmgA2DZgsMmqkibZByMVZb5lDDJCimxxibMhBz2FAFNsq1SfdxznPXipPJEik8hh2xSLH5mBk4FACSQbYyQwI+lRBf3eavCMNE2SdtRmELb5G4mgCqnpmhfmYZNKq8Z5p0aneOoOaAGPnzMGmt971qSZQsvU0zjcetAAwGRzmmYzk1MyJt+Ukt3zUCkjcTQBDd7mjG3AOec1Wgc8rkGrPEy5xxUAxHIyjg+uKBELblulB5LVbUY+TkVRHmSXybWJUdcCtK8byY9q/67GQDQBAzP5gAGRUWpXyWcab16mrMKu2xnOGxyK5Lx5qXmTJYQn96p5x70nogQjTiW4c9EJz0pk1yY3L2wyeh56VWsbUxW4VyWOOcmp48IdoIFSMeqmT5mb5qGJ8s4+9Uqx/MODzVnVLH7LbiYH5TQBDIS1rFnJc+tTWUbyT5jbaVGah1Hd9qtUhfMUcX7z61LazPbyPimBe0+8CySIcGXftA9a0YlO5jjAbvWaLF/OjuB/qpOa1YqYhYqfk7Kgjk/eVaZF70xEMf7upYysK7ulJsqvLu8mD+/5o30AI0bXIceZ7VcaQRhaZZ7dox0qG+RriQDPHegC6lPk/cSKyH3FMj6JU0tAyTT08xnHtV3Tf+P56rafszz1qeGb99QMs3MWXkrOqaapYopJutIA0/wDdRSUfbrqPrb1L50VSfN7UgJQ6yDeORTm/uotMMnl7AaesyyNuBzQAszSSIqb/AJKminWz3u/TbWausxpI4KGrGwXEaP2oAZp+17XY/wDyzdh+taCsqKvy7KpLGI+lSRv5kKn1pAX0pY/9ZUFpI0+MVZqQFiqzDJUHlimeYI5EoA0ofnqZfm+ao4vlqZV+WkULt/2qXbtpFp0dABDJubbUsdRRxhasKu2kwJUp3NMjX5qevSpAmAxTlWo922pFbNSAsf3qlVqgXrU64oGToQrAVJUaqOKkqWB8wXX/AC08uoMiiX9zzUMv3jXWQRf8tKtQ/dFVo5KsbW/2aALP7v8A5a1HLMKZ5w9abtb/AGaYF+1/dVm6jJLE0wg/uVpxDzo6SH/XSfSgRnyx9/8AllsrOVv7tdDLL+VZ39jSGHzEdCf+edIClJIxWoFbfV6O3J/gquLcxu470hjNrorbaZpNv9kswP8AloKlljZ331OkZjjzQBWv7SW4iTyJ/JkSmXH7tFNW/LpJoSxoAx0VDcpcOfN8sfu46m09NtrGPaql1Z/YHDCTEPcVesY9sH/AqQE23d81M+61TbflqLad26mA5e1XbRjJHJVLNWbH7zfSgBtx/wAfTfWorj93tWnO/wA9Nk+8aAIl3bqbc/dqxEtRXceWoAjkX9zsok/1Zp9PoAqWzeaue1WGjSWN0cZBqrdWxaEiPg1YjU7MO2T60ARw2whj8uPiOm6dv+0TxnsoxVxV+WnKoT5qAI5at6T/AMfZ/wBw1D9nL/NuqaGEqyUAXpvLuJves0qu9tnSppO9QUAV5Lr7NJD6k8VpSLDGLa4j5j3/ALyOqa2aTXCb+vrVq7+6KYFdo1vDsfnc1avFvDVOyt9zeZ2FXP8AlhQBRmX/AEsv71JJNJmSnzfvulS+RH6frQAum3Xl30L9K+dte/Yw1rxB8RPE/inQviDJ4c/tO8aZ4ynXdX0fY2iRGQ1cty8kbnv2pOKluF7Hydf/APBOufxHqVxqmvfEO41LUX+d7sJ/9auii/ZJ8eeWHk+LeqR2dov/ACzk+4i/hX0mUT+Nmr5o/ai+JGu+OfFOkfBP4b2s0V3ef8hDVPVG/hrOUYxVxq7Pibw/osvxI+PkWjah4kmlkur9rVNZf5nfblUb9K+3U/Yh8V2ZGn33xo1C3CJ88MUD18kaV+zvqMvx28SeCNF1SSPWNAja6tpNmXlljRGr72/ZF+NmofGHwVd6V4rt5ovFmhNsuZpE2b0rGmk3aRTPKr//AIJx6Vr0/wBpvfidqd7ef37mGvVfgT+yz4f+APi7UddtfEWpeINUvbNrXzLiNNibq9l+wyN0FTrpPkR5Jx9K6VTindE3ZBasI5Q78gVYndo7NOfMkk5NO8n2/Sn1oSNvYGisrbPvVS3Z1lXZ96tbyf3PlUtrpsMcaGRP3qUgK93++uvLj/fS1Jo7KPNc06YTLfeYj+UIx/rKNLtFs0kRHGelAynq+i6Z4o0280zVrGHUtPul2SwSRdEavJtP/ZW8GaVawWsGqa1bwWrYihjn+RK9s+b2qjND++FJxT3AxfCHgPR/A/8AaD6RbyG9vNv2m6k+eZ0FdLp8byLk1DDNup9qvkSe1PbYC/S3S7YdmPMpnyU26ZZGwUzQBR8uOHMUZ5qeGXMXFXXgiO3IqrdWoYe1AFPQ1/4+v9ll/rWlJb/u3qOxs/sm/v5lS3ULXVqY4zgmgDBh+8Kv2sdxN5fmn91V2KOEf6sVKUUNElAGfNshik8ys3TbcrGTFxjit28t0ZXzTPs0MNv5aUAc39u/4nU9q0Rm8v78hpWcucsc1o31n5s6tGOv3/Y1TvIvJuXX0NMQjL5sioo8tD0BNW5IClu4lHMacVZtQYbs+b19azppGurG8BP72RetAyBTlaWSRW4P36RfcfhSSKP9ZQIamWxTLiSVmXYudtWIlHlB88ZqM5XNAhkbC4hD7cZqFYWZkUngVajIEyJ/eaq15cG1G/qtAEy2pa/RU37k4xTJGd7v737tRTzIFbmnxkBg3agZG7bmxT/SnLGzDKjOKFXccUAXrpUs5wAMmsvUnkkk/d9dqVpzHzoQcVgaw4M1vAf9U55oA5ezuJYkBzg123gqNZN00hzLn5K5nT7Kd47qMGPy93Ndf4QtvLtHhPEsbf1qUB2MVuPK+lN2iJflWrtvGptos1YvcfPt61NxmLuPNRp9756syKFqJlqgM+aMWcPpDTYbvz4anm3R2UnmH79Rafs+yiOmBYRjHGqhuBQ8m0CmSKGXapxSRsM7TzigCZZNz4Aokcrj3NN/j+UU2bdlfrQBYVSeKSRQgGKfGvFDKdwz0qQGds0wtwRT3pnrTAjSPKntQIssPanq2OlGfmpgIvDUu7DUn8dH3iaAHY+U8Uu3C4pA3ymg/dFIB38Ipp4YcUvYcUMoJznFADN+2U5PFI0h3DniibswPNBXpxTAGyzDApD8zDA6U8/LUO4K3HNACt/rug/Omqv7w88e1IuPMJK805eGNMBWUs9Nmj8xguO/PNJuCyc5601X/fMfm/KgBzRLJhQoCjrzUiYPyABUHvUUch2u2TjNRrOVQuVIFIBZJEZzCHAHr3qlM6yMI1Zdq9Se9CzNukcgY9TVNWzuYgHPtTAt7hLJhWUItQ/6yb7xwPeoY225JAqSNirFhnHrigAGZrjGTge9WCguJFVSCF6mo1RkjZ13ZJwTVjCWtmvP7yT/AGqAGSujTBAV2r1qtNIjLsXOB3JqTdHCu1drOeN2M4qu+EGAck9aAAN8ox/KpIm+YkdKYyhVUDmpY1xGSMUAEaqzHJ4pxjGCD1pFcYA5xTvODZBDYxQBNtUQqD+ealYIqioEcSR4OQBS7zJGTjoKAJtsa8evr/8ArppiTZ5eAWqNPnwxXIH1qRHWP943AP8An0oAasKqmz+Luak8uONgvQemaiEyebncQDTt264DfMfrQAyRVikI4w36VCqhWIznPOanuCFlVsDGeaZIwWdD7f57UALDzbuM896TI8kAEZzSLIFmyOnekkfpgKOfSgCJQCAo4PUmkEf7wDPepJMR9MD1x1pWP7xDQBFMoEg71GzbW4HerDRtJOMDmqj8NQIezbjnpUMjhIy2eMU7OGqDUUL2kidMigB1owZBt+bqePashWucmWZ/KzztI7VsRBVAYf3aydKg8y1ST3pAXbNT9p3LIGh2/MPeovEUQTXbG7jO2MW+CnbNXbdo1Q7elU9Wh+0QrIv+tiORQBatJlvIxIq4FeU+KHmn8e3jr1g2QJHXpWn31jotm11cb5ZJOfLrg9Ps5HuNS1K6Qy308rSJmplroNGxGp+WlSIb/u/PU0JZbiFx1zU0BSK6DyP07imBbgEtMuFa5tQknB8ypbS6WbzBGMVJa3CXGqJYY4VXf/vmmBny6fJDD5icitBo1tZBG8YhlPcVbvHSOSOM8Zql93UZJJZOKBFqOpY6rTTfuc1H+89qANCCNPMJFTszVSik/wBXVnzPuUxEj0x6RW3yFDR83n+1AhlvMEfyu4qdVDNSLtVt22pfzoKHQsY1zUm3975eeM0scJzH6Gp9PCSSeYePLoGMhPk+ZViGGT/lrSTf62SpIe9ADpofJqRrl44YHTmQ06aooe9SBHDvmmkpKs/6nMtF3/q6YD/+eVTR0yPpUyUgK9xb76sRjy4al8umqu+gClFEfOk8zmpl3eZsQcVP5UdPjWgB9vG3nbqnSXzLll2UiUfN51SBY8ynRx/vKS1jq2iLUgPhY7WbdVlV/dj5ag2Dbtqzu3Rq1BREzLErMzUqtUTZfctSLQBPTmam0UASqxWpIWO5qg+/UsbfLUgTrUtQRyBpNuamqWAq9amRhUNSKtIZbXtT6jWpV55qWB8r/P8A7NOqPzv85p3z/wCzXWQVqjebMf8A009avWuys7b8ue1ADoG3VreVWZbt5bVcmlf9360IC3zSN/rZKh8x/WrF7JiWCL/YpiGyd6k8ryYqjj7VP53tTAoxRJDLS/8ALSpvL9v0pnz0hhDFBD5lUmnTb0rRhqq2zHNAFiz8uoNRixU8Pl1UupaAKbqr/fXFR7VSpajf51qQIlBdqXy6cq7KmoAq1bWPy7fPvUTpVy5kMWBQBnSU5sNtprY3VHMfLm2d9vy0AXfMqJle8uvUmiLdtp0f36AK23/0KrckcUfQ0xrV7c7CMU56AIPL20xutSfNTXoAP4KfH90U2NflqXhaALEcO6MmrH+ifu6pI5xsoj3eZx1pgS3jvE0kWzAzVZVO9d1aEP8ArqLz/XD/AD60AU/M+dD6Vd8n9z71TvN/2qPPWtXmgChFN5P7vZzvq7UfMOnTp/dlV6l8n9zbetAFe47VPB/qRTJoc/WoqYFoT+dNVu171kWe/tHkVfhuvPhoEWbc+YqGrGk6Ppdv4pt9aSwt49X/ANWbqNPn201LcjbVux/4/IV3fxigZ8n/AAVfy/8AgoZ8TvX99tb8K+tdLtbXSluTa20MMl3L5l1JGiI7vXyN8GY1/wCHi3xJV/4Y7n+Qr60dtxasqezGy/D0/GpOaojf9oTPXNaHmVsIbzSQ/wAP4VJDCPKkkFOtrdroRlo8YoAtfN7VFd3Qgj9aW5Vo408xD/10hqKaaP8AeUAEPelhkk8+4kPPz4SKoYYZLeE+bVmOgBsMT1S8+Xzv6VrRx/u38ysr/lt/20oALpriwkikj4SQZf61b0+UzRyyH1p9192b6UyAeRE8VAFq3bzZKP40/wB+iz/jpYpfOpATvVa+kxamrNOVaAGj/VpQg8tGok/dpUn8NICrGqWsflxpUy/65aKTmmBC675HeP8Ajnkk/nUfmCrP8NReVTAjk6VR8qOaaKr01q80nNH2agDP1H99L5sdV6uXk0fm+URWZPIZZGb1oAY2TmnxgvG23kVFHEIVVUTYnbAq1CpVUSPqaBDV/d2pX1NQVds83XnRogyU/lRp6mO6GUzQBmQyeZcD5P8AV064VWVSfWnrCkTPtGMnNPz70AV2jKx/Oc1Ov3c0fep1Ah6oWhL7MgHGadD/AKsUW8XmQ3D/AN0U+3tfMWJ3Pyk0DLH/AC7/AIVzWtWLyX8Q6xDg103lFrSOL1qheJ56pIy/OaAMyG1jt/3cda6qqTfIm761Xih3Pkde9b+n6X5cbvOMyO3r/DSA6OyyLJd3+skNMqO3k8uN6dGrfZnmZ/aoKIJF+YVWkZhC9T7vmqrdl5IikfWqEZ800lTWP3aqz/6mWm6WjwgSdmqgNNsfMc496RApbHVh1qKbzOFUgE1LD8sj85NIB4YeYcHJxQ2Wx25pI12yNmnqV+tICVG7Usg3VHAx2sT608sTmkAzbkU3+GlzxUbPwMdKYD8cijb81LuPFIzfNnNIAVfmJo2gUgb5uKXktTAXywOKQINpHtTuc5pvIJFAAoOw9TTlX5fao0b7wPIFOLfu+maYA0Ybr6U0ADnPH1pZG2xmogx8s0AOZx1zzUCDdzjNCk7TmhOIeSAKYCwIdzHH60uCC3GRnrmnLhRwPrUayru2j5RmkAy4z5iDBxn1pdp84e46Zp5dZJh83SjjzmYAcDk0wInXZC49T60y4jzCq7evHWkklBlyeE/Cq810ktwGJO1fpQBYubdfs4AXnj3qrNAFg+VCB1p014JI+BxR56yRBQOcdiBQBTMWdigYPfmtGG2DKqKMkmq9jGrs2fXHQGneJPFWm/DvQ5NQ1Ah7mTi2tVGWlfHC4+vcUm7ATeJdRtvDelgySYup2EcMQ5Z2J7CseziupLWOJ929jmT0+n4Vh6NpGo31w/iLxKznVrpcQafn5bSI9AffmujW4ZYQAxBxjikgLE0ccLoiKB6/Nk1BcKFYAdaaG+XP8WaazFuTjNUBKzARqAOe9SGRvLVVBx9arnhByKkYbUGCCaABmY/KBj8aRm4Crn35pI2KtkYzj0qW1bMjZIXg88UAP3HaqKre+TViPPlsAmMVHabdr5NOgdVhfpmgCQMEhI29+eaJmDWq4HGKgVh5bLlc/hRDIGhZSVz+FABsPlq2Dgegp9rnBPOeaFkDW+0FQfwodtsaBTz07UANhBbORkg8UQktI24ZIpJiY2QKqgkc9Oaik3K+FCgnrjFAAD+8696dNuZUB6545qDnzAPT0qSQnKg/yoAfIC0GSpwPenSZ2oxB6Us23DfLnAx0o8tpFQnGOlAFmBP4j/drH6DNXhOQMD+dVbeJf40lk+b+GgRWZv3qjbTmUs3+9UjsZLiRtmzJ6UqNscMOooEVflhj9qq2TR28iW0fYZrRWIAbR0rOe38vVoGHTaaBlllFu2e1QQ01/wB9c3A9qsSf6tKAM6TTIbqYRuZciOsXaV/76rpD5kmfK4rJ1FfMMXfikMi8tP3Hv1pERJMmRsUSSI0QA60tqqXWoQxkfu80AaGi5i+0RlOas28C293JPn94VZKbujs5RF5fWkm1B93lRRZNAhun2snnSSy0t35fm81fj2xWY+X5QOlULz9zD5tADLu6Szmj4zU4l86snUozNcQyBMeaOKmhm/feV2pAWPtn7mKr3mP5dUfOq3F++pgFvarA0ODJL8/znNT3Uu1Xk2on+xSxsJYxJGaVNsb0CJIoz5abk8upc87aT+VC/eFMZNC6R/6wZqXzfJ/1f/LSq64dvmNW/JT3oGWPJ/c0Q96ghkSaTy8cVatY3klkiP8AcoAj+1yTdKsw1n1qfN7UmBFNNT5d/apKjhPnDNICaOOnOlR28bxySeYc5qZ6ACPcifP1qRfuU1Kk4RaQDW206Fl3/velV45FeR0/75qTaz0wLX39u2n1DCvzM3+zV2371DASD71WqrfxVJ5gpAXF+enxyMu5aNu1QKZ82+godzup2RSc016ALEbbtzU+oLddkPzVOv3loAGb5aerbVFI2NtNpASw/wCsLVbUj0quqrtqRZAtSwLC9Kmjw2aiVg1Sp1qRlpRtUCnrUaU/I9KkD5Uh/fTfuuKWepqbL++rsIK83md6ZU/k/wCcVXmh8mkAfJ5dW/Mhi8jzHNVfK/dVP5XnSx0AT/62ov8Al8qxHUEsOZaYFmim+Z5NPkipgWo46ZJshjoh6moJO9IQz7VJ/wAso6z7qRySDVjzqq3H3jSGR+dT2kWU5qGiE7OaQEs7EwRh/wDlnxTIW+WluZP3CIn8fNV1agCw9N30kzJ8uyo1+8KAJ6dJG0jp8/7uqfneZM9SxzNGvBxQAsrLFdOkbvimy/O1RK3lzb6Jf9cr0AWFdttI6fPVK/uHh8kRjJkWrMNz5kII70AWUd5JPemyOxnt4E/5aPxRDIsa76syKbWOOf8A5ZyUAVGX71ItQtI26nbhQA9flai4/urRH87U6gBN1SwN5TZpm2pfLNAF+GbP1qKoNz+tOhqgHyWpk8vHWrVQ+YvmeX5n73Zio7q6MbYFIAuvM8uTMeBnrU7XXmR28nolRwzVJzDFbRxdTTAl5o5pP9d70k0Mfk0ALDef6yo4f9dLLSw/6wVPDDigDTEmY806xf8A06P61UmkxHUGkTf6QaYj5e+EH/KRz4h/9NoZyn/fCV9GeOrzxxcTHT/BNtaSPJ0vJ5Aj/L/BXzZ8MWeP/gol44WPkpFNs/7819meGbfdq1rsk+589YQ1TKPk79iv4qeL/i18UfHieLdR82TSbfesEf3EdZdtfX00Ocivif8A4J3L/wAXk+MT/wB6SVP/ACZr6C/aG8SeO9H+H9vc/D2xXUNTfUI0uMR/cgxx/Sim3y3YPc9J8WeK9G+H/g298Ta3ceXp2lwNM+P4/wC4teAfCvR/HX7Qmg3njvV9fk0jS9ZlkOjaHBIyf6Oj7elL+3JqVz/wyDcz3dv9i1O6u7FLyP3rW+Ft3491z4C/DaPwM1t4ait9IjkX7TCpa5+n+e9Dd5WDoct+xT4/+JXiy61jTPF0VwfC9lbyQ2l1dx7PnR9uyvpqNfMjvO0sZ8yvA/2Uv2gH8aXXiD4e+KdPGneOtJu7lz5cfyTpv+evedJvVjuH2jEpRvxqqfwgyWKDzvLk/d+V6YqSxuLTUbx4LW7hluI13+X5nz18bfGbwhrnhX9p34eeGvDPi/VNNHidmmuDv+VPnqD9qj4PL+znpmnfE/wZ4h1IapBqCW1z/aE+/fSc32Cx9p3lxY2ckUF1qVpb3M/+rguZ03yf8AqlNI9nqGa+fH/ZN0/4s+CT4s8XeJ9Rm8V39l/adpJpk+yGzTYGRUSrH7GfxD1H4g/AuIatcSXN5oV82mpPJ9/bs3JTUnezCx9A+bH60/8AdziswRP5fmx9Khbdt56VqI2bGRJLaRyMUkMzw+XFVa3mc2SxjpmrIjeaPzKAL8v+roW4RGQfPzVKS48vTWMj5MnSqvnSedFSA2vMWSnrJWXeRyzadMkH+skT93S2dm9jbwwSTeZLGn+soAsahJJ+7SLqXqxHt8uoIqS0l86HNAFiimU+Hj5KAD+Oq8kiVDqj/ZtzetYO2gCS6YNcyEdN1NlUK7AHjNNIxinrIYzTERzXG5ootuNq/wBamgYNCfnxJ2qpM379P9qpkj2x+1AGlp9u9s0hA8yUds0kl+kchxHVKMGNhKOxpXj8ybEfPpQMaxVdzqfmaolbEq4bFBPviq7t5jgUCLG8Dikkbbj/AGuBUEH+sNTRw+ZKqjr0FAi2N32ddv8Aq8802OTbRz/qqTzG2ts+9twaCix537nFS3n/ACyiokhSXT4AJOY0ziorOL99FQBNaWhibJ61sRyBo/O7VhNCYTmHmtKG4f7MEI5pAaMcm1al3fJVO3YfYWcb9+PlpWkkNu6xvy/SkAkVwJm3jpRPIgXmo7f/AFjUySx+/wCXJgmmBSvPL8n/AFn76nLMq3e2LmPylqkyma7kT1NX7O1EM0IMf73FMBwvDJI4YYK+1TWeW3PnJPapGtwrFtvPr3p8cJXOMikAuQzGkwPlx61MsS9c0kkZ2gjgUgEHGaO1N2n1pwX1oAa33TTMDaKlZcrUTKeMdKAJOMDimt8rCnc4FEi5IoAYrDdzUi/eqNlzwDzToxxzzigB/ekP3qVVPJpnO40AIv3iKd94dajRvmOTmpF+X/61ADG/eDHao9uc4/nUpbbyaa2Bg96YEXfH40rNyPlBGafIu4Zpm3jOKAEduCcHp2NMYGNFIZhuPpmp1UMMYokXhRQBHI+1k+bJPtTJZlEhTnLelE2WuFGeB71BybonJxj1oAZcXG2PapOfpmqtwwVRtYEnj7uKlmz5jEEe4JFQXEbNIvygE+4pgRM2IwMfMfar1lZbowx3ZPUYqvFZSSXCLtwCe/etLVta0zwXpM2razdLZ2duMsWPU+gHcnsKQCatqWm+BvDt3rWpOscMakqpPzO3ZVHcmvLfAum6l4y1b/hO/Eo2Fv8AkGWLZxCp6OB7/wD16r26X3xx1eDxLrMMmn+DLOQnTtNk4a8IP+sYdv8AI969Fur/AO1YVUVIlGFUDpUL3ncCOaZpvmZvwz0qML0pq8mnoN1aCHqp3E9gM9aac7dxzUseCHzwMVCSNuKBilzxzT/OJYZJ4qDcOlOFAiYyfNk5/OnRy+XISCRUfG0H+tLJjIOaBksV0ysx3HHvSfaGMudxqJQN2akSPMgORjPqKAHb3877x596dGzxzHJ/WlmQbgwxj6ilucYVwOPqKACORo5Mk8NzQszNcH5mIpJmHlocdqjiwWPH4UAPkkaSYfe4obcZPvNkCkVcTE9B9ajLbJjjgUAICDuJ5PrToZOgxmod3Wn26/vBmgReEZkgPFLdSfZpABVyGsvUG/0yRfegZDH/AKxqm86SDpVdvuvSmYGNE2D60ANpD3pvmCnA7loENknWFtr7hUHliMl6sX221kjBPWoZF82N09RQBW8yOGWSQv0T95T0Ec9ujxyebG/3JKa0aXUJjf8A1T/u6daWcOm20NnA2I4U2JHmkAWkzW6sI+ir5dY803n3f/TGKtqSPdWPqzPHfbAewxQBL5KWfFzJmL/lnS2sMMV15gQ+1EESXcqSSHzhHH8nvUVxb0DNTzPN6SYpkknmSYqvotsY4Xl3/wCso86P1oEaCyeZGhqpJs/8fqzFVa62eT5tAjOvJhNeeZ2pkJ+zz0+E/aJ6hvI/9KPyUigurrf9Ki+1TfZ9ueKgeiff9jZIPL83cuPMpAdLo9uYbXZJH5Z3b8VP5nzo9Z+gbvs8kjt5nmP9+riqLi4J9Kok0FXK06L760bl8jHfNRUxkisGZtvSpKiUlZAafMFVnUNkUAJH/rBV61kbbOZOvyZrM0+4d4wX/wCPmNvnxVz7YPM3Y4oGL5Xk9avw3cfleXVG4i2o596TTVMl4uygDS+1/vcdqnrJll/e1L9vPmx1NgNjmkd1qlD++/e+ZVnzGkoAnip8n3TUEcjI1JcOwb7+KQDYYEHzgVbg/wCWi7qgjpVX5qAJ4biORvWrkclZ/lbGX5quI/mUmBZ5qVE8yOoIv9XVm0/1dSBa2/LSbTt3Uqt0pzfKtAxNtLt9qF7UUgJVp8dRx0+Rtu2gYSUKuaSpF+6KAJKVV3NSU+KpAmjU9+lTqwqBcseDU9SMtowPSnU2NdtOqQPmCOoa1LiPy7MiOqX2Y12GYkdMk/1hp4j8mmS0DIJofSnw/dFE33TUH/LWKgDS5pPL/d+ZR5nv+tWvk8r2piK9jIp8zzI8GofJ866kuBUkfakoAkjqG6680+MfvY5Khk/1lIZU8yOlmCXSeYj/AIVHJGsSPUMcz/ukSkA7zP3eKgdKteVUf/LOkBTmnSLYruBSeatJfW/nRk0yFGWgC0vz1GoqGQyoP3eM+9Ps5mO9emOKAJtvtQrBWpd1RzQ+Zt2mgCObb5421PJ98VH5LfP8rVn3sjyX1uP3nld8UAT6h8wSP1NTxxtHBjvTjCJG+epW+ZaABW+VaGoVc1akjPl5oAqrtVaj3fNSs3z7aGVv7tAElnIkjB9/HqKnjDSSoOpzVbT7eO1UxjgVct28pSaYF7+zfl83NENmf3tRQzSVa5pgUpF8qESioWuDHHgGtG8/cw+VWPLu276QEccjLcpKOoq7eSG+Yy4qCNPlqW4Xytg9s0AOmVI9OEnfNEDQ3WnJcZ/gq5cfuNHWPZ/rKz7JfLs3geTHz0AaGnTfuZBU80P5VHo0H7uaQ/6vpVm8/wCPOT6UxFOH/j9NSXm/yfNpkUqTGMR0TQ/uf9ZxQMuWufswMn+tkqppsnk6tFF/t1LFL+5/ddKpw74dWh553rQB8zfCJPM/4KPePP8AYhuP/RSV9WzfETQvAGoLLrl8tsnlSSJ5lfKXwxkS3/4KSeP3/gSG4/8ARSV9UeI/CGheIriNdR0y31WOF98P2hN1YwvZ2Gz4m/Yf+Jem+Dfiv8RJ9QlNnZ6p5xhkcfxNNuSvvHQb60vNPt7rT5jJbzJhHi/jrIm+H/hC5+zvL4a01pIW8xfLg2bHrYsbe302OGG1hS1t4PuRxVUIuKsDOL/aO+EzfGb4I674dtbhk1Z547q0/uSOlZfwF+MXh+z+D+iWWvXCaBrPhmxXT7y3vI9mxoh2/KvYrNhDDJ5fSuY1jwJ4b1zVBf6h4esrm9dfLlk27PO/3kWm463Qj5s/Zf0S/wDGn7R3xD+NEdo9n4buUubez8z78zPj/Cvqnw63+kOW+4gp3z/2f9mggS2so9v7i3j2J8tP0uRLcGQp+NOMeVWA+N/i18UtN1f9tr4b63ZR3l5pehQ7LgxwN97fJvrpP29fHWneMvhRY+HdIE11qF3epqEKPH/BX1Lb2OleSVfRbCQbmk3yQJv+arFnY6ZaxrBb6XZiOBfkxAlZ8j1XcdzyXwj8cvD+hfs46HrVwbm4jh0JNM8u3j/5arBsrxz/AIJ7+IIrPwH4j8M3VvNb6jJqX9oRxyR7PlZAtfXy28Xl7JLaER/88/LTZRcx28Km7jtba3uZF2efGmx3Sq5XdMLkc1rB5fl58k1mXIeRxIf4qWSQmQvVmGHjzc8VqIktZv3aRVo2bO9jLGeNyeXVW2sfMuElzx1q75flUgM+4j8yS1i/5ZRinyzJZ+9Pli/e/wCrq1NapN1oApaXK/8Ay06dq0LmZIYvMPSqmm2zwefn8KfqFubm3CB+lACalObezcDqeKLGRZLWMRjGKnkt0Gn+W/8AqwlRaTH9nskJ780AT+YnyVE+ora/eqpHDDazInmkn/nnVO+/4+BTAS/uxd3G4cCi4ZfLhjT92cfvKbd2/lbO4Ipk0eVSTfu3UCGSf6ymfw07afl96lktfLtWmJ/5aeXigCFF+b5jUsDqrpu9ahjjPLAfeNTx227vQBYuG3NCna4fNTXFjttnSPnnNRQqs1zC442P5hrSmm8mGSWgZyN5ILdoz2pbdfMkJqOW2aSQSf63D9KvMPL5oEVNMuBJNO4HMZ8ur9hH/py/WqtjZNDJJzlZpN4/GrCttYmgCa1/dXi+xxU90y28syR+ZNJtZpKqQyNDKsi9RVmRxulTmITr89AFq0iRtPhz1yaIf3E0vlVYjsEaxSM9etPuo/Kh4jzSGZ9x/SrUdLY2u+Qk1bjtw9AEe/8A0ZI+9O872o8n3qaGFZEDuMmgCC3k8uQirg+dd1RNajfleKlhj8uEI1ICmsKQ3U0wT77fPU9tJuK1MbVZI1Yjinw2yf3sUAKy+1OxheRT1jVu9Ku0KBjJpAQY68Ukg/dZ96sIo3HI4prIG4AwKAK23kfSlx7U8rzScUAR/Wo29Kl4pGUZzQAqj5RSP2pW+XFI574oAjb71EbHnvS44z0pyJimAqnqKbty1SKvJpVXqaQFfy/3mcU7ad3oKcVJJpo65pgRzqWx6UyROF7+9T53E800AtkHB9KAGKh24xxSqnynPSnLnac/pS8qtMCFfl5z+FEjfKpzmpXX5RzTZB8qigCKXIkU8YqJVYSMSBt7VZmX930ppXbCSQelAFKRDv3FOp4xzUkdqzXCZHIPygDrVqKE7AcEg1nfEL4haF8G/Cc2ueIp1VsYtrVOZJ37BR/M9qTkkBL428XaP8KfCt54l8RXKWltbKTHCCC8z44RR3J9K+dvBvhrxR+0R4iTx74/jk0fwVGd2l6Fkg3Cg5Ukf3T3J5NX/Cfwz8QfHbxBZ/EX4sSNb6FG3m6J4SQkIV6q8o754Pqe/Fe26jfPcMvCxxqMRxIMKijoAPpWaXNq9h7FS4vDdbUCLDBGAscMYwqqOAAPpUAXDdcU7bu+Y8UYzg1sSKPvdakjyjc/zqPvUnBUetAxSpVzkYzULfeq0qq25jngVX96BEYX95mpfL96b6Gn7s85oAWRdvGc03JpWO5iaRaBjl+6Rmp41zCeR+VMtV3FqsWq/upM9KAGYzbn1z6UN81uPWiGRSrL2pY3XyGGeaAGOuLcGotwCA9DViRf9BLgNgdfzqBbctEzM2zHr3oAcuZWRV69KgZvmNOXtRcRiPzD2FAiJpPlzU2mw+YsMf8AyzRP0poUbhVtI47a+2HlQetAFiaa3PHWs+XEd5bx/wDPTmr1QSW6rIWJ+eNMpJQMrs2asSWIithL5gPtS6p/yEJvr/QU/wA7/Q/egRmqpapUU5VafFu8xMdc8VYvLcw3G/t1oAp3YaeVS3VOKhlBiTjq1aEPm+b5WearS5cM/qaAKy/eqSVTyrqvy+tGBUh68UCKktY2oRebeIYlflPM8yt253iM+WuWqpHG8lAzM0m3maS5AkwQ2DWrb2sNuqBhz71PDEkMSRx9BVbUJhBZrJH9/cMUgM+zkksc5HFKd0mpRJGfN8x/3gq7b26TXUnmcmLpT4v3NAFcXXnXci9qJpf3P72Soru08mbcOas+VG37qWgCrfP9lFrHFAMvzVWd18zcJP33ermsWYkv4puxXy6zZP8AXHd13/PQBW3fNStIdkg/vrinKuKdNbiO1EuepxUjN7TJP3Mcf/LLZWgsnMf+3WNoMY8wJMknl7OK2PL3SQrVEk2006HYsi7x8nelmwk21O1M5ZhimMdNIJJSabxup8iBD60sK7jQA63CrHNlM8U21jEsyq3Q1ftIfJNUNqNOxdW8vd+NAGz5vkWv+rrH0+RvMdB3atuTMRgjjj/dbaoR26x3LvGcgdKQyXyvOmqOWKp/J/ff6yn/AGX91+960ALDD5MtPlm8mSrEcf7tKry2znpSAm/hqrDN9s6x1cdPLjqrZ2yLcPIOfloAlST94lXd3zYqtDYn7Ysu+ixZbjziP79AFxYt7bqlT93TV/d02Ztr1IFpH8z7lNvI5Y7Nfs/+s8yks/4vlzVqP+tICax8zydrtVhmpqJsj2U+kMfH92kpseaetAxKkVs0jLSxqGoAcrVItM2ilpATeXUiqKjVqVW2stIC1GtS1Xztqwp3AVAy1Ui1GDT0pAfNskn7vZRJ+95rD1SwlvriDy7l7WWB/wDV1reY/wAldZmNuj5Iolj/AHUlS3OyaPFM/wBdYvH7UDKM33TSfP8A7NSy1UoAkiuk+1Z7Vsyx/u3rDtY3muq2rnf5fFAirH2qGWL91T7X99JIKufZxLHQBX5qpN901ak71D8lAyrfJ5kqVU2eX1XFW5f9dHUdz/B9KQEML430XDGNfLNL5Z8vNV5fvUgHM3y03YtTwxmS2J9KZtHpQAxdtR28flowqxUO0/5FAAtTp8i1CufvVN/t0AWLWR9043/u/J/1dVvKFEcbeZ8nWpI/499AEbps+aoqtspkQJUckBjoAVKmkj87JAqOr8MX/LWgCtYpH5kzypkCo7iXzjU/z/7NNih7mmBTTd81Kj/JVvyf84o8n/OKQEdXYPvCqvlf5xTqYD5v315SeSPSpJoexqe1tnl+0Z9aYEcNmfxq1fyGGHMYqGEyedUfM80tAEckkk00Xm8VPDaSfu/3f7mp4f30cf7vmOp/NPz0AO8tv7tRyKad5v7vNUtPMkMZjk4piJHso7WNJN5GKd5byx/uzii6Xzoafar+68ugZLZr5MYpLW1hF5DKI8eW1PhYTPvT/lm2K4m++Jei6X8UrHwZqN+9lqGoHfbPJ/qX24bb/vUm0twPBPh1H9n/AOClfjle2yf/ANEJX10y7SntXyV8O7qO8/4KQ+Nrr5Io0tpf/RMa19CeCPi74Z+Juravp/h++N5JoUssNx+7+R9vy/JWNN2v6jZ2yVPHHm5celQtIx+/zVyzh/fVuIs5/c/hUktqPO82o5hVqTf9nSgA/dzfu+tO+yBvv80n/TSpkf5KQFKSPyZc0yHzPOlqy/7y4cUkdMA5qLUIY28vNTx0y6pAUPsP7nrUkH3RUv7ymzWjtMCDTAt+Z+8p8n+sSoLubybXNLaw+T+88zNICTUJnghMkaZNWlqOpm+WpASmMu+pdlIsfzfN92gCO7jM1q0eeoqGOT7OoSZass6rG397NUrq3W6bfM749M0wM+RReSSSD/npSzw0Q+XBNVpY0kvkPUgVQFG9+9ULrIlvvRMQmtiW1jmkyar3Xlwwx23rQBnsqvGj556GmfNKIY2/vYT8adHHJCc9KR1dWVz36UAOjZXjkCDmnQzFahVysCwoOM1a8qXPm+VQBdj/AOetJdy/6BJT7W2eQZNLdf8APPNAGDtDUrfeNOkj+z3Bjk7HnFMbG6gRJF890jHruFPeMycioQCTVyz/ANdFQBC1sYuvWrcNn++i/OtDy/b9KW1hRsu/W3XFAyxzUVzEk0aRyU7zKjk/1hoAl85KfIpSF27tVYyRwyRirN+0kkarH1XpUgGxfs+NvHpUqt8qrtqGFc2dvLu++n3KmjxtX0pAH8W6inbh602H5magB6tm3iX0Wlj70z+KlRvmNAE0Y3TKvtSxf6zpmiL/AFgojU7t/agB6s3zDbUcrD5cAD6VdW38yPeODVeaHaP4s0gK7KB3qM1Ow46EfWomXn1pgQtx2pWHAJp235aTjbQAhxxQQG7UgpV60AJt7U4U5RzS460AN/hpc/L1pMcYoX0oARvumomG0cCpgOcUNGM4xTAg+631oxhvrUnl/N7Um35qAGNlWxTZGwwGakK/Nmk2/MTigBkhO5QDSSN8yjNPXHJNBUFuOTQBFNyB39qk8lpowqjLN0UU63iaRsYy+7AArkfjJ8XtM+Bvh9bmeI6p4ivD5enaVDy80h4HA5AH69KTdgLPxY+LmgfA/wANRahrDm71S4PlWWlxEebPJ2AHYZ6tXm3hD4Zah421q18f/FVftmrnEuleH2/497BOq7k6F+nX8cmqfw0+D+o6j4iT4nfFaT+1PF1wd+naQeYNMTqo29N36D616/e3jSzG4k+eRhwp/hqUubVjC81CaaZmmwxP3Vzwo+lUbht2G4GfSnTSCRdxHze1QsSyjNaiGv8AdxQMLwKVj8oNN6sKBD6XHy0ncVKygKDkH8aAAL+6NRshC5NaK24MI/kKivo0itQc0DKOOKUdMVF5w8ncD2pLeQyJnNAix/DR92mIxaMHpT/bNAEkPDfXpU0UbeSx9Twaht18wqPetMxfZ7M460DM6G1eRSSdi+pqaG14KmQA+1OggJPPFSw/6RkmgCvctss0HvmpIYY2hiz1NR3CNcshZMRSP8lWMpD+6i5J70AZ/wDE340XC5+WpLn71Q0ALLjc23pnimpE8ki45NH8VPj+9QI0Z5/IxxWfubzPM79aWeZ22J8uxV4xTV+U7GbA70ASTO32qR++aZc3Xl2cCH+N9lNXqfpThGWTjtQBLcAR28Cbv3gyTVm4kEdvGIF8weuM1SkbzNlOjYmMx+9AD/OH2iQb/IkpGtPJXaU59aimaOa5SRxWndbPJ/d/88+1AzHZfIGDxTI93mNuPydqfI37vbjNJZ4jvoZplBRPvUCF3E9KbtqvZySzRAzjy5f4kqyy/LQIZzRsWS1Zu2aZJ/q6nLDyI0XtQBTt7cQrLz/rHLtTmwGZ808IrbuKbcQ+bbtGvGaBmRMJZ6sfu4B6VPbDyhiql5DiYS0DHTTedWbfQ+Q2KsyzeQZRTfEcMk2gyxx/60bM1IitbylYzTo7e4m1K4kneOWOP/U8/wCrqTTbd5FKDgVd0+GSH7RQMTR/tH2ibzUk8vZ3rcsZUW9jd/4DvqhHjzP3dWoHUsSP4lzTJJnkaRmYnJPNOEbW9nDJM/7yaRsJUaVKZfMt1h28K2+mMdJHVrT/ALwqsshjkQ+laFjcLL5/+s+560DJqbFD+58ry6PJ/fVcS38wJ89ICve28reRv59af8ntS3ko37A+DHzTfm9qAHL/AMfkf0pdQj3BPrRb7PMOKf8A9dKQBv8Ak2Uf6zZvqGWXFWaACnovyNSc0sKSO21WoAcu5PmpLWAQhkRMClp9utICVf3dRT7flap027PvVC0y+ckP/LR6QDoZGjVa0l+5UHlp8lXOaQEu75PvVJColb5vkVfvVWjhE1z5rfcVatRsqfKq/JikMVW3LuxS7aVWxS0DBvu0RtRTVoAlXtTqjXPepI6TAfT/AOKmL2qx/EKQD4/mzU0dRp941KrfNUAWY1xUq/LUUPSpaRR8sZ8m4fFX0qn/AMtZJBVqP7orrMxz1F5v7nNTfwVBNs8n2oAPOj8v2pnMxp9r/qvMo8v/AKZ/rQA21h8nzKt+d7UQ96fLHmmIp233qvVF53tRQBVupu9Opv8Ay1p1AxfLT3qlfBY/LxV2PtVG6i/0qkBFtqqwrQlh9Kz+KQE1vIoglQ91qO3tvKs4Yx/rI0/OhR8wpXbcaQEe75ttLxRtFKwoAZQrbvloR2pjHy5dy9aAJFVquHH2VMf63f8APVNU3/NT/MWgCxD94VPNDmq0O37QmelaEvmUwI4Yewo+erH+pqPzqYFS7qxanyYjHSTWnrRZ9qAJPJpkVWof9T/q6q6Xav5jySf6qgCOrNn5cMMkslVruQG+/wCmWypfNT/ll5kENAEljJ9rj8yST99UqutpcpuMnlfxmmaf5n7yntb/AG6Ga0TiSSJoz/vslAEslu39oInyeXIm9JJZPk2VGuk3O6SdGguYi/z+XJvr82ta+IXxw8OfFL/hEtI8T6lca5M/2WGx03Dfx/cr3hfgF+07NcNDc/ENbOSfbvWSQLWKqX2Q7H1hCjx7/MhqxHZ7Y3cD+LZ/t76/N7xjrfx08MfFZPAVl4z1LWtcmZTss5mfY7V70v7PP7Stla74/iEfLP7yXy2HztQql9kFj6u/s/p8v8PmJVT+z7ixkSeZofL/AI/MkSvzUvvH3xys/iZN4F0rxrf63qfm+SI7J0lQ/pXvMn7O/wC0N9jvI0+IE3yxf6RHGAlCqX2Qcp9aSQJ5mT1qOGzntP8AWLIfrX5yeF9S+OnjX4sXngrwt41u9Ru0dfOurObFvHxXu3/DNP7StvdB3+KWUgbr9qloVS+yCx9TLYSvL+7PFeM/tafAObx/8PY/EOkt/Z3i/wAPS/aop/ub0r5L0HWPjp42+Jeo+FdF8Z6jfC1uWSW7jceTXs9/+zR8e9Ojn874nf6M9qyTeWw2bPzpOfOrWHax8deF/EnjXxV8TovsWovL4p1Ddp3nSP8AN83y1+on7PvwP0z4E+AbLQoGS51zUVWfVLrz+Hl/uJX5n/Cb4N+NvHXxdfRvA832zUrGf5tVjP7mPH8TPX17dfAj496Ho+p+IL/4r2tjFZJve6jYD5FrKnprYbPs2TSZjdIXUY381e/safd5n7v8q/M74LXXx3/aI8YT2Hh3xZNHo+ny77jWfL22yV7Xf/sqfG/wzaXOrXPxma2gtY2neeMPWyqN7Imx9hPbtHb+dIUMf/PTCbKu/Y59qJt/h/36/Mf4IeFfjr8dPEmrJpPjnVItIs/NtZdauJ28mvaNQ/Y1+KWl2t7rOtfG64SBLXy7m9NxN8qL/ttR7RvZBY+zhYyfJTfLisrS586VI/LCp5knyV+UnwR+G/xV+P3jq78PaH4w1SfRNPn/ANI1yS7laFFHTHNfQ/i79jHxV4L0W88UeIPjheWVrZI0813l4cUlUb6BY+1RYzQ2+EmilP8Az0L1XsFF1I+2e2l2f88p6/L/AOAvwh+Ln7RWqXN1D441608KW0rhtYlvrgIf9xK9w8QfsX+JPAegya9rXxn1WPSLXcTdPO8OwFP9p6aqN6pBY+0o7XbGp+0xZk/5ab0p0dvFtbzL20/d/e/fJ+7r8vf2fP2cfiP+0FqVzct4t1W38IWU8kCatcXczJNtP/LLdXtvjD9hi58I+ENV1nXPi9qltpNrFm4Nxdvs/lSVRvWw7H2h9usWmMf26zk/65z1NFJFJNdI93bxvDLsZPMr8w/2bf2dvHv7Qmq6hPZeN9Z0/wAEWU5gGqyXcuZdv9xa9Z+MP7D/AIe+F3g3UPEOv/FXWEtEk/5eD80j+lHtG1ewWPuC8htZpLaH7bbkP/03qt/a2k2cHGp2A2f8s450r8yP2YP2QvFH7QNnf6xqOr3ujeEIS32e6k3f6S4/u17z4n/YR8M/DXwXc6v4h+Jus6VpFnH8zfatqf7i0Kcmr2FY+wl1rSJmVBqlqfl37456tNq2l7XC67pfyL8/+kJuFfmR8Bf2Q9Y+P3ihymvatB8NLTckGq3nyvN/sRI1e6eNP+CePwv+GnhfUvEnifxtrEOn20XMlw6JuNCm30HY+xI9d0O1hi+2a7YQTn/p4Sqtz448K2rOH8UaLG6Ns/eX6fK1fl5+zT+yDcftDeKtV1aO6vNC+HVtO6R6hP8A6ybn5USvpXxp+wH8Jfhv4VuPEWo+J9asbS0/ePcSXezcvpSUpPWwWR9QTeMPDMf2fzfFeko8zbF/0yH56ik8deEoJPM/4SvR49is/wDx8Dfx+NfnD8Bf2L1+PXjbVNUtb290b4aWszfZr68+W5uU/wBmvozx5+wD8DvAnhW48Qa5r2qabpltH889xeGmpyetgsj3eP4xfD1ooJ5vG+kW/n/vB9pu0T5afH8XPh7JM6R+ONC3J/y0+1pX5wfs/fsjn9of4j39zpK3mn/DSxnwdTuRzJGvYV9H/FD9iv4C/CPwXf8AiXXL3VbeyhGyCGS8+e5f/ZoU5NXsFkfSb/FbwTpAZL/xlpcD+ascJkk+/uqtrXxd+HWntEmpeM9ItjI2xJ/P+SvgX9lr9ieb46atc+J9cF9ofw7V2eBpG/0i6/z6/wCT7l8Yv2Mf2ffhF4Rj1vWb7WNPRxiPff5eQ+lHPJq9gsj3p/jl8LrVYTJ490jy3bKSefVfVvjz8MtPs0u5PGtlJHJ+88zf8lfIP7Nv7C+leP7W88aeLbW+03wjcux0bTZJNk1wv99q9d+Kn7J/7Pnwh+G9x4g160ls49jJbLJfy75n/uLRzTtcND2C7+P3wqtbMTz+MtL8v5f3nnmmSftDfCczW2zx9pYt9nzyeea+JP2S/wBiT/hcBufFvi6K60nwSN32a3zsmufevXv2iv2Yf2evgT8N5NVv4b6PUrtGTTLX7Y7yzvS55WuFkfQ1r+0t8Jo72RD470rYf+Wm81Vuv2mPhPHceYnjrTdkm7ZidK+OP2Sv2CU+I1mnjPx8lxpnhab/AJB2mg7Li89z/n/63pX7UnwD/Z7+APgeN30CaXxLefJYacL6Z3ejnla4WR7JH+098Kr29IfxhZ4Kb8+emaJP2oPhAm1v+EytMf71fOH7MP7AWna54fXxR8T4LiCO6XfY6JFJsfb6tW5+0L+zr+zx8B/Bclze2V8fEV2mbHS/tzvcO1Pnna4WR79J+0x8JY7Pd/wnOkk+uKsx/tTfCK3e3j/4Tizl3zNa18wfslfsF6frujjxZ8S7OVLO8j/4lmiZ2M/+3JW3+1R8K/gF8D/BMulQ6JDL4zvI2+x6fbuzzIzUuedrsLI+gpv2qPhK2oLCPiFpoj+bfJHVS8/bE+Cdlapv8dLKHTHlxxPXgX7Kf/BPWwl0GHxP8VbCdpr4b7Dw7v2MF/vT1S/a9+FvwL+F+jr4Q8I+FDe/EbViqWdvbXMrvbZ7/wD1qOedrhZH0Qv7YnwUaBp/+E0judi/cCutTal+2T8FrOZ8+LrU/d/d7GevMv2d/wDgnv4V8KeF7W6+I2mtrfim6bL6fnMdotch+1F8Mfgz4VspvBvgnwtZ6r8RNQf7Pb6dowZ5bb/akp807XYWR73/AMNkfBNfnj8YQlN2zfFA1egeAfiZ4a+MHhmbXfCV++oabHM1qzyps+cV8/fs6fsB+D/APh9b/wCIljD4m1y6Rd9lN/qbavo3wn4D8MfD/QBo3hXRYNG08ytM0cY4dz/E1VFye4tDdRSLW1j3f6sf0qePHNRU+P5crViHNT4ZPL3f7VNpON1ACKp3UbdrU/8A5aYpG+ZhQBJDKVbbU8NRW6+ZuHtUsUVIZNbyZjpl4T5kGP4kpY49tS/w0gKbxSZGelRTLtOKt+b+88vFVrhgzDHpTEQbqTd8tDD8KOlMBD2pD8rCpD2pHXkUAC9acvem9DRmgBVFJjmnJ71M0I8rIyTQBDwD7VJIF2j1+lMKnbuxSFulACMBj/61R4/Opuv1ppUZoAjAHJ701l2inbe9HDcYoAj28Yqezh+ZiwJPZaS3hLzhOrEZHpXEfG74x23wd0yysNJtRrnjbVj5Wn6YnJ3HgO4HO3P50m7DL3xW+KmlfBnSGu7r/iYa5efLp2kw/NNPIeB8o5xnqa8/+GPw91IaxL8Q/iAV1DxpqA/0WzkGY9OiPRVB6MB+X1qP4WfCO88Oa3N418f6h/wk3xEvMsit80Omqf4Ix0BHTI/CvTJJJG3Ty8THnrzSinLVgLcb9/2iQs8hP8QyKrSyBlfeS57c0rTllbd85I5qr1UnHStRC/ejzSsVaNR7UzI29KO1AhtHekdti5PFNj/eKDQIl7ippcqAp6/Sovu1JKxkkDtxu5oGaMIMcC/K2T271Q8QOEs2Afnaetankjb5OKy75/OQfSgDJSHNt5ac/NirFrGFhAbrSSEWsWQnFL/AlAifcM4pF3PNsC/SmRsGbdU9u23Mo7UAS1dt/wDj3qtDBIakt/vflQUXbcRbGjdJAP4JCP8AV1X/AOPX3FWaq3PT8KAHXGZVs/KH7tN2KsVDD+//ANbFii7/ANVJF1l9KAM3zDt2e9RtVm8ZpbjznH3qr0CHW8LzzLGnU00MysV/utUv+rjqJW2sKAFZiVAoVsFaaW5NPVztj9qAETPmDHXNWPJPpVeRcMak/eQH0oAlhhP2mOM9JKdHZNFdRgnjOajhuFWTJHFaMkyCSSXrigZnaiE+2M0bZFFt/q5fpTZYyp/1eKi3bWOKBDfWmpToyrMNzfJ3pfKEbMnQpxQIj20N8yGlZuwqusDvcxlnb7On3x60AOX5MtUY61M1VhI+aBjv+mdQXUzQmPzP9VJwatPtqndKJokP/PPmgZJ8nmeZ3pJrXzoZB61Wh8weXFLWj82zalAHPqfOuoP9+r15Num8mmwxtaanHGE4IqVpILS4Nwe/FICGGDFX5f8AlpFWdp8vkWMsj9M1o2p86GM0CEsYUs4f51Yt5FaZgOtU4pv+JfJLU+m/M0j+poEXj2pynbzSW/lu0ik4NP2fPTGizLauI0kk/dUulx7pz/uUXOfKgkk8zmoo5DLiOgZbtVMh8yOTFaMclULNra1t9if8s3qxazR+ZxQALv8ANl83pS0+b/WVXb/XQ1IFq3j2yUlxMkL81DMHh/1cnlCqsv8Arv3sdAFsw+dVv+78tV4T50NWaAJVaiKPy3ZqbUrOiLSAYv8AFTl+9tqOGpYvvCgBWqS2X98Gpu75qcnnbv8AYpAXdoqxzVfmpqQE1u3ylalqvC212q1SAcsYZUZae1JGv7vbtp1BRGzZpY6T7y0q/WgB69qNxoj/ALu6nUgJN33amjztBqD+78tTxt8tSBLE3NSbdzVCtTR43A0hlmH5akqGOpqlgfLtOqUxebJHHVx7dIq6zMikk9azvN/zmrs3+rNZd3IxT5ExQM1LWTzrKl8sen6VLFH5enQ/7lSeVQIkjj/d02STFO/1dNkjWTZTAb5VUrfd/Z0Lv+6etDmoZaQFS130+SKl5qaL99TAgjkqGWj/AJaU+SkMr/P/ALNVJLcrVv5/9mlm+6aQGbRV7yo/J8yofs6/3qAK9SeX+7zR5VOZTJA8cYpAQqfM+QLSOnl9eKsL+7jVKjl+9QA1EMnSoLj79W4Cd1VpmeR8uaAJkH3a0IZI/Ss5ZG+lJFeeVdKn8DrzQBtWklWvJTzOnNVbM/0q75vv+tUBnXgPnLRp+ZvNFTzRn/W55pmfJh8qKgCX/lhFT4f3MNSx0k3+pNMDF/eebJ/Wp4YvOmjqxHshtZLY9aoQzeTUgWI4xNf5jrxH9oj9o3XND1iD4YfDmyuLjxnqH7ma4jT/AFO6vZ4ppPO/dVd0vS7O11yXXYbCGLVJE2fajH86VLTasgOA/Z9/Zy0r4C2/9o6g6a38RL1f9L1KQ7/s27+Ba86+Pf7Q3ia9+KC/DP4a6Y0XiSN/s82sydUzX0oIxJuqqul2cN897DY2sWoOmx7uNP3zpQ46WWgXPOfgR+zzpnwNgvdQnuP7b8aXvz3GsSdv92vO/wBoT9ojXvEerQ/CD4T21wdbvPk1HVPubd1fSrbo0yKzfD3hPQPC+saj4g03Rray1zUVVLy+jpOOlojucd+zv+zroH7Omiskbpq3jO9X/S9Vk/g/2I68W+KPxa8YfHbxtcfCf4ZxXFjZ7vI1nVpK+sVPSqmg6Jp3hmS/udPtFt7zUH33E9DhpZbCuYXwi+EPhX9nvwn/AGTpJTzxF52o6rJ9+Zq+dvEnxL8c/tWeOtQ8GeA3ufDnhNJPI1TWJPl+Va+r5svGZiz/AHlSqem6baaF9rTT7SGyF7O09z5Sbd7H+Km49FsFznvhL8KfDfwV0ObRfD6f6z57m+kj+d6+bPiF8UvFf7VXi9vh78MIrnTfC9q/l6nrEny19e4B37H/AHmzZmsbwv4R0fwBpN/YaBYQ6bb3s/2q5+zx7d7UON0ktguUvhR8PfC3wD8IJo2hFIo4/nvtWk/1109fOPiHxJ4x/bv8bf8ACLeHWudE+GGmT/6dfSffmxX1QsvlyY2JL9DWn4W0q38O6Xb22jadDptlJeefMlumzezUON9FsO5DpHh3wz8GfA6+GvDumvb6Hp1u73Hlx75rjam7d/tvXzL/AGr45/bp8VRaRa2954Y+Emmy/wCkSfce6219jSSfvN+/iq+j2Fvpdm8FrDDbW8bs/lxR7Eocb6dAuZ3hvQfDvwt8HrpOi2iadoGlxNI8dv8Af+X7718qa5rHjP8Ab08Qvomhx3HhX4P6bPi4u5Bte9/z6V9hRwoY2jdUkjdXR45Pn+RqqadYWmjaW+m6RbLZ2m5n2WyIqb2pON9OgXKHg7wl4U+CPw9k0zQbD+zvDunxfaZ3jTfLcY/javlD+xfGP7fHxJkOpJc+GPg/oM/+qkyhusf1/wA/T7I1BPtGlvbdY3i2NUlog0zSbbTbK2+z2EHGyOhwvoFzMtIdH+HfhmWw8O6Slvouj2/mJaW38e3tXyH4f8I+Mf24viB/wkvi+Kbwz8MdJm2Q6afkM22vsebtVmJfJtYraCNLa3j+5BGmxKco3C5TLaZ4L8Ky22mWSWWg6RZu6WNn8n7pE+6lfJI8J+NP25PEEN/4lS+8EfCnTZs2+nH/AF109fYtqNi42IItrb4/v0y3ih07TUs7WPyrQMw8mOk430EYVxfaN8Ifh5dLpOkvHoHh+z3w6VZR/PLj0r498CeA/Gn7dfjweLviCLjSvhlpUrG003p5h/ur/n/6/wBvQzNb7v8AbUJVOz2WNjFZ2yJY2cC+WlunyJQ4c3oO5JGYtD0f7Lo9klvYafbbLbTbf5E8pE+5Xyro/gbxv+2F8QH1b4i2154V+HWkv/ovh+T5Hua+sPMljbEGDJ70uE8x5KbjcVyO1isfD+jiy07SXj0nT4G8nTbMf6xVT7i18jWvw+8e/twfEVtV8aW1z4R+FWiT7IdJk+R59v8AX3r7DWMeYr96ttM32dYVbZAP4KUo82g7lTRNPsPCOjaXoOi6Xb2Wi2Y8tLWPoqV8h+HvhV4w/a2+LWpa/wDFJLnR/AuhXbQ2eix70S5Kv/n/AD1+xVpZHZ4dn8FDimFyvb2cNnYw2WmadDb2Fkn+j2VvH9xR/dr5M0/4U+M/2wPiVfan8RTN4e+H/h+6aOz0MfKZnr63Rz95acrbNyqfv0ONwuUNPtbXwvpun6T4f05LbSLMcWtmm1W218eeH/g/44/a4+Kl/wCKfiuk2leBtFu3jtdEh+XzirfdX/P/ANf7RSV43V0ampNJ5zJQ48wXKmpt/ZPh02mhWcNrbWdqUsbKBNkSMPuJsr5Q+G/7O3jb40fExviB8bwsWlWEx/s/QC/yP/8AW/z9PrWaTCLU1xIzW+xn4ocU7CuRX99PNaulrbIq28TfZbaP5EXb9xa+Vfh38E/Evxy8eXfj74yrnTdMumtdG8P/APLH5a+pJdtrYdcSOP1plhI0tlGT9KbimBV8R61LovhDU7rTdI+2nTLFvsWl2/3JG/gT5a+XPhX+zn4m+Nnjq4+KXxygkWWOUx6X4Yk6AL6/5/8ArfV3l8SR1Lv+TYlDjcdxNSur5dLvG0xoY9QhtmSyjk+WFGH3K+WPhB+zHcy+K7j4nfFvUE8TeJp5mextMs8KV9STS+TZSSbKxdSvA5SSbjim4pu7EVdd1rW/7F1jUNIhtr7XIbVns7e4+SF5Vr57+Cn7MN/rniZfiX8YX/tLxNJL58GmyMk6fl+VfQqt3WniR5AiZ4XpQ4pu7APHXiDX7XwX4i1Tw/bR3uuW1m0ljb/f2NXz7+yn+yzPpsj/ABW+KW/VvGmpu09nZ3nzvB/tN719IW0b2q70l8mX0NbIDNt3NScU3cdzk/i9qnjJvhzrdz4JCf8ACTJBm38wbflrzP8AZX/ZV074M2sfjHxTt1z4j6humN3cfvfsO4dBXuJk/ePsf8KW1keUfvMS/ShxTdxHLfGKLxlqfw31CPwRfQ2Xid22edP/AHG9PeuL/Zi/Z/s/grotzqWsPDrnjfVZ3+0ao3z7E9K9m59qRI/3m+jlV7gS7i/zNSU+imA30pU+8KOaNtMBW705KT7q0seHWkA9KGX5qWFt4xmlcbXK0ANSrMUVVdM/eahPv6VeipDHvUkf7yD3SiTbTPNSpAqSR/vMR03y/wDR/Moc4VkpuMuqVYiNcUn3mqZx5a1FHGsS0AIwO/FI3DYNPhbdOn1pGXbmgBv3mo70sMZk5p3ltuxjmgB3lnbuA4FWP9ZAcflTxH5kb7V8v602EsA/FICORNkYGKiZdx4GKtSfvN/rRQBVbA4IwR6UkiEjipLrdkbam+b2oAoxgu4RRlj0qS1tXnm2xgs3r6Vd0+xka+LhcCvnP4p/GDXPiZ4x1P4RfCVTDexnZrvis/6vT4/4lj9TScrDOz+IXx1sdK1Z/CngaBfFnj3H/HnbfPFaDvJMw+6BWZ8O/hY3hnVrnxd4puz4g8eXozJeyH9zaA/wRegA44rZ+Gfwn8N/Bjwy2g+F7fMs3N9qNwf9IvH/ANp66G6ZbHyY5JP9Y/lpTUb6sCTyfMV2Y75G5JqpJMYWIPzP61d/eeT71Xm8vz460EVXO1ldhhWPAqLBwSRgGrt06JZtI6+axPBqiDnFAhY42kYKByaTFORjHICDg0FvmJoAq28xvOEQ1NDCIAABSxrsNSZ/26AEVivC96c4eLbnj0p0VPmmJoGTf2lcTDZIf3cnHSqd9/q4fpVvUJEaGHbWTcRySMGU0CJVKuFNZ1n5/wBquPM6b+K0tx9areWiyvP5vGMewoETLVq12+YPM6VW5q5bfeoGLdRbfL+lTWU3OKbff65Pp/WksvvCgZc84elRXv3R9asWs8bSRj9KordCaM+Z/re0tAGjax+dCKp1ftd/2UZfNNjjoAzLr7oqp0+taU0JmnrPmXybjyT/AKzbvIoAtXLCPT1Bj/e5qluHpSTMeM0za1AiRvvMaRc4prOqtt9acrc0CJGVozg8VZhn8mLiqpJJoU7mWgZat5IIv9YM1MtxI2mzuecnFU7jZ5p8vpUcjs33iT9aAJmkMseKrSMantkUuPM/1feqrMZoWYd6AJFXzI9w6VNMNwaQ+tNh/wCPeL61LN/x6Q/jQBU/ipkm7Zx1p7dRVa3nF5BIR64oEL5g2PRkeX/uVA25rN4ehkGKljUYoGOmG9t2fv1VJ86Xy6sSfu43qKOPzd9AyGX/AFJqVZALeBN/OKh8lP3c3mVUkiklh5kz86UgLN3M9rcfuhmU0l3DHNzLx70uqKkheQ9hS2v72a8oArSR+ZayR+b/AMtKnmleGGSOKkjjEl1HHH0FL5PnXmTSEXbQf6HCuzlUqdFEbfJUYIW4mjx+9t28unx/3/8AlnTEXIUzub0p0bOJPMqKFm8thTvm20xhczmaUGn29RKxZlVqnioAv/8AXGKp7WPzvMqp51T2rP5P7uP/AFdAyz83tVaXzIZqtfJLso+eT2qQKljJ5c08cvWSopIppY4/LHlfjUsu+a+eOM1J5Pk+XTAki396t81F5dS80gFSm7KjkkMd4n/PLZ89Tboj9o2fvI4fvv8AwUANSpKav+u2051b+GkBKq1Z3fvmWoE+7UwyKAJ4/wDWU6STy6Epk/39+ypAt267wtWl7VXt5hIN61MlIZKrfLQzLDbuV+TbTKJplghkkdsIq0DHfw0sdIrblojWgBy4WRv71SVCynzEXPf5qmVaTAPlqytQKoVqk/iWkBZWnqah+7T1qQLqv+dSg1WhqWNqko+b446dJ+8oj/1dLXYZEPZKYY0lk8urMn8FU/8AUy0gL3mL9yhKEqb5aYEdxJUv+ss9h7ikkqXd8ue9AFaT+GmyVJcSfu6gloAi5pUpsf3RUsdvikMh5qO6/wBdT/30Mn+ro/10tAil+7/zmj/XTUktrJ51W5LWOGgZB/yx/Cqf+pn/AOA1sbPN02R/asSb71JiF8ypY2NrE/8A004qqtXYfvCgZU2mnVZ8k+lOtbV5qAIG/wBVVdvvVcmh/wBXVVI97gUgIfO2y7aPJDy0f8tdtSKvzUAaVnNWnHHWRafdNacUtUBY2msnUAfOz5lX5ZqoXkdAGhDN+5zS+d7VFDJ/otvH60sM1MCn53nUsOn+fDnzKtTf6n970pYYf3NIClZ9q0pJDCY46zbPtWl5x8ygCS3B21ZWoVJ31Nk0xEFwfLap1j+Vagk+aZKsb6BjakbG0UznatSc0ARn7tR1K9QwrvjoAey1Vl/1wq0fvVVl/wBcKCSreN5PlVo+GLiaa2uf3knlx1h6hdCeWPy62fCm77Dc70zFv5pFHSmaOarFq/7t46yIfM86tePrQBPHQn8f+7UUVNado9/l/wDLRfLFIB9tG0Vmkf8ArPkqaFKitg0USRnrGlTJ/q6YDJ4170R0PtojjoAm/gqn5v8Aoue9Wn/u1T+zvDFANnnYoQDPtAokI86kkH73/pjUsopgEZ/eVP8A6yq1qP3pq4lAC/3akpqttpy/Ou6oAKRaX7lRq2aYEy4WNt1RxNvpzNSbaABfvCl3baVfummtQBCIRHupfL+TFSKuaim/1i0ARXD+ZJGBViOGOPoKjmXbMhqUMqfepgVpKXzPK606TZ5ZkqnN2oAfqEn+iyVh+S10pyM1oN5vl1XPSmBGlrJDHnGBSR9qm/efvKr76ANS8hxF5tXDF5vtUHnfuYqmtP8AUigCSNfJjl3/AOqSlt5GlGaXjyf99qZbyo0kgHUUgJIz5tTx1BHH9+pVj+ZaAJaRvu0tO2tt6VIEX8NSbf3YpKGzQASf6tvpSRpsCrQzN5W3+JjUq/eKrQAK22nzMizNs+cVEfMSa35+R22v/sUN8rcUAIGaO/SdV/g2NV3y/K/eRvVbmrNtjyV39M8UgLEn7yOorjZ5nNN+byT5lRw0DCSPFNjhVpME1PM/l3Ft8nyfNuqLzE8x/SgQ+67VUnPlyba0fk8z3rOn/wBcaAGxqVapOaEkaGNmT79Q6R9p/s23kv8Ai8fdvxTAsR/6xdnWp45P3kklVuant9lAFiPf89Mt9oj+/U0e6jyovM+5UgQrH5UlOjk/eU6STy5Iagk60xkEYeWrtrC0h2+YqHbvZn+6q1DDbiKOaaR0t7aNd80sh+WJf9qvmvXPH2r/ALT2sX3grwBcTad8O7WTZ4g8Yfde+9YIP8aTYF/xx8Vtc+PWr6l4B+F19/Y/hqxfydf8Z/3f70Vt7+9d38MfhvoXwn0ZdG8OWf2a0Vfnnk+eW5b+9I9bHhfwTovw38O2nh3w7Ypp2kWf3If9v++399q3GYO2+nGPVgVn/wBcn+5UJjhmvldzzHVq4j3DFJFHiJBWgitqEf8AoP8AwOqk00gh8sD9z2NT3k3+qEoqvd2m3kUAVZdu0betR/WjnbxSKBgDtQITvz+FL/DStjikXtQIYsnkyB84qPTZBDpsdsJPN8l3Dn/ebdTbqQbtnrTraH7NbbFX53fzH570DLoKrGj45D805ZreK8khkGV9O9VHvUWSK2J5OSBTzz1oAluLhZtuwYj7VCy9xQy9xR2NAiKT7q/Wsif/AEfmtr7qrUc1mj5JHNADI7tXjQpyDWjpu64w69MZrHFpHBF+6HFWbGSWFRngjvQM0ftJEjn1ptMi+9R5hoGSfaI4JELjIFWo/LuprUJ/yzTmqbQljxzUxiMcZOeYjQI1qfJ/x6pUdh+5sRTfO/c+bH/qqQyKs69EUniFZJHkASDyzU8k3kwgd6pTKZNUu/Td8n5mgCGY7h93NP2ijblqOjUySG5ZYyvy/O/G/FRzSi1jed6tfe4prJwBQAB92OKduG7bUa/ep235qAH+9T3UPkxR+4qsJBmtMSw3Um248zhP1oGUNx27expuFX7owKazbacFJyTQAuTjFNZuKSnMvagCNVHJqtkVMQ3yY+5v+aq+pN5LRDH+slEZoAjEvnQiT/U1FDNu5FWPKTy/L7U3y0h/e0DHyR5pnmf6Hcf7h/lRJcY5qC3vHjt5mljwWNAGfDE800flVcmh8kxY9afYQ7WjNQ6t+6EfpvpAPmh8kxY9aTTYceZ9al8QKsMNsd/epdLHl2goAbBbov2mSP8A1rrsq3DEkJUCobb91vjerS9qYg8kMz/7dLGm2MJ/d4oi8xVkZ8fhSR8srUASquwVbNqVsRcZ74qr/DUkx/colAhI1y6inxx5/jxT7GF5s4qaa0khoGMmmq3DN+5jqrVqHvQMtGUQ+WKk/wBTH7VD5NTxhIY8dqkDM/efb/etb7kivVPTY5Yo5Efh99TfN7UATv8AfplSb/LpyUALHH5lSLbZtpIX6bfnSmbttPV2+b/aWkAyGRZFU1J/FVWzjkit0STqKs0ASo1WF6VTT71XG6CkwFjkqy8f2ioLepY6QFmFd0NTLUcX3BUqqN3WkMKG+b5W+7RTXoGSrHtp9MX+Gn0AFPHz1GrfMV21Mv3VpAIFqSmAnvQn3lpATf3anj7VHGvNTKKlgSrU8fysKjj21YXHFSUfNUcn7tKm2mqvmPS+ZXYZFh6x7n/WySYq75nv+tEcX73zKQFy0jeONA/Wp+ah87y6m/g30xjURqdsqVfubai5oAqvTJamqC4joEOt48R4p/8AqqdbpiJEpbj93QBTl/1ktPSmyfdNOSkMSQeTUdLdVVtf+PqSOgRPLJ+58uOqF5buuzPNWP3kM3qKkm3zeXQMzI4SdlWfJf0qa6iSo4ZvJpAP+f8A2akqHz/85p//ACx/CmBUm396pSI6NWvH9ys28JkunKf6vPFIBqr81SfxU6BN0gopAJ5xrXs/9SKzRsz+8qe6usxxxxDyoaYF+aHNSRVT83z4TF5nNWPOFMCaiHvUXnVHa3WbrFMB8w+U1Jj93Unln3peaAK3k/ucUQxyYjqeOOpPL+dKAJUp3FIy/vVWhV+agBKd/DSR/MzbqI/u0ASfwUtN3Uu40AMkpFkZf4aeys/yrVO4uorfKean2jZv8ugCR7tVrI8+Tzpat+b537yqgHnwy+b/AK+kIrra+dLjOK7XRYBbWp+bETpjy6x9JtUmhicDkitzTepoGQY8mRK2f9TVT7D52y48yn390nyR9aALEkkgl46VUh/h/CpLr/WU/wA1PKjoAseZ+7zT428uFHk4LtVWKZLiGT0pfO9qALTbd/yVF5jeZiljkzUcY/0o0wJY28ySSoL28eGOZx9BUcdy8fmeWM02aH7bSAf/AKmGOiaGo5KI6YD7GN5vP83/AFVTabJuWkVW/s+WOLruXH6U6xkQySYpAXJfkMdLu31Bd5822/25dn/jj1Yk2pSAVV+WmeXSmTYtPtv3m2gCrcbu3Spx92m25Z5XzUn8dACR/dahqFpGXFAC7glVxJ/pDim3l0LfYS+Ky/t0nnUwL11c7bq3HY0l1J5q4qlcyZuLQ789KvWcJurtJX/1SfOPxoAuMvlwrVetSTay1SltwtIDPvPums2r17NgVnrGZTVASQXCwXGP4c0skZFwoP8AqvMwDVfndVjfHQBpXHaks5cw1BeyNatBBt7+Y8n41fj2dqAJl+fav+1UNnJ/yz9KmTbXPeI/HGhfDvR/7W8VajHp1gjeX5mzd89IDo/9XU8deYfCP42eHfjtqPiS58KSzPaaHPHA1xIm37Sr/wB38q9Q5qbp6oBKnWbdb4qHaWqO3lMkKN7UAP3e9DZ27qPL+XO6kC7htNAChdka0tqn71vnomx8u2mrQBFa3aXPmgN+8jbDpUyqzN8tOX+Jv42oUfNuVqALMnWn2P3XqH+GiNTtlROaALPk0RxJ9arws8akipYon8ykMsyR5jxWc26r1y+LfZUNnH3oEJaL5il/Sq038LVLCzW5zUVwoZzj7lMBYvu0+OlVDGiGo2XctAE3lmnw0yn+W/mJ5n+roAtRx+ZUUdTLFI33TinW1nKszLsbG2pKIv8AW+W9PkWOCzluJ3iggh+d7id9qpVcsum2M9zfTR2mn28W+a4nOFiVf4mr5S8TeN9X/bI8VHwv4cmu9H+EGmyf6fq0fyS64y/8s4vak3bRAafiDxFrP7XXia78OeGbybRvg1pUnl6trcfyS6zL/FDF7V7v4W0PSvBuk2WiaDp8elaNZpi3tYx/483+1UGgaDYeE9FsdC0i3h07S7JNkNrb1sKqr7U4xtqyRknzz0ybbG3y1LJ97bUE/wDqa0AjeqV5vnjt/Lq5JJ/o5PtVRvMmpgJNDHcVCZv9Iq/Hbzf6zPNYs/8ArpPrQBA33j9aGUo200FvlPvTocvMO/NAEkVrLL91af8A2VcbWTymevn/AFLRtf8Ajh8efiLZWvjHW/B/hXwsttp8P9kP/rrnZWpZ/sz6nIN9t8ZPGnvtXFZ8zeyCx6jbw3zSedJZvFEjVqNG0bEMMGvGbz9mO8aHfd/FrxNN5bfIlwvnV694Rgaz0tLW9mubmSFFTz7755nqk31QBNarNNFIR88Z4qWil5qhCMOlL/Dx2pVpG+4aAJZf3+mxXcamWQ/f5/Kq8beZCpb0qaSYSQxosQjSNcUxVAWgBjAbtuadHHhRnmk4Zl+X6VKyYlkHvQAxWqaz8rftk6UiWc0qqUXIr5x+Kn7ZR+HV3Y2lr8P9ai36mtr/AGnqv7m2mVfv+VUyko7jPpqWPztTQRfWpm/5eKZPvsb2M4wJFWTy/wC5uohuo/NP7ziqAmuWSOyjT5/3jr5lSXOBYIgP7rZ1q3HVe/V5oSAKAMaX/WL+FRspZge71JeSLuO3pQqu6o8Of3nHFAFC2j8rdUkjbRurN1DUJbe8WJQMGtVWPlyHPCLl6BCUxf7tEO5oUZ1xJt5qC8uGtyj9qBDrhmjRG/2qnjkEoUimq4miyh60sJ2j0oAZtZmqZXb+ItTWXaat4zH5shz6UFFee1WS3Ezj92rqoz/fp/3lpu/cjJ/BnNME21c9KCR7KV6jBpJAVZf7rdKiScSyFA2XFK0reXGu2gBGZVxVS8txJJHPnmPlKW6t2uLmE54jBp1xCGgWPtQMilok30Q/6uiMNH+8L5FAyWT93VeKz+0Xm0jPpUtx92pLP93cPHsw+xNlAFa2xDJ5VLLiYVLDbpbXLqBgmo5IYvO83e4l+tAFfXpt9vb+5zWgUZ49iVQuv3Vr5Uf76WWtBJC1sTH/AB0gBbfy48O+afGuKRoxtWnrTESH5oytRqmzbUv8VIV5+lAh0eC3LYHrVh5M24HvVdF7VPHnP7ugZd06QCzX61LNDUkvlw0hjeSTy4zgUDKdSR1D9ogsbe2e+u7ey+1S7IftNxs3/wC7V0R+TJ5YpAOqaofOoqQJv9VR/raghhqegCxspu/51pyP5iVBN/rIP9/+lMCbbvqZu9Mj6U5mO2kA1fvU+mL/ABU5d26gCVF+apm6VFC3zVYjTzGoAhbd3qfzPuU2T93JTv8AllSAv2b7htqxVSGFvsyj/VvU9vCIIVTcz7VqRk3yUxqWigB/92l3bZNrUKtHl7mNAxFX94zbvlxU8bH7v92olqVfl3f7VJgG40K27FElC7uKQFtPlqaP7tQRtUi9qkZZXtUyfdFVl+arK9KlgfM0n/LOpPm9qn+zmmeXXYZkMVWKijjxUtIY/wAvzOelWV+4tU7eXzHq4u2mIS4/d21RQ/6lac9FAx2xdlUL6TyrOQpV2qdxHmPFAgtpPOjQ7KkekgjqXZ5lAFG3jfzP+mVWtlOj/d0b6QFeSP8AKqVrv+1SVqSR/u6r/Z1ijSON6AK1O84+lNp3kn1oGQf66WqN5qljHqsOji+h/tCRd/2XHz03xB4hg8H6BrWu6i/l2en20t08n+7Xnn7N3hmT/hE7v4j+Iy994s8TtvtpLj/l2sv4FWob1sB6fa4hU+ZHmmQ6lZ6lq15pMNyZdUtY/tU1h/H5VF1qlj4d0nUdb1SZI7Syga6m83+6tfAnwx+JmveEf2ovDXjbxNc3GkaJ4nn8/wAyWb5HsJflSlKXLYaVz73i39R0pLS6ttQR57K4W42M0E0cf8DL/A1X9bj+y6nMibDHJtdJK8I+KWpTfAbx5o3xA0mHGh6vdLpfiDTf4HZ/uS05O2oj2q3jdt+Ks+R/nFWru3WO48yP/Vum9P8AgVUf+W341QEk0P7miapKgm+8aAI4pKtWszyyfu4/3tVhH/ozmub8aaL4w8R6Cll4P8RW3hy8kf8Ae3dxBvpAddJceVcBH8v7TH+8e3/jqSxmSa6zXyF+zfceLY/2ztd8OeMNcm1+80+zvIHkkPyZ2V9K/ED4jWvwl+Huv+LbnYPscbeTH/flb5USpjK6uM7S4lt9N2fary2tt/3PtNxsqWMxyRo8FytzH/0zk318qeAfgBc/HjwL/wALA8e6jc6n4k1qOSfSrSOd0S2g/h+7XVfsVeEPGvg3wn4ssvFtvNHaefANOkuKFJtrQLH0Pg0YNLaqbmRY0dDJTbQweRxdweXvbrOlaki7fnVs/dowWlb+5trC0Hxt4V8Qavc6XpfirTdR1CCLzJoI592ypZ/F3huLVTpv9v6Ubv5UeCO4V23NSugNr7tRx/u/lqSa1nhungMXllK5qPx/4PubiaxTxTpX2yP79uZ1ouM6TcPWnqv3a83+IfjnxNoMekP4L8MQ+Md6tJNJFMVTZXJp8bPjAkiOPgpz/wBM701LkkB63r1hf+JrF9N07U5tEkeXy3uo/v7a+bP2cNE1nSf2rfiZ4f1/X7nX5NI02SBLiTvX0H8L/EuveJrH7b4k8NP4YvPtnyQfe+WvHvg663H7cPxudP3mLSolq0xnuvlir0ceKqLvIfzI/wCP95VuOTNbEMfZDyTWzYNBD1PO/is21j82ZV9a0vJjgmoGTTf6kVSk2eZBVmb/AFNMm8ugYTTfnRfSRXVykicx+T/jS+ZUc3agC3aRpDa5qD7dUU0tQyMkfQUAaGm3RmuSDUqttecHn995iVQsG8pian879970gHUUslEP+sT60wCSmTS+TDFU8n+upk03k8mgC3GIYQm/rVNrdpL6NYz5sofJqHzfPuLXzB+638VyPxq+IafBv4NeKvFu/F3DH9m07/rvL8qf59qTdlcDeufiLpt146uPDOnma+fT7aWa/uLdN62rqv3P97/GvMtX/bX+HPhnVIrPVhrdlK/3Ibi0Zd/+7XXfAfwSnwx+EOjxO8suvazGup6nfN/rZJZfnr5i/wCCgkVs37QXwW8wrHE8Ufm/+BQrCUmo3Gtz3Wf9tDwIHf7VoHinT7OP791caY+xK9Z+H/j7w18UPDH9t+EtVTVbNG8uUj+Bqd4w+I3gzQbDUX8Sa5o9toXkMpju50begXnaK+Wv+CcOh6vY6b8RfETWM1j4U1a4U6YJfk3tvP8AQindppAfSXhX4laLrnizU/CpuJrPxHa/Otreps+0xf3o663nd81eEftcw3mj/DmL4g6VhfEngnUIb23uuN32dn2ujV7LoHiKLxV4d0vXIV8u31OzivVT+5vTdVp62YjRVhuqCZmkk4/goikBmWoW3/aJ/THFWBn6goupEkEnB4pkzC45zV6G3Apt55cHlnFMDF8Va/pXgjwxc+INd1BdIsbJcNNJXmq/tleCbez/ALQm8M+LItDdvn1iTS9lvXNft3LfL8K/C+o29tNe6PpGvQXuopF/z7qldZ4s/a5+DPib4Dasthr1tM11pD2Fvoez/S/OKbUXZ+VYSk72HY9z0nWNO8RaHaappN7DqOn3S+ZDdW/3HWi5bbCTXmX7Kvw/1X4Z/s6+GNF1tPs+rMrXTwSHfsDvuUfyr0jVtQXSdJu717ee58iJnWC2Tc74q47XEYk+c9KgjuEW1kXHWvCbf9uHwhqXiSbQ/wDhEtbj8Qw/INNij/0id/4E6VSh/bT0nSNWvPD/AI/8G6x4H1Ty/PsYx9+b/Y+Wj2kR2Z78rNcAu5zim/x/jXztZ/tppouraLF4y+Guq+DvD99L5MesXLvXtvxW+IWifB/wbd+Kr+U3VhiNLOOP797LL9xFpqaYrHXaw4+3W0h/1TrUti811cEngV4F4q/aG8V+CvDr+JfFXwn1Gz0iOJP36T+b97++rVt+JPgpp3xotdG8SP4q8S+GI7qzWaKPR77b8jpu+alzdgPdo7Wby2+Wq/8AYtlq95YRanp9tewNJ5kcd5AJlGUr52/4Yj0ALl/iT44/8GAr1PQtU8Lfs7+GtLste8UXz6XYfuorvWH812Zvm+Z6V31QzyP9hy1tLHxh+0Da2USRxQ6/Hsjj/u5k/wDr19PFj8tfE37Ffxi8K2PxL+L6XF7LbW3iHVVuNPnMDsj4kI/rX2y/ysFqaewMczGovm+6tP8AvrRGrbq1EP3bV+amxtlTTmb5aZH90UgFYbqT7i0L/rGWnsqO21qAHfwik3UtJtoAerfLQrfepsD+W2KfsoAef9XHVu2+7VbcNi/89P4n/hSrNuPKpAVvnkj8yiOTFW7seZ5b1Sj/ANYn1oAn+ztVdwbdcP1rQkj/AHlJJD5lrii5RmFi9Jg1c+b2qGMPIjOjqNlMRyHxa+KGmfBX4d3nirVbeTUP3i21nZRD57md/uJV74c+GvE0Og2914svVuPE+rN9pu4Y/wDU2an5lhT6V4d+1XrEGrfHr9n3wNdBTpk2rLrNzz8hVGwB+ea+hPit4kn0T4c+N/EunFbyXT9Fvbq3jj/jdYT/AFFZc2rGfPGu/GLxR+0P8ZtS+E/wv1RfDHh/Q0La94oXDzvg4YQ/icVs/ED4IeIPhL4J17xhoPxa8RJc6TbPOi61d+dBOyjvXiv/AAS88YaD4Q+GfxY8R+JNSjs4Ybu1a5vJn+YJtb+pr1C30/Xf2wPFFr4l8SW82g/BnTZd2k6K3yvrRH/LWX0HtUJtjPA/gJN8WP2x/DuuaP4n8by6d4Ijvmm1GTZvuZWb7luv+xX0X8B7yT4N/Eef4N3twb2yms21Tw3flNrvF/HFXqHg74X6F8OLvXn0XTf7Pg1q5W9ng42I+yvn/wDbWvD4J+JXwE8W2I2XsesNaY7PFuj/APr/AJ1XLyq/UW59Rwx+XdTH1b+lXNvlNTb61S11S5HdmpJFb5fm+fbW5Iz5fOaq1x+7V19qvMo+aqH8VNARQxYhqPTZFmuJN5W3RNzzPI/yIi0v7zH7qvHPi9rF58SfFlt8EfCdz5LzIt74r1JBv+y2X/PBW/vyUpOyA5L4b/tOTfHD9sO38M+Hbl4PA+k2c/3f+X0on32r6DuovJupD/t18gfB3QNP8Jf8FLPFmkaYi22n2uneTbx/9uUFfYesWs9vNEZB2rOnfW42UZo08puec0ttNDp+/ULr93Z2sTTzSf7KLuovNZ0S1mXT7nVrCK9mVHSAzpvri/2jdS/4RX4A+MBBc+VqF1AunwxxdfNmZI1StG7K5PU5r9mSCG3+C+qeNtUzF/wker6j4iuLj78n2cfKlcv4P8W/Fr9pCPU/Evw81rS/BXgy1n+y2MeoWiXE1yyffdq9u0nwzZ6D8O9C8DT8WltoK6Xc+X23xbXrzn9l39ndf2dbDxPdXvi77VpFz88iyJsht4l/jf3rKzsl0KOa+FPxy8U6L8YJPhV8VrSGPX77D6dq1lGiI/tXuF1JLBePB/clwa+UPBq337RH7Yf/AAsjT4hF4F8HlbZNSk+5cqilV2/Wvq6Fd8nnu37yQVVNtpiZZaRQ23NSW7LNHPsP8P8AUVVeP7j14L+1l4/+Ifwd8LweMPCms2dlofmpZPYyQb33N/FVylyq4kfQmlWNxNYx+Wn7vYKjmXbIyHqpxXzHfah+0T4m+EqfFXT/ABRY+HtLj03+0IfDdtbr++gX/wCtUPwx8bfH39p7wbFrHhvV9I8H6bat9mEkcO6aZqz9p5FWPqGa2kWPlCMrTsrbrD5z4D7Vz615H+x38ZtX+MOm+IPCPiqD7T4j8LTeRPqUZ/16Fyv+NczofxO8c/Hb4peN9C8K+K7PwNpfhub7DD9ogS4mvX+dfm8yq51a4rHvutXNt4c0+51bUbmG10+1QSTSSH5EWud/4XB4Bk/ef8JtoPleoukrhvh/eeMPFfjfxh8P/inFp2t2+madFPb3FnBiK5Xf95q7eb4C/Cu8WOM/D3w+2/53kkskHFF29gL+i/EzwV4ov4dM8N+MNN1bUDukFrBN89eLf8FFpc/BvwMjJHNKdeREkr2HQfgz4A8J61bavoHg3S9Lv4N+ydLVa+ff22tV1n4saF4c8M+FvB3iHUrjQtYa5u5vsnyt/u1E78uo1ufX2sR/NF83/LGH/wBBNZqWM0y+Yi5FY3gH4j2/xSsru6j0y+0W8tViMyXkO3Z8tdhFCgg8rzK2TuhEcF9ui8yTrGlUb6++08DpWkYoZo38yof7NRnZ/wB58/8Az1pgZCKrH5jxUh2qiHv3pVKW7nz1JqFmDSOybtnbNAiCdUkkG9c1oS26x+GpPLT95JwKqMvzVYuLhbjTYLfHMcm+gClC032i4ed/MjI/d1X1HPlLhMy54q4w2ml420CKOmxyLYoCPLLc1aVNk5PqKcrcD/ZWoJpTDdwDGfO+SgC1I25eareMPGWl+DfBOp+I9clTTtL06Le84+d3b+BFqVuleHftG3DeLvi58GvhgWP9nahdf2vqkI+5MqfcRqiTsikeheF/Ffj3X/h1qPiWx8IWEWr3u2TQ9D1G4+drdv4p6+dZf2xPiNJ8UpPh/J8MNHk8RiVo3t47uWvsDV5ppPJunm/eR3fl18QQ2/2X/gp3cj/npcSSf99W9ZzurajR6lD8Y/i/4HlfVPEvwchk0+NP31xpd1umSKvTPhf8ZfDnxw0E614Vu8SwNsvNJuP+PmGvQtP1SfSrpHdzL82ySvgT4eagvwj/AOChmueGNFj+xaPqeqtpbwRnhIpEDUNuDWobn1qPihJpPxWTwl4j0v8Asm21Q/8AEk1SOTfDct/dau3vN8dw9q6mKZRmuA/am8Mya18BPF7W6z/2n4bddXtJI/vxPF829a2vhf42/wCE++EvgrxHPcC4u77TU+0TZ+/OvyvVp62EdFJ+7jqGOT95T5h5w8qkt7dnZ5DwTWgE3kJTlf8A07HtUcbOl0UfpjikiZpL1X/hxQBbkVcs+35q53xh4x0X4eeFV8QeI9QSzt551tbO3i+/M7V1E1xZ6bpl9qGpzfYtLtYmnu7v7uyJa/Ob9qTx14n+J3jTwX4qksZtO+Hcl+lr4bgk4EkQcb5f+BVlOXKhpXP0LnhEcgLo3mD7lSMyxrknArR8VSf8VJP/ALi1iyeRa29zNdXP2a3hiaaaeTrtWtCS6p3fNilzxury+x/ak+D10rrD46tfMjVt/mQslS+DP2lPhV8QNdfRdJ8VIL2Nfk+2x+Sk/wDu7qnmj3HY9MTNPw26vMV/ao+D9nrD6VJ45i+1+Z5PmRwP5O6vV7WFbi4hNtNFcxyJvS7jk+R127t++mpJ7AQLlXGeasRW583npXl97+1J8JbPWrjSX8a2YeBtjv8AZ38n/vuuj1Dx7qPizwsbv4Q32i+I9UST557yQtabFpcy6Ad1eTeXbQ+XzJ5q/wAqLiSG5kmgjeT51b/VV4hBrP7TWBG/hnwHf/8AXS4f/Guu+Gl/8Vo/E1z/AMLF0/wxpOneRvhg0Pfv3UlID5Y/aQ+Fdr8LPjz8EBZeIdb1WPVtSgZ49Vu/tPk7Z41+WvvTV1aTVZnX/VA818f/ALcCSf8ADQH7PJdPL/4mEX/pVHX1/qQ8zU8f7WamG7GytVuoOIYfMiFPkl/1kdaCH2+zzDinxx/f31Ba/wCsq5zQAc1H5bSXCPv49KZeSbYTUiPQBMvyNQzK7NRu3feWmfZ4o7gzIrZNICRKSkRTT1XpQBY2eXTlVd27+7SP/rKI9qN8zUgFmm+0TLtq09Vo9vmbe1WOaTAv/wB3bUi9qhibham3e9IYbvelXO6q8cyyS4Xcj/3KtKw3UASbttJHIGb5aGk3KtFuoVX+WkMazfNU9RMvzLUnG73oAVsUm6hoxTF+VW3UgLcbfKtTg1HH8yq1PqWBYixkVZXrVRKsrmpGfPFRz/6up9lI1dhnYrR9aSpfLFHligLkKyfZ5EGzEb1cqGPpTmbbQFxdooqPL07JoANppu00SGm/6ugByx1Ns+Sktf8ASKXmgZUk/d7KWlnjaSljT7lAhz/vH+SmTIsciUy4k8rZSybfkoAikqrVm+PlW1RRx/u46QHh/wC2lJLpv7N+t/ZX8rzLq0jeOL/nlur1HwX9lsvhx4Ngtf3Vt/Y9uU/4EtRfFTwTB8Q/h3r/AIcuv+X2zZIZB/BKvzJXIfA/xtZ6j8JdHj1dJrPUfD9u1lqNr5e+ZEh/jRKz2kV0OS/bH8eWvhnwNYeFU3/2h4llWN/L++lqH+evCP2ofid4D+K3wx0CDwppl9Bqnh7ZGsn2TYiWqpXa+FPjtpXjj9qk+K9c8NahH4W+yrpekGSB3Fq38EtfSvxk8WeGPCPw58St4ns7X+z/ALO1qiR2m93ZvuVl8d3cexh/s9fERviz8EfDmtXlz9o1S1T7Fdyf7SVx37Zyrcfs0avMjfvIdUtGrwr9iL4rXHwv1DU/DWvaLqUmh69Iv2eYRH5LgCvf/wBoSzl8fal4Q+FGn3Cfa9a1GK6v48f8e1rF83mtT5uaAW1PYvD0zXHgHwhdTs8kk2i2jzD/AGvJqQffq/eR29iqWULxi3tU+yQ/7i1F5cd5J/rP9WlbkjP+mVEtWbWKq1z/AK0f59aYijLFUtqv+u8yPzfMSrkUXm1z/jnxx4f+GXhufUtVkuZTJLsRLKPe4pbajPnv4P8A7z/gpV45/wBuO5/9J0rV/b7vnsv2ebeCJP8Aj+1+NJj/ALKI7V5N4H+M1h4Z/bH8QfEmXStWTw9qCzokn2R93zQba+l/HXg2D9pL9nnXbHRnfzL1vtdn9oOzZLD82yueOsWkUeSfCv8AZ5+J3xI+FfhrWo/iG2jRT2Pmabo1uPk2r9yux/ZD+PHiP4nweLPAvjG7bUtU8Nr5kV4P7ivsas34M/tPWHw/+Gth4Y8W6deaL4p8LxfZUglR/wDTdv3NtT/sZ/DPWfDeoePviJrmmPov/CSMyWVpJ9/Yz+Y1EbXXKB9Maf5UlxsnTzI33pXxD8VPgfZ6P+154M8G+H9RvdOs9aKXN55c719rabIjTHHWvi34i/GSLVv21PCfi9dNuv7D0mRLNriO3f3Xd/KrqWsriiH7XnwL0D4M/wDCK698Pri80C8Oo/2Xcyee299/8ddX+0X+y34I+HHwR1fxPbS6hJ400+G2uv7Vku3d3mNYf7aHxMs/G9j4U0PwxZ3ut3NvqP8AbF9NHbv8ij5Ursf2pPi9ovjP4F6jp9la6lLrGpxQQRQeQ/8ADWb5byHqdFqmueMfHX7EOjanol3eaj4jutGUzyeZ874fa1eJ+GvG3wA8XfC3T/Cur6f/AMIxrkdjse/kh2N9oroNO+KmqaX+xn4Pg8J29zJrmg3sVrd2/kPv5ldtldb468a/BT4kfDKZfEXhHUtJ8RPBxB9kf7Slx/cWh6/cB7P8A9Abwb8EvCmnwX1te+RFJ/p1m+7f81d4uoXEn/LZ/wA68m/Zh8Ga14A+BXh7SNdgmt7xzLdeRcffgid/kSvUV6V0R+FEsyvFlnrmrWLf2PrSaRqGfkuJYPN2LXhnhn9lnUPCPjbU/Glr8QLyXxBqnm/aZ5LX7/mV9FSR74+elJQ4p7gUrG1uI7KzS7k825SJfOk/vvVv+Jdq05fm6U+NfmVqsCXT9v7109K0vJ/2f0rOjby99XvMoAfN/F+NVJpqn8399HVaaRPtH7s45/1lABS+TUUzvFNH6irVADbYJ5M+XxxVTY1Nd/marcapFZrPOfL8x/LSgBLXrVqGGOabNUeatw/640AT+VTJvM/Gn2n+t/1lLNN5PJoAghnp91dOJYOY/wB3Swj99J/01qvqP+uoAtQ/62KvnH/goNDd3n7PdiLNHNnba3Bc347/AOea+lFi/c4rnviF4F/4Wd8M/EnhGQxganZtDb/7Ev3kqJK6aBHQtcQ3GkaG8JT7PcaZb+Xn/dr4b/4KIaVBrHxv+DVhcbvs9zAIX8v+610BX0b8D/iHceIvh+PDWrWMqeO/CsH2O70qT5HnWL5UaP8ASvnL49fDv44/Hj4j+GvF1v8AD1LG08NnZaRx3yfvAs27+lZSd4qxS3PoDU/2Dfg/qV/cWMljqH2yYMd8d21eZ/sh/EzxF4c+OHib4BapPDq+j6P9oaxu8bXh8g9K6yb4r/tM6lqTi0+EWlWMzj5NSuJd6Q/rW7+zP+yvP8GfFWp+O/F2sJr3j3WfM3tAPkt/MOXqeq5QN/8Aa2vI7H9mT4j7z8lxZCFP97fXS/BnTbjSfgp4BtLldlxHoltvT8BXnHx80+9+PPiKy+E3hj/kHR3kV/4p1nrFbLF8yW/++eK92jaCe1SO1/1Vrttk/wB1F21otZXF0Io/9ZU71B5bxyVbVfNbbWgjOuv9cKJh50ccRjpZP9dJUN5/rooqYHgf7VHja617xF4F+CeiskT+NpdmpX8nzslvu+6tT+Nv+Ccnwv1jRG03w8b3QNdskCw6kJclmHrXXfGz4Ir8W5NB13QtSXQfH3h6XzNM1Ly/kf8A2GrGjb9qPWYbnSLmfwrYxz7kbXB99B/uiueS11RRB+wv8SvEHxA+Emvaf4lvG1DUPDWp/wBnQ3cn3ylfRNisr3EDRs33vlrjfhP8K9H+C/gG08L6Lvufm+03uoScvczt99zXTXlxfWdjPLp6Qm/SJvs/2k/ularimkLqfGPwf0+yvv8AgpR8R5DBzawXTr9eM0n7XVrBdftofAlJETy3EPm/+BT10vhv9ln4oeEfjLrPxNh8e6DJq+qSMbuP7I6Da1QfFb9l/wCJHxS+K2m+OJvH/h+2vNC2pplrHay7oVHzfNWVnbYZP/wU7kLfA3THl/1ieIYkQ/3F8qSuh/aE8L6V8Qf2afBPh+91hNG1C6/s3+w5O73qwcL/ADrJ+On7O/xA+Pnh/T9J1bxppNnFayLLN/opHnTj6VU8efs4eLfiV4D8AeHdR8ZWEup+H9RUrd21o8W2Cqad3oBwfjrVP2kfhT4DvrDxrYWvjnwhJB5FyZEDukfvX1R8L/EVt4q+EfgnX7Kz+xabd6evkWcsm/Yo+WvLvFfwv+OPiq3u/DWrePtHi8J3R+zPPbx4ufKr2zwj4R0zwJ4L0DwnpzSyWGj2f2WKS4+/VQTuJk0P/HxxFVvVtB0zXth1PTLbUfL6faI99QTGS3+lXftX+gvIOqJWzEZ+paDoUmnw2SaNpsY8+PMdvapF/wCg1vXEyB2Uny6zbFUZ4ZR1xV3y/PvEWlYAeb5KnhVvLFRTJvZanZtq7aAGtt2hqFX93SwlmtEh28I1Kvy0gI1+87VLUcabFenxt5i0wFpN1IzbaVvlakBCp3TMv+zU23atNXPzMq0/d8tAEjbty7Kn3P61XSpY4/NoAdJceXsxS+XHHdolOj2USSGOdZv7tIZZk6GiOEeSh/gqRvmauF+OHxi074DfDGbxdqdjNqFrHdR23lRHB3PUjOsuaSONfs7188aJ/wAFBvg1rlhbS3t/f6XI6/MJYN2xq9a+HfxW8N/Fdbufw9PPLptrGrve3Uflw0KSYjxH9tPwzbWfi74RePtQt1k0nTdSXSdWfP3Leb/Jr3H4keKfBPwf+GOptrl3BpugTWTWMFnEd0sqyJhUjX15rxn9oD9oOx8bafrPwt+Gmg/8LC1vUofIu7oc2NnnH3j3/Csb4F/so6xoviW3134mak3i6fT4I000SOvlW0lZ9XYZ8c/s6+BdL8GfHzTdD+KlpPoPhS/T7dbWurFokmP/AC7bq/Urxl408MeA9NTWdc1uxsdFtIMrsf76hflWNFqH4gfD/wALfEzS47DxdolnrMQZtgl+V0rz7w7+yj8LfDmrWWpQ6BNeyWzb4UvbprhE+lVGLjsF7jf2c9W8VeNbPxb498URzWNnr+ob9Gsbvcjx2afKjbK4v9pjw9H8Wv2hPgf4EiG5rKSbW745x5cC4b+lfRGsTagNMu30tYftsMDfZI7j/Vb/AOGuM+E/wrf4etqev61f/wBvePNfK/2nqnZF/ggi/uJTcdLCPRb2T7RqFxL/AAMflqLbS87dtKv92tBELbvOX021nRSC1upR+NakmeKz5JP3lUBJa3Yh8mQv5WR0r5mk/ZE1fw/q3iDxXonxav8Aw1cXty1zfXeESvoq8P8Ao8lUta8MWHirw1d6LqkX2q0uv9dHUyipAfm94b8L395+2Nrlja/FV7S88n/kco5EzPm3j/D/APVX6NeG9EvPD/h/S9N1DWrnXpLW2WCfVrgfPPXEyfsv/CGOaCKHwVaxyw+gr0SNEjhWCMfu4ESNP+maLUQi47jbPkv9q/8AZdtPD/w7/wCFj+CZJD4i0a6/tHULiU/vp4qm1z4waR+1RYfBTw1pN55uq3WqDV9ftY32YW0i3NvNfXKSRNZz2l3bG9gmiZJoJB99GrwP4I/sp+E/gd481jxZp11c6hqFzHPDbQXAQJZq5/h9aTg76bBc9nlUaxrlxOStvG/38/KsSLXyX44+N/hT9oT4gT+BJ/FkPhL4W6W2/ULzz0hfVpa+p/E2mWniPQrjTLxPMt7mN4X8r5H2mvJLX9jP4Hwo2fDF1Kf+ms+aqak9ECINc+PXgbwxJ8Ovhf8ACO703UZNU1a2gdNPO+K2td/zu3+1XteoRpa3M0YfzI0bZmvMfAP7Ofww8A+LLHxFoHhc2+p6dukt2kvHfazLt316QxaSRnfly2acU1uJli8j8q1gOzqM18xf8FCrqCH9nqwtGdPtN3q8ZSP6df5V9MTXLzqiSPn0rz/4nfAXwD8WdWtLzxJpt3qNxawLAv8ApDom2nJNqyBEmo6nYeGf2P7+aO4t5Y7XwGsaRxTp95bZF/niuD/4JuX8S/APT1e4QSQ6zPxW5efsv/D280v+ybfT9SttL/jtY7v5JK3tD/Zb+HfgW1vI9Dk1vThNHse3iu8qm78Kz5ZXTHoeD/8ABPfVF/4aA+M0STL+9VnX/gNwaztI+Afgv9rHxZ4l8TeGNbk8E+LrHUJEudMtPmG5Tt89f/rV7l4N/ZV+G/w81pNc8Pxa1Dqkbf6/7XWHL+xr4Ds57jU9M1HXtK1ySdrr7ZHP8/zc1HJK1mh3MT9nTT/iB8M/j9qHw28a63beJ7D+ym1GK+xubZX0m3765cjua4n4X/CfQfhdFd3Vo95q+v6pEqXesapP5txt/uV3Nv5n2abZ/eGa2gmlqSy9p0iSxdMGOp7jUrmzuAI5Xjh/6ZiqFqsaxGXuKWWUzPGT/wAs0+erA0LW+n1KGTz5Wk+lJp+z7PJGE4D1S01t1uR/t1cjkoAfJ+52SUju8kMjyf8ALR6r3VzvjVNnkmMeZ+uypftT/ZN3egDM1Ii8liI5yKjkX7uznZT6dNbJbwjL5mz0piKhYNI3X8aRehpF70PIsa73bA9TQISReKXcWXdmmySJtXDUsCkIFPJoAr7mSchBxt31ZYBlZguQo3VSmZrcJG/Mvk1ajkYW49WXmgZXu/tMlrmxRJbjPyCTpXg/xea48LftbfA7xLqL+fHfRtpEn+wd+3+te/2LO0KvMnlyN1SuI/aC+GrfF3wnc6LDOLLWdH8rUdLvY/vwyqm7ZWc1daDR3E4YPNbP+8jjeviw2cl7/wAFOz/0zm8x/wDgNvX0P4G8U+MPiB8HbqxdJvBXjy122NxqGowfJ5v8cq15FH+xv8QLL4mf8J9H8ULT/hLN++a/ktSyO1RK8rWQ15n1PZ2Muoak8C9I5mdpP7iL/HXwR8K4V+Mv/BRHUfEeml30uz1WXUGkx/BEu2voLxH8D/i98QLZNJ8S/F6MeH/m+0w6LZfZ3da9F+Dfwb8JfA/w5daV4ZspDcXrL9r1K8+e4moac2tNA2JPj1qUlp8Avi5czN5c76TJ/LFcr+zDoFxo/wCz78Pre8P7z7HLdJH/AL71m/GW21H4yagfhZ4eWaPRLS6jm8Ua1s2KkSf8u6/33avZbiC0s2s7XT4Ps1ha2q2tvH/cVapayuHQryR+bJVtPuLVerdrCZMAda1JKEd0j6pJH3xVlWKs23/gNU9H+ZriX/no9X9vVqQHzH+1x8ZUuPFmg/Dp9P1OTwPHPBe+IrvT7SV5rn+LyGryD9sT9ofwb8TNM8A2XhTT7/T7Dw/qGVgvIPs3yKifdr9DLWRJ43juvJMb/wDPWPf92vjX9pn4R/F/4761ov8AZ3w8sLDTNFnbZNFdRI9z/nmuecXqWj37wB8c/Cvx2udR1Dw8955lrFHu+2wPDmu3t3JbLpjdXH/DLUvEWqeH5p/Efgm18E6hBL5Pl20yS/aVX/drr5ZJIrO5kgt3vp4YmkS3i+/Jt/hreO2pJ8QXXws0HxV/wUibwzqGmW76G87XP2TZsSTZb+bj9P0rf/4KLeAdAh1/4XXOn6Zbaa+pTNYzCzjSH5RL/wDXqGz0f4qf8NYf8LmT4W65HpG5kW03xedsNv5daf7Vdp8Sfjlr3hK18P8Awz1ZLPwvOLt3uHQ+c7kN/SuXSzLPVf2rPgz4C0z9mvxUuleEtJsrvRLKH7Ne29oiXHy+9Zf7O0GreMP2D20rT5t+sXmkalZWc0k+zZ7VB8dPiV8QfiD8FvEfh6w+C/ibTtQ1e3WC4upSjxJXF+C7fxv4b/Yv8UfD+68I61onijSU8+2kMf3/ADLhG+Wquua67C6HMfDX9orw98FfAq+Afin8Jcy2yy2pvo7FP3y+59a+j/2Obfwla/CPVJvBOr/btLvNUkm+y9Xst67vKZK5vw3+0BqGleDU8IfGT4Z6xcauYPsq3Nnpv2yHUF6Vrfsj/DG8+G+heLdWutCk8OW/iTUvtVposn37O3T7m6nHdAz2zHneXU+qRtdXkItpmt5Nvl+fF99Kp+dJ61c0/wDfS10Enhfjv9kGw+ImtWOsa/8AEjxRqGp6e260muAj+S2c/Kn1r1P4beELnwXo8mn3OuXniS43+Z9qvI9j10EjZhip+mrsuN6dKlRS1QCWkvnTVe8sVGIX+1SSdqkjj/0jNMB8cflCpP4aj8z93TkegBxzHG2F8ySk2Ub6dzQAiVJTYf8AV0UgJESk+b+Glh+41PXpQA5d275qVo/utTY/vVYufu76AHQrGki/PVhk+eqcP36uVLAtRUu+okmp+7zEakUQI/76rkcm/NU0SplfZQIuL90U6Fvv0sf+rFPVRt+WkMWkamx0+kAzn5d1G5mp20elNb7yrTAtqwVRUqfMoqvVlegqGBIoq4nzMOKqJ0q4vY1LGfPsm2oeasSd6bsrsIK70U50+eh0oAjpkcnapGKx1WoJJZJMSU7zEqpJ/ratQHzIaBi/6ynbf71Cr/HQ1AhYafsWn+T5aJR5dBRHJ92ofm+V6tN+8Wqk1x9xKBC7TTfM/effp0hoyaAG/L9ym+X5dTQr89Om/hoAzr2PzbfZ/qvn/wBZXHyfDXTI/iFD4mtbi5jd49lyn8DvXa3kf7o1UyalpDBtP0zzIfL02y/d7ZE/0dKhv7ODUrh5L2zhvvn8zy7mPfVqON6l/wBbG4pgVI9L0+5+R7O18uP7n+j/AHKwfBfgzTPAd3qNzp6eZruoSM93q1x87v8A3EWt2NpDTPK/eUrICaOOp+abUkUf72qAktajvo8yR1Zh/wBXHUU3agQy1+6Kgks0/wBZOkMvl/c/jqx5b1BLav60gG21x50f2f7Na+X/AM8/s6VZt2Gmsn2VUtoo/wDlnHHsqCKJ4pafGfO30ARfY7XUtk97aQ3Mkf7xLiSP50qcXDXMkgkfzfLptrHt/d0ljsil/wBXigAtKalvaWH7uCyhj/65RolS2v8Ax51FCRMtAElva2lu/wBojsIYriT77+X89W2hijkV44YRIn+xVMxObmCSPpV7Pz7KAJo7eGKP/j0h++snSm3en6deyW88mm6fJcRt8k/2dN6VB9rKXfkbucVYegZNdXDzOu+V5aZCg/jbFR80js9MCbbtWo6l+9HUK/xUAK3y0QbpJaJpFjhLucCljoAkqzF/qqrZFW5pPJuZU7UAJ/y2/CmyW33PL5zU3k+9QyXCmTPagBLrb5xxSed/nNXLqPzY+PL/AAqn5P8AnFADZlFvHNM/+rjX56nt5INV0OGSPfs34Smspuo3R/8AV3H7urVoyJpqwdzSAjmhkg8up4aNr3kqeZ/qY6msY/MkzQBDDF++p1JNvhv4/K/uVa+TzfKoAqUyb/WxU+ovOHvTA0pv9Waom8EMuIuakmlFV4YKAGz6Pp0niKz1z7JD/biRtB9q/i21amuLmL/VtIfwqx5KTQ/vRVakBJa3sk0rxyM+X6cVp7vdqqx6eltIT5pl+tWvvLSAqWljaaVC8VnbJbJcy77jyx80z/7VWd3l7URfkpJhv20J96joArYpLFPkkbfnvTlRfustLvVGZf4VoAptH5dw59az9SVzfW7dPMTZWpcSKBzWLfXCtdJIr5xTA19P3/aIs+laCtWNa6hbtdRfvj0xWt93LUmBa/1kb1HcDy4hVu1ZZLL5F8zf/HUWoR+WqLUgZjTb2pn+sZ3p0q+WN9LD/HVgYV1dGWSf0qLT2MVyzp12mrkkKTS3HldapQIXUunUUwNSbtUX/HvUtVr2X99HQBYvsTWMs8fSotBmb7IsU5/e06wj8qMxyjrVlf8Aj4g8vp3pAWtiR0q/LKtVLxR9qik/Crr/ACMu3+OgCXIpG/vUqioIpDcfa8p5SJPsi8z+NKkCczCOSNC2C/SpFYo2R1qvJbpJNFIV+eHpUy0AO42mooJNyt8tDN95afE22P7v3qYCUSfLin1HMnnUgHRttWntUSptWrFtF5jYoAWDqKm83948lV0/dyU6aRIduEcH3oAn+fzE8uovO96sx7La3qpB1pDL0e+ovEHhnR/GnhnUfDuvWMeoaTewtHPbyDIIPep7TiNqtqVWOpA+Jbj9iLxf4BuGHge40HV9NhkZ7e01zP5Guhs/2YviZ8Q4o7D4l+NbbRvDcYX/AIpvwjB9mt3/AN5q+r2fzKpXjHzGTtUqKGct4X+HPhbwJpMWk+G9JttK06Hb/wAeyfO+P7zVuwL8vzfxNuqfZ8m37iJTGrUkaw/iamMPlqWQdKhjuEkZ9h8wp1oAcqlqcyjcNtMX+Jmaplc/d3cUAM9KN1O2n0pj9KAGs2Kp3EaeZViqkmftUcmf3VUBRuvM+2ir0cnkxCormobzf5MUXemA37Mn2h5yflk6VYpZEFmojHSlhJa0vJpP7vl/lSAbWFLHJHjeCEP3a2vKeGGT93/yzqnfR+ZpdgN+fJZuP96mBnlSy0qEqpqe1mWFvM7ipJrVra+uIXP7xKBFfjkcVTvGZfJKug3HHNW5HMbbA+z5dzVnW87XLQj2zQBZX71Iqh2yh4q3HH57Ov8AzzG+q6YikZPxoALWBv3pfEf3a0riYzW8Xnj6S1U30PQMfDZmz0ve7/uzLv8A++qcwjkmt/8AnmuA/wDWnfvo7GPKfut/yGoVdvMD7vmznNABdbPOfyv9XnjNOhkMDoSeKR48fSkW3NxcZA+agRc8j9znvTLOMXTP5hPSrM8Hn45qO3PlopPHllDQM0Y/L8xI404plr2/Cktdn7zL/wAbx1B5fm3WLd5PKj/1nNAFqIi8hk9DVWb99eAdsVYtRgCPNR7v+Jh5XtQBWmz9o/CmzDdD5vekuP8AXTVBIX8sZ6UAR2sfnTonRSaiktWa72OnypUsUhikVvSrcM3kzRyk9aBGJq8ayXdoY0/5aLVtW+ZvrRtHnM2OaXvxQBU8QSZmsh0+dI3qUZ8hV21R1e1Z3gdR+8D1Z+1Ju2d6QyfdtVtv3qossskguJB+99KtSTeX1p0P7yFD/eFMQ1flYsxqCUJLJHT5iYyix/fL/P8ASltY184O/VExQAv+pjSOrK5253VXmV32BD95qsXSi1vBak/vNuaBESR7ZHYfu0dvMf8A229ahmXzLqH58fKasvTdnyLSAa1Sruh2sDSeXQzUwIV+WV6uN5H2PO4+dmqkZ3SGpFoGWArtDEnqeKit7ie0b5ZnFSvKTOsnfrUUn3jQBG2dzLu+XNC/K1R7D9rJ/gYVMq/NmgCz/aVxHHs85vL20tvfXSw4Ez7Kru3y1Lb/ADCgDR+3z+ds/wCWX0qh9sm+2SsJXEj0lx941HDCSjt6UAaVvqt1HIXeUSD/AKaVUlvZrrd5j1D5nlyUqthd1Axf7taOnyfvv+2dUfL/AHeantcw80gLc0NGn+ZzVqWIZ8zvSxRYpAVdQkE0UdWo5fNk4rJuHykw/wCeZq3o873Eav2FMC95Yp6fu1pGqK9fbZyP7UgJt6yU/ZTUj8tEpWoAFFPqHbUq7ttICULt+WnJTo9uxqaq/NQBOkO76UPu+VDTFpGZvMXav8VAE3lVZj/eQpVMIZKuQ/u7XY9JgNX7jVKlQSSJ9ypI6QEkNWFXFRw/cqVfuikUT+Z+7WpFb5aiX7q0+gBVb5qkqJWpytSYD6T/AJaLRzRt+ZaQE7NirC9BUEdTw1LGSpndVtCKrRrmp4uCy1LA8EuI/wB5TJI6seX+8qKT93XYQVkop9MoAZMlVatUeTQIgng8yPFJsq3SbKBiwwf6Cn+/SbG2VJ/yz2VNbxv5dADeajkqb5qh8ygCNqglq2yrsqDaPSgQ3yxR5YqVWpdlAEVv96pXpVi2NSPQBGyfeFU5OlXf4qa8PmUAVKPMFPkj8uq8f+tegZXPWnVLNH+78yq8MuKQE8dWqqxDyeam8ygRLHIn3KfzTadzTGRJ/rKsunyVW/1klW6BFC4lPmeXH1qa3j/d0eQ336dBQAkmy0GarRxVZvYvOWnWa7w596AI47cCTOKPs/7t6sUq/wB7bQIrQnzJESrX2ceZvWl8upoY88UhlZLFP7Q+1O75qa4+Rafu+9Qy/nTGMt1WRakS1Hz0W/3vu5qePZiTrQBVjb5Wpsa7qkamfdoAhuI/3yP6VJbq2wZpJolkkjc7vMj+5U0a/L81AAylttWbqZZrnzB0qLyzS58uNxQBMZDJH5hk5qvI6y3hTf3p6osduh7yU6OGL7Z9qx/DQBr1lXX/AB+P3jjNX4bpPN/7Z1BJsvLmSTy6QDzmbSEHWTfSw+Z5Mvm1PD/x6+XR5fnxSCgCrNN511F5VaMcPk7/AC46hhiSCpo5T5n7zigBk0Jqrp9ofMeSrU0dJ/x5igCKb9z5tUIpf337ytyZf3Ej+1ZVrZeZeJ6daALn2WCaL95SWtiy9TVm4jX75fj/AJ51FayeWCKAEGId8dCxiS4jPtTJgOKls/IuNPaaMSROk+ygC5SrSI5lant8qtUgNVVZt/8As0L+7DbV3/LTUYrCvy/PU9vb7Y9zvTAiVfm3M1Mk/wBY1OpLf95KqUAZeqM5hdPL431i3bLHayybeAM1ta0xjuijcSR8iuZ12ZBYldr88UwDwnK2oX373955B8zNd54usH/sFXtzgo8Zd/UVxngm32vG/wDz0ya9F8XSGHw+6qvzNtH61L6AZHgO3uLewuLFod8Mcv8Ao86few1buqxiPC/x0nw9hRdHWaM+YjKuX9Wq1qim5yW/vVPUfQ5+aGT7LL5a84qrbxmK2HmcybK0pI/LrHupnhnfHTFWhFCHzPJHldasW9l9nt0Q9SasWNt5NtzTfN/dR1QFaq0TPLdIUTzZd+as+QPSrdrQBFNG0l0I40xKEeT86dFL+dWh+7jlk/2c1Sh/1ApATX/EBk9Klt5kkVcf9c6dtHl7KkjjRQiIuBQA5Pk3U7Ip3y7d23bRtHpSATb8q0Lu89f7mKXb+7FIy7VpAJtXzWapVXatRs+BvbhFWpLd1uIVdH4NADPnjeb58pu4p+RRwzNTloAYud1S2jeWjJjzPmpi53VLGnlyUALdZ88o9EKtAvzM7yb6Y6+ZNU93s3xbGpAEm+SOnx248v8AeU26bbCHqWTfQMezNvgiRmRP4tlSySN9oKe9ReZ9ypvvNupAKfvVn3EbRyVYupGjHFNe42BUf93I60ARZPtVeSPy6lWMlMu3mSVB9+mIcyrVeGFLdX2DYHO9qnpslMCJfvKrU9flal3dKSTs1AEjdqjm2lQtLuqN2bY22gBlVdSm8lc1aSq18om2RnvVAY6zHd1qS78793sjx9KjuofJm8sVfamA6ZZpNkn+qk8rYZM1BbwXIZIDL5dv/HVi3USOkcfQVNH+8c+YP4+KQC+Ynzx/8sq55lMbMh61vR/vvMrJvI0E3BxTArf8s6fdXBuLmWX+8ajoddpoEQ+Wf4arwwssxXtVwLtqtHG0Mxx0NAExx2qNl3ToakX5lqXEcdwkiJ9wd6AHf8tqI4801KvadE5keQSYxQMniWH7NHcSP+79KyEZkywODWrIvm6X5f8AzyfFZsi7WoAmaP5Izv8A4M0kef3kvpQ1w8kbjaDnkmkj3+WcdKAJf+eflf8APTipAyQzSydapyMyrgnik8Va1daX4Xl1K3s/tt5B9yDy876QGlpcbG2fH9+rscf+srifg74r1Hxl4XvLnVdMbSdVgl8vy/4HrvIpPO/eUJ3ArRU6NU+1ea/XFSSR+TGlMpgUre3dpZh0w/mebT/3dxDTkRrq+n/eY8yP5DVawutyfOnlSR/fNAFSSPEmKmh/fcUv2WSaiKMw3Hl0AV4WR8zx8xpMyfitRcq2RWhZrDbx3WY8Su3mYqhgsxbPNAiKSMXFqwP+sEgdDVe8tlmS3TYPLR84q2zbl4prRsq7qBlWYeYPu+XUsbN5KL3pxXzo/aiaItEU3Y96AGSU22gMe9nOSaeqbCoFPVqCUOSo/LH2xLr/AJbA9akVqF+agY1vvU75ttR+WJJvdKmWP5d1AgUlVpslPUELUakSsy0AMX/X/wDAaltUCzBX6UKtPt8yXsjRjr9yOgZYmCxT23mdMDNVW+ZqsXWZJYIP+efFMuI449mDn1oGVpPlb5uKkXO0Usx86XeEwi/pSZFAhGoSnxJF9nmycSKq7BQV2xqtAwLFqFYsuxfWprdkkkZCnXpUcTbUKUCGTRuFVf77VZuI4o448ck9abDv8wYqTyvNhFAx7f6mKrXk1WrTpASx9KUyeWFc9KTzBUV1J/o/H96pAoTR/wClf+jKv2cieYYl/wBXHVfyvJlkq5BAGZEjTAkpgSsvzVHHDtgx2qTymRvnapKAGeY1IvWlahV2/eoAH+9UyUyn0gJF+6KX+KlVaTdtagCSOPNLMPLNEP8AF9KT/WSUATR/6tKd/q46bB/rHqSpAi8vzKnoRKd8sdAElrH5aVZhX5arW27a2/8AvVbh+WkMev3RTqRaWgYm6haWljoAkXNSpSx420u0VAAud1TrlajT71TJSGTQ1OvSoIanpDPD6h1L/lnRRXWZlWon/wBW1FFAFaP79aNx/rDRRQIZJGPlp+0eXRRQMikqZP8Aj3NFFACf89Kr0UUAS1B/FRRQIVad/HRRQMlQ0T/6tKKKAIH/ANYo7bqnmjFFFAjMuO9V6KKAJpf+PM/Sq0ca/exzRRSAjhUVY3UUUDLKffpz0UUxISx/4/6mu/8AVyf7tFFAC9lPeo/+WzUUUALnFOtf9W31oooELSnmiigoljqaD5ZAR1oooAiWloooAdH96pY/+WlFFAFb+9TKKKACnp96iigCxDSeYaKKAHso8mP3qL/lp+NFFAFy1UKJMVa/5YUUUANmY7sVY3UUUALTvMNFFIBYqfIoby8/36KKXUCWoV+WU4oopsCdutNaNW6iiikBXuIVccjvVlzt0u3x2bj9KKKYCQ1Mp+U0UUmA1KsUUUgGy/eU+1UrH/kIWY9G4oopgZ+sQr5lzNj5/NAz+FYN5GuzGP4qKKYGv4TiXzoOP4a2viBMy+APEsoPzx2c20/gaKKmQzmv2f7qabw5JvlZv3EfX6V6ZNzHRRUgZF795qoTfeooq0Igt2OKo0UVQEmsN5Mdts4xVmwiUQqcc0UVPQB9u3neYG5FOl+XpRRT6gEf+rFSr0oopAS/w0JwtFFIBFcyWqFuuKkm+Zo0P3QtFFAHO+O7iS30YmORkJKjg10dvbpbxxRIMINuBRRQAKgjXC8CiiigB6VZ3H7PDRRQBHH/AKyj/lp+NFFACXXzdf71WZP4P92iikMP+WclXUFFFICpcf6wVWuXLXy0UUwFb/VvUSfdWiimAyiaMfLRRQDGyUs/NulFFAiOkb7poooAjSov+WqUUVQHO3HzXE2fWtG1/wCPWD8aKKYFxOOlNh/49193fP5miigCOL/j4krOvP8Al4/67GiigCp2pZP9XRRQIKY39aKKAGQtnzP96pG+8aKKBgtSkbZMjrRRQA6GZmjIJpJ1CvgUUUALH/y0o/5Z0UUALH/qZK1tK/1C0UUAVYv3H22JOE3dK0NHQLp6470UUgH3n+rj/wCuifzpfJXfnFFFIBLWNVuXwOijFZ1/CqXNoAOv+NFFMCFZncSkmqcP3vxoopiLM/3jVVj5MkoXgciiigCvHxDEvZVwKkk+6KKKAG0r96KKAEqrcMbe3d0OD1oooALe4do+asL92iigOoL95qloooEL/jUUPyy5oooGPXpRtFFFAySAnzh9ak2j5KKKBEVx/r2pi9KKKBiLVh8mO4lz88USbPbpRRQBDD94VPH94UUUCJP+W9JD1/CiigZZi/1gq/MooopAFP8A+WdFFSAxvmmGasJ9+iigCWk20UUAM3U9BRRTAX+KnLw1FFICVfuihv4aKKALMS0qIPPbiiipAmUY6U1RukeiigCXbSvRRSGWKloooGPjpzfeWiigBy09fuiiipYFiH/VtS0UVLAkj+9UkfeiikBItWY/uiiikUf/2Q==;" vertex="1" parent="1">
          <mxGeometry x="-760" y="200" width="520" height="225" as="geometry" />
        </mxCell>
        <mxCell id="J20eFiYMzJtl_OIaUztq-7" value="$$\text{Since the pulley is frictionless and the string just passes over the pulley, , the tension in the string is 0}$$" style="text;html=1;align=left;verticalAlign=middle;whiteSpace=wrap;rounded=0;" vertex="1" parent="1">
          <mxGeometry x="-760" y="370" width="410" height="180" as="geometry" />
        </mxCell>
      </root>
    </mxGraphModel>
  </diagram>
</mxfile>
